<?xml version="1.0" encoding="utf-8"?>
<!-- Generator: Adobe Illustrator 21.0.0, SVG Export Plug-In . SVG Version: 6.00 Build 0)  -->
<svg version="1.1" id="Layer_1" xmlns="http://www.w3.org/2000/svg" xmlns:xlink="http://www.w3.org/1999/xlink" x="0px" y="0px"
	 viewBox="0 0 56.5 54.6" style="enable-background:new 0 0 56.5 54.6;" xml:space="preserve">
<style type="text/css">
	.st0{fill:#3F51B5;}
	.st1{fill:#FFFFFF;}
	.st2{fill:#FFAE0D;}
</style>
<g>
	<g>
		<path class="st0" d="M37,39H17.3C7.8,39,0,31.2,0,21.7v-4.5C0,7.7,7.8,0,17.3,0h26.4c4.2,0,8.3,1.5,11.4,4.4l-5.4,6.1
			c-1.7-1.5-3.8-2.3-6-2.3H17.3c-5,0-9.1,4.1-9.1,9.1v4.5c0,5,4.1,9.1,9.1,9.1h19.8L37,39L37,39z"/>
	</g>
	<g>
		<g>
			<path class="st1" d="M52.4,7.4c-1.3-1-2.8-1.7-4.3-2.2l0.3-0.6C49.9,5.2,51.3,6.2,52.4,7.4z"/>
		</g>
		<g>
			<rect x="28" y="3.2" class="st1" width="10.2" height="1.6"/>
		</g>
		<g>
			<path class="st1" d="M17.8,4.9c-0.9,0-1.6,0-2.4,0.2c-0.8,0.1-1.6,0.3-2.3,0.6C11.5,6.2,10.1,7,9,8.1L7.9,6.9
				c1.3-1.2,2.9-2.2,4.6-2.8c0.8-0.3,1.7-0.5,2.6-0.7c0.9-0.1,1.8-0.2,2.7-0.2C17.8,3.2,17.8,4.9,17.8,4.9z"/>
		</g>
		<g>
			<path class="st1" d="M4.9,16.5c0,0.8,0,1.7,0,2.5v2.6c0,1.6,0.3,3.2,0.9,4.7l-1.5,0.6c-0.7-1.7-1-3.5-1-5.3V19c0-0.9,0-1.7,0-2.6
				L4.9,16.5z"/>
		</g>
		<g>
			<path class="st1" d="M12.2,33c1.5,0.7,3,1,4.6,1.1h5.1v1.6h-5.1c-1.8-0.1-3.6-0.5-5.2-1.2L12.2,33z"/>
		</g>
		<g>
			<path class="st1" d="M32.2,34.6c1.6,0.1,3.2,0.2,4.9,0.3c-1.6,0.1-3.2,0.2-4.9,0.3V34.6z"/>
		</g>
	</g>
	<g>
		<g>
			<path class="st2" d="M39.2,54.6H12.8c-4.2,0-8.2-1.6-11.4-4.4l5.4-6.1c1.7,1.5,3.8,2.3,6,2.3h26.4c5,0,9.1-4.1,9.1-9.1v-4.5
				c0-5-4.1-9.1-9.1-9.1H19.5v-8.1h19.8c9.5,0,17.2,7.7,17.2,17.2v4.5C56.5,46.8,48.8,54.6,39.2,54.6z"/>
		</g>
	</g>
	<g>
		<g>
			<path class="st1" d="M4.1,47.2c1.3,1,2.8,1.7,4.3,2.2c0.8,0.2,1.5,0.4,2.3,0.5s1.5,0.1,2.3,0v1.3c-0.8,0-1.7-0.2-2.5-0.3
				c-0.8-0.2-1.6-0.5-2.4-0.8C6.6,49.3,5.2,48.3,4.1,47.2z"/>
		</g>
		<g>
			<rect x="22.8" y="49.7" class="st1" width="9.7" height="1.6"/>
		</g>
		<g>
			<path class="st1" d="M42,49.4c3-0.7,5.7-2.5,7.4-5l1.3,0.9c-2,2.8-5,4.9-8.3,5.7L42,49.4z"/>
		</g>
		<g>
			<path class="st1" d="M51.6,35.5v-2.4c0-0.8,0-1.5-0.2-2.3c-0.3-1.5-0.8-3-1.6-4.3l1.4-0.8c0.9,1.5,1.5,3.1,1.8,4.8
				c0.1,0.8,0.2,1.7,0.2,2.6v2.4H51.6z"/>
		</g>
		<g>
			<path class="st1" d="M42.8,21c-0.7-0.2-1.5-0.4-2.2-0.5c-0.8-0.1-1.5-0.1-2.3-0.1c-1.6,0-3.2,0-4.9,0v-1.7c1.6,0,3.2,0,4.9,0
				c0.8,0,1.7,0,2.5,0.1c0.9,0.1,1.7,0.3,2.5,0.5L42.8,21z"/>
		</g>
		<g>
			<polygon class="st1" points="23.6,19.9 19.5,19.7 23.6,19.4 			"/>
		</g>
	</g>
</g>
</svg>
