<?xml version="1.0" encoding="utf-8"?>
<!-- Generator: Adobe Illustrator 22.0.0, SVG Export Plug-In . SVG Version: 6.00 Build 0)  -->
<svg version="1.1" id="Layer_1" xmlns="http://www.w3.org/2000/svg" xmlns:xlink="http://www.w3.org/1999/xlink" x="0px" y="0px"
	 viewBox="0 0 161.8 60.2" style="enable-background:new 0 0 161.8 60.2;" xml:space="preserve">
<style type="text/css">
	.st0{fill:#3F51B5;}
	.st1{fill:#FFFFFF;}
	.st2{fill:#FFAE0D;}
</style>
<g>
	<g>
		<path class="st0" d="M37.6,39H17.9C8.4,39,0.6,31.2,0.6,21.7v-4.5C0.6,7.7,8.4,0,17.9,0h26.4c4.2,0,8.3,1.5,11.4,4.4l-5.4,6.1
			c-1.7-1.5-3.8-2.3-6-2.3H17.9c-5,0-9.1,4.1-9.1,9.1v4.5c0,5,4.1,9.1,9.1,9.1h19.8V39z"/>
	</g>
	<g>
		<g>
			<path class="st1" d="M53,7.4c-1.3-1-2.8-1.7-4.3-2.2L49,4.6C50.5,5.2,51.9,6.2,53,7.4z"/>
		</g>
		<g>
			<rect x="28.6" y="3.2" class="st1" width="10.2" height="1.6"/>
		</g>
		<g>
			<path class="st1" d="M18.4,4.9c-0.9,0-1.6,0-2.4,0.2c-0.8,0.1-1.6,0.3-2.3,0.6C12.1,6.2,10.7,7,9.6,8.1L8.5,6.9
				c1.3-1.2,2.9-2.2,4.6-2.8c0.8-0.3,1.7-0.5,2.6-0.7c0.9-0.1,1.8-0.2,2.7-0.2V4.9z"/>
		</g>
		<g>
			<path class="st1" d="M5.5,16.5c0,0.8,0,1.7,0,2.5v2.6c0,1.6,0.3,3.2,0.9,4.7l-1.5,0.6c-0.7-1.7-1-3.5-1-5.3V19c0-0.9,0-1.7,0-2.6
				L5.5,16.5z"/>
		</g>
		<g>
			<path class="st1" d="M12.8,33c1.5,0.7,3,1,4.6,1.1l5.1,0v1.6l-5.1,0c-1.8-0.1-3.6-0.5-5.2-1.2L12.8,33z"/>
		</g>
		<g>
			<path class="st1" d="M32.8,34.6c1.6,0.1,3.2,0.2,4.9,0.3c-1.6,0.1-3.2,0.2-4.9,0.3V34.6z"/>
		</g>
	</g>
	<g>
		<g>
			<path class="st2" d="M39.8,54.6H13.4C9.2,54.6,5.2,53,2,50.2l5.4-6.1c1.7,1.5,3.8,2.3,6,2.3h26.4c5,0,9.1-4.1,9.1-9.1v-4.5
				c0-5-4.1-9.1-9.1-9.1H20.1v-8.1h19.8c9.5,0,17.2,7.7,17.2,17.2v4.5C57.1,46.8,49.4,54.6,39.8,54.6z"/>
		</g>
	</g>
	<g>
		<g>
			<path class="st1" d="M4.7,47.2c1.3,1,2.8,1.7,4.3,2.2c0.8,0.2,1.5,0.4,2.3,0.5c0.8,0.1,1.5,0.1,2.3,0v1.3c-0.8,0-1.7-0.2-2.5-0.3
				c-0.8-0.2-1.6-0.5-2.4-0.8C7.2,49.3,5.8,48.3,4.7,47.2z"/>
		</g>
		<g>
			<rect x="23.4" y="49.7" class="st1" width="9.7" height="1.6"/>
		</g>
		<g>
			<path class="st1" d="M42.6,49.4c3-0.7,5.7-2.5,7.4-5l1.3,0.9c-2,2.8-5,4.9-8.3,5.7L42.6,49.4z"/>
		</g>
		<g>
			<path class="st1" d="M52.2,35.5v-2.4c0-0.8,0-1.5-0.2-2.3c-0.3-1.5-0.8-3-1.6-4.3l1.4-0.8c0.9,1.5,1.5,3.1,1.8,4.8
				c0.1,0.8,0.2,1.7,0.2,2.6v2.4H52.2z"/>
		</g>
		<g>
			<path class="st1" d="M43.4,21c-0.7-0.2-1.5-0.4-2.2-0.5c-0.8-0.1-1.5-0.1-2.3-0.1c-1.6,0-3.2,0-4.9,0v-1.7c1.6,0,3.2,0,4.9,0
				c0.8,0,1.7,0,2.5,0.1c0.9,0.1,1.7,0.3,2.5,0.5L43.4,21z"/>
		</g>
		<g>
			<polygon class="st1" points="24.2,19.9 20.1,19.7 24.2,19.4 			"/>
		</g>
	</g>
	<g>
		<path class="st0" d="M72.6,35.3l1.4-0.3l-1.6,5.3c-0.6,2.1-1.2,4.5-1.8,7.3c-0.3,1.5-0.5,2.5-0.5,2.9c0,0.4,0.2,0.6,0.5,0.6
			c0.2,0,0.6-0.1,1.1-0.4c0.9-0.5,1.7-1.2,2.5-1.9l0.7,0.8c-1.6,1.5-2.6,2.3-3.1,2.6c-0.9,0.6-1.7,1.1-2.6,1.4
			c-0.5,0.2-1,0.3-1.5,0.3c-0.4,0-0.6-0.1-0.8-0.3c-0.2-0.2-0.3-0.4-0.3-0.7c0-0.2,0.1-0.5,0.2-0.9l0.8-2.8
			c-1.2,1.4-2.6,2.7-4.3,3.7c-1,0.6-2,1-2.8,1c-0.8,0-1.4-0.3-1.9-0.9c-0.6-0.8-0.9-1.8-0.9-3c0-1.5,0.4-3.1,1.2-4.9
			c0.8-1.8,1.8-3.5,3.2-4.9c1.3-1.5,2.7-2.6,4.2-3.3c1.1-0.5,2.6-0.8,4.4-0.8c0.4,0,0.9,0,1.4,0.1L72.6,35.3z M70,38.5
			c-0.8-0.2-1.4-0.2-1.9-0.2c-1.3,0-2.4,0.3-3.3,1c-0.9,0.7-1.8,1.9-2.6,3.7c-0.8,1.8-1.2,3.6-1.2,5.4c0,0.9,0.2,1.6,0.5,2.1
			c0.3,0.4,0.7,0.6,1.3,0.6c1,0,2-0.5,3.1-1.6c1.1-1,1.9-2.5,2.4-4.5L70,38.5z"/>
		<path class="st0" d="M76.9,40.5l-0.6-0.8c1.4-1.4,2.7-2.4,3.9-3.1c1.2-0.7,2.2-1,2.9-1c0.3,0,0.5,0.1,0.7,0.2
			c0.1,0.1,0.2,0.3,0.2,0.5c0,0.3-0.1,0.8-0.3,1.6c-0.3,1.2-0.5,2.1-0.7,2.8c3.3-3.4,5.9-5.1,7.7-5.1c0.5,0,0.8,0.1,1,0.4
			c0.2,0.3,0.4,0.6,0.4,1.2c0,0.6-0.2,1.6-0.6,3c1.6-1.7,3-2.8,4.1-3.5s2.1-1,2.7-1c0.6,0,1,0.2,1.4,0.5c0.3,0.3,0.5,0.9,0.5,1.5
			c0,0.4-0.1,0.9-0.2,1.5c-0.1,0.6-0.6,2.3-1.5,5.2c-1.1,3.6-1.7,5.8-1.7,6.5c0,0.5,0.2,0.7,0.6,0.7c0.3,0,0.5-0.1,0.8-0.3
			c0.8-0.6,1.7-1.3,2.5-2.2l0.7,0.8c-0.3,0.2-0.8,0.7-1.7,1.5c-1.1,1-1.9,1.6-2.3,1.9c-0.8,0.5-1.5,0.7-2.1,0.7
			c-0.4,0-0.8-0.2-1.1-0.6c-0.3-0.4-0.5-1-0.5-1.7c0-0.7,0.1-1.5,0.3-2.4c0.2-0.9,0.8-2.9,1.7-6.1c0.7-2.4,1.1-3.8,1.1-4.3
			c0-0.5-0.2-0.7-0.6-0.7c-0.3,0-0.8,0.2-1.4,0.5c-1.2,0.7-2.2,1.6-3,2.7c-0.6,0.7-1,1.9-1.5,3.5c-0.9,3.4-1.6,6.3-2.1,8.4h-3
			l3.1-12.8c0.2-0.9,0.3-1.5,0.3-1.6c0-0.2-0.1-0.4-0.2-0.5c-0.1-0.1-0.3-0.2-0.5-0.2c-0.4,0-1,0.3-1.8,0.9c-1.4,1-2.4,1.9-3,2.9
			c-0.6,0.9-1.1,2.3-1.6,4.2l-1.6,7.1h-3l2.4-10c0.7-2.9,1-4.5,1-4.7c0-0.3-0.1-0.5-0.4-0.5C79.6,38.1,78.5,38.9,76.9,40.5z"/>
		<path class="st0" d="M117.1,35.3l1.4-0.3l-1.6,5.3c-0.6,2.1-1.2,4.5-1.8,7.3c-0.3,1.5-0.5,2.5-0.5,2.9c0,0.4,0.2,0.6,0.5,0.6
			c0.2,0,0.6-0.1,1.1-0.4c0.9-0.5,1.7-1.2,2.5-1.9l0.7,0.8c-1.6,1.5-2.6,2.3-3.1,2.6c-0.9,0.6-1.7,1.1-2.6,1.4
			c-0.5,0.2-1,0.3-1.5,0.3c-0.4,0-0.6-0.1-0.8-0.3c-0.2-0.2-0.3-0.4-0.3-0.7c0-0.2,0.1-0.5,0.2-0.9l0.8-2.8
			c-1.2,1.4-2.6,2.7-4.3,3.7c-1,0.6-2,1-2.8,1c-0.8,0-1.4-0.3-1.9-0.9c-0.6-0.8-0.9-1.8-0.9-3c0-1.5,0.4-3.1,1.2-4.9
			c0.8-1.8,1.8-3.5,3.2-4.9c1.3-1.5,2.7-2.6,4.2-3.3c1.1-0.5,2.6-0.8,4.4-0.8c0.4,0,0.9,0,1.4,0.1L117.1,35.3z M114.5,38.5
			c-0.8-0.2-1.4-0.2-1.9-0.2c-1.3,0-2.4,0.3-3.3,1c-0.9,0.7-1.8,1.9-2.6,3.7c-0.8,1.8-1.2,3.6-1.2,5.4c0,0.9,0.2,1.6,0.5,2.1
			c0.3,0.4,0.7,0.6,1.3,0.6c1,0,2-0.5,3.1-1.6c1.1-1,1.9-2.5,2.4-4.5L114.5,38.5z"/>
		<path class="st0" d="M132.7,41.3l-2.8,11.1c0.7,0.1,1.2,0.1,1.6,0.1c0.6,0,1.4-0.1,2.3-0.3l-0.2,1c-0.9,0.2-1.7,0.3-2.2,0.3
			c-0.5,0-1.3,0-2.4-0.1c-0.9-0.1-1.7-0.1-2.3-0.1c-1.1,0-2.4,0.2-3.9,0.5l0.3-1.2c1.5-0.4,2.5-0.8,3-1.2c0.7-0.6,1.2-1.7,1.6-3.2
			l2.9-11.7c0.4-1.5,0.5-2.4,0.5-2.6c0-0.3-0.1-0.4-0.3-0.6c-0.2-0.1-0.5-0.2-1-0.2l0.3-1c1.4,0,3.1-0.3,5-0.8
			c-0.2,0.5-0.4,1.3-0.6,2.3l-1.6,6.2c0.7,0.1,1.2,0.2,1.7,0.2c1.7,0,3.2-0.6,4.5-1.8c1.2-1.2,1.9-2.7,1.9-4.3
			c0-1.3-0.5-2.4-1.5-3.2c-1-0.8-2.4-1.3-4.1-1.3c-2.2,0-4.3,0.5-6.4,1.6c-2.1,1.1-3.7,2.4-4.7,3.9c-1,1.6-1.6,3.2-1.6,4.9
			c0,1.3,0.5,2.4,1.6,3.3c0.5,0.5,0.9,0.8,1,1c0.1,0.2,0.2,0.4,0.2,0.7c0,0.3-0.1,0.5-0.3,0.8c-0.2,0.2-0.5,0.3-0.8,0.3
			c-0.8,0-1.4-0.4-2-1.3c-0.8-1.1-1.1-2.6-1.1-4.2c0-2.1,0.6-4.1,1.8-6c1.2-1.9,3-3.4,5.4-4.6c2.4-1.2,4.9-1.8,7.6-1.8
			c2.5,0,4.5,0.5,6.1,1.4c1.6,0.9,2.4,2.3,2.4,4.1c0,1.7-0.7,3.3-2.2,4.8c-1.5,1.5-3.5,2.4-6.1,2.8c0.6,1.3,1.1,2.1,1.2,2.6
			c0.3,0.8,0.7,2,1.3,3.8c1.4,4.2,2.9,7.1,4.4,8.8c1.1,1.3,2.3,1.9,3.6,1.9c1.3,0,2.2-0.6,2.6-1.8c0.2-0.8,0.4-1.2,0.6-1.4
			c0.3-0.2,0.6-0.4,0.9-0.4c0.3,0,0.6,0.1,0.8,0.4c0.2,0.2,0.3,0.5,0.3,0.9c0,0.9-0.5,1.7-1.4,2.5c-0.9,0.8-2.2,1.2-3.7,1.2
			c-1.4,0-2.6-0.3-3.9-1c-1.2-0.7-2.4-1.7-3.6-3.2c-1.2-1.5-2.2-3.3-3-5.4c-0.4-1-1.1-3-1.9-5.8c-0.5-1.7-0.8-2.7-0.9-3.1l-0.5,0
			C133.1,41.3,132.9,41.3,132.7,41.3z"/>
		<path class="st0" d="M156.9,35.7c1.4,0,2.5,0.5,3.4,1.6c0.9,1.1,1.4,2.6,1.4,4.5c0,3.1-1.1,5.9-3.3,8.3c-2.2,2.5-4.5,3.7-6.9,3.7
			c-1.5,0-2.7-0.5-3.6-1.5c-0.9-1-1.4-2.3-1.4-4c0-2.9,0.8-5.6,2.5-8.1C151.2,37.2,153.8,35.7,156.9,35.7z M155.2,37.3
			c-1.2,0-2.3,0.8-3.4,2.5c-1.1,1.7-1.7,4-1.7,7c0,1.8,0.3,3.2,1,4.3c0.5,0.8,1.2,1.2,2,1.2c1.2,0,2.2-0.7,3.2-2.2
			c1.2-1.9,1.8-4.2,1.8-7c0-2.1-0.3-3.6-0.8-4.5C156.7,37.7,156,37.3,155.2,37.3z"/>
	</g>
</g>
</svg>
