<?xml version="1.0" encoding="utf-8"?>
<!-- Generator: Adobe Illustrator 22.0.0, SVG Export Plug-In . SVG Version: 6.00 Build 0)  -->
<svg version="1.1" id="Layer_1" xmlns="http://www.w3.org/2000/svg" xmlns:xlink="http://www.w3.org/1999/xlink" x="0px" y="0px"
	 viewBox="0 0 33 33" style="enable-background:new 0 0 33 33;" xml:space="preserve">
<style type="text/css">
	.st0{fill:#3F51B5;}
</style>
<g>
	<path class="st0" d="M22.3,19.6c-0.1-0.2,0-0.5,0.2-0.6l4.2-3.1c0.7-0.5,0.9-1.3,0.7-2.1c-0.3-0.8-1-1.3-1.8-1.3l-5.2,0
		c-0.2,0-0.4-0.1-0.5-0.4l-1.6-4.9c-0.3-0.8-1-1.3-1.8-1.3c-0.8,0-1.5,0.5-1.8,1.3L14,9.5c-0.1,0.4,0.1,0.7,0.4,0.8
		c0.4,0.1,0.7-0.1,0.8-0.4L16,7.7c0.1-0.3,0.4-0.4,0.5-0.4c0.1,0,0.4,0,0.5,0.4l1.6,4.9c0.3,0.8,1,1.3,1.8,1.3l5.2,0
		c0.4,0,0.5,0.3,0.5,0.4c0,0.1,0.1,0.4-0.2,0.6L21.7,18c-0.7,0.5-0.9,1.3-0.7,2.1l1.6,4.9c0.1,0.3-0.1,0.5-0.2,0.6
		c-0.1,0.1-0.3,0.2-0.6,0l-4.2-3c-0.7-0.5-1.5-0.5-2.2,0l-4.2,3c-0.3,0.2-0.6,0.1-0.6,0c-0.1-0.1-0.3-0.3-0.2-0.6l1.6-5
		c0.2-0.8,0-1.6-0.7-2.1l-4.2-3.1c-0.3-0.2-0.2-0.5-0.2-0.6c0-0.1,0.1-0.4,0.5-0.4l5.2,0c0.4,0,0.7-0.3,0.7-0.7
		c0-0.4-0.3-0.7-0.7-0.7h0l-5.2,0c-0.8,0-1.5,0.5-1.8,1.3c-0.3,0.8,0,1.6,0.7,2.1l4.2,3.1c0.2,0.1,0.3,0.4,0.2,0.6l-1.6,5
		c-0.3,0.8,0,1.6,0.7,2.1c0.3,0.2,0.7,0.4,1.1,0.4c0.4,0,0.8-0.1,1.1-0.4l4.2-3c0.2-0.1,0.4-0.1,0.6,0l4.2,3c0.7,0.5,1.5,0.5,2.2,0
		c0.7-0.5,0.9-1.3,0.7-2.1L22.3,19.6z M22.3,19.6"/>
	<path class="st0" d="M16.5,0C7.4,0,0,7.4,0,16.5S7.4,33,16.5,33c0.4,0,0.7-0.3,0.7-0.7c0-0.4-0.3-0.7-0.7-0.7
		c-8.4,0-15.2-6.8-15.2-15.2S8.1,1.3,16.5,1.3c8.4,0,15.2,6.8,15.2,15.2c0,5.2-2.6,10-7,12.8c-0.3,0.2-0.4,0.6-0.2,0.9
		c0.2,0.3,0.6,0.4,0.9,0.2c4.8-3.1,7.6-8.3,7.6-13.9C33,7.4,25.6,0,16.5,0L16.5,0z M16.5,0"/>
</g>
</svg>
