<?xml version="1.0" encoding="utf-8"?>
<!-- Generator: Adobe Illustrator 22.0.0, SVG Export Plug-In . SVG Version: 6.00 Build 0)  -->
<svg version="1.1" id="Layer_1" xmlns="http://www.w3.org/2000/svg" xmlns:xlink="http://www.w3.org/1999/xlink" x="0px" y="0px"
	 viewBox="0 0 33 44" style="enable-background:new 0 0 33 44;" xml:space="preserve">
<style type="text/css">
	.st0{fill:#3F51B5;}
</style>
<g>
	<g>
		<path class="st0" d="M14.3,30.4l-0.6,5.2c0,0.3,0.1,0.5,0.2,0.7c0.2,0.2,0.4,0.3,0.7,0.3h3.7c0.3,0,0.5-0.1,0.7-0.3
			c0.2-0.2,0.3-0.5,0.2-0.7l-0.6-5.2c0.9-0.7,1.5-1.8,1.5-2.9c0-2-1.6-3.7-3.7-3.7s-3.7,1.6-3.7,3.7C12.8,28.7,13.4,29.8,14.3,30.4z
			 M16.5,25.7c1,0,1.8,0.8,1.8,1.8c0,0.7-0.4,1.3-1,1.6c-0.4,0.2-0.6,0.5-0.5,0.9l0.5,4.8h-1.6l0.5-4.8c0-0.4-0.2-0.8-0.5-0.9
			c-0.6-0.3-1-0.9-1-1.6C14.7,26.5,15.5,25.7,16.5,25.7z"/>
		<path class="st0" d="M32.1,16.5h-2.7v-3.7C29.3,5.8,23.6,0,16.5,0S3.7,5.8,3.7,12.8v3.7H0.9c-0.5,0-0.9,0.4-0.9,0.9v22.9
			c0,2,1.6,3.7,3.7,3.7h25.7c2,0,3.7-1.6,3.7-3.7V17.4C33,16.9,32.6,16.5,32.1,16.5z M5.5,12.8c0-6.1,4.9-11,11-11s11,4.9,11,11v3.7
			h-1.8v-3.7c0-5.1-4.1-9.2-9.2-9.2s-9.2,4.1-9.2,9.2v3.7H5.5V12.8z M23.8,16.5H9.2v-3.7c0-4,3.3-7.3,7.3-7.3s7.3,3.3,7.3,7.3V16.5z
			 M31.2,40.3c0,1-0.8,1.8-1.8,1.8H3.7c-1,0-1.8-0.8-1.8-1.8v-22h29.3V40.3z"/>
	</g>
</g>
</svg>
