<?xml version="1.0" encoding="utf-8"?>
<!-- Generator: Adobe Illustrator 22.0.0, SVG Export Plug-In . SVG Version: 6.00 Build 0)  -->
<svg version="1.1" id="Layer_1" xmlns="http://www.w3.org/2000/svg" xmlns:xlink="http://www.w3.org/1999/xlink" x="0px" y="0px"
	 viewBox="0 0 33 33" style="enable-background:new 0 0 33 33;" xml:space="preserve">
<style type="text/css">
	.st0{fill:#3F51B5;}
</style>
<g>
	<g>
		<path class="st0" d="M30.1,13.6h-1v-1c0-7-5.6-12.6-12.6-12.6S3.9,5.7,3.9,12.6v1h-1c-1.6,0-2.9,1.3-2.9,2.9v5.8
			c0,1.6,1.3,2.9,2.9,2.9h1.2c0.4,1.1,1.5,1.9,2.7,1.9c1.6,0,2.9-1.3,2.9-2.9v-9.7c0-1.6-1.3-2.9-2.9-2.9c-0.3,0-0.6,0.1-0.9,0.2
			c0.4-5.5,5-9.9,10.6-9.9s10.2,4.4,10.6,9.9c-0.3-0.1-0.6-0.2-0.9-0.2c-1.6,0-2.9,1.3-2.9,2.9v9.7c0,1.6,1.3,2.9,2.9,2.9
			c0.3,0,0.7-0.1,1-0.2v1.2c0,0.5-0.4,1-1,1h-6.9c-0.4-1.1-1.5-1.9-2.7-1.9c-1.6,0-2.9,1.3-2.9,2.9s1.3,2.9,2.9,2.9
			c1.3,0,2.3-0.8,2.7-1.9h6.9c1.6,0,2.9-1.3,2.9-2.9v-3h1c1.6,0,2.9-1.3,2.9-2.9v-5.8C33,14.9,31.7,13.6,30.1,13.6L30.1,13.6z
			 M1.9,22.3v-5.8c0-0.5,0.4-1,1-1h1v7.7h-1C2.4,23.3,1.9,22.8,1.9,22.3L1.9,22.3z M6.8,13.6c0.5,0,1,0.4,1,1v9.7c0,0.5-0.4,1-1,1
			c-0.5,0-1-0.4-1-1v-9.7C5.9,14,6.3,13.6,6.8,13.6L6.8,13.6z M16.5,31.1c-0.5,0-1-0.4-1-1c0-0.5,0.4-1,1-1c0.5,0,1,0.4,1,1
			C17.5,30.6,17,31.1,16.5,31.1L16.5,31.1z M26.2,25.2c-0.5,0-1-0.4-1-1v-9.7c0-0.5,0.4-1,1-1c0.5,0,1,0.4,1,1v9.7
			C27.1,24.8,26.7,25.2,26.2,25.2L26.2,25.2z M31.1,22.3c0,0.5-0.4,1-1,1h-1v-7.7h1c0.5,0,1,0.4,1,1V22.3z M31.1,22.3"/>
	</g>
</g>
</svg>
