<?xml version="1.0" encoding="utf-8"?>
<!-- Generator: Adobe Illustrator 22.0.0, SVG Export Plug-In . SVG Version: 6.00 Build 0)  -->
<svg version="1.1" id="Layer_1" xmlns="http://www.w3.org/2000/svg" xmlns:xlink="http://www.w3.org/1999/xlink" x="0px" y="0px"
	 viewBox="0 0 33 33" style="enable-background:new 0 0 33 33;" xml:space="preserve">
<style type="text/css">
	.st0{fill:#3F51B5;}
</style>
<path class="st0" d="M31.5,22.6c-1.1-1.1-2.5-1.7-4.1-1.7c-0.8,0-1.5,0.2-2.3,0.5l-5.6-5.6L27,8.3l1.8-0.1c0.2,0,0.4-0.1,0.5-0.3
	l2.5-4.3C32,3.4,32,3.1,31.7,2.9l-2.2-2.2c-0.2-0.2-0.5-0.2-0.8-0.1l-4.3,2.5c-0.2,0.1-0.3,0.3-0.3,0.5l-0.1,1.8l-7.5,7.5l-5.1-5.1
	c0.5-3.1-1.6-6.1-4.7-6.6C5.4,0.9,3.9,1.2,2.7,2C2.4,2.2,2.3,2.6,2.5,2.9C2.6,3,2.7,3.1,2.7,3.1l2.8,1.6C6.2,5.1,6.3,6.1,5.8,7
	S4.3,8.4,3.7,8L1.1,6.6C0.8,6.4,0.4,6.6,0.2,6.9C0.2,7,0.1,7.1,0.1,7.2c0.2,3.2,2.9,5.6,6.1,5.4c0.7,0,1.3-0.2,1.9-0.5l4.7,4.7l-2,2
	l-0.5-0.5c-0.5-0.5-1.3-0.5-1.8,0L7.9,19c-0.5,0.5-0.5,1.2-0.1,1.7l0,0l-7.4,7.4c-0.5,0.5-0.5,1.3,0,1.8c0,0,0,0,0,0l2.1,2.1
	c0.5,0.5,1.3,0.5,1.8,0c0,0,0,0,0,0l7.4-7.4l0,0c0.5,0.4,1.3,0.4,1.7-0.1l0.6-0.6c0.5-0.5,0.5-1.3,0-1.8c0,0,0,0,0,0l-0.5-0.5l2-2.1
	l6.1,6.1c-0.5,3.1,1.6,6.1,4.7,6.6c1.9,0.3,3.7-0.3,5.1-1.6c0.2-0.3,0.2-0.7-0.1-0.9c-0.1-0.1-0.1-0.1-0.2-0.1l-3.5-0.9
	c-0.3-0.1-0.6-0.4-0.7-0.7c-0.2-0.5-0.2-1-0.1-1.5c0.3-1,1.1-1.7,1.8-1.5l3.5,0.9c0.1,0,0.1,0,0.2,0c0.3,0,0.6-0.3,0.6-0.6
	c0-0.1,0-0.2-0.1-0.3C32.7,24.1,32.2,23.3,31.5,22.6z M25.2,6.2c0.1-0.1,0.2-0.3,0.2-0.4l0.1-1.7L29,1.9l1.5,1.5L28.4,7l-1.7,0.1
	c-0.2,0-0.3,0.1-0.4,0.2l-7.7,7.7l-1.1-1.1L25.2,6.2z M3.4,31.2L3.4,31.2L1.3,29l7.5-7.4l1.1,1.1l1,1.1L3.4,31.2z M12.6,23.6
	L12.6,23.6l-0.8-0.8l0,0l-0.3-0.3l-2.6-2.7l0.6-0.6l3.8,3.8L12.6,23.6z M12.7,20.8l-1.1-1.1l2-2l1.1,1.1L12.7,20.8z M29,23.8
	c-0.2-0.1-0.4-0.1-0.6-0.1c-1.4,0.1-2.5,1.1-2.8,2.5c-0.2,0.8-0.2,1.6,0.1,2.3c0.3,0.7,0.9,1.2,1.6,1.4l2.3,0.6
	c-2.1,1.3-4.9,0.6-6.2-1.6c-0.6-1-0.8-2.2-0.5-3.3c0-0.2,0-0.4-0.2-0.6L8.7,10.9c-0.2-0.2-0.5-0.2-0.7-0.1c-0.6,0.3-1.4,0.5-2.1,0.5
	c-1.9,0-3.6-1.2-4.2-3l1.4,0.8c0.3,0.2,0.7,0.3,1.1,0.3c1.2-0.1,2.2-0.7,2.7-1.8c0.9-1.5,0.5-3.3-0.7-4l-1.8-1
	C6.7,1.8,9.2,3,10.1,5.3c0.3,0.8,0.3,1.7,0.1,2.5c0,0.2,0,0.4,0.2,0.6l14.2,14.2c0.2,0.2,0.5,0.2,0.7,0.1c0.6-0.3,1.4-0.5,2.1-0.5
	c1.6,0,3.1,0.8,3.9,2.2L29,23.8z"/>
</svg>
