<?xml version="1.0" encoding="utf-8"?>
<!-- Generator: Adobe Illustrator 21.0.0, SVG Export Plug-In . SVG Version: 6.00 Build 0)  -->
<svg version="1.1" id="Layer_1" xmlns="http://www.w3.org/2000/svg" xmlns:xlink="http://www.w3.org/1999/xlink" x="0px" y="0px"
	 viewBox="0 0 40 30" style="enable-background:new 0 0 40 30;" xml:space="preserve">
<style type="text/css">
	.st0{fill:#FFC90D;}
</style>
<g>
	<g>
		<g>
			<path class="st0" d="M40,5c0-2.8-2.3-5-5.1-5H18.6c-2.8,0-5.1,2.2-5.1,5v3.2c0,0.5,0.4,1,1,1s1-0.4,1-1V5c0-1.7,1.4-3,3.1-3H35
				c1.6,0,3,1.3,3,3v20c0,1.7-1.4,3-3.1,3H18.6c-1.7,0-3.1-1.4-3.1-3v-3.2c0-0.5-0.4-1-1-1s-1,0.4-1,1V25c0,2.8,2.3,5,5.1,5H35
				c2.8,0,5.1-2.2,5.1-5L40,5L40,5z"/>
			<path class="st0" d="M8.6,22.5c0.4-0.4,0.4-1,0-1.4L3.4,16h18.7c0.6,0,1-0.4,1-1c0-0.5-0.4-1-1-1H3.4l5.1-5.1
				c0.4-0.4,0.4-1,0-1.4s-1-0.4-1.4,0l-6.8,6.8c-0.4,0.4-0.4,1,0,1.4l6.8,6.8c0.2,0.2,0.4,0.3,0.7,0.3C8.1,22.7,8.4,22.6,8.6,22.5
				L8.6,22.5z"/>
		</g>
	</g>
</g>
</svg>
