<?xml version="1.0" encoding="utf-8"?>
<!-- Generator: Adobe Illustrator 22.0.0, SVG Export Plug-In . SVG Version: 6.00 Build 0)  -->
<svg version="1.1" id="Layer_1" xmlns="http://www.w3.org/2000/svg" xmlns:xlink="http://www.w3.org/1999/xlink" x="0px" y="0px"
	 viewBox="0 0 33 33" style="enable-background:new 0 0 33 33;" xml:space="preserve">
<style type="text/css">
	.st0{fill:#FFFFFF;}
</style>
<g>
	<g>
		<g>
			<path class="st0" d="M11.7,23.5c-3.1,0-6.1-1.2-8.3-3.4c-4.6-4.6-4.6-12,0-16.6C5.7,1.2,8.6,0,11.7,0s6.1,1.2,8.3,3.4l0,0l0,0
				c2.2,2.2,3.4,5.2,3.4,8.3S22.3,17.8,20,20C17.8,22.3,14.9,23.5,11.7,23.5z M11.7,0.9C9,0.9,6.2,2,4.1,4.1
				c-4.2,4.2-4.2,11.1,0,15.3c4.2,4.2,11.1,4.2,15.3,0c2-2,3.2-4.8,3.2-7.7s-1.1-5.6-3.2-7.7l0,0C17.3,2,14.5,0.9,11.7,0.9z"/>
		</g>
		<g>
			<path class="st0" d="M11.7,20.5c-2.2,0-4.5-0.9-6.2-2.6c-3.4-3.4-3.4-9,0-12.4c3.4-3.4,9-3.4,12.4,0l0,0c3.4,3.4,3.4,9,0,12.4
				C16.2,19.7,14,20.5,11.7,20.5z M11.7,3.9c-2,0-4,0.8-5.6,2.3c-3.1,3.1-3.1,8.1,0,11.1c3.1,3.1,8.1,3.1,11.1,0
				c3.1-3.1,3.1-8.1,0-11.1C15.8,4.6,13.8,3.9,11.7,3.9z"/>
		</g>
		<g>
			<path class="st0" d="M22.1,25c-0.1,0-0.2,0-0.3-0.1l-3.6-3.6c-0.2-0.2-0.2-0.5,0-0.6c0.2-0.2,0.5-0.2,0.6,0l3.3,3.3l1.8-1.8
				l-3.3-3.3c-0.2-0.2-0.2-0.5,0-0.6c0.2-0.2,0.5-0.2,0.6,0l3.6,3.6c0.2,0.2,0.2,0.5,0,0.6l-2.4,2.4C22.4,25,22.3,25,22.1,25z"/>
		</g>
		<g>
			<path class="st0" d="M28.7,33c-0.1,0-0.2,0-0.3-0.1l-7.3-7.3c-0.2-0.2-0.2-0.5,0-0.6l3.9-3.9c0.2-0.2,0.5-0.2,0.6,0l7.3,7.3
				c0.1,0.1,0.1,0.2,0.1,0.3s0,0.2-0.1,0.3L29,32.9C28.9,33,28.8,33,28.7,33z M22,25.3l6.6,6.6l3.3-3.3L25.3,22L22,25.3z"/>
		</g>
		<g>
			<path class="st0" d="M24.9,29.2c-0.1,0-0.2,0-0.3-0.1c-0.2-0.2-0.2-0.5,0-0.6l3.7-3.7c0.2-0.2,0.5-0.2,0.6,0
				c0.2,0.2,0.2,0.5,0,0.6l-3.7,3.7C25.1,29.2,25,29.2,24.9,29.2z"/>
		</g>
		<g>
			<path class="st0" d="M23.1,27.5c-0.1,0-0.2,0-0.3-0.1c-0.2-0.2-0.2-0.5,0-0.6l3.7-3.7c0.2-0.2,0.5-0.2,0.6,0
				c0.2,0.2,0.2,0.5,0,0.6l-3.7,3.7C23.4,27.4,23.3,27.5,23.1,27.5z"/>
		</g>
	</g>
</g>
</svg>
