<?xml version="1.0" encoding="utf-8"?>
<!-- Generator: Adobe Illustrator 22.0.0, SVG Export Plug-In . SVG Version: 6.00 Build 0)  -->
<svg version="1.1" id="Layer_1" xmlns="http://www.w3.org/2000/svg" xmlns:xlink="http://www.w3.org/1999/xlink" x="0px" y="0px"
	 viewBox="0 0 33 33" style="enable-background:new 0 0 33 33;" xml:space="preserve">
<style type="text/css">
	.st0{fill:#FFFFFF;}
</style>
<g>
	<g>
		<path class="st0" d="M16.5,33c-1.4,0-2.5-0.8-2.5-1.7c0-0.3,0.1-0.5,0.3-0.8l0.1-0.2h4.2l0.1,0.2c0.2,0.2,0.3,0.5,0.3,0.8
			C19,32.2,17.9,33,16.5,33z M14.9,31.2c0,0,0,0.1,0,0.1c0,0.4,0.7,0.9,1.7,0.9c1,0,1.7-0.5,1.7-0.9c0,0,0-0.1,0-0.1H14.9z"/>
	</g>
	<g>
		<path class="st0" d="M27.5,29.1h-22c-1.6,0-2.9-1.3-2.9-2.9c0-0.8,0.3-1.5,0.8-2c0.5-0.5,1.3-0.8,2-0.8c1.1,0,1.6-1.2,1.6-3.8
			c0-0.2,0-0.5,0-0.7l0-0.4v-5.6c0-4.3,2.9-8,7-9.1C14,3.4,13.9,3,13.9,2.6c0-1.4,1.2-2.6,2.6-2.6c1.4,0,2.6,1.2,2.6,2.6
			c0,0.4-0.1,0.8-0.3,1.2c1.6,0.4,3.1,1.3,4.3,2.5c1.8,1.8,2.8,4.1,2.8,6.6l0,5.9c0,1-0.1,3.3,0.8,4.1c0.2,0.2,0.5,0.3,0.8,0.3
			c0.8,0,1.5,0.3,2,0.8c0.5,0.5,0.8,1.3,0.8,2c0,0.8-0.3,1.5-0.8,2S28.2,29.1,27.5,29.1z M16.5,0.8c-1,0-1.8,0.8-1.8,1.8
			c0,0.4,0.2,0.8,0.4,1.2l0.5,0.5l-0.7,0.1c-4,0.8-7,4.3-7,8.4l0,5.9c0,0.2,0,0.4,0,0.7c0,3.1-0.8,4.6-2.4,4.6
			c-0.5,0-1.1,0.2-1.5,0.6c-0.4,0.4-0.6,0.9-0.6,1.5c0,1.1,0.9,2.1,2.1,2.1h22c0.5,0,1.1-0.2,1.5-0.6c0.4-0.4,0.6-0.9,0.6-1.5
			c0-0.5-0.2-1.1-0.6-1.5c-0.4-0.4-0.9-0.6-1.5-0.6c-0.6,0-1-0.2-1.4-0.6c-1.1-1.1-1-3.6-1-4.7l0-0.4v-5.6c0-2.3-0.9-4.4-2.5-6
			c-1.2-1.2-2.8-2-4.4-2.4l-0.7-0.1l0.5-0.5c0.3-0.3,0.4-0.7,0.4-1.2C18.3,1.6,17.5,0.8,16.5,0.8z"/>
	</g>
</g>
</svg>
