<?xml version="1.0" encoding="utf-8"?>
<!-- Generator: Adobe Illustrator 22.0.0, SVG Export Plug-In . SVG Version: 6.00 Build 0)  -->
<svg version="1.1" id="Layer_1" xmlns="http://www.w3.org/2000/svg" xmlns:xlink="http://www.w3.org/1999/xlink" x="0px" y="0px"
	 viewBox="0 0 33 33" style="enable-background:new 0 0 33 33;" xml:space="preserve">
<style type="text/css">
	.st0{fill-rule:evenodd;clip-rule:evenodd;fill:#FFFFFF;}
</style>
<g>
	<path class="st0" d="M33,16.5C33,16.5,33,16.5,33,16.5C33,7.4,25.6,0,16.5,0S0,7.4,0,16.5v0C0,25.6,7.4,33,16.5,33S33,25.6,33,16.5
		C33,16.5,33,16.5,33,16.5L33,16.5z M17.1,31.7v-3.1c0-0.4-0.3-0.6-0.6-0.6c-0.4,0-0.6,0.3-0.6,0.6v3.1C8,31.4,1.6,25,1.3,17.1h3.1
		c0.4,0,0.6-0.3,0.6-0.6c0-0.4-0.3-0.6-0.6-0.6H1.3C1.6,8,8,1.6,15.9,1.3v3.1c0,0.4,0.3,0.6,0.6,0.6c0.4,0,0.6-0.3,0.6-0.6V1.3
		C25,1.6,31.4,8,31.7,15.9h-3.1c-0.4,0-0.6,0.3-0.6,0.6c0,0.4,0.3,0.6,0.6,0.6h3.1C31.4,25,25,31.4,17.1,31.7L17.1,31.7z M17.1,31.7
		"/>
	<path class="st0" d="M17.1,8.3C17,8,16.8,7.9,16.5,7.9c-0.3,0-0.5,0.1-0.6,0.4l-2.3,5.1c-0.1,0.3,0,0.7,0.3,0.9
		c0.3,0.1,0.7,0,0.9-0.3l1.7-3.8L22,22.5l-5.3-2c-0.1-0.1-0.3-0.1-0.5,0l-5.3,2l1.6-3.7c0.1-0.3,0-0.7-0.3-0.9
		c-0.3-0.1-0.7,0-0.9,0.3l-2.3,5.1c-0.1,0.2-0.1,0.5,0.1,0.7c0.2,0.2,0.5,0.3,0.7,0.2l6.5-2.5l6.5,2.5c0.1,0,0.2,0,0.2,0
		c0.2,0,0.3-0.1,0.5-0.2c0.2-0.2,0.2-0.5,0.1-0.7L17.1,8.3z M17.1,8.3"/>
	<path class="st0" d="M13.1,16.8c0.4,0,0.7-0.3,0.7-0.7c0-0.4-0.3-0.7-0.7-0.7c-0.4,0-0.7,0.3-0.7,0.7
		C12.4,16.5,12.8,16.8,13.1,16.8L13.1,16.8z M13.1,16.8"/>
</g>
</svg>
