<?xml version="1.0" encoding="utf-8"?>
<!-- Generator: Adobe Illustrator 22.0.0, SVG Export Plug-In . SVG Version: 6.00 Build 0)  -->
<svg version="1.1" id="Layer_1" xmlns="http://www.w3.org/2000/svg" xmlns:xlink="http://www.w3.org/1999/xlink" x="0px" y="0px"
	 viewBox="0 0 70 70" style="enable-background:new 0 0 70 70;" xml:space="preserve">
<style type="text/css">
	.st0{clip-path:url(#SVGID_2_);fill:#3D51B4;}
	.st1{fill:#3D51B4;}
</style>
<g>
	<g>
		<defs>
			<rect id="SVGID_1_" width="70" height="70"/>
		</defs>
		<clipPath id="SVGID_2_">
			<use xlink:href="#SVGID_1_"  style="overflow:visible;"/>
		</clipPath>
		<path class="st0" d="M59.5,18.7h-4.7v-1.8l2.8-2.8c2.3,1.5,5.4,1.2,7.3-0.7l3.3-3.3c2.3-2.3,2.3-6,0-8.3c-2.3-2.3-6-2.3-8.3,0
			L56.7,5c-2,2-2.3,5-0.7,7.3l-1.5,1.5c-1.2-4.7-5.4-8-10.2-8H25.7c-5.8,0-10.5,4.7-10.5,10.5v2.3h-4.7C4.7,18.7,0,23.4,0,29.2v25.7
			c0,5.8,4.7,10.5,10.5,10.5h3.7c-0.1,0.4-0.2,0.8-0.2,1.2c0,1.9,1.6,3.5,3.5,3.5c1.9,0,3.5-1.6,3.5-3.5c0-0.4-0.1-0.8-0.2-1.2h28.4
			c-0.1,0.4-0.2,0.8-0.2,1.2c0,1.9,1.6,3.5,3.5,3.5c1.9,0,3.5-1.6,3.5-3.5c0-0.4-0.1-0.8-0.2-1.2h3.7c5.8,0,10.5-4.7,10.5-10.5V29.2
			C70,23.4,65.3,18.7,59.5,18.7L59.5,18.7z M11.7,21h3.5v42h-3.5V21z M17.5,21h35v42h-35V21z M52.5,17.5v1.2h-2.3v-1.2H52.5z
			 M47.8,18.7H22.2v-2.3c0-1.9,1.6-3.5,3.5-3.5h18.7c1.9,0,3.5,1.6,3.5,3.5V18.7z M54.8,21h3.5v42h-3.5V21z M58.4,6.7l3.3-3.3
			c1.4-1.4,3.6-1.4,4.9,0c1.4,1.4,1.4,3.6,0,4.9l-3.3,3.3c-1.4,1.4-3.6,1.4-5,0C57,10.2,57,8,58.4,6.7L58.4,6.7z M25.7,8.2h18.7
			c4.1,0,7.5,3,8.1,7H50c-0.6-2.7-2.9-4.7-5.7-4.7H25.7c-3.2,0-5.8,2.6-5.8,5.8v2.3h-2.3v-2.3C17.5,11.8,21.2,8.2,25.7,8.2L25.7,8.2
			z M2.3,54.8V29.2c0-4.1,3-7.5,7-8.1v41.8C5.3,62.3,2.3,58.9,2.3,54.8L2.3,54.8z M18.7,66.5c0,0.6-0.5,1.2-1.2,1.2
			c-0.6,0-1.2-0.5-1.2-1.2c0-0.6,0.5-1.2,1.2-1.2C18.1,65.3,18.7,65.9,18.7,66.5L18.7,66.5z M52.5,67.7c-0.6,0-1.2-0.5-1.2-1.2
			c0-0.6,0.5-1.2,1.2-1.2s1.2,0.5,1.2,1.2C53.7,67.1,53.1,67.7,52.5,67.7L52.5,67.7z M67.7,54.8c0,4.1-3,7.5-7,8.1V21.1
			c4,0.6,7,4,7,8.1V54.8z M67.7,54.8"/>
	</g>
	<path class="st1" d="M44.3,42c-0.6,0-1.2,0.5-1.2,1.2V49c0,1.9-1.6,3.5-3.5,3.5h-9.3c-1.9,0-3.5-1.6-3.5-3.5c0-0.6-0.5-1.2-1.2-1.2
		c-0.6,0-1.2,0.5-1.2,1.2c0,3.2,2.6,5.8,5.8,5.8h9.3c3.2,0,5.8-2.6,5.8-5.8v-5.8C45.5,42.5,45,42,44.3,42L44.3,42z M44.3,42"/>
	<path class="st1" d="M39.7,29.2h-9.3c-3.2,0-5.8,2.6-5.8,5.8v4.7c0,0.6,0.5,1.2,1.2,1.2c0.6,0,1.2-0.5,1.2-1.2V35
		c0-1.9,1.6-3.5,3.5-3.5h9.3c1.9,0,3.5,1.6,3.5,3.5c0,0.6,0.5,1.2,1.2,1.2c0.6,0,1.2-0.5,1.2-1.2C45.5,31.8,42.9,29.2,39.7,29.2
		L39.7,29.2z M39.7,29.2"/>
	<path class="st1" d="M30.3,37.3h9.3c0.6,0,1.2-0.5,1.2-1.2c0-0.6-0.5-1.2-1.2-1.2h-9.3c-0.6,0-1.2,0.5-1.2,1.2
		C29.2,36.8,29.7,37.3,30.3,37.3L30.3,37.3z M30.3,37.3"/>
	<path class="st1" d="M30.3,42H35c0.6,0,1.2-0.5,1.2-1.2c0-0.6-0.5-1.2-1.2-1.2h-4.7c-0.6,0-1.2,0.5-1.2,1.2
		C29.2,41.5,29.7,42,30.3,42L30.3,42z M30.3,42"/>
	<path class="st1" d="M30.3,46.7h7c0.6,0,1.2-0.5,1.2-1.2c0-0.6-0.5-1.2-1.2-1.2h-7c-0.6,0-1.2,0.5-1.2,1.2
		C29.2,46.2,29.7,46.7,30.3,46.7L30.3,46.7z M30.3,46.7"/>
	<path class="st1" d="M60.7,10.5c0.6,0,1.2-0.5,1.2-1.2c0-0.6-0.5-1.2-1.2-1.2h0c-0.6,0-1.2,0.5-1.2,1.2C59.5,10,60,10.5,60.7,10.5
		L60.7,10.5z M60.7,10.5"/>
</g>
</svg>
