<?xml version="1.0" encoding="utf-8"?>
<!-- Generator: Adobe Illustrator 22.0.0, SVG Export Plug-In . SVG Version: 6.00 Build 0)  -->
<svg version="1.1" id="Layer_1" xmlns="http://www.w3.org/2000/svg" xmlns:xlink="http://www.w3.org/1999/xlink" x="0px" y="0px"
	 viewBox="0 0 70 81.2" style="enable-background:new 0 0 70 81.2;" xml:space="preserve">
<style type="text/css">
	.st0{fill:#3F51B5;}
</style>
<g>
	<path class="st0" d="M67.4,14.1L42.7,0.8c-2.3-1.3-5.5-0.3-6.8,2L21.5,29.6H4c-2.2,0-4,1.8-4,4v7l0,0v36.3c0,2.2,1.8,4,4,4h56
		c2.2,0,4-1.8,4-4V66.8h1.7c0.9,0,1.6-0.7,1.6-1.6V53.7c0-0.9-0.7-1.6-1.6-1.6H64V40.7c0-1.8-1.4-3.5-3.1-3.9l8.6-15.9
		C70.7,18.5,69.8,15.5,67.4,14.1z M49.9,8.2L34.5,36.7h-4.4L46.5,6.4L49.9,8.2z M38.8,4.3c0.5-0.9,1.7-1.3,2.5-0.8l2.4,1.4
		L26.6,36.7h-5.4L38.8,4.3z M3.9,32.7h15.9l-2.1,3.9H3.9c-0.3,0-0.6,0-0.9,0.1v-3.2C3,33.2,3.4,32.7,3.9,32.7z M64,55.2v8.5h-0.1
		h-9.2c-0.9,0-1.6-0.7-1.6-1.6v-5.4c0-0.9,0.7-1.6,1.6-1.6H64L64,55.2z M54.7,52.1c-2.6,0-4.7,2.1-4.7,4.7v5.4
		c0,2.6,2.1,4.7,4.7,4.7h6v10.1c0,0.5-0.4,0.9-0.9,0.9h-56c-0.5,0-0.9-0.4-0.9-0.9V40.7l0,0c0-0.5,0.4-0.9,0.9-0.9h14.7h6.2h11.4
		h21.9h1.7c0.5,0,0.9,0.4,0.9,0.9v11.4L54.7,52.1L54.7,52.1z M66.6,19.4l-9.3,17.3H38l14.6-27L65.8,17
		C66.8,17.3,67.1,18.5,66.6,19.4z"/>
	<path class="st0" d="M60.7,17.9l-0.8-0.4c-1.9-1.1-4.6-0.3-5.6,1.7l-1,1.8c-0.5,1-0.7,2.1-0.3,3.2c0.3,1.1,1.1,1.9,2,2.4l0.8,0.4
		c0.6,0.3,1.3,0.5,1.9,0.5c1.6,0,2.9-0.9,3.7-2.1l1-1.8C63.4,21.5,62.6,19,60.7,17.9z M59.6,22.1l-1,1.8c-0.3,0.5-1,0.7-1.5,0.4
		l-0.8-0.5c-0.2-0.1-0.4-0.4-0.5-0.6c-0.1-0.3-0.1-0.6,0.1-0.8l1-1.8c0.2-0.3,0.6-0.6,1-0.6c0.2,0,0.3,0,0.5,0.1l0.8,0.4
		C59.6,20.9,59.8,21.5,59.6,22.1z"/>
</g>
</svg>
