<?xml version="1.0" encoding="utf-8"?>
<!-- Generator: Adobe Illustrator 22.0.0, SVG Export Plug-In . SVG Version: 6.00 Build 0)  -->
<svg version="1.1" id="Layer_1" xmlns="http://www.w3.org/2000/svg" xmlns:xlink="http://www.w3.org/1999/xlink" x="0px" y="0px"
	 viewBox="0 0 70 70" style="enable-background:new 0 0 70 70;" xml:space="preserve">
<style type="text/css">
	.st0{fill:#3F51B5;}
</style>
<g>
	<path class="st0" d="M21,64.2H5.8c-3.2,0-5.8-2.6-5.8-5.8V21c0-3.2,2.6-5.8,5.8-5.8h25.7c3.2,0,5.8,2.6,5.8,5.8v1.2H35V21
		c0-1.9-1.6-3.5-3.5-3.5H5.8c-1.9,0-3.5,1.6-3.5,3.5v37.3c0,1.9,1.6,3.5,3.5,3.5H21V64.2z"/>
	<path class="st0" d="M25.7,7h-14C9.7,7,8.2,5.4,8.2,3.5S9.7,0,11.7,0h14c1.9,0,3.5,1.6,3.5,3.5S27.6,7,25.7,7z M11.7,2.3
		c-0.6,0-1.2,0.5-1.2,1.2s0.5,1.2,1.2,1.2h14c0.6,0,1.2-0.5,1.2-1.2s-0.5-1.2-1.2-1.2H11.7z"/>
	<rect x="12.8" y="5.8" class="st0" width="2.3" height="10.5"/>
	<rect x="22.2" y="5.8" class="st0" width="2.3" height="10.5"/>
	<rect x="7" y="35" class="st0" width="2.3" height="21"/>
	<rect x="21" y="22.2" class="st0" width="2.3" height="9.3"/>
	<path class="st0" d="M5.3,70c-2.3,0-4.1-1.8-4.1-4.1c0-2.3,1.8-4.1,4.1-4.1s4.1,1.8,4.1,4.1C9.3,68.2,7.5,70,5.3,70z M5.3,64.2
		c-1,0-1.8,0.8-1.8,1.8c0,1,0.8,1.8,1.8,1.8S7,66.9,7,65.9C7,65,6.2,64.2,5.3,64.2z"/>
	<rect x="14" y="22.2" class="st0" width="2.3" height="33.8"/>
	<path class="st0" d="M1.2,38.5c-0.2,0-0.4-0.1-0.6-0.2c-0.3-0.2-0.5-0.6-0.5-1v-7c0-0.5,0.3-0.9,0.7-1.1l8.2-3.5
		c0.3-0.1,0.6-0.1,0.9,0c0.3,0.1,0.5,0.4,0.6,0.6l2.3,5.8c0.2,0.6,0,1.2-0.6,1.5L1.6,38.4C1.5,38.5,1.3,38.5,1.2,38.5z M2.3,31.1
		v4.4l7.8-3.5l-1.5-3.7L2.3,31.1z"/>
	<rect x="7" y="22.2" class="st0" width="2.3" height="5.8"/>
	<rect x="28" y="22.2" class="st0" width="2.3" height="9.3"/>
	<path class="st0" d="M32.1,70c-2.3,0-4.1-1.8-4.1-4.1c0-2.3,1.8-4.1,4.1-4.1s4.1,1.8,4.1,4.1C36.2,68.2,34.3,70,32.1,70z
		 M32.1,64.2c-1,0-1.7,0.8-1.7,1.8c0,1,0.8,1.8,1.7,1.8c1,0,1.8-0.8,1.8-1.8C33.8,65,33,64.2,32.1,64.2z"/>
	<path class="st0" d="M64.2,64.2H23.3c-3.2,0-5.8-2.6-5.8-5.8V35c0-3.2,2.6-5.8,5.8-5.8h40.8c3.2,0,5.8,2.6,5.8,5.8v23.3
		C70,61.5,67.4,64.2,64.2,64.2z M23.3,31.5c-1.9,0-3.5,1.6-3.5,3.5v23.3c0,1.9,1.6,3.5,3.5,3.5h40.8c1.9,0,3.5-1.6,3.5-3.5V35
		c0-1.9-1.6-3.5-3.5-3.5H23.3z"/>
	<path class="st0" d="M50.2,30.3h-2.3v-3.5h-8.2v3.5h-2.3v-4.7c0-0.6,0.5-1.2,1.2-1.2H49c0.6,0,1.2,0.5,1.2,1.2V30.3z"/>
	<path class="st0" d="M54.8,30.3h-2.3v-4.7c0-1.9-1.6-3.5-3.5-3.5H38.5c-1.9,0-3.5,1.6-3.5,3.5v4.7h-2.3v-4.7c0-3.2,2.6-5.8,5.8-5.8
		H49c3.2,0,5.8,2.6,5.8,5.8V30.3z"/>
	<path class="st0" d="M47.8,44.3H36.2c-0.4,0-0.8-0.2-1-0.6c-0.2-0.4-0.2-0.9,0.1-1.2l5.8-8.2c0.4-0.6,1.5-0.6,1.9,0l5.8,8.2
		c0.3,0.4,0.3,0.8,0.1,1.2C48.7,44.1,48.3,44.3,47.8,44.3z M38.4,42h7.1L42,37L38.4,42z"/>
	<path class="st0" d="M59.1,57.4c-0.8,0-1.7-0.1-2.5-0.4c-1.7-0.6-3.2-1.6-4.1-3c-1-1.5-1.2-3.1-0.7-4.7c1-3.1,4.8-4.6,8.5-3.4
		c3.7,1.2,5.8,4.7,4.8,7.7C64.2,55.9,61.8,57.4,59.1,57.4z M57.6,47.8c-1.7,0-3.2,0.8-3.7,2.2c0,0,0,0,0,0c-0.3,0.8-0.1,1.8,0.5,2.7
		c0.6,1,1.7,1.7,2.9,2.1c2.4,0.8,4.9,0,5.5-1.9c0.6-1.8-0.9-4-3.3-4.8C58.8,47.9,58.2,47.8,57.6,47.8z"/>
	<path class="st0" d="M22.8,70c-2.3,0-4.1-1.8-4.1-4.1c0-2.3,1.8-4.1,4.1-4.1s4.1,1.8,4.1,4.1C26.8,68.2,25,70,22.8,70z M22.8,64.2
		c-1,0-1.8,0.8-1.8,1.8c0,1,0.8,1.8,1.8,1.8s1.8-0.8,1.8-1.8C24.5,65,23.7,64.2,22.8,64.2z"/>
	<path class="st0" d="M64.8,70c-2.3,0-4.1-1.8-4.1-4.1c0-2.3,1.8-4.1,4.1-4.1c2.3,0,4.1,1.8,4.1,4.1C68.8,68.2,67,70,64.8,70z
		 M64.8,64.2c-1,0-1.8,0.8-1.8,1.8c0,1,0.8,1.8,1.8,1.8c1,0,1.8-0.8,1.8-1.8C66.5,65,65.7,64.2,64.8,64.2z"/>
	<rect x="28" y="53.7" class="st0" width="2.3" height="9.3"/>
	<path class="st0" d="M30.3,46.7H28V31.5h-2.3v12.8h-2.3v-14c0-0.6,0.5-1.2,1.2-1.2h4.7c0.6,0,1.2,0.5,1.2,1.2V46.7z"/>
	<rect x="23.3" y="50.2" class="st0" width="2.3" height="12.8"/>
	<rect x="61.8" y="54.8" class="st0" width="2.3" height="8.2"/>
	<path class="st0" d="M64.2,49h-2.3V31.5h-2.3v15.2h-2.3V30.3c0-0.6,0.5-1.2,1.2-1.2H63c0.6,0,1.2,0.5,1.2,1.2V49z"/>
	<rect x="57.2" y="56" class="st0" width="2.3" height="7"/>
	<path class="st0" d="M30.3,54.8c-0.2,0-0.4-0.1-0.6-0.2l-11.7-7l1.2-2L29.9,52l1.3-2.6l-13.1-7.6l1.2-2l14,8.2
		c0.5,0.3,0.7,1,0.5,1.5l-2.3,4.7c-0.1,0.3-0.4,0.5-0.7,0.6C30.6,54.8,30.4,54.8,30.3,54.8z"/>
</g>
</svg>
