<?xml version="1.0" encoding="utf-8"?>
<!-- Generator: Adobe Illustrator 22.0.0, SVG Export Plug-In . SVG Version: 6.00 Build 0)  -->
<svg version="1.1" id="Layer_1" xmlns="http://www.w3.org/2000/svg" xmlns:xlink="http://www.w3.org/1999/xlink" x="0px" y="0px"
	 viewBox="0 0 70 79.9" style="enable-background:new 0 0 70 79.9;" xml:space="preserve">
<style type="text/css">
	.st0{clip-path:url(#SVGID_2_);}
	.st1{fill:#3F51B5;}
</style>
<g>
	<g>
		<defs>
			<rect id="SVGID_1_" y="-0.2" width="70" height="80.2"/>
		</defs>
		<clipPath id="SVGID_2_">
			<use xlink:href="#SVGID_1_"  style="overflow:visible;"/>
		</clipPath>
		<g class="st0">
			<path class="st1" d="M44,19.6c-5.3,0-9.7-4.3-9.7-9.7c0-5.3,4.3-9.7,9.7-9.7c5.3,0,9.7,4.3,9.7,9.7C53.7,15.2,49.4,19.6,44,19.6z
				 M44,2.2c-4.2,0-7.7,3.4-7.7,7.7s3.4,7.7,7.7,7.7c4.2,0,7.7-3.4,7.7-7.7S48.3,2.2,44,2.2z"/>
		</g>
		<g class="st0">
			<path class="st1" d="M9.2,79.7C9.2,79.7,9.2,79.7,9.2,79.7c-1.2,0-2.3-0.5-3.1-1.3c-1.1-1.1-1.5-2.7-1.1-4.2l-3.7-2.1
				c-0.6-0.3-1-0.8-1.2-1.5c-0.2-0.6-0.1-1.3,0.2-1.9l11.1-19.5c0.3-0.6,0.8-1,1.5-1.2c0.6-0.2,1.3-0.1,1.9,0.2l5,2.8l3.3-5.9
				c-0.8-1.2-0.9-2.7-0.4-4c3.6-8.9,10.6-16.8,13.4-19.7c0.3-0.4,1.5-1.4,1.7-1.6c2.1-1.5,3.7-1.7,4.6-1.8l0.2,0
				c1.1-0.1,2.2,0.1,2.2,0.1c1.5,0.2,3,0.9,4.2,1.8c0.4,0.3,1.2,0.9,2.1,1.8c3.1,2.7,8.8,7.8,14.5,8.4c2.4,0.2,4.1,2.4,3.9,4.8
				c-0.2,2.4-2.4,4.2-4.8,3.9c-4.8-0.5-8.5-1.7-11.8-3.8l0.8,9.3c0.1,1.6-0.3,3.1-1.1,4.4c1.8,2.9,6.1,10.2,12,23.5
				c0.6,1.3,0.6,2.7,0.1,4c-0.5,1.3-1.5,2.4-2.8,2.9c-0.7,0.3-1.4,0.5-2.1,0.5c-2.1,0-4-1.2-4.8-3.1c-4.2-9.4-7.6-15.9-10-20
				c-1.5,2.6-3.4,6.5-5.4,10.2c-2.2,4.2-4.3,8.3-5.5,10.3c-0.9,1.5-2.4,2.5-4.2,2.6c-1.1,0.1-2.1-0.2-3-0.7
				c-2.5-1.5-3.4-4.7-1.9-7.2c1.9-3.2,6-10.8,9.3-16.9c1.2-2.1,2.2-4.1,3-5.5c-0.8-1-1.3-2.3-1.4-3.6l-0.8-9.4
				c-1.9,2.8-3.4,5.5-4.4,8c-0.5,1.3-1.6,2.2-2.9,2.6l-5,8.7l-4.2,7.5L13,73.2c0.9,1.7,0.6,3.8-0.8,5.2
				C11.4,79.2,10.4,79.7,9.2,79.7z M9.1,77.6c0.1,0,0.1,0,0.2,0c0.6,0,1.2-0.2,1.6-0.7c0.8-0.8,0.9-2.2,0.2-3.1l-0.4-0.5L17,62.2
				l4.2-7.5l5.5-9.5l0.5-0.1c0.8-0.1,1.5-0.7,1.8-1.5c1.3-3.3,3.4-6.9,6.2-10.6l1.6-2.1L38,45.6c0.1,1.1,0.5,2.1,1.3,3l0.5,0.5
				l-0.4,0.6c-0.8,1.4-2,3.6-3.3,6.1c-3.3,6.1-7.5,13.7-9.3,16.9c-0.9,1.6-0.4,3.6,1.2,4.5c0.6,0.3,1.2,0.5,1.9,0.4
				C31,77.6,32,77,32.6,76c1.2-2,3.2-6,5.4-10.2c2.4-4.6,4.8-9.3,6.3-11.8l0.8-1.5l0.9,1.5c2.4,4,6.3,11,11,21.8c0.5,1.2,1.7,2,3,2
				c0.5,0,0.9-0.1,1.3-0.3c0.8-0.4,1.4-1,1.7-1.8c0.3-0.8,0.3-1.7-0.1-2.5c-6.3-14.2-10.8-21.5-12.3-23.9l-0.4-0.6l0.4-0.6
				c0.9-1.1,1.2-2.3,1.1-3.6l-1.2-13.8l1.8,1.5c2.3,1.8,5.8,4,12.6,4.7c0.1,0,0.2,0,0.2,0c1.2,0,2.2-0.9,2.4-2.1
				c0.1-1.3-0.8-2.5-2.1-2.6h0c-6.3-0.7-12.4-6-15.7-8.9c-0.8-0.7-1.6-1.4-1.9-1.6c-1.1-0.8-2.3-1.3-3.5-1.5c-0.1,0-0.8-0.2-1.6-0.1
				l-0.2,0c-0.8,0.1-2,0.2-3.7,1.5c-0.2,0.2-1.1,1-1.4,1.2c-2.8,2.9-9.6,10.5-13,19.1c-0.3,0.9-0.2,1.8,0.5,2.5l0.5,0.5l-5,8.9
				L13.9,50c-0.1-0.1-0.3-0.1-0.3,0c-0.1,0-0.2,0.1-0.3,0.2L2.2,69.7c-0.1,0.1-0.1,0.3,0,0.3c0,0.1,0.1,0.2,0.2,0.3l5.3,3l-0.5,0.9
				c-0.4,0.7-0.4,1.6,0,2.3C7,76.2,7,75.8,7,75.4c0-1.2,1-2.2,2.2-2.2c1.2,0,2.2,1,2.2,2.2C11.4,76.7,10.3,77.7,9.1,77.6z M9.2,75.2
				C9,75.2,9,75.3,9,75.4c0,0.2,0.4,0.2,0.4,0C9.4,75.3,9.3,75.2,9.2,75.2z"/>
		</g>
	</g>
</g>
</svg>
