<?xml version="1.0" encoding="utf-8"?>
<!-- Generator: Adobe Illustrator 22.0.0, SVG Export Plug-In . SVG Version: 6.00 Build 0)  -->
<svg version="1.1" id="Layer_1" xmlns="http://www.w3.org/2000/svg" xmlns:xlink="http://www.w3.org/1999/xlink" x="0px" y="0px"
	 viewBox="0 0 70 70" style="enable-background:new 0 0 70 70;" xml:space="preserve">
<style type="text/css">
	.st0{fill:#3F51B5;}
</style>
<g>
	<g>
		<path class="st0" d="M69.9,26.5c0-0.1,0-0.1-0.1-0.2c0-0.1-0.1-0.1-0.1-0.2c0-0.1-0.1-0.1-0.2-0.2c0,0,0,0,0-0.1l-11.2-8.7v-9
			c0-1.9-1.6-3.5-3.5-3.5H42.2l-5.1-3.9c-1.3-1-3-1-4.3,0l-5.1,3.9H15.2c-1.9,0-3.5,1.6-3.5,3.5v9L0.5,25.9c0,0,0,0,0,0.1
			c-0.1,0.1-0.1,0.1-0.2,0.2c0,0.1-0.1,0.1-0.1,0.2c0,0.1-0.1,0.1-0.1,0.2c0,0.1,0,0.2,0,0.2c0,0,0,0,0,0.1v39.7
			c0,0.4,0.1,0.7,0.2,1.1c-0.3,0.4-0.3,0.9,0,1.3s0.8,0.6,1.3,0.4c0.6,0.4,1.3,0.6,2,0.6h63c0.7,0,1.4-0.2,2-0.7
			c0.1,0,0.2,0,0.3,0.1c0.4,0,0.8-0.2,1-0.6c0.2-0.4,0.2-0.8,0-1.2c0.1-0.4,0.2-0.7,0.2-1.1V26.8c0,0,0,0,0-0.1
			C70,26.7,70,26.6,69.9,26.5z M34.3,2.6c0.4-0.3,1-0.3,1.4,0l2.7,2.1h-6.8L34.3,2.6z M12.8,30.3c0.6,0,1.2-0.5,1.2-1.2v-21
			C14,7.5,14.5,7,15.2,7h39.7C55.5,7,56,7.5,56,8.2v21c0,0.6,0.5,1.2,1.2,1.2c0.6,0,1.2-0.5,1.2-1.2v-9l8.2,6.4L47.1,41.6
			c-0.5,0.4-0.6,1.1-0.2,1.6c0.4,0.5,1.1,0.6,1.6,0.2l19.2-14.9v37.2L37.1,42.1c-1.3-1-3-1-4.3,0L2.3,65.8V28.6l19.1,14.8
			c0.5,0.4,1.2,0.3,1.6-0.2c0.4-0.5,0.3-1.2-0.2-1.6L3.5,26.5l8.2-6.4v9C11.7,29.8,12.2,30.3,12.8,30.3z M66.2,67.7H3.8L34.3,44
			c0.4-0.3,1-0.3,1.4,0L66.2,67.7z"/>
		<path class="st0" d="M23.3,15.2h23.3c0.6,0,1.2-0.5,1.2-1.2s-0.5-1.2-1.2-1.2H23.3c-0.6,0-1.2,0.5-1.2,1.2S22.7,15.2,23.3,15.2z"
			/>
		<path class="st0" d="M23.3,22.2h23.3c0.6,0,1.2-0.5,1.2-1.2s-0.5-1.2-1.2-1.2H23.3c-0.6,0-1.2,0.5-1.2,1.2S22.7,22.2,23.3,22.2z"
			/>
		<path class="st0" d="M46.7,26.8H36.2c-0.6,0-1.2,0.5-1.2,1.2s0.5,1.2,1.2,1.2h10.5c0.6,0,1.2-0.5,1.2-1.2S47.3,26.8,46.7,26.8z"/>
	</g>
</g>
</svg>
