<?xml version="1.0" encoding="utf-8"?>
<!-- Generator: Adobe Illustrator 22.0.0, SVG Export Plug-In . SVG Version: 6.00 Build 0)  -->
<svg version="1.1" id="Layer_1" xmlns="http://www.w3.org/2000/svg" xmlns:xlink="http://www.w3.org/1999/xlink" x="0px" y="0px"
	 viewBox="0 0 27.7 22.3" style="enable-background:new 0 0 27.7 22.3;" xml:space="preserve">
<style type="text/css">
	.st0{fill:#29B6F6;}
</style>
<g>
	<g>
		<rect x="2.8" y="0" class="st0" width="5.6" height="2"/>
		<path class="st0" d="M13.5,12.5c0,2-1.6,3.6-3.6,3.6s-3.6-1.6-3.6-3.6C6.4,10.6,8,9,10,9S13.5,10.6,13.5,12.5L13.5,12.5z
			 M13.5,12.5"/>
		<path class="st0" d="M25.6,2.7H2c-1.1,0-2,0.9-2,2v15.7c0,1.1,0.9,2,2,2h23.6c1.1,0,2-0.9,2-2V4.7C27.6,3.6,26.7,2.7,25.6,2.7
			L25.6,2.7z M22.2,4.3h2.4c0.7,0,1.3,0.6,1.3,1.3c0,0.7-0.6,1.3-1.3,1.3h-2.4c-0.7,0-1.3-0.6-1.3-1.3C20.9,4.9,21.5,4.3,22.2,4.3
			L22.2,4.3z M10,20c-4.1,0-7.4-3.3-7.4-7.4c0-4.1,3.3-7.4,7.4-7.4c4.1,0,7.4,3.3,7.4,7.4C17.5,16.6,14.2,20,10,20L10,20z
			 M26.1,18.6h-2.8v2.8h-2.4v-2.8h-2.8v-2.4h2.8v-2.8h2.4v2.8h2.8V18.6z M26.1,18.6"/>
	</g>
</g>
</svg>
