<?xml version="1.0" encoding="utf-8"?>
<!-- Generator: Adobe Illustrator 22.0.0, SVG Export Plug-In . SVG Version: 6.00 Build 0)  -->
<svg version="1.1" id="Layer_1" xmlns="http://www.w3.org/2000/svg" xmlns:xlink="http://www.w3.org/1999/xlink" x="0px" y="0px"
	 viewBox="0 0 10 10" style="enable-background:new 0 0 10 10;" xml:space="preserve">
<style type="text/css">
	.st0{fill:#F65B50;}
</style>
<path class="st0" d="M5.3,4.3L5,3.8L4.7,4.3l0,0c0,0.1-0.1,0.1-0.2,0.1L3.9,4.4l0.4,0.5C4.3,5,4.3,5,4.3,5.1L3.9,5.6l0.6-0.1
	c0.1,0,0.2,0,0.2,0.1L5,6.2l0.3-0.5l0,0c0-0.1,0.1-0.1,0.2-0.1l0.6,0.1L5.7,5.1C5.7,5,5.7,5,5.7,4.9l0.4-0.5L5.5,4.4
	C5.4,4.5,5.3,4.4,5.3,4.3z M5.2,2.5c0,0.1-0.1,0.2-0.2,0.2c-0.1,0-0.2-0.1-0.2-0.2V0.2C4.8,0.1,4.9,0,5,0c0.1,0,0.2,0.1,0.2,0.2V2.5
	z M7.4,3.9C7.3,4,7.2,3.9,7.1,3.8c-0.1-0.1,0-0.2,0.1-0.3l2.1-1.1c0.1-0.1,0.2,0,0.3,0.1c0.1,0.1,0,0.2-0.1,0.3L7.4,3.9z M7.2,6.4
	C7.1,6.4,7.1,6.3,7.1,6.2c0.1-0.1,0.2-0.1,0.3-0.1l2.1,1.1c0.1,0.1,0.1,0.2,0.1,0.3C9.5,7.6,9.4,7.6,9.3,7.6L7.2,6.4z M4.8,7.5
	c0-0.1,0.1-0.2,0.2-0.2c0.1,0,0.2,0.1,0.2,0.2v2.3C5.2,9.9,5.1,10,5,10c-0.1,0-0.2-0.1-0.2-0.2V7.5z M2.6,6.1c0.1-0.1,0.2,0,0.3,0.1
	c0.1,0.1,0,0.2-0.1,0.3L0.7,7.6c-0.1,0.1-0.2,0-0.3-0.1c-0.1-0.1,0-0.2,0.1-0.3L2.6,6.1z M2.8,3.6c0.1,0.1,0.1,0.2,0.1,0.3
	C2.8,3.9,2.7,3.9,2.6,3.9L0.5,2.8C0.4,2.7,0.4,2.6,0.5,2.5c0.1-0.1,0.2-0.1,0.3-0.1L2.8,3.6z M2.4,1.2c-0.1-0.1,0-0.2,0.1-0.3
	c0.1-0.1,0.2,0,0.3,0.1l0.4,0.7c0.1,0.1,0,0.2-0.1,0.3C3,2,2.9,1.9,2.8,1.8L2.4,1.2z M4.2,3.3c0.1,0.1,0,0.2-0.1,0.3
	c-0.1,0.1-0.2,0-0.3-0.1L3.5,2.9c-0.1-0.1,0-0.2,0.1-0.3c0.1-0.1,0.2,0,0.3,0.1L4.2,3.3z M7.2,1c0.1-0.1,0.2-0.1,0.3-0.1
	c0.1,0.1,0.1,0.2,0.1,0.3L7.2,1.8C7.1,1.9,7,2,6.9,1.9C6.8,1.9,6.7,1.7,6.8,1.6L7.2,1z M6.1,3.5C6.1,3.6,5.9,3.7,5.8,3.6
	C5.7,3.5,5.7,3.4,5.8,3.3l0.4-0.7c0.1-0.1,0.2-0.1,0.3-0.1c0.1,0.1,0.1,0.2,0.1,0.3L6.1,3.5z M9.8,4.8C9.9,4.8,10,4.9,10,5
	c0,0.1-0.1,0.2-0.2,0.2H9C8.9,5.2,8.8,5.1,8.8,5c0-0.1,0.1-0.2,0.2-0.2H9.8z M6.9,5.2C6.8,5.2,6.7,5.1,6.7,5c0-0.1,0.1-0.2,0.2-0.2
	h0.8c0.1,0,0.2,0.1,0.2,0.2c0,0.1-0.1,0.2-0.2,0.2H6.9z M7.6,8.8c0.1,0.1,0,0.2-0.1,0.3c-0.1,0.1-0.2,0-0.3-0.1L6.8,8.4
	c-0.1-0.1,0-0.2,0.1-0.3C7,8,7.1,8.1,7.2,8.2L7.6,8.8z M5.8,6.7c-0.1-0.1,0-0.2,0.1-0.3c0.1-0.1,0.2,0,0.3,0.1l0.4,0.7
	c0.1,0.1,0,0.2-0.1,0.3c-0.1,0.1-0.2,0-0.3-0.1L5.8,6.7z M2.8,9C2.7,9.1,2.6,9.2,2.5,9.1C2.4,9.1,2.4,8.9,2.4,8.8l0.4-0.7
	C2.9,8.1,3,8,3.1,8.1c0.1,0.1,0.1,0.2,0.1,0.3L2.8,9z M3.9,6.5c0.1-0.1,0.2-0.1,0.3-0.1c0.1,0.1,0.1,0.2,0.1,0.3L3.8,7.4
	C3.8,7.5,3.6,7.5,3.5,7.4C3.4,7.4,3.4,7.2,3.5,7.1L3.9,6.5z M0.2,5.2C0.1,5.2,0,5.1,0,5c0-0.1,0.1-0.2,0.2-0.2H1
	c0.1,0,0.2,0.1,0.2,0.2c0,0.1-0.1,0.2-0.2,0.2H0.2z M3.1,4.8c0.1,0,0.2,0.1,0.2,0.2c0,0.1-0.1,0.2-0.2,0.2H2.3
	C2.2,5.2,2.1,5.1,2.1,5c0-0.1,0.1-0.2,0.2-0.2H3.1z M5.2,3.2l0.4,0.8L6.5,4C6.6,4,6.7,4,6.7,4.2c0,0,0,0.1,0,0.1L6.2,5l0.5,0.7
	c0.1,0.1,0,0.2-0.1,0.3c0,0-0.1,0-0.1,0l0,0L5.6,6L5.2,6.8C5.1,6.9,5,6.9,4.9,6.9c-0.1,0-0.1-0.1-0.1-0.1l0,0L4.4,5.9L3.5,6
	C3.4,6,3.3,6,3.3,5.8c0,0,0-0.1,0-0.1L3.8,5L3.3,4.3C3.2,4.2,3.2,4.1,3.3,4c0,0,0.1,0,0.1,0l0,0L4.4,4l0.4-0.8
	C4.8,3.1,5,3.1,5.1,3.1C5.1,3.2,5.2,3.2,5.2,3.2L5.2,3.2z"/>
</svg>
