<?xml version="1.0" encoding="utf-8"?>
<!-- Generator: Adobe Illustrator 22.0.0, SVG Export Plug-In . SVG Version: 6.00 Build 0)  -->
<svg version="1.1" id="Layer_1" xmlns="http://www.w3.org/2000/svg" xmlns:xlink="http://www.w3.org/1999/xlink" x="0px" y="0px"
	 viewBox="0 0 346.9 346.4" style="enable-background:new 0 0 346.9 346.4;" xml:space="preserve">
<style type="text/css">
	.st0{clip-path:url(#SVGID_2_);fill:#1E325E;}
	.st1{fill:#FFFFFF;}
	.st2{fill:#E5E5E5;}
	.st3{fill:#29B6F6;}
	.st4{fill:#3FA18F;}
	.st5{fill:#1E325E;}
	.st6{fill:#FCC5A7;}
	.st7{fill:#F7EAE2;}
</style>
<g>
	<g>
		<defs>
			<circle id="SVGID_1_" cx="187.5" cy="158.9" r="158.1"/>
		</defs>
		<use xlink:href="#SVGID_1_"  style="overflow:visible;fill:#13416B;"/>
		<clipPath id="SVGID_2_">
			<use xlink:href="#SVGID_1_"  style="overflow:visible;"/>
		</clipPath>
		<polygon class="st0" points="126.5,277 195.9,346.4 375,346.4 375,154.4 248.5,27.9 242.7,255.9 		"/>
	</g>
	<path class="st1" d="M253.9,264.5c0,9.5-7.8,17.2-17.2,17.2h-98.2c-9.5,0-17.2-7.8-17.2-17.2V40.4c0-9.5,7.8-17.2,17.2-17.2h98.2
		c9.5,0,17.2,7.8,17.2,17.2V264.5z"/>
	<path class="st2" d="M198.7,265.4c0,6.2-5,11.2-11.2,11.2c-6.2,0-11.2-5-11.2-11.2c0-6.2,5-11.2,11.2-11.2
		C193.7,254.1,198.7,259.2,198.7,265.4z"/>
	<rect x="126.2" y="56.3" class="st3" width="122.5" height="193.7"/>
	<g>
		<g>
			<g>
				<path class="st4" d="M209.4,170.7c0,11-9.1,20-20.3,20c-11.2,0-20.3-9-20.3-20c0-11,9.1-20,20.3-20
					C200.3,150.7,209.4,159.6,209.4,170.7z"/>
			</g>
			<g>
				<g>
					<path class="st4" d="M189,142.2c-16,0-29,12.8-29,28.5s13,28.5,29,28.5c16,0,29-12.8,29-28.5S205.1,142.2,189,142.2z
						 M189,195.5c-13.9,0-25.2-11.1-25.2-24.8c0-13.7,11.3-24.8,25.2-24.8c13.9,0,25.2,11.1,25.2,24.8
						C214.3,184.4,203,195.5,189,195.5z"/>
				</g>
			</g>
		</g>
	</g>
	<g>
		<polygon class="st1" points="48.7,275 99.8,309 83.7,333.2 33.1,298.8 		"/>
		<polygon class="st5" points="41.8,277.4 98,317.6 80.2,346.4 0,346.4 		"/>
		<path class="st6" d="M65.9,258.1c0,0-1.5-11.8,3.9-21.9c5.3-10,16.8-25.5,24.4-37.1c7.6-11.6,12.5-12,16.8-9.9
			c4.3,2.1,5.7,5.1,4.3,7.1c-1.5,2-6.6,8.8-7.7,10.1c-1.6,1.9-0.2,2.5,0.2,2c0.9-1.2,5-5.6,8.5-10.2c3.5-4.7,8.3-4.7,11.9-3.1
			c3.5,1.6,5.6,5.8,4.4,7.8c-1.3,2-8.1,12.5-9.2,14.1c-1.1,1.6-0.1,1.6,0.4,1.6c0.5,0,6.2-7.9,9.7-12.8c3.4-4.9,8.2-6.1,12.1-4.8
			c3.9,1.3,6.4,4.5,5.4,6.4c-1,2-10.3,16.2-11.1,17.5c-0.7,1.3,0.4,2,1.9,0.3c1.5-1.8,38.1-56.5,40.6-60c2.5-3.5,8-4.7,13.2-1.5
			c5.3,3.3,2.8,10.2,0.8,13.3c-2,3.1-46.4,67.6-56.9,81.2c-0.7,0.9,0.7,1.1,1.2,0.7c0.5-0.5,9.5-12.1,15.2-19.1
			c6.1-7.4,10.8-6.7,12.6-6.2c2.3,0.7,4.3,1.7,5.5,2.8c-1.6,1.3-5.4,4.7-7.1,7.1c-1.2,1.7-1.9,4.1-1.5,5.9
			c-6.4,6.3-15,14.5-23.4,21.9c-16.2,14.4-34.5,19.6-34.5,19.6l-10.5,16L53,277.8L65.9,258.1z"/>
		<path class="st7" d="M166.9,243.6c1.6-2.4,5.5-5.8,7.1-7.1c0.6,0.6,1.1,1.2,1.1,1.9c0.1,0.9-3.8,5.3-9.7,11.1
			C164.9,247.7,165.7,245.4,166.9,243.6z"/>
		<path class="st7" d="M183.7,166.4c1.2-1.7,3.2-2.6,5.4-2.6c1.7,0,3.4,0.5,5.1,1.6c1.2,0.7,2,1.8,2.3,3.1c0.6,2.8-0.8,6-1.8,7.4
			c-0.2,0.2-0.7,1-1.5,2.2c-2.4,0.2-5.8,0.2-8.3-1.7c-2.4-1.8-4-4.1-4-6C182.8,167.9,183.4,166.9,183.7,166.4z"/>
	</g>
</g>
</svg>
