<?xml version="1.0" encoding="utf-8"?>
<!-- Generator: Adobe Illustrator 22.0.0, SVG Export Plug-In . SVG Version: 6.00 Build 0)  -->
<svg version="1.1" id="Layer_1" xmlns="http://www.w3.org/2000/svg" xmlns:xlink="http://www.w3.org/1999/xlink" x="0px" y="0px"
	 viewBox="0 0 49.8 48.6" style="enable-background:new 0 0 49.8 48.6;" xml:space="preserve">
<style type="text/css">
	.st0{fill:#FFB300;}
	.st1{fill:#3F51B5;}
</style>
<g>
	<g>
		<g>
			<g>
				<path class="st0" d="M13.3,21.6L1.8,24.5c-0.2,0.1-0.2,0.3-0.1,0.4l3.4,1.8c0.1,0.1,0.2,0.2,0.1,0.3L0,37.3c0,0.1,0,0.2,0,0.3
					l6.2,7.6c0.1,0.1,0.3,0.1,0.4,0l7.1-13.6c0.1-0.1,0.2-0.2,0.3-0.1l3.4,1.8c0.2,0.1,0.4-0.1,0.3-0.3l-4.2-11.1
					C13.6,21.7,13.4,21.6,13.3,21.6z"/>
			</g>
		</g>
	</g>
	<g>
		<g>
			<g>
				<path class="st1" d="M12.2,35.9l-4.8,9.2c-0.1,0.2,0,0.4,0.2,0.3l12.4-0.6c0.1,0,0.2-0.1,0.2-0.2l-0.4-9c0-0.1-0.1-0.2-0.2-0.2
					l-7.2,0.3C12.3,35.8,12.3,35.8,12.2,35.9z"/>
			</g>
		</g>
	</g>
	<g>
		<g>
			<g>
				<path class="st0" d="M25.6,40l8.3,8.5c0.2,0.2,0.4,0,0.4-0.2l-0.2-3.9c0-0.1,0.1-0.2,0.2-0.2l11.5-0.5c0.1,0,0.2-0.1,0.2-0.2
					l3.5-9.2c0.1-0.2-0.1-0.3-0.2-0.3L34,34.8c-0.1,0-0.2-0.1-0.2-0.2l-0.2-3.9c0-0.2-0.3-0.3-0.4-0.1l-7.5,9.2
					C25.6,39.8,25.6,39.9,25.6,40z"/>
			</g>
		</g>
	</g>
	<g>
		<g>
			<g>
				<path class="st1" d="M38.6,33.9L49,33.4c0.2,0,0.3-0.2,0.2-0.4l-6.7-10.5c-0.1-0.1-0.2-0.1-0.3-0.1l-7.6,4.8
					c-0.1,0.1-0.1,0.2-0.1,0.3l3.9,6.1C38.4,33.8,38.5,33.9,38.6,33.9z"/>
			</g>
		</g>
	</g>
	<g>
		<g>
			<g>
				<path class="st0" d="M35.6,19.9l3.2-11.4c0.1-0.2-0.2-0.4-0.4-0.3l-3.3,2.1c-0.1,0.1-0.3,0-0.3-0.1l-6.2-9.7
					c-0.1-0.1-0.1-0.1-0.2-0.1L18.7,2c-0.2,0-0.3,0.2-0.2,0.4l8.3,13c0.1,0.1,0,0.3-0.1,0.3l-3.3,2.1c-0.2,0.1-0.1,0.4,0.1,0.4
					l11.7,1.9C35.4,20.1,35.5,20,35.6,19.9z"/>
			</g>
		</g>
	</g>
	<g>
		<g>
			<g>
				<path class="st1" d="M23.8,11.8L18.2,3c-0.1-0.2-0.3-0.1-0.4,0l-5.7,11c-0.1,0.1,0,0.3,0.1,0.3l8,4.1c0.1,0.1,0.3,0,0.3-0.1
					l3.3-6.4C23.8,11.9,23.8,11.9,23.8,11.8z"/>
			</g>
		</g>
	</g>
</g>
</svg>
