<?xml version="1.0" encoding="utf-8"?>
<!-- Generator: Adobe Illustrator 22.0.0, SVG Export Plug-In . SVG Version: 6.00 Build 0)  -->
<svg version="1.1" id="Layer_1" xmlns="http://www.w3.org/2000/svg" xmlns:xlink="http://www.w3.org/1999/xlink" x="0px" y="0px"
	 viewBox="0 0 243 118" style="enable-background:new 0 0 243 118;" xml:space="preserve">
<style type="text/css">
	.st0{fill:#DCDADF;}
	.st1{fill:#FFBFA4;}
	.st2{fill:#D4BFC6;}
	.st3{fill:#FFFFFF;}
	.st4{fill:#77C8D4;}
	.st5{fill:#E4E3E7;}
	.st6{fill:#FDBB81;}
	.st7{fill:#012350;}
	.st8{fill:#FFB494;}
	.st9{display:none;fill:#D96574;}
	.st10{fill:#777185;}
	.st11{fill:#323A45;}
	.st12{fill:#7A7F86;}
	.st13{fill-rule:evenodd;clip-rule:evenodd;fill:#FEB601;}
	.st14{fill-rule:evenodd;clip-rule:evenodd;fill:#ED7425;}
	.st15{fill-rule:evenodd;clip-rule:evenodd;fill:#0EA6D8;}
	.st16{fill:#4E4661;}
	.st17{fill:#85485B;}
	.st18{fill:#D96574;}
	.st19{fill:#22214E;}
	.st20{fill:#666296;}
	.st21{fill:#CCD3E3;}
	.st22{fill:#454173;}
	.st23{fill:#5FD4D4;}
	.st24{fill:url(#SVGID_1_);}
	.st25{fill:#754C24;}
	.st26{fill:url(#SVGID_2_);}
	.st27{fill:#CAE8E3;}
	.st28{fill:#CC792F;}
	.st29{fill:#004B8D;}
	.st30{fill:#A67C52;}
	.st31{fill:#7DC5BC;}
	.st32{fill:#E36104;}
	.st33{fill:#444363;}
	.st34{fill:#3F9487;}
	.st35{fill:#DEFFFA;}
	.st36{fill:#317396;}
	.st37{fill:#F0FFFD;}
	.st38{fill:#FEFFF2;}
	.st39{fill:#FF9B05;}
	.st40{fill:#FFD699;}
	.st41{fill:#ADEED8;}
	.st42{fill:#BABABA;}
	.st43{fill:#EAF8FF;}
	.st44{fill:#C12A2A;}
	.st45{fill:#AE1E1E;}
	.st46{fill:#F6F6F6;}
	.st47{fill:#004B61;}
	.st48{fill:#003846;}
	.st49{fill:#603016;}
	.st50{fill:#DBDBD9;}
	.st51{fill:#FDD5C5;}
	.st52{fill:#F99880;}
	.st53{fill:#FDCCB9;}
	.st54{fill:#EBEBEB;}
	.st55{fill:#D5D3D0;}
	.st56{fill:#A9212D;}
	.st57{fill:#9E1F2E;}
	.st58{fill:#D22228;}
	.st59{fill:none;}
	.st60{fill:#BD4949;}
	.st61{fill:#FD9797;}
	.st62{opacity:0.1;fill:#1C1918;}
	.st63{fill:#33343D;}
	.st64{fill:#0EA6D8;}
	.st65{fill:#543D31;}
	.st66{fill:#3F3E5D;}
	.st67{fill:#DDBCA6;}
	.st68{fill:#F7CEB2;}
	.st69{fill:#FEB601;}
	.st70{fill:#EFEFED;}
	.st71{fill:#222228;}
	.st72{fill:#84653C;}
	.st73{opacity:0.4;fill:#B57662;}
	.st74{fill:#D39484;}
	.st75{fill:#705543;}
	.st76{fill:#ADADAD;}
</style>
<g>
	<g>
		<ellipse class="st0" cx="227.9" cy="108" rx="14.2" ry="3.8"/>
		<g>
			<path class="st1" d="M204.2,70.5c-0.1,0.2,0,0.3,0.1,0.4c0.4,0.3,1,0,1.4-0.2c2-0.8,3.7-1.9,5.8-2.6c1.2-0.3,2.8-0.7,4.1-1.1
				c1.5-0.5,2.9-1,4.4-1.7c2.8-1.2,5.6-2.8,8-4.7c0.1,0,0.1,0,0.2-0.1c0,0,0,0,0-0.1c0,0,0,0,0,0c0.1,0,0-0.1,0-0.2
				c0.1-1.3-0.8-2.6-1.2-3.7c0-0.1-0.1-0.1-0.1-0.1c-0.1,0-0.2,0-0.2,0.1c-2.5,1.8-5.1,3.4-7.7,4.9c-1.4,0.8-2.9,1.5-4.5,2.1
				c-1.3,0.5-2.8,0.8-4.1,1.4c-0.3-0.3-0.5-0.6-0.7-0.9c-0.2-0.3-0.4-0.7-0.6-1c-0.3-0.3-0.6-0.2-0.8,0.2c-0.2,0.6-0.1,1.7,0.3,2.5
				c-1.3,0.3-2.4,0.9-3.5,1.7c-0.6,0.5-1.5,1.2-1.1,2c0,0-0.2,0.2-0.2,0.3c-0.1,0.1-0.1,0.2-0.1,0.3c0,0.3,0.1,0.5,0.4,0.5
				C204,70.5,204.2,70.5,204.2,70.5z"/>
			<path class="st2" d="M203.9,69.5C203.9,69.5,203.9,69.5,203.9,69.5c0-0.1,0-0.2,0-0.3c0.3-0.2,0.7-0.5,0.9-0.6
				c0.7-0.5,1.4-0.9,2.2-1.2c0.1,0,0.1,0.1,0.1,0.1c-0.7,0.3-1.4,0.8-2,1.2C204.6,69,204.2,69.2,203.9,69.5z"/>
			<path class="st2" d="M204,70.5c0.7-0.8,2.5-1.9,3.5-2.3c0.1,0,0.2,0,0.1,0.1c-0.7,0.3-1.4,0.8-2,1.2c-0.5,0.4-1,0.7-1.5,1.1
				c0,0,0,0,0,0C204.2,70.5,204,70.5,204,70.5z"/>
		</g>
		<path class="st3" d="M215,58.8c0.7,1.5,1.3,3.1,1.7,4.7c0,0.1,0.2,0.2,0.3,0.2c1-0.3,2.4-0.7,3.3-1.4c0.8-0.6,0.9-2.1,1.2-3
			c0.8-2.8,1.4-5.6,1.2-8.5c0-0.2-0.2-0.2-0.3-0.2c0,0,0,0,0,0c0,0,0,0,0,0c0,0,0,0-0.1,0c-0.6,0.2-0.9,0.7-1.3,1.1
			c-0.6,0.5-1.1,1.1-1.7,1.7c-1.1,1.1-2.3,2.2-3.6,3.2c-0.3,0.2-1.1,0.6-1.2,1C214.4,57.9,214.9,58.5,215,58.8z"/>
		<g>
			<path class="st4" d="M222.1,50.9C222.1,50.9,222.1,50.9,222.1,50.9C222.1,50.9,222.1,50.9,222.1,50.9z"/>
			<path class="st5" d="M235.1,68.4c0-1.8,0.2-3.6,0.1-5.4c0.1-1.2,0.2-2.3,0.4-3.5c0.1-1.2,0.3-2.5,0.4-3.7
				c0.2-1.3,0.7-2.3,0.7-3.6c0-0.1-0.1-0.1-0.1-0.1c-0.5-0.3-1.6-0.8-2.2-1c-0.8-0.2-1.7-0.5-2.6-0.6c0,0,0,0,0,0
				c-0.1,0-0.2-0.6-0.2-0.6c-2.2,1.7-4.7,1.1-7,0.1c0,0-0.1,0-0.1,0c0,0,0,0-0.1,0c-0.5,0.1-0.9,0.2-1.4,0.3
				c-0.2,0.1-0.6,0.2-0.7,0.3c0,0,0,0.1,0,0.1c-1.5,3.4-2,7.7-2.4,11.4c-0.5,3.8-0.7,7.8-0.1,11.7c0,0.2,0.2,0.2,0.3,0.2
				c1.3,0.1,2.6,0,3.8,0c1.3,0,2.5,0.1,3.8,0.2c1.2,0.1,2.4,0.3,3.5,0.4c0.9,0,2.1,0.1,3-0.2c0.1,0.1,0.2,0.1,0.2,0
				C235.4,72.7,235.1,70.3,235.1,68.4z"/>
		</g>
		<path class="st6" d="M239,105.8c-0.4-0.2-1.2,0-1.6,0c-0.6,0-1.3,0-1.9,0c-0.1,0-0.2,0.1-0.2,0.2c-1,0.3-2,0.5-3,0.9
			c-0.4,0.2-1.4,0.7-1.5,1.2c-0.1,0.4,0.2,0.4,0.6,0.5c1.3,0.2,2.8,0.1,4.2,0c1-0.1,2.5-0.1,3.4-0.5c0.5-0.2,0.6-0.6,0.6-1.1
			C239.5,106.6,239.5,106,239,105.8z"/>
		<path class="st6" d="M226.9,105.8c-0.4-0.2-1.2,0-1.6,0c-0.6,0-1.3,0-1.9,0c-0.1,0-0.2,0.1-0.2,0.2c-1,0.3-2,0.5-3,0.9
			c-0.4,0.2-1.4,0.7-1.5,1.2c-0.1,0.4,0.2,0.4,0.6,0.5c1.3,0.2,2.8,0.1,4.2,0c1-0.1,2.5-0.1,3.4-0.5c0.5-0.2,0.6-0.6,0.6-1.1
			C227.5,106.6,227.4,106,226.9,105.8z"/>
		<path class="st7" d="M219.7,73.3c2.4,0.1,4.7,0.5,7.1,0.8c2.4,0.3,4.8,0.2,7.3,0.4c0.1-0.1,0.3,0,0.3,0.1
			c0.8,5.2,0.6,10.6,1.8,15.8c1.1,5.1,2.7,10.2,3.7,15.4c-1.3,0.8-3.4,1-4.8,0.3c0,0,0,0,0,0c-1.1-1.7-1.6-3.8-2.2-5.7
			c-0.7-2.2-1.3-4.5-1.8-6.8c-0.5-2.2-0.9-4.4-1.3-6.7c-0.2-1.1-0.4-2.3-0.6-3.4c-0.2-1-0.2-2.1-0.7-3c-0.5-0.9-1.4-1.3-2.2-0.5
			c-0.8,0.8-0.8,2.1-0.8,3.2c-0.2,3.2,0,6.5,0.4,9.8c0.2,2.2,0.5,4.5,0.9,6.7c0.3,2,0.8,4.1,1,6.2c0,0,0,0.1,0,0.1
			c-0.5,0.5-1.3,0.5-2,0.5c-0.7,0-2.3-0.2-2.3-0.3c0-0.1-2.4-10.8-3-16.1c-0.3-2.8-0.6-5.6-0.7-8.4c-0.1-1.3-0.1-2.7-0.2-4
			c0-1.2,0.1-2.4,0.2-3.5C219.6,73.8,219.7,73.6,219.7,73.3z"/>
		<path class="st8" d="M226.8,46.2c0,0.8-0.1,2.5-0.1,3.3c0,0.3,0,0.7,0.1,1c0.2,0.5,1.1,0.7,1.6,1c0.3,0.2,0.7-0.2,1-0.2
			c0.6,0,1.6-0.6,1.9-1.2c0.2-0.5,0-1.2,0-1.8c0-0.8,0-1.5-0.1-2.3c0-0.1-0.2-0.1-0.2,0c0,0,0,0,0,0c-1.3,0.1-2.6,0.1-4-0.1
			C226.9,46,226.8,46.1,226.8,46.2z"/>
		<path class="st9" d="M180.5,66c-0.2-1.4-0.3-2.8-0.4-4.2c-0.3-2.9-0.4-5.8-0.3-8.7c0.2-0.1,0.1-0.4-0.1-0.4c-0.3,0-0.5,0-0.8,0
			c-0.1,0-0.1,0-0.1,0.1c0,0-0.1,0-0.1,0c-0.8,2.8-1.8,5.7-2.5,8.4c-0.7,2.7-1,5.2-1.6,7.9c0.3,0.7,0.6,1.2,0.9,1.7
			c0.5,0.6,1,1.3,1.6,1.7c0.6-0.9,1.3-1.7,2-2.5c0.5-0.6,1.1-1.1,1.7-1.6C180.8,67.6,180.6,66.7,180.5,66z"/>
		<path class="st9" d="M179.3,50.8c-0.4,0-0.9,0.3-1.1,0.7c-0.4,0.8,0.1,2.1,0.9,2.2c1.2,0.2,1.6-0.8,1.6-1.7
			C180.8,51.2,180,50.7,179.3,50.8z"/>
		<path class="st3" d="M234,50.9c-0.3-0.6-0.7-1.3-1.2-1.8c-0.3-0.2-0.8-0.7-1.2-0.4c-0.3,0.2-0.7,0.5-1,0.7
			c-0.8,0.5-1.4,0.8-2.2,1.3c-0.1,0-0.1,0.1-0.1,0.2c0.4,0.4,0.7,0.8,1,1.2c0.1,0.2,0.3,0.5,0.4,0.7c0.1,0.2,0.1,0.3,0.2,0.5
			c0.1,0.1,0.2,0.2,0.3,0.1c0.3-0.1,0.5-0.3,0.8-0.5c0.3-0.2,0.5-0.3,0.8-0.5c0.5-0.3,1.1-0.7,1.6-1C233.5,51.3,234.1,51,234,50.9z"
			/>
		<path class="st3" d="M228,50.6c-0.5-0.4-0.9-0.7-1.4-1.1c-0.2-0.2-0.4-0.4-0.6-0.7c-0.1-0.1-0.2-0.3-0.4-0.4
			c-0.1-0.1-0.2-0.4-0.3-0.4c-0.3,0.1-0.6,0.3-0.9,0.5c-0.2,0.2-0.4,0.4-0.7,0.5c-0.1,0.1-0.2,0.2-0.3,0.3c-0.1,0.1-0.2,0.1-0.2,0.2
			c-0.1,0.7,0.5,1.5,0.9,2c0.3,0.4,0.6,0.7,0.9,1.1c0.2,0.2,0.4,0.3,0.5,0.5c0.1,0.1,0.3,0.3,0.5,0.1c0.3-0.4,0.5-0.8,0.8-1.2
			c0.2-0.2,0.4-0.4,0.6-0.6c0.2-0.2,0.4-0.4,0.6-0.6C228.1,50.8,228.2,50.7,228,50.6z"/>
		<g>
			<path class="st3" d="M221.2,57.9c0-0.1,0-0.2-0.1-0.3c0-0.3,0-0.7,0.1-1c0,0,0,0,0,0c1.5,0,3,0.1,4.4,0.3c0,0.4,0,0.7-0.1,1
				c-0.1,0.3-0.2,0.4-0.4,0.5c-0.6,0.2-1.4,0.1-1.8,0c-0.5,0-1.5-0.1-1.9-0.4C221.3,58.1,221.3,58,221.2,57.9z"/>
			<path class="st10" d="M222.5,57.4c0.4-0.1,0.8,0,1.2,0.1c0.4,0.1,0.9,0.1,1.3,0.1c0.1,0,0.1,0.2,0,0.2c-0.5,0-0.9,0.1-1.4,0
				c-0.4,0-0.8,0-1.1-0.2C222.4,57.5,222.4,57.4,222.5,57.4z"/>
			<path class="st10" d="M221.8,57.3c0.1,0,0.1,0,0.2,0c0.2,0,0.1,0.3-0.1,0.2c-0.1,0-0.1-0.1-0.1-0.1
				C221.8,57.4,221.8,57.3,221.8,57.3z"/>
		</g>
		<path class="st11" d="M219.5,73.8c5,0.7,10.4,2,15.4,1c0-0.4,0-0.7,0-1.1c0-0.1,0-0.1,0-0.2c-0.1,0-0.2,0-0.4,0.1
			c-4.9,0.4-9.7-0.3-14.8-0.6c0,0,0,0.2,0,0.2C219.5,73.3,219.5,73.6,219.5,73.8z"/>
		<path class="st12" d="M225.1,73.3c0,0.4-0.1,0.9-0.1,1.3c1,0.2,2.1,0.3,3.1,0.4c0-0.5,0-1,0-1.5C227.1,73.5,226.1,73.4,225.1,73.3
			z"/>
		<g>
			<rect x="207.2" y="57.7" class="st13" width="18.9" height="12.2"/>
			<rect x="206.5" y="54.6" class="st14" width="20.3" height="3.9"/>
			<path class="st15" d="M215.9,54.3l2.5-4.5l0,0c0.7-1,1.6-1.3,2.4-1.1c0.4,0.1,0.9,0.3,1.2,0.6c0.3,0.3,0.6,0.7,0.6,1.1
				c0.1,0.7-0.1,1.5-1,2l0,0l-4.9,2.6l-0.2-0.4L215.9,54.3L215.9,54.3z M219.4,50.4l-1.7,3l3.4-1.8c0.4-0.3,0.6-0.6,0.5-0.9
				c0-0.2-0.2-0.4-0.3-0.6c-0.2-0.2-0.4-0.3-0.6-0.3C220.3,49.6,219.8,49.8,219.4,50.4z"/>
			<path class="st15" d="M217,54.3l-2.5-4.5l0,0c-0.7-1-1.6-1.3-2.4-1.1c-0.4,0.1-0.9,0.3-1.2,0.6c-0.3,0.3-0.6,0.7-0.6,1.1
				c-0.1,0.7,0.1,1.5,1,2l0,0l4.9,2.6l0.2-0.4L217,54.3L217,54.3z M213.5,50.4l1.7,3l-3.4-1.8c-0.4-0.3-0.6-0.6-0.5-0.9
				c0-0.2,0.2-0.4,0.3-0.6c0.2-0.2,0.4-0.3,0.6-0.3C212.6,49.6,213.1,49.8,213.5,50.4z"/>
			<rect x="215.1" y="54.6" class="st15" width="2.6" height="15.3"/>
		</g>
		<g>
			<path class="st1" d="M211.8,70.5c0.1,0.3,0.4,0.5,0.7,0.6c0.2,0.5,0.5,0.7,0.9,0.9c0,0,0,0,0,0c0.8,1.1,2.3,1.2,3.5,1.1
				c1.3-0.1,2.9-0.4,4-1.3c1.7,0.4,3.3,0.4,5.2,0.5c1.9,0,3.7-0.3,5.5-0.7c1.7-0.4,2.9-1,4-2.4c1.1-1.4,1.9-3,2.5-4.6c0,0,0,0,0,0
				c0,0,0-0.1,0-0.1c-0.6-0.6-1.3-1.1-1.9-1.6c-0.4-0.4-0.8-1-1.4-1c0,0,0,0,0,0c0-0.1-0.4-0.2-0.4-0.1c-0.8,1.3-0.9,2.4-1.7,3.6
				c-0.4,0.6-0.8,1.3-1.4,1.9c-0.6,0.6-1.7,1.1-2.5,1.3c-1.5,0.3-3.1,0.6-4.6,0.8c-1.5,0.1-2.8-0.1-4.3-0.2
				c-0.7-0.6-1.2-1.2-1.9-1.8c-0.2-0.2-0.7-0.6-1.1-0.3c-0.7,0.5,0.3,1.6,1.2,2.4c-1.1,0.4-2.5,0.6-3.7,0.7
				c-0.6,0.1-1.3,0.1-1.9,0.1c-0.3,0-0.5-0.1-0.7,0.2C211.8,70.3,211.8,70.4,211.8,70.5z"/>
			<path class="st2" d="M212.5,71.1c0.4,0,0.8,0,1.3,0c1.3,0,2.5-0.1,3.7-0.2c0.1,0,0.2,0.1,0.1,0.1c-1,0.4-3.5,0.4-5,0.3
				C212.6,71.3,212.6,71.2,212.5,71.1z"/>
			<path class="st2" d="M214.2,72c1.3,0.1,2,0,3.2-0.1c0.1,0,0.2,0.1,0.1,0.1c-0.8,0.4-2.5,0.3-3.8,0.3c-0.1-0.1-0.2-0.2-0.2-0.3
				c0,0,0,0,0,0C213.7,72,213.9,72,214.2,72z"/>
		</g>
		<path class="st3" d="M232.5,62.6c2.2-2.9,0.5-9,2.8-10.7c0.4-0.1,0.8,0,1.2,0.2c4,2.9,3.8,8.6,2.3,13c0,0.1-0.1,0.2-0.2,0.1
			c-2.2-0.7-3.9-1.3-6-2.4C232.5,62.8,232.4,62.7,232.5,62.6z"/>
		<g>
			<path class="st1" d="M239.3,37.1c-0.6-0.5-1.4-0.6-2.2-0.5c0.1-0.3,0.1-0.6,0.2-0.9c0-0.1,0-0.1,0-0.1c0.1-0.7-0.3-1.5-0.5-2.2
				c-0.4-1.3-0.7-2.6-0.5-3.9c0.1-0.6,0.4-1.6,0-2.1c-0.4-0.4-1-0.2-1.5-0.1c-2.2,0.6-4.7,0.3-7,0.2c-1.2,0-2.3-0.1-3.5-0.2
				c-1.2-0.1-2.4-0.3-3.6-0.4c0-0.1,0.5-0.1,0.5,0c-0.7,2.3-1.4,4.7-1.4,7.1c0,0.8,0,1.5,0,2.3c-0.4-0.1-0.9,0-1.2,0.3
				c-0.5,0.5-0.4,1.3,0,1.8c0.2,0.3,0.7,0.6,1.1,0.7c0,0.8-0.1,1.6-0.1,2.4c-0.1,0.9-0.1,1.9,0.5,2.7c0.6,0.7,1.5,1.1,2.3,1.5
				c2,0.9,4.1,1.2,6.3,1.1c1.3,0.1,2.6-0.2,3.9-0.6c1.2-0.4,2.4-0.9,3.1-1.9c0.7-1,1-2.3,1-3.5c0-0.2,0-0.5,0-0.7
				c0.9,0.2,1.9,0.1,2.5-0.7C240,38.9,240.1,37.7,239.3,37.1z"/>
			<path class="st16" d="M239.6,27c-0.5-0.7-1.8-0.9-2.7-0.6c0.2-1.2-1.3-1.8-2.4-1.8c-0.8,0-1.5,0.1-2.3,0.2
				c-0.4,0-0.7,0.1-1.1,0.1c-0.4,0-0.7,0.1-1.1,0.1c-0.7-0.1-1.1-0.7-1.2-1.4c0-0.5,0.2-1,0.5-1.5c0,0,0-0.1,0-0.1
				c0-0.1,0-0.1-0.1-0.1c-1.4-0.1-3,1-3.8,2.2c0.1-0.3,0.2-0.6,0.3-0.9c0.2-0.5,0.5-0.8,0.8-1.2c0-0.1,0.1-0.1,0-0.2
				c0,0-0.1,0-0.1,0c-1.3-0.2-3.3,0.9-3.9,2.3c0.1-0.8,0.4-1.5,0.8-2.2c0.1-0.1,0-0.2-0.1-0.2c-1.2,0.3-2.3,1.3-3.1,2.4
				c-0.5,0.6-0.8,1.3-0.9,2.1c-0.1,1.2,0.5,2.2,1.5,2.9c0.9,0.7,2,1,3.1,1.2c2,0.5,4.2,0.3,6.2-0.2c0.6-0.2,1.4-0.3,1.9-0.5
				c0.8-0.3,1.8-0.7,2.7-1.2c-0.4,0.6-0.7,1.4-0.7,2.2c0,1,0.5,1.8,0.8,2.7c0.4,1.4,0.5,2.7,0.3,4.1c0,0,0,0.1,0,0.1
				c0.8-0.4,1.6-0.8,2.4-0.8c0.3-0.4,0.6-0.9,0.9-1.3c0.8-1.4,1.3-2.9,1.6-4.4C240.2,29.6,240.4,28,239.6,27z"/>
			<path class="st2" d="M227.4,39.2c-0.6-0.2-1.2-0.2-1.8-0.2c0.5-1.8,1-3.6,1.2-5.5c0-0.1-0.1-0.1-0.2,0c-0.7,1.8-1.1,3.8-1.5,5.6
				c0,0.1,0.1,0.3,0.2,0.3c0.7-0.1,1.4,0,2.1,0.1C227.6,39.5,227.6,39.2,227.4,39.2z"/>
			<path class="st16" d="M224.3,31.3C224.3,31.3,224.2,31.3,224.3,31.3c-1.3-0.1-2.5,0-3.7,0.5c0,0-0.1,0-0.1,0.1
				c0,0.4,0.1,0.7,0.2,1c0,0.1,0.1,0.1,0.2,0.1c1-0.2,2.2-0.4,3.2-0.3c0.1,0,0.2,0,0.2-0.1C224.3,32.1,224.3,31.8,224.3,31.3
				C224.4,31.3,224.3,31.3,224.3,31.3z"/>
			<path class="st16" d="M229.1,31.3c0,0.4,0,0.8,0,1.1c0,0.1,0.1,0.2,0.2,0.1c1.1-0.2,2.2,0,3.2,0.3c0.1,0,0.1,0,0.2-0.1
				c0.1-0.3,0.2-0.6,0.2-1c0,0,0-0.1-0.1-0.1c-1.1-0.5-2.4-0.6-3.6-0.5C229.2,31.2,229.2,31.2,229.1,31.3
				C229.1,31.2,229.1,31.3,229.1,31.3z"/>
			<path class="st11" d="M223.8,34.8c-0.2-0.2-0.5-0.4-0.8-0.2c-0.1,0-0.1,0.1-0.2,0.1c0,0,0,0,0,0c-0.4,0.6-0.8,1.9-0.3,2.6
				c0.4,0.6,1.2,0,1.5-0.5C224.2,36.2,224.2,35.3,223.8,34.8z"/>
			<path class="st11" d="M231.1,34.8c-0.2-0.2-0.5-0.4-0.8-0.2c-0.1,0-0.1,0.1-0.2,0.1c0,0,0,0,0,0c-0.4,0.6-0.8,1.9-0.3,2.6
				c0.4,0.6,1.2,0,1.5-0.5C231.5,36.2,231.6,35.3,231.1,34.8z"/>
			<path class="st3" d="M223.4,35.6c-0.5,0-0.5,0.7,0,0.7C223.9,36.3,223.9,35.6,223.4,35.6z"/>
			<path class="st3" d="M230.7,35.7c-0.5,0-0.5,0.7,0,0.7C231.2,36.5,231.2,35.7,230.7,35.7z"/>
			<g>
				<path class="st17" d="M230.2,40.6c0-0.1,0-0.1-0.1-0.1c-0.9,0.1-1.6,0.5-2.5,0.8c-0.9,0.3-1.8,0.4-2.7,0.6c0,0,0,0,0,0
					c0,0-0.1,0-0.1,0.1c-0.2,1.7,1.7,2.5,3.1,2.4C229.7,44.3,230.5,42.1,230.2,40.6z"/>
				<path class="st3" d="M228.8,42c0.2-0.1,0.7-0.1,0.8-0.3c0.2-0.2,0.2-0.7,0.1-1c-0.7,0.2-1.4,0.5-2.1,0.7
					c-0.8,0.3-1.7,0.4-2.5,0.6c0.1,0.2,0.2,0.4,0.4,0.4c0.6,0.2,1.5,0,2.1-0.1C228,42.2,228.4,42.1,228.8,42z"/>
				<path class="st18" d="M229.4,43.7c-0.5-0.8-2.2-0.3-2.2,0.7c0.3,0,0.5,0.1,0.8,0C228.6,44.4,229,44.1,229.4,43.7z"/>
			</g>
		</g>
	</g>
	<g>
		<path class="st19" d="M205.6,102.7c-23,2.6-58.9,2.5-96.9,2.1l-7.7-9.7l11-23l96.3,4.3l3.2,18.2L205.6,102.7z"/>
		<path class="st19" d="M151.5,82.2L151.5,82.2c0.6-0.1,1.1-0.2,1.7-0.2c6-0.1,10.2,6.8,9.4,15.4c-0.8,8.6-6.3,15.6-12.3,15.7
			l-6.1,0.1c-1.6,0-3.2-0.5-4.5-1.6c-2.7-2.3-6.9-7.2-7-15.3C132.4,79.9,151.5,82.2,151.5,82.2z"/>
		<g>
			<path class="st19" d="M193.4,112.4l-6.1,0.1c-1.6,0-3.2-0.5-4.5-1.6c-2.7-2.3-6.9-7.2-7-15.3c-0.3-16.4,18.9-14.1,18.9-14.1
				L193.4,112.4z"/>
			<path class="st20" d="M184.1,97.1c-0.8,8.6,3.4,15.5,9.4,15.4c6-0.1,11.5-7.1,12.3-15.7c0.8-8.6-3.4-15.5-9.4-15.4
				C190.4,81.5,184.9,88.5,184.1,97.1z"/>
			<path class="st21" d="M193.4,106.8c2.4,0,6.3-4.2,6.9-10.6c0.4-4.1-0.8-7-2-8.3c-0.8-0.9-1.5-0.9-1.8-0.9
				c-2.4,0-6.3,4.2-6.9,10.6c-0.4,4.1,0.8,7,2,8.3C192.4,106.9,193.1,106.9,193.4,106.8z"/>
			<path class="st20" d="M198.4,97.7c0.4-4-0.7-6.8-1.9-8c-0.7-0.8-1.2-0.8-1.5-0.8c-0.8,0-1.9,0.6-2.9,1.7c1.2-1.4,2.4-2.2,3.4-2.2
				c0.2,0,0.8,0,1.5,0.8c1.2,1.3,2.2,4,1.9,8c-0.4,3.8-1.9,6.8-3.6,8.6C196.7,103.9,198,101.1,198.4,97.7z"/>
			<g>
				<path class="st19" d="M190.3,101.1c0.4-0.2,0.8-0.4,1.2-0.6c0.2-0.1,0.4-0.1,0.6,0c0.1,0.1,0.1,0.3,0.1,0.4c0,0.7,0,1.4-0.1,2.2
					c-0.1,0.6-0.1,1.5-0.4,2c-0.1,0.2-0.3,0.3-0.4,0.4c-0.6-0.9-1.2-2.2-1.5-3.9C189.9,101.4,190.1,101.2,190.3,101.1z"/>
				<path class="st19" d="M191.1,92.1c0.1,0.1,0.2,0.2,0.2,0.4c0.4,0.8,0.9,1.8,0.8,2.7c0,0.8-0.6,1.6-1.2,2.1
					c-0.4,0.3-0.9,0.5-1.4,0.7c0-0.1,0-0.3,0-0.4C189.8,95.5,190.4,93.6,191.1,92.1z"/>
				<path class="st19" d="M195.4,94.3c-0.1,0.2-0.2,0.4-0.5,0.6c-0.2,0.1-0.5,0.2-0.7,0c-0.1-0.1-0.2-0.3-0.2-0.5
					c-0.4-1.8-0.3-3.7,0.2-5.4c0,0,0,0,0,0c0.4-0.3,0.9-0.3,1.4-0.2c0.5,0.1,0.8,0.6,1.2,0.9C196.6,91.3,196.1,92.9,195.4,94.3z"/>
				<path class="st19" d="M194.5,101.6c0-0.4,0.1-0.9,0.4-1.2c0.4-0.4,1.1-0.3,1.6,0c0.5,0.2,0.9,0.6,1.4,0.8
					c-0.5,1.6-1.3,3.1-2.4,4.4C194.9,104.4,194.4,103,194.5,101.6z"/>
				<path class="st19" d="M195.8,98.3c-0.2-0.1-0.4-0.2-0.4-0.4c-0.1-0.2,0-0.4,0-0.6c0.5-1.5,1.6-2.8,3-3.6
					c0.5,1.7,0.4,3.5-0.3,5.1C197.4,98.9,196.5,98.6,195.8,98.3z"/>
			</g>
			<path class="st22" d="M195,87c0.5-0.3,1.1-0.4,1.7-0.4c0.6,0,1.2,0.2,1.7,0.5c1,0.6,1.7,1.7,2.1,2.7c0.4,1.1,0.6,2.2,0.7,3.3
				c0.5,4.5-1.1,9.2-4.4,12.5c3-3.6,4.2-8.1,3.7-12.4c-0.1-1.1-0.3-2.1-0.7-3.2c-0.3-1-0.9-2-1.7-2.6c-0.8-0.6-2-0.7-3-0.2
				c-1,0.4-1.9,1.2-2.7,2C193.2,88.4,193.9,87.5,195,87z M187.3,89.6c1-1.6,2.2-3.1,3.6-4.2c1.4-1.1,3-1.9,4.7-2
				c1.7-0.2,3.3,0.3,4.6,1.4c1.3,1.1,2.2,2.5,2.8,4.1c2.2,6.5,1,14.3-3.7,20.3c2.7-2.7,4.6-6.1,5.4-9.7c0.8-3.7,0.7-7.5-0.5-11.1
				c-0.6-1.8-1.7-3.5-3.3-4.7c-0.8-0.6-1.7-1-2.6-1.3c-1-0.2-2-0.2-2.9-0.1c-1.9,0.3-3.6,1.3-5,2.6
				C189.1,86.3,188.1,87.9,187.3,89.6z"/>
		</g>
		<g>
			<path class="st19" d="M119.1,113.5l-6.3,0.1c-1.7,0-3.4-0.5-4.8-1.6c-3.1-2.3-8.2-7.2-9.4-15.2c-2.6-16.4,17.6-14.1,17.6-14.1
				L119.1,113.5z"/>
			<path class="st20" d="M107.3,98.2c0.4,8.6,5.7,15.4,11.9,15.3c6.2-0.1,10.9-7.1,10.6-15.7c-0.4-8.6-5.7-15.4-11.9-15.3
				C111.6,82.6,106.9,89.6,107.3,98.2z"/>
			<path class="st21" d="M118.3,107.9c2.5,0,5.9-4.2,5.6-10.6c-0.2-4.1-1.8-7-3.2-8.3c-1-0.9-1.7-0.9-2-0.9c-2.5,0-5.9,4.2-5.6,10.6
				c0.2,4.1,1.8,7,3.2,8.3C117.3,108,118,107.9,118.3,107.9z"/>
			<path class="st20" d="M122.2,98.8c-0.2-4-1.7-6.8-3.1-8c-0.9-0.8-1.4-0.8-1.6-0.8c-0.9,0-1.9,0.6-2.7,1.7c1-1.4,2.2-2.2,3.2-2.2
				c0.2,0,0.8,0,1.6,0.8c1.4,1.3,2.9,4,3.1,8c0.2,3.8-1,6.8-2.5,8.6C121.3,105,122.3,102.2,122.2,98.8z"/>
			<g>
				<path class="st19" d="M114.3,102.2c0.3-0.2,0.7-0.4,1.1-0.6c0.2-0.1,0.4-0.1,0.6,0c0.1,0.1,0.2,0.3,0.2,0.4
					c0.1,0.7,0.2,1.4,0.2,2.1c0,0.6,0.1,1.5-0.1,2c-0.1,0.2-0.2,0.3-0.4,0.4c-0.8-0.9-1.6-2.2-2.1-3.9
					C113.9,102.5,114.1,102.3,114.3,102.2z"/>
				<path class="st19" d="M113.9,93.2c0.1,0.1,0.2,0.2,0.3,0.4c0.5,0.8,1.2,1.8,1.3,2.7c0.1,0.8-0.4,1.6-1,2.1
					c-0.4,0.3-0.8,0.5-1.3,0.7c0-0.1,0-0.3,0-0.4C113,96.6,113.3,94.8,113.9,93.2z"/>
				<path class="st19" d="M118.6,95.5c-0.1,0.2-0.2,0.4-0.4,0.6c-0.2,0.1-0.5,0.2-0.7,0c-0.2-0.1-0.2-0.3-0.3-0.5
					c-0.7-1.8-0.8-3.7-0.5-5.4c0,0,0,0,0,0c0.4-0.3,0.9-0.3,1.4-0.2c0.5,0.1,0.9,0.6,1.4,0.9C119.4,92.5,119.2,94,118.6,95.5z"/>
				<path class="st19" d="M118.7,102.7c0-0.4,0-0.9,0.3-1.2c0.4-0.4,1.1-0.3,1.6,0c0.5,0.2,1,0.6,1.5,0.8c-0.3,1.6-1,3.1-1.8,4.4
					C119.5,105.5,118.8,104.1,118.7,102.7z"/>
				<path class="st19" d="M119.6,99.4c-0.2-0.1-0.4-0.2-0.5-0.4c-0.1-0.2-0.1-0.4,0-0.6c0.3-1.5,1.3-2.8,2.6-3.6
					c0.7,1.7,0.9,3.5,0.4,5.1C121.4,100,120.4,99.7,119.6,99.4z"/>
			</g>
			<path class="st22" d="M117.1,88.1c0.5-0.3,1.1-0.4,1.7-0.4c0.6,0,1.3,0.2,1.8,0.5c1.2,0.6,2,1.7,2.5,2.7c0.6,1.1,0.9,2.2,1.2,3.3
				c1.1,4.5,0.2,9.2-2.8,12.4c2.6-3.6,3.2-8.1,2.1-12.3c-0.3-1.1-0.6-2.1-1.1-3.1c-0.5-1-1.2-2-2.1-2.6c-1-0.6-2.2-0.7-3.1-0.2
				c-1,0.4-1.8,1.2-2.5,2C115.5,89.6,116.1,88.7,117.1,88.1z M109.6,90.7c0.8-1.6,1.8-3.1,3.1-4.2c1.3-1.1,2.9-1.9,4.6-2
				c1.7-0.2,3.5,0.3,5,1.4c1.5,1.1,2.6,2.5,3.4,4.1c3.2,6.5,3.1,14.3-0.9,20.2c2.4-2.7,3.9-6.1,4.3-9.7c0.4-3.6-0.3-7.5-2.1-11
				c-0.9-1.8-2.3-3.5-4-4.6c-0.9-0.6-1.9-1-2.9-1.3c-1-0.2-2.1-0.2-3-0.1c-1.9,0.3-3.6,1.3-4.8,2.6C111,87.4,110.2,89,109.6,90.7z"
				/>
		</g>
		<path class="st19" d="M64.7,83.5L64.7,83.5c0.6-0.1,1.1-0.2,1.7-0.2c6.2-0.1,11.5,6.8,11.9,15.3c0.4,8.6-4.4,15.6-10.6,15.7
			l-6.3,0.1c-1.7,0-3.4-0.5-4.8-1.6c-3.1-2.3-8.2-7.2-9.4-15.2C44.6,81.2,64.7,83.5,64.7,83.5z"/>
		<path class="st23" d="M41.6,91.4l1.4-2.7c-0.4-4.2,0-8.1,2.5-11.2c10.1-6.7,22.4-11.8,34.8-15c7-5.8,13.8-11,20.6-15
			c27.7-7,54.7-8.4,79.7-1.3c9.6,6.3,17,14,22.9,22.2c3.9,0.4,8.1,1,10.4,1.3c2.2,5.3,3.2,11.2,3.8,17.9l1.9,1.3
			c0.5,3.8,0.1,7.6-1,10.3c-0.8,1.8-2.5,3-4.5,3.1c-2.8,0.2-5.6,0.4-8.6,0.5c0.5-1.6,6-21.9-6.9-22c-12.9-0.1-13.1,21.3-13.1,22.9
			c-16.6,1.3-35.3,1.7-55.4,1.1c0,0,6.1-26.7-10.5-24.2c-14.8,2.2-11,24.3-11,24.3c-19.1,0-39.1,0-59.4-0.2c-2.5,0-4.8-1.3-6.1-3.4
			C41.6,98.5,41.1,95.2,41.6,91.4z"/>
		
			<linearGradient id="SVGID_1_" gradientUnits="userSpaceOnUse" x1="-661.3942" y1="70.5566" x2="-817.2606" y2="92.0027" gradientTransform="matrix(-0.9999 1.419110e-02 1.419110e-02 0.9999 -571.6711 8.3206)">
			<stop  offset="0" style="stop-color:#5FD4D4"/>
			<stop  offset="3.912693e-02" style="stop-color:#57CACD"/>
			<stop  offset="0.1312" style="stop-color:#47B7C1"/>
			<stop  offset="0.1954" style="stop-color:#42B0BC"/>
			<stop  offset="0.3538" style="stop-color:#3FAAB8"/>
			<stop  offset="0.5679" style="stop-color:#3899AC"/>
			<stop  offset="0.8125" style="stop-color:#2D7D98"/>
			<stop  offset="1" style="stop-color:#226286"/>
		</linearGradient>
		<path class="st24" d="M98.5,104.9C98.9,98,98,91.9,94,87.7l4.7-10.7c5.6-5.1,17.4-9.6,29.8-13.6c5.3-8.2,11.2-14.6,17.9-19.5
			c0,0,12,0.6,17.6,0.4c3.3-0.1,11.8,1.5,18,2.7c8.9,6.1,15.9,13.4,21.6,21.3c3.9,0.4,8.1,1,10.4,1.3c2.2,5.3,3.2,11.2,3.8,17.9
			l1.9,1.3c0.5,3.8,0.1,7.6-1,10.3c-0.8,1.8-2.5,3-4.5,3.1c-2.8,0.2-5.6,0.4-8.6,0.5c0.5-1.6,6-21.9-6.9-22
			c-12.9-0.1-13.1,21.3-13.1,22.9c-16.6,1.3-35.3,1.7-55.4,1.1c0,0,6.1-26.7-10.5-24.2c-14.8,2.2-11,24.3-11,24.3
			C105.3,104.9,101.9,104.9,98.5,104.9z"/>
		<path class="st25" d="M179.5,47c-11.7-2.8-22.7-3.7-33.2-3.1c-6.4,5.1-11.7,11.3-16.1,18.2c1.4,0.4,3.3,1.3,4.3,2.6
			c20.6-0.3,40.9,0.7,60.5,2.6C191.9,61.1,186.6,54.3,179.5,47z"/>
		
			<linearGradient id="SVGID_2_" gradientUnits="userSpaceOnUse" x1="2095.4229" y1="56.1559" x2="2158.8188" y2="59.583" gradientTransform="matrix(0.9999 -1.419110e-02 1.419110e-02 0.9999 -1958.0441 27.9966)">
			<stop  offset="0" style="stop-color:#7DC5BC"/>
			<stop  offset="0.2303" style="stop-color:#6CB7AD"/>
			<stop  offset="0.7265" style="stop-color:#4B9E91"/>
			<stop  offset="1" style="stop-color:#3F9487"/>
		</linearGradient>
		<path class="st26" d="M193.8,67.2c-3.1-5.8-8.2-12.4-15.1-19.5c-9.6-2.3-19.3-3.4-28.6-3.2c-1.4,0-2.8,0.1-4.2,0.1
			c-5.9,4.8-11,10.6-15.6,17.6c1,0.3,2.7,1,3.9,2.4C154,64.4,174.1,65.3,193.8,67.2z"/>
		<path class="st27" d="M162.3,63.3c-6.6-5.1-12.4-11.2-17.1-18.1c0.2-0.2,0.4-0.4,0.7-0.6c1.4-0.1,2.8-0.1,4.2-0.1
			c5.8-0.1,11.7,0.3,17.7,1.2c0.9,0.9,1.8,1.8,2.7,2.7c2.1,2.2,4,4.6,5.7,7.1c1.8,2.5,3.3,5.2,4.4,8.1c0.3,0.8,0.5,1.7,0.5,2.5
			c-5.4-0.4-10.7-0.7-16.1-1C164,64.6,163.1,63.9,162.3,63.3z"/>
		<g>
			<path class="st25" d="M155.1,72.1c0,1,1.4,2,4.4,2.2c3.1,0.2,6.6-0.4,6.6-1.4c0-1-1.6-2-4.7-2.2
				C158.5,70.5,155.1,71.1,155.1,72.1z"/>
			<path class="st28" d="M155.8,71.9c0,0.8,1.3,1.6,4,1.8c2.8,0.2,6-0.3,6-1.1c0-0.8-1.5-1.6-4.2-1.8
				C158.9,70.6,155.8,71.1,155.8,71.9z"/>
			<path class="st25" d="M157.1,71.4c-0.2,0.1-0.4,0.2-0.4,0.3c0,0.6,1,1.3,3.4,1.5c0.4,0,0.9,0,1.4,0c2.3,0,3.7-0.5,3.7-0.8
				c0-0.1-0.1-0.3-0.2-0.4c0.4,0.2,0.5,0.5,0.5,0.7c-0.1,0.3-1.5,0.8-4.1,0.8c-0.5,0-1,0-1.5,0c-2.6-0.2-3.7-0.9-3.7-1.5
				C156.1,71.8,156.5,71.6,157.1,71.4z"/>
			<path class="st29" d="M160.2,71.2c0,0.2,0.5,0.5,1.8,0.7c1.3,0.2,2.7,0.2,2.7,0c0-0.2-0.6-0.5-1.9-0.7
				C161.6,71,160.2,71,160.2,71.2z"/>
			<g>
				<path class="st25" d="M185.5,73.6c0,0.9,1.2,1.7,3.8,1.9c2.6,0.2,5.7-0.3,5.7-1.2c0-0.9-1.4-1.7-4-1.9
					C188.4,72.2,185.6,72.7,185.5,73.6z"/>
				<path class="st28" d="M186.1,73.4c0,0.7,1.1,1.4,3.5,1.6c2.4,0.2,5.2-0.2,5.2-0.9c0-0.7-1.3-1.4-3.6-1.6
					C188.8,72.3,186.1,72.7,186.1,73.4z"/>
				<path class="st25" d="M187.3,73c-0.2,0.1-0.3,0.2-0.3,0.2c0,0.5,0.9,1.1,2.9,1.3c0.4,0,0.8,0,1.2,0c2,0,3.2-0.5,3.2-0.7
					c0-0.1-0.1-0.2-0.2-0.4c0.3,0.2,0.5,0.4,0.5,0.6c-0.1,0.2-1.3,0.7-3.6,0.7c-0.5,0-0.9,0-1.3,0c-2.2-0.2-3.2-0.8-3.2-1.3
					C186.4,73.3,186.7,73.1,187.3,73z"/>
				<path class="st29" d="M189.9,72.8c0,0.2,0.5,0.4,1.5,0.6c1.1,0.2,2.3,0.2,2.4,0c0-0.2-0.5-0.4-1.6-0.6
					C191.1,72.6,189.9,72.6,189.9,72.8z"/>
			</g>
		</g>
		<path class="st30" d="M143.9,43.5c-14.7,0.4-29.5,1.8-42.9,4.8c-6.3,3.7-12.3,8.4-19.4,14.1c17.2-1.2,33.3-1.8,46.5-0.8
			C132.7,55.2,138,49.2,143.9,43.5z"/>
		<path class="st31" d="M82.9,62.3c9.9-0.7,18.4-1.1,25.8-1.2c7.3-0.1,13.5,0,19.2,0.5c4.4-6.1,9.5-11.9,15-17.2
			c-15.9,0.5-29.9,2.1-41.7,4.8C95.4,52.5,89.9,56.7,82.9,62.3z"/>
		<path class="st30" d="M87.3,97.2c-0.6-1.9,0.5-3.4,2.3-3.4c1.9,0,3.8,1.5,4.4,3.3c0.6,1.9-0.5,3.4-2.3,3.4
			C89.8,100.5,87.8,99,87.3,97.2z"/>
		<path class="st31" d="M92.2,99.9c0.6,0,1.1-0.2,1.4-0.6c0.3-0.4,0.4-1.1,0.2-1.7c-0.5-1.5-2.1-2.8-3.6-2.8c-0.6,0-1.1,0.2-1.4,0.6
			c-0.3,0.4-0.4,1.1-0.2,1.7C89,98.7,90.7,99.9,92.2,99.9z"/>
		<path class="st30" d="M47.2,97.6c0.1-1.8-0.5-3.2-1.4-3.2c-0.9,0-1.6,1.5-1.7,3.2c-0.1,1.8,0.5,3.2,1.4,3.2
			C46.4,100.8,47.1,99.3,47.2,97.6z"/>
		<path class="st31" d="M46.1,100.2c0.2-0.1,0.8-0.9,0.9-2.5c0.1-1.5-0.4-2.3-0.6-2.3c-0.2,0-0.8,0.8-0.9,2.5
			C45.4,99.3,45.9,100.1,46.1,100.2z"/>
		<path class="st23" d="M80.3,62.4c-0.4,0.1-0.9,0.2-1.3,0.4c-0.4-0.7-0.6-1.4-0.7-2.4c-0.4-3.3,3.4-4.1,6.2-3.2
			c0.5,0.2,1.1,0.4,1.6,0.6C84.2,59.3,82.3,60.8,80.3,62.4z"/>
		<path class="st32" d="M217.5,84.9l-3.4-0.5c0-3.8-0.4-7.7-0.8-12.1l1.6,0C216.2,76.2,217,80.3,217.5,84.9z"/>
		<path class="st33" d="M168.6,44.9c1.1,6.7,1.9,13.5,2.3,20.6l-1.6-0.1c-0.2-7-0.8-13.9-1.7-20.6L168.6,44.9z"/>
		<g>
			<path class="st23" d="M131.2,61.8c0,2,3.5,3.2,7.3,3.1c3.8-0.1,8.1-1.5,8.6-5.7c0.4-3.3-4.5-3.9-8.1-3
				C135,57.2,131.2,59.8,131.2,61.8z"/>
			<path class="st23" d="M145.6,61.3c0,0-7.4,2.4-10.6,0.5c-3.2-1.9-2.5-1.3-2.5-1.3s-0.9,1.8,0.8,2.6c1.8,0.7,6.5,2.1,9.5,0.3
				C145.8,61.6,145.6,61.3,145.6,61.3z"/>
			<path class="st23" d="M132.7,60.5c-0.3,0.4-0.5,0.7-0.5,1.1c0,1.3,3,2.4,6.5,2.4c1.7,0,7.3-0.5,7.8-5c0,0,0,0,0,0
				c0,0.2,0,0.4,0,0.6c-0.5,4.7-6.3,5.1-8,5.1c-3.7,0.1-6.7-1.1-6.7-2.6C131.8,61.6,132.1,61.1,132.7,60.5z"/>
			<path class="st23" d="M133.3,60.3c1.1-0.4,2.5,0.3,2.7,1.4c0.3,1.5-1.3,2.8-3.6,4c-1.1,0.5-2.4,0.3-3.1-0.7c0,0-0.1-0.1-0.1-0.1
				c-1-1.3-0.2-3.2,1.3-3.7L133.3,60.3z"/>
			<path class="st23" d="M129.5,63.4c0.1-0.3,0.3-0.6,0.5-0.8c-0.1,0.1-0.2,0.3-0.2,0.4c-0.2,0.5-0.1,1,0.2,1.4l0.1,0.1
				c0.3,0.4,0.8,0.6,1.3,0.6c0.3,0,0.5-0.1,0.8-0.2c2.3-1.2,3.3-2.2,3.2-3.1c0.1,0.1,0.1,0.2,0.1,0.3c0.2,1-0.9,2.1-3.3,3.4
				c-0.3,0.1-0.6,0.2-0.9,0.2c-0.6,0-1.1-0.3-1.5-0.7l-0.1-0.1C129.4,64.5,129.3,63.9,129.5,63.4z"/>
			<path class="st23" d="M146,57.1c-0.7-0.6-2.1-0.8-3.5-0.8c-2.5-0.1-4.8,0.5-7.6,2c-2.7,1.5,3.9-0.8,6.4-0.9
				C143.7,57.4,146.7,57.6,146,57.1z"/>
			<path class="st23" d="M132.1,61.6c0.1,0.3,0.7,0.4,1.4,0.2c0.7-0.2,1.2-0.6,1.1-0.8c-0.1-0.3-0.7-0.4-1.4-0.2
				C132.5,60.9,132,61.3,132.1,61.6z"/>
		</g>
		<g>
			<path class="st34" d="M92.4,99.3c-1-0.2-1.8-0.7-2.3-1.4c-0.3-0.3-0.5-0.7-0.6-1.1c-0.1-0.2-0.1-0.4-0.1-0.6
				c0-0.2,0.1-0.4,0.4-0.5c-0.3,0-0.6,0.2-0.7,0.4C89,96.3,89,96.6,89,96.9c0,0.5,0.3,1,0.6,1.5C90.3,99.2,91.4,99.6,92.4,99.3z"/>
		</g>
		<g>
			<path class="st34" d="M46.3,99.7c0.2-1.3,0.2-2.1,0-3.4C45.7,97.4,45.6,98.7,46.3,99.7z"/>
		</g>
		<g>
			<path class="st35" d="M90.6,95.6c1.1,0.7,1.8,1.5,2.4,2.7C92.9,97,91.9,95.8,90.6,95.6z"/>
		</g>
		<g>
			<path class="st25" d="M169.5,99.8c1.3-5.4,2-10.7,2.1-16c0.1-5.3-0.4-10.6-1.6-16c0.7,5.5,1,10.8,0.9,16.1
				C170.9,89.1,170.4,94.4,169.5,99.8z"/>
		</g>
		<g>
			<path class="st25" d="M197,77.7c0.8-3,0.6-6-0.7-8.9C196.7,71.9,196.9,74.6,197,77.7z"/>
		</g>
		<g>
			<path class="st25" d="M133.9,100.2c1.6-10.9,1.1-21.2-1.6-31.9c0.9,5.5,1.4,10.7,1.7,15.9C134.3,89.5,134.3,94.8,133.9,100.2z"/>
		</g>
		<path class="st36" d="M181.2,100.9c1.1,0.1,2.1,0.6,3,1.1c0.1-5.3,1.3-10.5,3.6-15.3c0.7-1.6,1.6-3.1,2.8-4.3
			c1.2-1.3,2.7-2.2,4.4-2.5c-4.3,0.8-7.8,3.9-10,7.8C183,91.6,182.1,96.6,181.2,100.9z"/>
		<path class="st36" d="M105,103.7c0.7-0.1,1.6-0.1,2.3,0.1c0-3.5,0-7,0.6-10.4c0.6-3.4,1.8-6.8,4-9.5c2.2-2.7,5.5-4.6,8.9-4.7
			c-3.6-0.2-7.4,1.3-9.8,3.9c-2.5,2.6-4,6-4.9,9.5C105.3,96.2,105.3,100.1,105,103.7z"/>
		<path class="st25" d="M184.2,102.1c-0.9-0.5-2.9-1.2-2.9-1.2s-31.6,2.6-47.3,0.6C150.5,103.6,167.7,104,184.2,102.1z"/>
		<path class="st25" d="M218.6,89.9c0.5,2.7,0.5,5.8-1.2,8c-1.2,1.6-3.1,2.5-5,2.8c-1.9,0.4-3.9,0.3-5.9,0.2c0.4-1.5,0.8-3,1.2-4.4
			c2.4,0.2,4.9,0.2,7.1-0.7C217,94.9,218.7,92.3,218.6,89.9z"/>
		<g>
			<path class="st30" d="M79.8,75.8c12.1-4.8,23.2-8.8,35.7-12.6C102.7,66.2,91.4,70.2,79.8,75.8z"/>
		</g>
		<g>
			<path class="st30" d="M53.9,76.5c8.4-5.1,16.4-9.1,25.5-12.7C70,66.6,61.7,70.7,53.9,76.5z"/>
		</g>
		<path class="st27" d="M135.4,44.6c-12.4,5.1-24.5,10.7-36.4,16.7c-4.9,0.2-10.2,0.5-16.1,0.9c7-5.5,12.5-9.8,18.3-13.2
			C111.1,46.8,122.5,45.3,135.4,44.6z"/>
		<path class="st34" d="M115.8,61.1c6.8-1.1,13.4-3.9,18.9-8.1c-2.4,2.8-4.7,5.7-6.8,8.6C124.2,61.3,120.2,61.1,115.8,61.1z"/>
		<g>
			<path class="st37" d="M89.6,59.6c3.4-2.9,6.7-5.7,10.4-7.7c1.9-1,3.9-1.7,5.9-2.1c2-0.5,4.1-0.7,6.2-1c8.4-1.1,16.7-2.3,25.6-2.1
				c-8.9-0.6-17.4,0.4-25.7,1.4c-2.1,0.3-4.2,0.5-6.3,1c-2.1,0.5-4.1,1.3-6,2.3C95.9,53.6,92.7,56.6,89.6,59.6z"/>
		</g>
		<g>
			<path class="st38" d="M80.1,62.5C87,57,93.4,52.4,100.7,47.6C93,51.8,86.4,56.6,80.1,62.5z"/>
		</g>
		<g>
			<path class="st38" d="M79.4,62.6c-6.2,1.7-11.9,3.7-17.6,6.1c-2.8,1.2-5.6,2.5-8.3,4c-2.7,1.4-5.5,3-8.1,4.8
				c2.8-1.7,5.5-3.1,8.3-4.5c2.8-1.4,5.6-2.6,8.4-3.9C67.7,66.8,73.4,64.6,79.4,62.6z"/>
		</g>
		<g>
			<path class="st38" d="M41.8,91.4c-0.6,2.7-0.7,5.6,0.4,8.1c0.5,1.3,1.3,2.4,2.3,3.4c1,0.9,2.3,1.6,3.7,1.8
				c-1.4-0.4-2.5-1.1-3.5-2.1c-0.9-0.9-1.6-2.1-2.1-3.3C41.7,96.9,41.5,94.2,41.8,91.4z"/>
		</g>
		<g>
			<path class="st38" d="M45.4,100.9c0.4,0,0.7-0.2,0.9-0.5c0.2-0.3,0.4-0.6,0.5-0.9c0.3-0.6,0.5-1.3,0.5-2c0-0.7,0-1.4-0.3-2.1
				c-0.2-0.3-0.4-0.7-0.8-0.8c-0.3-0.1-0.8-0.1-1,0.1c0.3-0.2,0.7-0.1,0.9,0.1c0.3,0.2,0.4,0.4,0.5,0.7c0.2,0.6,0.1,1.3,0.1,1.9
				c-0.1,0.7-0.2,1.3-0.4,1.9c-0.1,0.3-0.2,0.6-0.4,0.9C46,100.5,45.8,100.8,45.4,100.9z"/>
		</g>
		<g>
			<path class="st38" d="M92.6,100.3c0.6-0.1,1.1-0.5,1.4-1c0.3-0.5,0.4-1.1,0.4-1.7c-0.1-1.2-0.9-2.2-1.7-2.9
				c-0.9-0.7-2-1.3-3.1-1.2c-0.6,0.1-1.2,0.3-1.6,0.7c-0.4,0.4-0.6,1-0.6,1.6c0-0.6,0.3-1.1,0.7-1.4c0.4-0.3,0.9-0.5,1.5-0.5
				c1,0,2,0.5,2.8,1.2c0.8,0.7,1.5,1.5,1.7,2.5C94.1,98.7,93.7,99.9,92.6,100.3z"/>
		</g>
		<g>
			<path class="st30" d="M67.5,101.2c1.6,0.1,3.2,0.2,4.7,0.2c1.6,0.1,3.2,0.1,4.8,0.2l-0.2-0.7l-0.1-0.4c-0.1-0.3-0.1-0.6-0.2-0.9
				c-0.2-0.6-0.3-1.1-0.6-1.7c-0.4-1.1-0.9-2.1-1.5-3.1c-0.3-0.5-0.6-0.9-1.1-1.2c-0.4-0.3-0.9-0.4-1.4-0.4c-0.9,0-1.8,0-2.6,0
				c-3.5,0-7.1,0.1-10.8,0.3c3.7,0.1,7.3,0.2,10.8,0.2c1.7,0.2,3.7-0.6,4.8,1.5c0.6,0.9,1,1.9,1.4,3c0.2,0.5,0.4,1.1,0.5,1.6
				c0.1,0.3,0.2,0.6,0.2,0.8l0.1,0.6c-1.5,0-2.9,0-4.4,0C70.6,101.2,69,101.2,67.5,101.2z"/>
		</g>
		<g>
			<path class="st30" d="M63.1,100.9c-1.4,0.1-2.7,0.2-4,0.4c-1.4,0.1-2.8,0.2-4.2,0.3l-0.3-0.7l-0.2-0.4c-0.1-0.3-0.2-0.5-0.3-0.8
				c-0.2-0.5-0.3-1.1-0.5-1.6c-0.2-1-0.4-2-0.4-2.9c0-0.4,0.1-0.9,0.3-1.1c0.2-0.3,0.6-0.4,1-0.4c0.8,0,1.6,0,2.4-0.1
				c3.1-0.1,6.3-0.1,9.7-0.1c-3.2,0.2-6.3,0.4-9.4,0.5c-1.4,0.2-3.6-0.4-3.4,1.5c0,0.9,0.2,1.8,0.4,2.8c0.1,0.5,0.3,1,0.4,1.5
				c0.1,0.3,0.2,0.5,0.3,0.8l0.2,0.5c1.3,0,2.6-0.1,3.9-0.1C60.3,100.9,61.7,100.9,63.1,100.9z"/>
		</g>
		<path class="st30" d="M97.2,102.2c-16.7,1.5-33.6,1.5-50.3,0.1c-0.6-0.1-1.3,0-1.9-0.2c1.6,1.8,4.2,2,6.6,2
			c15.3,0.3,30.6,0.4,45.9,0.2C97.6,103.6,97.4,102.9,97.2,102.2z"/>
		<g>
			<path class="st30" d="M42.9,87.2c3.2,4.4,21.3,3.9,25.6,3.8c4.3-0.1,8.5-0.4,12.8-0.9c4.3-0.5,8.6-1.2,13-2.1
				c-4.5,0.5-8.8,0.8-13.1,1.1c-4.3,0.3-8.6,0.5-12.8,0.6c-4.2,0.1-8.5,0.1-12.7-0.2c-1.1-0.1-2.1-0.1-3.2-0.3
				c-1.1-0.1-2.1-0.2-3.2-0.4l-1.6-0.3l-1.6-0.4C45,88,44,87.5,42.9,87.2z"/>
		</g>
		<g>
			<path class="st21" d="M81.5,78.1c-2.1,3.8-4,7.7-5.6,11.7c-9.3,0.7-17.6,0.8-24.4-0.3c-0.5-3.9-1.2-7.3-2.4-11.4
				C58,79,69.2,78.8,81.5,78.1z"/>
			<path class="st20" d="M64.7,89.9c3,0,6.4-0.2,10.1-0.5c1.5-3.7,3.2-7.2,5-10.6c-5.3,0.3-10,0.5-14.3,0.5
				c-6.2,0.1-11.5-0.1-16-0.5c1.1,4,1.7,7,2.1,10.3C55.4,89.7,59.7,89.9,64.7,89.9z"/>
			<path class="st31" d="M81.5,78.1c5.6-0.3,11.3-0.7,17.2-1.2c0.9,0.4,1.8,0.7,2.1,1.6c0.3,0.8-0.6,6.8-1.1,7.5
				c-0.7,0.9-2.8,1.8-4.5,2c-6.8,0.8-13.2,1.5-19.2,1.9C77.5,85.8,79.3,81.9,81.5,78.1z"/>
			<path class="st31" d="M45.4,77.7c1.2,0.2,2.5,0.3,3.8,0.4c1.1,4.1,1.9,7.5,2.4,11.4c-3.2-0.5-6.1-1.3-8.6-2.3
				C42.7,83.7,43.4,80.6,45.4,77.7z"/>
			<g>
				<g>
					<path class="st21" d="M51,79.9c9,0.8,17.3,0.7,26.3-0.2C68.2,79.7,60,79.8,51,79.9z"/>
				</g>
				<path class="st21" d="M51.1,81c8.8,0.8,16.9,0.7,25.7-0.2C67.9,80.8,59.9,80.9,51.1,81z"/>
				<path class="st21" d="M51.3,82.1c8.6,0.8,16.5,0.8,25.1-0.1C67.7,82,59.9,82,51.3,82.1z"/>
				<path class="st21" d="M51.4,83.2c8.4,0.9,16.1,0.8,24.5-0.1C67.4,83.1,59.8,83.1,51.4,83.2z"/>
				<path class="st21" d="M51.6,84.3c8.2,0.9,15.7,0.9,23.8,0C67.2,84.2,59.7,84.2,51.6,84.3z"/>
				<path class="st21" d="M51.8,85.4c8,0.9,15.3,0.9,23.2,0C66.9,85.3,59.7,85.3,51.8,85.4z"/>
				<path class="st21" d="M51.9,86.4c7.7,0.9,14.9,0.9,22.6,0.1C66.7,86.5,59.6,86.4,51.9,86.4z"/>
				<path class="st21" d="M52.1,87.5c7.5,1,14.5,1,22,0.1C66.4,87.6,59.6,87.6,52.1,87.5z"/>
				<g>
					<path class="st21" d="M52.2,88.6c7.3,1,14,1,21.4,0.2C66.2,88.7,59.5,88.7,52.2,88.6z"/>
				</g>
			</g>
			<path class="st39" d="M98.7,76.9c0.8,0.3,1.7,0.7,2,1.5c0.3,0.8-0.6,6.8-1.1,7.5c-0.5,0.7-1.9,1.4-3.3,1.8
				C97.4,84,98.2,80.4,98.7,76.9z"/>
			<path class="st34" d="M98,78.1c-0.5,3-1.2,6-2.1,8.9c-6.3,0.8-12.5,1.5-18.9,2c0.6-1.8,1.4-3.7,2.3-5.5c0.1,0.9,0.9,1.5,1.8,1.8
				c1.4,0.5,3,0.5,4.5,0.3c2.5-0.3,5-0.8,7.2-2C95,82.4,97,80.5,98,78.1z"/>
			<path class="st34" d="M49.7,82.2c0.6,2.1,1,4.2,1.3,6.3c-2.6-0.5-5.1-1-7.5-2c-0.1-0.9-0.2-1.9-0.2-2.9c0-0.9,0.3-1.9,0.8-2.7
				c0,1.1,0.2,2.3,0.6,3.3c0.4,1,1.4,1.9,2.4,1.8c0.8-0.1,1.6-0.6,2-1.4C49.5,83.9,49.6,83.1,49.7,82.2z"/>
			<g>
				<path class="st35" d="M78,87.6c1-1.9,1.9-3.8,2.8-5.7c0.4-0.9,0.8-1.8,1.2-2.7c0.9-0.1,1.9-0.1,2.8-0.2
					c4.1-0.3,8.1-0.7,12.4-1.3c-4.3,0.1-8.4,0.3-12.5,0.6l-1.5,0.1l-0.8,0.1l-0.4,0l-0.3,0c-0.1,0-0.1,0-0.2,0l-0.1,0.2
					c-0.4,1-0.8,2-1.2,3C79.5,83.6,78.8,85.6,78,87.6z"/>
			</g>
			<g>
				<path class="st35" d="M43.8,86.8c0-2.1,0.4-4,1-5.8c0.2-0.5,0.3-0.9,0.5-1.4c0.1-0.2,0.2-0.4,0.3-0.7l0.1-0.2l0-0.1l0,0
					c0,0,0,0,0.1,0c0.9,0.1,2,0.1,3,0.2c-1-0.3-2-0.5-3-0.8L45.4,78c-0.1,0-0.1,0.2-0.2,0.3L45,78.7c-0.1,0.2-0.2,0.4-0.3,0.7
					c-0.2,0.5-0.4,0.9-0.6,1.4C43.5,82.7,43.4,84.8,43.8,86.8z"/>
			</g>
			<path class="st32" d="M100.4,80.4c-0.1,1.8-0.4,3.5-0.9,5.2c-0.8,0.6-1.7,1.1-2.7,1.5c0.5-1.9,1.1-3.9,1.6-5.8
				C98.6,80.6,99.8,80.5,100.4,80.4z"/>
			<path class="st40" d="M99.3,77.7c-0.2,0.8-0.4,1.7-0.6,2.5c0.6-0.3,1.2-0.4,1.8-0.4c0.1-0.3,0.1-0.7,0.1-1.1
				C100.2,78.4,99.7,78,99.3,77.7z"/>
		</g>
		<polygon class="st20" points="54.6,94.3 55.7,100.5 74,100.4 73.2,94.5 		"/>
		<polygon class="st38" points="72.7,95 55.2,94.9 56.2,99.9 73.4,99.8 		"/>
		<path class="st41" d="M100.9,47.5c6.5-1.5,13.2-2.7,19.8-3.6c6.6-1,13.3-1.7,20-1.9c13.4-0.4,26.9,0.9,39.8,4.5l-0.1-0.1
			c4.4,2.9,8.6,6.3,12.4,10c3.8,3.7,7.3,7.8,10.4,12.1l0.1,0.1l0.2,0l10.4,1.3l-0.3-0.2c1.2,2.8,2,5.7,2.5,8.7c0.5,3,1,6,1.4,9.1
			l0,0.1l0.1,0.1l2,1.3l-0.1-0.1c0.3,1.7,0.4,3.5,0.2,5.2c-0.1,1.7-0.4,3.5-1.1,5.1c0.7-1.6,1.1-3.3,1.3-5.1c0.2-1.7,0.2-3.5,0-5.3
			l0-0.1l-0.1-0.1l-1.9-1.4l0.1,0.2c-0.2-3.1-0.5-6.1-1.1-9.2c-0.6-3-1.4-6-2.6-8.9l-0.1-0.2l-0.2,0l-10.5-1.3l0.3,0.2
			c-3.1-4.4-6.6-8.5-10.5-12.2c-3.8-3.7-8-7.1-12.5-10.1l-0.1,0l-0.1,0c-13-3.6-26.5-5-40-4.5c-6.7,0.2-13.4,0.9-20.1,1.9
			C114,44.2,107.4,45.7,100.9,47.5z"/>
	</g>
	<g>
		<g>
			<g>
				<g>
					<g>
						<path class="st42" d="M27.3,105.4c-0.5-0.1-1.1-0.1-1.7-0.2c-0.7-0.1-1.4-0.3-2.1-0.5c0,0.2,0,0.6,0.1,0.7
							c0.3,0.3,1.2,0.2,1.6,0.2c2.3,0.2,4.7,0.5,7,0.5c0.4,0,1.1,0.1,1.4-0.3C31.5,105.8,29.4,105.6,27.3,105.4z"/>
					</g>
				</g>
				<g>
					<g>
						<g>
							<path class="st43" d="M23.5,103.1c0,0.5,0,1,0,1.5c0,0,0,0.1,0,0.1c0.5,0.1,0.9,0.3,1.4,0.4
								C24.9,104.2,24.3,103.4,23.5,103.1z"/>
						</g>
					</g>
					<g>
						<g>
							<path class="st43" d="M33.7,105.6c0-0.6-0.5-1.6-1.5-1.9c-0.4-0.1-0.7-0.2-1.1-0.3c0,0-0.1,0.1-0.1,0.1
								c-0.3,0.5-0.5,1.5-0.3,2.1c1,0.1,1.9,0.1,2.9,0.2C33.6,105.8,33.7,105.7,33.7,105.6z"/>
						</g>
					</g>
				</g>
				<g>
					<g>
						<g>
							<path class="st44" d="M30.8,104.2c-1.1-0.4-2.4-0.6-3.4-1.3c-0.7-0.6-1.2-1.7-1.4-2.5l-2.5,0c0.1,0.9,0.1,1.8,0.1,2.8
								c0.8,0.3,1.4,1.2,1.4,2c0.2,0.1,0.4,0.1,0.6,0.1c0.6,0.1,1.1,0.1,1.7,0.2c1.1,0.1,2.3,0.2,3.4,0.3
								C30.5,105.3,30.6,104.7,30.8,104.2z"/>
						</g>
					</g>
					<g>
						<g>
							<path class="st45" d="M27.4,102.9c1,0.7,2.3,0.8,3.4,1.3c0.1-0.2,0.1-0.4,0.2-0.6c0-0.1,0.1-0.1,0.1-0.1
								c-0.5-0.2-1.1-0.4-1.6-0.5c-1.4-0.5-1.9-1-2.4-2.6l-1.2,0C26.2,101.2,26.6,102.3,27.4,102.9z"/>
						</g>
					</g>
				</g>
				<g>
					<g>
						<path class="st43" d="M24.5,101C24.4,101,24.4,101.1,24.5,101c-0.2,0.3-0.2,0.6-0.2,0.9c0.1,0.5,0.6,1,1.1,0.7
							c0.4-0.3,0.5-0.8,0.2-1.2c-0.1-0.2-0.3-0.4-0.4-0.5C25.1,100.7,24.7,100.8,24.5,101z"/>
					</g>
				</g>
				<g>
					<g>
						<path class="st46" d="M29.7,103.8c0,0-0.1,0-0.1-0.1c0-0.1,0-0.2,0-0.2c0.1-0.1,0.2-0.1,0.2-0.2c0-0.1,0.1-0.1,0.2,0
							c0.1,0,0.1,0.1,0,0.2C30,103.6,29.9,103.7,29.7,103.8C29.8,103.8,29.7,103.8,29.7,103.8z"/>
					</g>
				</g>
				<g>
					<g>
						<path class="st46" d="M28.6,103.4c-0.1,0-0.1,0-0.1-0.1c0-0.1,0-0.2,0.1-0.2c0.1-0.1,0.3-0.2,0.4-0.3l0.2,0.2
							C29,103.2,28.8,103.4,28.6,103.4C28.6,103.4,28.6,103.4,28.6,103.4z"/>
					</g>
				</g>
				<g>
					<g>
						<path class="st46" d="M27.4,102.7c-0.1,0-0.1,0-0.1-0.1c0-0.1,0-0.2,0.1-0.2c0.1,0,0.3-0.1,0.4-0.2c0.1,0,0.2,0,0.2,0
							c0,0.1,0,0.2,0,0.2C27.7,102.5,27.6,102.6,27.4,102.7C27.4,102.7,27.4,102.7,27.4,102.7z"/>
					</g>
				</g>
				<g>
					<g>
						<path class="st46" d="M26.6,101.7c-0.1,0-0.1-0.1-0.1-0.1c0-0.1,0.1-0.1,0.1-0.1c0.1,0,0.3-0.1,0.4-0.1l0.1,0
							c0.1,0,0.2,0,0.2,0.1c0,0.1,0,0.2-0.1,0.2l-0.1,0C27,101.7,26.8,101.7,26.6,101.7z"/>
					</g>
				</g>
				<g>
					<g>
						<path class="st46" d="M26.7,100.7C26.6,100.7,26.6,100.7,26.7,100.7c-0.1-0.1-0.2-0.1-0.2-0.1c-0.4-0.3-1.2-0.9-0.9-1.3
							c0.1-0.1,0.2-0.2,0.3-0.2c0.3,0,0.6,0.5,0.8,0.8c0.1-0.4,0.4-0.8,0.7-0.8c0.1,0,0.2,0,0.3,0.1c0.1,0.1,0.2,0.2,0.2,0.4
							c0,0.4-0.5,0.9-0.8,1L26.7,100.7C26.7,100.7,26.7,100.7,26.7,100.7z M27.3,99.4c-0.2,0-0.5,0.6-0.5,0.9c0,0,0,0,0,0l0.1,0
							c0.2-0.1,0.6-0.5,0.6-0.8c0-0.1,0-0.1-0.1-0.1C27.4,99.4,27.4,99.4,27.3,99.4z M25.8,99.4C25.8,99.4,25.8,99.4,25.8,99.4
							c-0.1,0.1-0.1,0.3,0.7,0.9C26.4,100,26,99.4,25.8,99.4z"/>
					</g>
				</g>
			</g>
			<g>
				<g>
					<g>
						<path class="st42" d="M10.9,105.4c0.5-0.1,1.1-0.1,1.7-0.2c0.7-0.1,1.4-0.3,2.1-0.5c0,0.2,0,0.6-0.1,0.7
							c-0.3,0.3-1.2,0.2-1.6,0.2c-2.3,0.2-4.7,0.5-7,0.5c-0.4,0-1.1,0.1-1.4-0.3C6.7,105.8,8.8,105.6,10.9,105.4z"/>
					</g>
				</g>
				<g>
					<g>
						<g>
							<path class="st43" d="M14.7,103.1c0,0.5,0,1,0,1.5c0,0,0,0.1,0,0.1c-0.5,0.1-0.9,0.3-1.4,0.4
								C13.3,104.2,13.9,103.4,14.7,103.1z"/>
						</g>
					</g>
					<g>
						<g>
							<path class="st43" d="M4.5,105.6c0-0.6,0.5-1.6,1.5-1.9c0.4-0.1,0.7-0.2,1.1-0.3c0,0,0.1,0.1,0.1,0.1
								c0.3,0.5,0.5,1.5,0.3,2.1c-1,0.1-1.9,0.1-2.9,0.2C4.6,105.8,4.5,105.7,4.5,105.6z"/>
						</g>
					</g>
				</g>
				<g>
					<g>
						<g>
							<path class="st44" d="M7.4,104.2c1.1-0.4,2.4-0.6,3.4-1.3c0.7-0.6,1.2-1.7,1.4-2.5l2.5,0c-0.1,0.9-0.1,1.8-0.1,2.8
								c-0.8,0.3-1.4,1.2-1.4,2c-0.2,0.1-0.4,0.1-0.6,0.1c-0.6,0.1-1.1,0.1-1.7,0.2c-1.1,0.1-2.3,0.2-3.4,0.3
								C7.6,105.3,7.6,104.7,7.4,104.2z"/>
						</g>
					</g>
					<g>
						<g>
							<path class="st45" d="M10.8,102.9c-1,0.7-2.3,0.8-3.4,1.3c-0.1-0.2-0.1-0.4-0.2-0.6c0-0.1-0.1-0.1-0.1-0.1
								c0.5-0.2,1.1-0.4,1.6-0.5c1.4-0.5,1.9-1,2.4-2.6l1.2,0C12,101.2,11.6,102.3,10.8,102.9z"/>
						</g>
					</g>
				</g>
				<g>
					<g>
						<path class="st43" d="M13.7,101C13.8,101,13.8,101.1,13.7,101c0.2,0.3,0.2,0.6,0.2,0.9c-0.1,0.5-0.6,1-1.1,0.7
							c-0.4-0.3-0.5-0.8-0.2-1.2c0.1-0.2,0.3-0.4,0.4-0.5C13.1,100.7,13.5,100.8,13.7,101z"/>
					</g>
				</g>
				<g>
					<g>
						<path class="st46" d="M8.5,103.8C8.5,103.8,8.4,103.8,8.5,103.8c-0.2-0.1-0.3-0.2-0.4-0.3c0-0.1,0-0.2,0-0.2
							c0.1,0,0.2,0,0.2,0c0.1,0.1,0.2,0.2,0.2,0.2c0.1,0,0.1,0.1,0,0.2C8.6,103.8,8.5,103.8,8.5,103.8z"/>
					</g>
				</g>
				<g>
					<g>
						<path class="st46" d="M9.6,103.4C9.6,103.4,9.5,103.4,9.6,103.4c-0.2-0.1-0.4-0.2-0.5-0.3C9,103.1,9,103,9,102.9
							c0.1-0.1,0.1-0.1,0.2,0c0.1,0.1,0.3,0.2,0.4,0.3c0.1,0,0.1,0.1,0.1,0.2C9.7,103.4,9.6,103.4,9.6,103.4z"/>
					</g>
				</g>
				<g>
					<g>
						<path class="st46" d="M10.8,102.7C10.8,102.7,10.8,102.7,10.8,102.7c-0.2-0.1-0.4-0.2-0.5-0.3c-0.1,0-0.1-0.1,0-0.2
							c0-0.1,0.1-0.1,0.2,0c0.1,0.1,0.3,0.2,0.4,0.2c0.1,0,0.1,0.1,0.1,0.2C11,102.7,10.9,102.7,10.8,102.7z"/>
					</g>
				</g>
				<g>
					<g>
						<path class="st46" d="M11.6,101.7c-0.2,0-0.4-0.1-0.5-0.1l-0.1,0c-0.1,0-0.1-0.1-0.1-0.2c0-0.1,0.1-0.1,0.2-0.1l0.1,0
							c0.2,0.1,0.3,0.1,0.4,0.1c0.1,0,0.1,0.1,0.1,0.1C11.7,101.7,11.7,101.7,11.6,101.7z"/>
					</g>
				</g>
				<g>
					<g>
						<path class="st46" d="M11.5,100.7C11.5,100.7,11.5,100.7,11.5,100.7l-0.3-0.1c-0.2-0.1-0.8-0.6-0.8-1c0-0.2,0.1-0.3,0.2-0.4
							c0.1-0.1,0.2-0.1,0.3-0.1c0.4,0,0.6,0.4,0.7,0.8c0.2-0.3,0.5-0.8,0.8-0.8c0.1,0,0.2,0,0.3,0.2c0.3,0.4-0.5,1-0.9,1.3
							C11.7,100.6,11.7,100.7,11.5,100.7C11.6,100.7,11.6,100.7,11.5,100.7z M10.9,99.4c0,0-0.1,0-0.1,0c0,0-0.1,0.1-0.1,0.1
							c0,0.3,0.4,0.7,0.6,0.8l0.1,0c0,0,0,0,0,0C11.4,100,11.1,99.4,10.9,99.4z M12.4,99.4c-0.2,0-0.6,0.6-0.7,0.9
							C12.5,99.7,12.5,99.5,12.4,99.4C12.4,99.4,12.4,99.4,12.4,99.4z"/>
					</g>
				</g>
			</g>
			<g>
				<g>
					<g>
						<g>
							<path class="st47" d="M10,99.7c0-0.3-0.1-0.6-0.2-0.9c0.2,0.4,0.7-1.9,0.7-2c0-0.4,0.1-0.8,0.2-1.2c0.1-1,0.2-2,0.3-3
								c0.3-2.8,0.6-5.6,0.8-8.4c0.6-6.5,0.7-13.1,1.1-19.6c0.2-2.8,0.5-6,0.5-8.8l11.1,0.3l3.7-0.1c0.3,0.8,0.4,2.4,0.4,4
								c0,1.2,0,2.3,0.1,2.9c0.2,2.4-0.9,17.3-0.9,23.8c0,1,0,2,0.1,3.1c0.1,1,0.4,2.2,0.3,3.2c0,0.3-0.2,0.5-0.2,0.9
								c0,0.3,0.3,0.5,0.3,0.9c0,0.7-0.1,1.1-0.1,1.8c0,0.3,0,0.5,0,0.8c0.1,0.3,0.2,0.6,0.2,1c0,0.3-0.1,0.6-0.1,0.9
								c0,0.3,0.3,0.6,0.3,0.9c0.1,0.8-0.7,0.7-1.5,0.8c-0.8,0.1-1.6,0.5-2.5,0.3c-0.7-0.1-1.4-0.6-2.1-0.4c-0.1-0.5,0-1.1,0-1.6
								c-0.1-0.5-0.3-1-0.2-1.6c0.1-0.5,0.3-0.7,0.3-1.2c-0.4-6.5-0.1-13.1-0.3-19.7c-0.1-3.7-0.2-8.5-0.4-12.1
								c-0.7-0.1-1.3-0.4-1.4,0.3c-2.1,8.9-3.2,18.5-4.1,27.6c-0.1,1.2-0.7,5.2-0.5,6.3c0.7,0.4-0.2,1.3-0.2,1.8
								c-0.1,0.4,0.4,1.4,0.1,1.8c-0.1,0.2-1.4,0.1-1.6,0.1c-1.5-0.1-5,0.2-4.9-2.1c0.2-0.1,0.5-0.1,0.8-0.1C10,100,10,99.9,10,99.7
								z"/>
						</g>
					</g>
				</g>
				<g>
					<g>
						<g>
							<g>
								<path class="st48" d="M16.1,57.7c0,0-0.1,0.1-0.3,0.4c-0.2,0.2-0.4,0.5-0.6,0.8c-0.1,0.1-0.2,0.3-0.3,0.4
									c-0.1,0.1-0.1,0.1-0.1,0.2c-0.1,0.1-0.1,0.1-0.1,0.2c-0.1,0.1-0.2,0.2-0.2,0.2C14.3,60,14.3,60,14.3,60s0,0,0.1-0.1
									c0.1,0,0.2-0.1,0.3-0.2c0.1-0.1,0.3-0.2,0.4-0.3c0.1-0.1,0.2-0.3,0.4-0.4c0.1-0.1,0.1-0.2,0.2-0.2c0.1-0.1,0.1-0.2,0.1-0.2
									c0.1-0.2,0.2-0.3,0.2-0.4C16.1,57.9,16.1,57.7,16.1,57.7z"/>
							</g>
						</g>
					</g>
				</g>
				<g>
					<g>
						<g>
							<g>
								<path class="st48" d="M21.9,57c0,0,0,0.1-0.1,0.3c0,0.2-0.1,0.4-0.1,0.8c-0.1,0.6-0.1,1.5-0.1,2.4c0,0.4,0,0.9,0,1.3
									c0,0.2,0,0.4,0,0.6c0,0.2,0,0.4,0,0.5c0,0.3,0,0.6,0,0.8c0,0.2,0,0.3,0,0.3s0-0.1,0.1-0.3c0-0.1,0-0.2,0.1-0.3
									c0-0.1,0.1-0.3,0.1-0.4c0.1-0.3,0.1-0.7,0.1-1.1c0-0.4,0-0.8,0.1-1.3c0-0.4,0-0.9,0-1.3c0-0.4,0-0.8,0-1.1
									c0-0.3,0-0.6,0-0.8C21.9,57.1,21.9,57,21.9,57z"/>
							</g>
						</g>
					</g>
				</g>
				<g>
					<g>
						<g>
							<g>
								<path class="st48" d="M20.5,57c0,0-0.1,0.4-0.1,0.9c-0.1,0.5-0.2,1.3-0.2,2c0,0.4,0,0.7,0.1,1.1c0.1,0.3,0.2,0.7,0.4,0.9
									c0.1,0.1,0.2,0.2,0.3,0.3c0.1,0.1,0.2,0.1,0.3,0.1c0.1,0,0.2,0,0.2,0c0,0,0.1,0,0.1,0c0,0-0.1,0-0.3-0.1
									c-0.1,0-0.2-0.1-0.3-0.1c-0.1-0.1-0.2-0.2-0.2-0.3c-0.3-0.4-0.3-1.2-0.3-1.9c0-0.7,0-1.4,0-2c0-0.3,0-0.5,0-0.7
									C20.5,57,20.5,57,20.5,57z"/>
							</g>
						</g>
					</g>
				</g>
				<g>
					<g>
						<g>
							<g>
								<path class="st48" d="M24.2,65.1c0,0-0.4-0.1-1-0.3c-0.3-0.1-0.7-0.2-1.1-0.2c-0.2,0-0.4-0.1-0.6-0.1
									c-0.2,0-0.4-0.1-0.6-0.1c-0.2,0-0.4,0-0.6,0c-0.2,0-0.4,0-0.6,0c-0.2,0-0.4,0-0.6,0c-0.2,0-0.4,0-0.5,0.1
									c-0.2,0-0.3,0-0.4,0.1c-0.1,0-0.2,0.1-0.3,0.1c-0.2,0-0.3,0.1-0.3,0.1s0.1,0,0.3,0c0.1,0,0.2,0,0.3,0c0.1,0,0.3,0,0.4,0
									c0.2,0,0.3,0,0.5,0c0.2,0,0.4,0,0.6,0c0.2,0,0.4,0,0.6,0c0.2,0,0.4,0,0.6,0.1c0.2,0,0.4,0,0.6,0.1c0.2,0,0.4,0,0.6,0.1
									c0.4,0.1,0.8,0.1,1.1,0.1c0.3,0,0.6,0.1,0.8,0.1C24.1,65.1,24.2,65.1,24.2,65.1z"/>
							</g>
						</g>
					</g>
				</g>
				<g>
					<g>
						<g>
							<g>
								<path class="st48" d="M27,98.9c0,0-0.1,0-0.1,0c-0.1,0-0.2,0-0.4,0c-0.1,0-0.1,0-0.2,0c-0.1,0-0.2,0-0.3-0.1
									c-0.2,0-0.4-0.1-0.5-0.2c-0.2-0.1-0.4-0.1-0.5-0.2c-0.1,0-0.2-0.1-0.2-0.1c-0.1,0-0.1-0.1-0.2-0.1c-0.1-0.1-0.2-0.2-0.3-0.2
									c-0.1,0-0.1-0.1-0.1-0.1s0,0,0.1,0.1c0.1,0.1,0.1,0.2,0.2,0.3c0.1,0.1,0.1,0.1,0.2,0.2c0.1,0.1,0.1,0.1,0.2,0.2
									c0.1,0.1,0.2,0.1,0.3,0.2c0.1,0,0.2,0.1,0.3,0.1c0.1,0,0.2,0.1,0.3,0.1c0.1,0,0.2,0,0.3,0.1c0.1,0,0.2,0,0.3,0
									c0.1,0,0.2,0,0.3,0c0.2,0,0.3-0.1,0.4-0.1C26.9,98.9,27,98.9,27,98.9z"/>
							</g>
						</g>
					</g>
				</g>
				<g>
					<g>
						<g>
							<g>
								<path class="st48" d="M27.3,94.8c0,0-0.1,0-0.2,0.1c-0.1,0-0.2,0.1-0.4,0.2c-0.1,0-0.2,0.1-0.3,0.1c-0.1,0-0.2,0.1-0.3,0.1
									c-0.2,0.1-0.4,0.2-0.7,0.3c-0.2,0.1-0.5,0.2-0.7,0.2c-0.2,0.1-0.4,0.1-0.6,0.2c-0.2,0.1-0.3,0.1-0.4,0.2
									c-0.1,0-0.2,0.1-0.2,0.1s0.1,0,0.2,0c0.1,0,0.3,0,0.5,0c0.2,0,0.4-0.1,0.6-0.1c0.2-0.1,0.5-0.1,0.7-0.2
									c0.1-0.1,0.2-0.1,0.3-0.2c0.1,0,0.2-0.1,0.3-0.2c0.2-0.1,0.4-0.2,0.5-0.4c0.2-0.1,0.3-0.2,0.3-0.3
									C27.3,94.8,27.3,94.8,27.3,94.8z"/>
							</g>
						</g>
					</g>
				</g>
				<g>
					<g>
						<g>
							<g>
								<path class="st48" d="M26.1,93.1c0,0-0.1-0.1-0.2-0.1c-0.1-0.1-0.3-0.1-0.4-0.2c-0.1,0-0.2-0.1-0.2-0.1c-0.1,0-0.2,0-0.2,0
									c-0.1,0-0.2,0-0.2,0s0.1,0.1,0.2,0.2c0.1,0.1,0.3,0.2,0.4,0.2c0.2,0,0.3,0.1,0.5,0.1C26,93.1,26.1,93.1,26.1,93.1z"/>
							</g>
						</g>
					</g>
				</g>
				<g>
					<g>
						<g>
							<path class="st48" d="M27.7,59.7c0,0-0.2-0.1-0.4-0.3c-0.1-0.1-0.3-0.2-0.4-0.4c-0.1-0.2-0.3-0.3-0.4-0.5
								c-0.3-0.3-0.5-0.7-0.7-1c-0.2-0.3-0.3-0.5-0.3-0.5s0.2,0.1,0.4,0.4c0.2,0.2,0.5,0.6,0.8,0.9c0.1,0.2,0.3,0.3,0.4,0.5
								c0.1,0.1,0.1,0.2,0.2,0.2c0.1,0.1,0.1,0.1,0.2,0.2C27.6,59.5,27.7,59.7,27.7,59.7z"/>
						</g>
					</g>
				</g>
				<g>
					<g>
						<path class="st48" d="M10.5,99.8c0,0,0.1,0,0.2,0.1c0.1,0.1,0.3,0.2,0.6,0.3c0.1,0,0.2,0.1,0.4,0.2c0.1,0.1,0.3,0.1,0.4,0.2
							c0.3,0.1,0.6,0.2,0.9,0.3c0.3,0.1,0.6,0.2,0.9,0.3c0.2,0,0.3,0.1,0.4,0.1c0.1,0,0.3,0.1,0.4,0.1c0.2,0.1,0.5,0.1,0.6,0.2
							c0.1,0,0.2,0.1,0.2,0.1s-0.1,0-0.2,0c-0.2,0-0.4,0-0.6,0c-0.3,0-0.6-0.1-0.9-0.1c-0.2,0-0.3-0.1-0.5-0.1
							c-0.2,0-0.3-0.1-0.5-0.1c-0.2-0.1-0.3-0.1-0.5-0.2c-0.2-0.1-0.3-0.1-0.5-0.2c-0.3-0.1-0.6-0.3-0.8-0.5
							c-0.2-0.1-0.4-0.3-0.5-0.4C10.5,99.9,10.5,99.8,10.5,99.8z"/>
					</g>
				</g>
				<g>
					<g>
						<path class="st48" d="M11.8,99.5c0,0,0.2-0.1,0.5-0.1c0.1,0,0.1,0,0.2,0c0.1,0,0.2,0,0.2-0.1c0.2,0,0.3-0.1,0.5-0.1
							c0.2,0,0.4-0.1,0.5-0.1c0.2,0,0.3-0.1,0.5-0.1c0.3,0,0.5,0,0.5,0s-0.2,0.1-0.4,0.3c-0.1,0.1-0.3,0.1-0.5,0.2
							c-0.2,0.1-0.4,0.1-0.5,0.2c-0.2,0-0.4,0.1-0.6,0.1c-0.2,0-0.4,0-0.5,0C12,99.6,11.8,99.5,11.8,99.5z"/>
					</g>
				</g>
			</g>
		</g>
		<g>
			<path class="st49" d="M12.5,17.5c-0.5-1.5-1-4-0.5-5.5c0.5-1.5,0.8-2.1,0.8-3.8C12.8,8.4,13,9,13,9.4c0.2-0.5,0.3-1.1,0.3-1.6
				c0.3,0.3,0.6,0.7,0.5,1.1c1.2-3,3.3-4.2,6.6-4.2c1.7,0,3,0.8,4.5,1.1c1.6,0.4,2.9,0.1,4.4-0.2C28.9,6,28.6,6.2,28,6.3
				c0.5,0.8,2.1,0.7,2.9,1c1,0.4,2.1,1.7,2.2,2.9c0,0,0,0,0,0c-0.3-0.3-0.6-0.5-1-0.6c1.2,0.9,1.1,3.6,1.1,5.1
				c-0.2-0.6-0.5-1.2-1-1.6c-0.1,2.8-3.7,5.1-6,6.1c-1.6,0.7-3.3,1.2-4.8,2.2c-1,0.7-2,2-3.2,2.2C15.6,24,13.2,19.5,12.5,17.5z"/>
		</g>
		<g>
			<g>
				<path class="st50" d="M29.2,38.9c0,0.9,1,0.5,1.2,0.1c0.7-1,1.3-2.5,1.2-3.7c-1.2-0.8-2.2,2-2.5,2.9L29.2,38.9z"/>
			</g>
		</g>
		<g>
			<g>
				<path class="st51" d="M38.5,25.6c0.3-0.1,0.6-0.5,0.7-0.9c0.2-0.6,0.3-1.4,0.2-2.4c-0.1-0.4-0.1-1.2,0-1.7
					c0.1-0.4,0.3-0.8,0.4-1.2c0.2-1.1,0-2.6-0.5-1.9c-0.2,0.3-0.1,1-0.2,1.3c-0.1,0.5-0.2,1-0.4,1.4c0-1,0.1-1.8,0-2.7
					c0-0.5-0.1-1-0.2-1.5c-0.2-0.6-0.7-0.8-0.7-0.1c-0.1-0.3-0.1-0.9-0.4-1.1c-0.4-0.3-0.8,0.1-0.8,0.5c0-0.4-0.3-1.6-0.8-1.1
					c-0.3,0.3-0.1,1.5-0.1,1.8c0,0.8,0,3.6,0.1,4.9l0,0.7c0,0.8,0.1,2,0.7,2.8c-0.2,1.6-0.8,4.6-1.2,6.1c-0.4,2.5-1.8,5.9-1.8,5.9
					s-2.4-0.3-7.4-4.4l0.2,4.9c0,0,7.9,3.8,8.9,3.4C36.4,40.2,38.5,27,38.5,25.6z"/>
			</g>
		</g>
		<g>
			<g>
				<path class="st52" d="M36.6,14.9c0,0,0,0.1,0,0.2c0,0.1,0,0.3,0,0.5c0,0.2,0,0.4,0.1,0.7c0,0.3,0.1,0.5,0.1,0.8
					c0,0.3,0.1,0.5,0.1,0.8c0,0.1,0,0.3,0.1,0.4c0,0.1,0,0.2,0,0.3c0,0.2,0.1,0.4,0.1,0.5c0,0.1,0,0.2,0,0.2s0-0.1,0-0.2
					c0-0.1,0-0.3,0-0.5c0-0.2,0-0.5,0-0.7c0-0.3,0-0.5-0.1-0.8c-0.1-0.6-0.2-1.1-0.3-1.5c-0.1-0.2-0.1-0.4-0.1-0.5
					C36.6,15,36.6,14.9,36.6,14.9z"/>
			</g>
		</g>
		<g>
			<g>
				<path class="st52" d="M37.8,15.8c0,0,0,0.3,0,0.7c0,0.4,0,0.9,0,1.4c0,0.5,0.1,1,0.2,1.4c0.1,0.4,0.1,0.6,0.1,0.6s0-0.3,0-0.7
					c0-0.4,0-0.9,0-1.4c0-0.5-0.1-1-0.2-1.4C37.9,16.1,37.8,15.8,37.8,15.8z"/>
			</g>
		</g>
		<g>
			<g>
				<path class="st52" d="M36.7,19.1C36.7,19.1,36.8,19.2,36.7,19.1c0.1,0.1,0.2,0.2,0.3,0.2c0,0,0.1,0.1,0.1,0.1
					c0.1,0,0.1,0.1,0.2,0.1c0.1,0.1,0.2,0.2,0.4,0.3c0.2,0.2,0.5,0.4,0.7,0.5c0.2,0.1,0.3,0.2,0.3,0.2s-0.1-0.1-0.2-0.3
					c-0.1-0.1-0.2-0.2-0.3-0.3c-0.1-0.1-0.2-0.2-0.3-0.3c-0.1,0-0.1-0.1-0.2-0.1c-0.1,0-0.1-0.1-0.2-0.1c-0.1-0.1-0.3-0.1-0.4-0.2
					c-0.1,0-0.2,0-0.3-0.1C36.8,19.1,36.7,19.1,36.7,19.1z"/>
			</g>
		</g>
		<g>
			<g>
				<path class="st53" d="M36.8,24.9c-0.1-0.5-0.7-0.8-1-1.2c-0.7-0.7-1-1.7-1.2-2.7c-0.1-0.4-0.7-2.1-0.5-2.5
					c0.6-0.9,1.3,1.6,1.4,1.9c0.1,0.2,0.1,0.4,0.1,0.6c1.1,0.2,3.1,2.6,1.7,3.6L36.8,24.9z"/>
			</g>
		</g>
		<g>
			<g>
				<path class="st52" d="M34.1,18.5c0,0,0.1-0.1,0.1-0.1c0,0,0.1-0.1,0.2,0c0.1,0,0.2,0.1,0.3,0.2c0.1,0.2,0.2,0.4,0.3,0.6
					c0.1,0.2,0.2,0.4,0.2,0.7l0.1,0.3l0,0.2c0,0.1,0,0.1,0,0.2l0,0l0,0.3c0,0.1,0,0.2,0,0.3l0,0.1l0.1,0c0.2,0,0.3,0.1,0.5,0.2
					c0.2,0.1,0.3,0.2,0.4,0.3c0.3,0.3,0.5,0.5,0.7,0.9c0.2,0.3,0.4,0.7,0.4,1c0,0.1,0,0.2,0,0.3c0,0.1,0,0.2-0.1,0.3
					c0,0.1-0.1,0.2-0.1,0.2c-0.1,0.1-0.1,0.1-0.2,0.2c0.1-0.1,0.2-0.1,0.2-0.2c0.1-0.1,0.1-0.2,0.2-0.2c0.1-0.2,0.1-0.4,0.1-0.6
					c0-0.2-0.1-0.4-0.1-0.6c-0.1-0.2-0.2-0.4-0.3-0.6c-0.2-0.3-0.5-0.7-0.8-0.9c-0.1-0.1-0.3-0.3-0.5-0.4c-0.2-0.1-0.4-0.2-0.6-0.3
					l0.1,0.2c0-0.1,0-0.2,0-0.3l-0.1-0.3l0,0c0-0.1,0-0.1,0-0.2l-0.1-0.2c0-0.1-0.1-0.2-0.1-0.3c-0.1-0.2-0.2-0.4-0.3-0.7
					c-0.1-0.2-0.2-0.4-0.4-0.6c-0.1-0.1-0.2-0.2-0.3-0.2c-0.1,0-0.1,0-0.2,0.1C34.2,18.4,34.2,18.5,34.1,18.5z"/>
			</g>
		</g>
		<g>
			<g>
				<path class="st52" d="M38,22.4c0,0,0.1,0,0.2,0c0.1,0,0.2-0.1,0.3-0.2c0.1-0.1,0.2-0.2,0.2-0.3c0-0.1,0.1-0.2,0.1-0.2
					s-0.1,0-0.2,0c0,0-0.1,0-0.2,0.1c-0.1,0-0.1,0.1-0.1,0.1c-0.1,0.1-0.1,0.2-0.2,0.3C38,22.3,38,22.4,38,22.4z"/>
			</g>
		</g>
		<g>
			<g>
				<path class="st54" d="M24.6,30c1.2,0.4,2.3,1.5,3.3,2.4c1.2,1.1,2.4,1.9,3.7,2.8c-1.2,1-2.2,4-2.2,4s-3.6-1.2-4.1-1.8L24.6,30z"
					/>
			</g>
		</g>
		<g>
			<g>
				<path class="st55" d="M30.5,34.7c0,0-0.1,0-0.2,0.1c-0.1,0-0.1,0.1-0.2,0.1c-0.1,0-0.2,0.1-0.2,0.2c-0.2,0.1-0.3,0.3-0.5,0.6
					c-0.2,0.2-0.3,0.5-0.5,0.7c-0.1,0.3-0.2,0.5-0.3,0.8c-0.1,0.3-0.2,0.5-0.2,0.7c-0.1,0.4-0.1,0.7-0.1,0.7s0-0.1,0.1-0.2
					c0-0.1,0.1-0.3,0.2-0.5c0.1-0.2,0.2-0.4,0.3-0.7c0.1-0.1,0.1-0.3,0.2-0.4c0.1-0.1,0.1-0.3,0.2-0.4c0.1-0.1,0.1-0.3,0.2-0.4
					c0.1-0.1,0.1-0.2,0.2-0.4c0.1-0.2,0.3-0.4,0.4-0.6c0.1-0.1,0.1-0.2,0.2-0.2c0.1-0.1,0.1-0.1,0.2-0.2
					C30.4,34.8,30.5,34.7,30.5,34.7z"/>
			</g>
		</g>
		<g>
			<g>
				<path class="st56" d="M4.5,39.3c-1.4,0.6-2.4,0.3-3,1.9C1,42.7,0.9,44.4,1,45.9c0,2,1.7,6,4.7,4.7c0,0,0.1,0,0.1,0L4.5,39.3z"/>
			</g>
		</g>
		<g>
			<g>
				<g>
					<path class="st57" d="M15.3,53.9c-2.4,0-5.3-0.5-6.9-2.4c-0.8-1-0.8-2.4-0.9-3.6c-0.1-1.3-0.1-2.7-0.1-4
						c0-3.6,0.4-7.4,1.6-10.9c0.5-1.4,1.4-4.1,3.7-5.3c1.2-0.1,2.4-0.1,3.4-0.1c1.2,0,2.6,0,3.6,0.5c0.8,0.3,1.4,1.1,2.1,1.5
						L24,42.9c0.1,2.8,0.4,8.3-2.5,10.3c-0.3,0.2-0.5,0.4-0.8,0.5C18.8,53.9,17,53.9,15.3,53.9z"/>
				</g>
			</g>
			<g>
				<g>
					<path class="st58" d="M4.5,39c0.3-2.1,0.1-4.3,1-6.3c0.5-1.1,0.9-2.3,1.8-3.2c1.4-1.3,3.3-1.7,5.3-1.8C10.4,29,9.4,31.6,8.9,33
						c-1.2,3.5-1.6,7.2-1.6,10.9c0,1.3,0,2.7,0.1,4c0.1,1.2,0.1,2.6,0.9,3.6c1.6,1.9,4.4,2.4,6.9,2.4c1.7,0,3.5,0,5.3-0.2
						c-1.3,0.7-2.7,0.8-4.2,0.8c-3.7,0-6.8,0.2-9.9-1.9c-2-1.4-2.6-3.9-2.7-5.3C3.7,44.6,4.1,41.7,4.5,39z"/>
				</g>
			</g>
		</g>
		<g>
			<g>
				<path class="st57" d="M11.1,28.2c0,0-0.1,0-0.1,0.1c-0.1,0-0.2,0.1-0.4,0.2c-0.2,0.1-0.4,0.2-0.6,0.4c-0.2,0.1-0.5,0.3-0.7,0.6
					c-0.2,0.2-0.5,0.5-0.7,0.8c-0.1,0.2-0.2,0.3-0.3,0.5c-0.1,0.2-0.2,0.4-0.3,0.5c-0.2,0.4-0.4,0.7-0.5,1.2
					c-0.1,0.4-0.3,0.8-0.4,1.3C7,33.9,7,34.1,6.9,34.3c-0.1,0.2-0.1,0.4-0.1,0.6c0,0.2-0.1,0.4-0.1,0.6c0,0.2-0.1,0.4-0.1,0.6
					c-0.1,0.4-0.1,0.8-0.1,1.2c0,0.4-0.1,0.7-0.1,1.1c0,0.7,0,1.2,0,1.6c0,0.4,0,0.6,0,0.6s0-0.2,0-0.6c0-0.2,0-0.4,0-0.7
					c0-0.3,0.1-0.6,0.1-0.9c0-0.3,0.1-0.7,0.1-1.1c0-0.4,0.1-0.8,0.2-1.2c0-0.2,0.1-0.4,0.1-0.6C7,35.4,7,35.2,7,35
					c0-0.2,0.1-0.4,0.1-0.6c0.1-0.2,0.1-0.4,0.2-0.6c0.1-0.4,0.2-0.8,0.4-1.2c0.1-0.4,0.3-0.8,0.5-1.2c0.1-0.2,0.2-0.4,0.3-0.5
					c0.1-0.2,0.2-0.3,0.3-0.5c0.2-0.3,0.4-0.6,0.6-0.8c0.1-0.1,0.2-0.2,0.3-0.3C9.8,29,9.9,29,10,28.9c0.2-0.2,0.4-0.3,0.6-0.4
					c0.2-0.1,0.3-0.2,0.4-0.2C11,28.2,11.1,28.2,11.1,28.2z"/>
			</g>
		</g>
		<g>
			<g>
				<path class="st56" d="M14,27.6c-0.6,0.1-1.2,0-1.7,0c-1.2,0.1-2.6,0.3-3.7,0.6c-1.6,0.5-5.1,3.4-4.4,5c0.5,1.2,1.2,0.2,1.5-0.5
					c0.4-0.8,0.9-1.9,1.6-2.7c1.1-1.4,3.2-1.7,4.7-2.2L14,27.6z"/>
			</g>
		</g>
		<g>
			<g>
				<path class="st58" d="M17,27.7c0.8-1.2,0.8-3-1-3.1c-0.9,0-1.9,0-2.2,1c-0.3,0.8,0.4,1.3,0.6,2.1L17,27.7z"/>
			</g>
		</g>
		<g>
			<g>
				<path class="st57" d="M15.2,27.4L15.2,27.4L15.2,27.4c0-0.3,0-0.5-0.1-0.8l0-0.2c0-0.1,0-0.1,0-0.2l0.1-0.2
					c0-0.1,0.1-0.1,0.1-0.2l0.3-0.5l0,0.6c0,0.6-0.1,1.2-0.2,1.8C15.4,27.6,15.2,27.5,15.2,27.4z M15.4,25.8l0.3,0.1
					c0,0.1,0,0.1-0.1,0.1l0,0.2c0,0.1,0,0.1,0,0.2l0,0.2c0,0.1,0,0.3,0,0.4c0,0.1,0,0.3,0,0.4l0,0c0,0.1,0,0.2,0,0.3
					C15.4,27,15.4,26.4,15.4,25.8z"/>
			</g>
		</g>
		<g>
			<g>
				<path class="st54" d="M22,29c0.7,0.1,1.3,0.3,2,0.5c1.4,0.5,2.5,1,3.3,2.4c0.7,1.2,0.4,2.4,0.5,4c0,2.5,0,4.6,0.1,7
					c0,2.8-0.4,5.7,0,8.5c0,0.4,0.1,0.8,0.2,1.2c0,0.2,0,0.4,0,0.6c0.1,0.3,0.4,0.5,0.4,0.9c0,0.2-0.2,0.4-0.2,0.6
					c0,0.3,0.3,0.3,0.3,0.6c0.1,0.4-0.1,1.1,0,1.5c-0.8,0.8-5,2-11.7,1.3c-0.2,0-3.6-0.5-3.7-1.1c-0.1-0.3-0.2-0.9-0.1-1.7
					c0.4-2.7,0.5-4.2,0.5-6.2c0.1-4.5,0.5-8.9,0.9-13.4c0.2-2.2,0-5.5,2.6-6.6C18.7,28.6,20.3,28.8,22,29C22,29,22,29,22,29z"/>
			</g>
		</g>
		<g>
			<g>
				<path class="st55" d="M27.2,54.9c0,0-0.1,0-0.4,0.1c-0.1,0-0.3,0.1-0.4,0.1c-0.1,0-0.2,0-0.3,0.1c-0.1,0-0.2,0-0.3,0.1
					c-0.2,0-0.4,0.1-0.6,0.1c-0.2,0-0.5,0.1-0.7,0.1c-0.3,0-0.5,0.1-0.8,0.1c-0.3,0-0.5,0-0.8,0.1c-0.5,0-1.1,0-1.6,0
					c-0.3,0-0.5,0-0.7,0c-0.2,0-0.5,0-0.7,0c-0.4,0-0.8,0-1,0c-0.2,0-0.4,0-0.4,0s0.1,0,0.4,0.1c0.2,0,0.6,0.1,1,0.1
					c0.4,0,0.9,0.1,1.4,0.1c0.3,0,0.5,0,0.8,0c0.3,0,0.5,0,0.8,0c0.3,0,0.5,0,0.8-0.1c0.3,0,0.5-0.1,0.8-0.1c0.3,0,0.5-0.1,0.7-0.1
					c0.2-0.1,0.4-0.1,0.6-0.2c0.1,0,0.2-0.1,0.3-0.1c0.1,0,0.2-0.1,0.2-0.1c0.2-0.1,0.3-0.1,0.4-0.2C27,55,27.2,54.9,27.2,54.9z"/>
			</g>
		</g>
		<g>
			<g>
				<path class="st55" d="M24.9,54.5c0,0-0.1,0-0.4,0c-0.2,0-0.6,0-1-0.1c-0.2,0-0.4,0-0.7,0c-0.2,0-0.5,0-0.7-0.1
					c-0.5,0-1-0.1-1.6-0.1C20,54.1,19.5,54.1,19,54c-0.3,0-0.5,0-0.7-0.1c-0.2,0-0.4-0.1-0.6-0.1c-0.4-0.1-0.7-0.1-1-0.1
					c-0.2,0-0.4,0-0.4,0s0.1,0,0.4,0.1c0.2,0.1,0.6,0.2,1,0.2c0.2,0,0.4,0.1,0.6,0.2c0.2,0.1,0.5,0.1,0.7,0.1c0.5,0.1,1,0.2,1.6,0.2
					c0.5,0,1.1,0.1,1.6,0.1c0.3,0,0.5,0,0.7,0c0.2,0,0.5,0,0.7,0c0.4,0,0.7,0,1,0C24.7,54.5,24.9,54.5,24.9,54.5z"/>
			</g>
		</g>
		<g>
			<g>
				<path class="st51" d="M15.3,35.1c-0.3,0.8-0.6,1.6-0.8,2.5c-0.2,1-1.9,6.3-1.9,6.3s3.2,0.5,3.9,0.6c0.8,0.1,1.6,0.4,1.1,1.4
					c-0.4,0.8-1.6,0.8-2.3,0.9c-1,0.1-4.1-0.1-4.5-0.2c-0.5-0.1-0.7,0-0.8-0.5c-0.1-0.9,1.3-7.2,2.9-10.7L15.3,35.1z"/>
			</g>
		</g>
		<g>
			<g>
				<path class="st52" d="M12.7,43.9c0,0-0.1-0.1-0.2-0.1c0,0-0.1-0.1-0.2-0.1c-0.1,0-0.2,0-0.2,0c-0.2,0-0.3,0-0.4,0.1
					c-0.1,0.1-0.2,0.1-0.2,0.1s0.1,0,0.2,0.1c0.1,0,0.1,0,0.2,0c0.1,0,0.1,0,0.2,0c0.1,0,0.1,0,0.2,0c0,0,0.1,0,0.1,0
					c0,0,0.1,0,0.1,0C12.6,44,12.7,43.9,12.7,43.9z"/>
			</g>
		</g>
		<g>
			<g>
				<path class="st54" d="M17.8,29c-0.4,0.2-0.8,0.2-1.1,0.4c-0.6,0.2-1,0.3-1.6,0.7c-1.2,0.8-2.3,2.5-2.9,4.1
					c-0.4,1.1-0.8,2.2-1,3.2c-0.1,0.5-0.3,0.7,0.2,1c0.8,0.5,1.8,0.7,2.7,0.9c0.2,0.1,1.1,0,1.3,0L17.8,29z"/>
			</g>
		</g>
		<g>
			<g>
				<path class="st55" d="M27.6,33.4c0,0,0,0.2,0,0.5c0,0.2,0,0.3,0,0.5c0,0.2,0,0.4,0,0.7c0,0.5,0,1.1,0,1.8c0,0.6,0,1.3,0,2
					c0,0.7,0,1.4,0.1,2c0,0.6,0.1,1.2,0.1,1.8c0,0.5,0,0.9,0.1,1.2c0,0.3,0,0.5,0,0.5s0-0.2,0-0.5c0-0.2,0-0.3,0-0.5
					c0-0.2,0-0.4,0-0.7c0-0.5,0-1.1,0-1.8c0-0.6,0-1.3,0-2c0-0.7,0-1.4-0.1-2c0-0.3,0-0.6,0-0.9c0-0.3,0-0.6,0-0.8
					c0-0.3,0-0.5,0-0.7c0-0.2,0-0.4,0-0.5C27.7,33.5,27.6,33.4,27.6,33.4z"/>
			</g>
		</g>
		<g>
			<g>
				<path class="st55" d="M11.5,38.4l0.4,0.3c0.1,0,0.1,0.1,0.2,0.1l0.2,0.1c0.2,0.1,0.3,0.1,0.5,0.2l0.5,0.1c0.2,0,0.3,0.1,0.5,0.1
					l0.3,0.1l0.3,0c0.2,0,0.4,0,0.5,0l0.5,0l0.1,0l0-0.1c0.2-1.1,0.5-2.1,0.7-3.2c0.1-0.5,0.2-1.1,0.3-1.6c0.1-0.3,0.1-0.5,0.1-0.8
					c0-0.3,0.1-0.5,0.1-0.8c-0.1,0.3-0.2,0.5-0.2,0.8c-0.1,0.3-0.1,0.5-0.2,0.8c-0.1,0.5-0.3,1.1-0.4,1.6c-0.3,1.1-0.5,2.1-0.7,3.2
					l0.1-0.1l-0.5,0c-0.2,0-0.3,0-0.5,0l-0.3,0l-0.2,0c-0.2,0-0.3-0.1-0.5-0.1l-0.5-0.1c-0.2,0-0.3-0.1-0.5-0.1l-0.2-0.1
					c-0.1,0-0.2-0.1-0.2-0.1L11.5,38.4z"/>
			</g>
		</g>
		<g>
			<g>
				<path class="st55" d="M15.2,38.3c0,0-0.2-0.1-0.6-0.2c-0.1,0-0.2,0-0.3-0.1c-0.1,0-0.2,0-0.3-0.1c-0.2-0.1-0.5-0.1-0.7-0.2
					c-0.1,0-0.2-0.1-0.4-0.1c-0.1,0-0.2-0.1-0.3-0.1c-0.1,0-0.2-0.1-0.3-0.1c-0.1,0-0.2-0.1-0.3-0.1c-0.3-0.1-0.6-0.2-0.6-0.2
					s0.2,0.1,0.5,0.3c0.1,0,0.2,0.1,0.3,0.1c0.1,0,0.2,0.1,0.3,0.1c0.1,0,0.2,0.1,0.3,0.1c0.1,0,0.2,0.1,0.4,0.1
					c0.2,0,0.5,0.1,0.7,0.1c0.2,0,0.4,0,0.6,0C15,38.3,15.2,38.3,15.2,38.3z"/>
			</g>
		</g>
		<g>
			<g>
				<path class="st3" d="M22.8,28c1.8,0.4,3.4,1.7,2.6,3.7c-0.7-0.4-1.4-0.7-2.2-0.9c0.2,1.1,0.6,2.5,0.4,3.6c-0.6,0-1.2,0.1-1.7,0
					c-0.2-1.2-0.1-2.5-0.3-3.7c-0.7,0.2-1.4,0.7-2.1,1.1c-0.6-0.5-2-1.9-1.5-2.8c0.5-1.1,2.5-1,3.4-0.9L22.8,28z"/>
			</g>
		</g>
		<g>
			<g>
				<path class="st58" d="M16.2,29c1,0.5,2.2,1.5,2.9,2.7c1.1,2.3,1.3,4.3,1.4,6.8c0.1,2.5-0.4,5.3-1.8,7.5c-1,1.5-1.9,2.8-3.4,3.9
					c-0.6,0.4-1.7,1.1-2.5,1.1c-0.7,0-1.6-0.3-2.2-0.6c1.4-0.7,2.7-1.6,3.9-2.7c1.8-1.6,2.7-3.7,3.3-6c0.6-2.3,0.7-5.4-0.1-7.7
					c-0.5-1.4-1.3-2.7-2.5-3.6c-0.5-0.4-1.3-0.7-1.8-1.1L16.2,29z"/>
			</g>
		</g>
		<g>
			<g>
				<path class="st57" d="M12.8,50.5c0,0,0.2-0.1,0.6-0.3c0.2-0.1,0.4-0.2,0.7-0.4c0.3-0.2,0.5-0.4,0.8-0.6c0.1-0.1,0.3-0.2,0.4-0.4
					c0.1-0.1,0.3-0.3,0.5-0.4c0.2-0.1,0.3-0.3,0.5-0.5c0.2-0.2,0.3-0.3,0.5-0.5c0.2-0.2,0.3-0.4,0.4-0.6c0.1-0.2,0.3-0.4,0.4-0.6
					l0.2-0.3c0-0.1,0.1-0.1,0.1-0.2l0.1-0.2c0.1-0.2,0.2-0.4,0.3-0.6c0.1-0.2,0.2-0.5,0.3-0.7c0.1-0.2,0.2-0.5,0.2-0.7
					c0.1-0.2,0.1-0.5,0.2-0.7c0.1-0.2,0.1-0.5,0.1-0.7c0.1-0.5,0.1-0.9,0.2-1.3c0.1-0.4,0.1-0.8,0.1-1.2c0-0.4,0-0.7,0-1
					c0-0.3,0-0.6,0-0.8c0-0.4,0-0.7,0-0.7s0,0.2,0,0.7c0,0.2,0,0.5,0,0.8c0,0.3,0,0.6-0.1,1c0,0.4-0.1,0.8-0.1,1.2
					c-0.1,0.4-0.1,0.9-0.2,1.3c0,0.2-0.1,0.5-0.1,0.7c-0.1,0.2-0.1,0.5-0.2,0.7c-0.1,0.2-0.2,0.4-0.2,0.7c-0.1,0.2-0.2,0.4-0.3,0.7
					c-0.1,0.2-0.2,0.4-0.3,0.7l-0.1,0.2c0,0-0.1,0.1-0.1,0.1l-0.2,0.3c-0.1,0.2-0.3,0.4-0.4,0.6c-0.1,0.2-0.3,0.4-0.4,0.5
					c-0.1,0.2-0.3,0.3-0.4,0.5c-0.1,0.2-0.3,0.3-0.4,0.5c-0.1,0.2-0.3,0.3-0.4,0.4c-0.1,0.1-0.3,0.3-0.4,0.4
					c-0.3,0.2-0.5,0.5-0.8,0.6c-0.2,0.2-0.4,0.3-0.6,0.4C13,50.4,12.8,50.5,12.8,50.5z"/>
			</g>
		</g>
		<g>
			<g>
				<g>
					<path class="st57" d="M19.3,36.3C19.3,36.3,19.3,36.3,19.3,36.3c-0.1,0-0.2,0-0.1-0.1c0-0.1,0.1-0.1,0.2-0.1c0,0,0,0,0,0
						c0,0,0.1,0,0.1,0.1C19.5,36.3,19.4,36.3,19.3,36.3L19.3,36.3z"/>
				</g>
			</g>
		</g>
		<g>
			<g>
				<path class="st57" d="M19.4,35.2C19.4,35.2,19.4,35.2,19.4,35.2c0-0.1-0.1-0.2-0.1-0.3c0-0.2-0.1-0.5-0.2-0.8
					c0-0.2-0.1-0.3-0.2-0.5c-0.1-0.2-0.1-0.4-0.2-0.6c-0.1-0.2-0.2-0.4-0.3-0.6c-0.1-0.2-0.2-0.4-0.3-0.6c-0.1-0.2-0.2-0.4-0.4-0.6
					c-0.1-0.2-0.3-0.3-0.4-0.5c-0.1-0.2-0.3-0.3-0.4-0.4c-0.1-0.1-0.3-0.2-0.4-0.3c-0.1-0.1-0.3-0.2-0.4-0.3
					c-0.1-0.1-0.2-0.1-0.3-0.2c-0.2-0.1-0.3-0.1-0.3-0.1s0.1,0.1,0.2,0.2c0.1,0.1,0.2,0.1,0.3,0.2c0.1,0.1,0.2,0.2,0.3,0.3
					c0.1,0.1,0.3,0.2,0.4,0.4c0.1,0.1,0.3,0.3,0.4,0.4c0.1,0.2,0.3,0.3,0.4,0.5c0.1,0.2,0.3,0.4,0.4,0.5c0.1,0.2,0.2,0.4,0.3,0.6
					c0,0.1,0.1,0.2,0.1,0.3c0,0.1,0.1,0.2,0.1,0.3c0.1,0.2,0.2,0.4,0.2,0.5c0.1,0.2,0.1,0.3,0.2,0.5c0.1,0.2,0.1,0.3,0.1,0.4
					c0,0.1,0.1,0.2,0.2,0.3C19.3,35.1,19.4,35.2,19.4,35.2z"/>
			</g>
		</g>
		<g>
			<g>
				<path class="st51" d="M15.8,44.8c0,0.4-0.2,0.9,0,1.3c0.5,0.8,1.1,0,1.5-0.4c0.2-0.3,0.4-0.3,0.8-0.3c0.4,0,0.4,0.2,0.8,0.4
					c0.3,0.1,0.6,0,0.7-0.3c0.1-0.2,0.1-0.5,0.1-0.7c0,0,0,0,0,0c1-0.1,0.9-1.1,0.5-1.6c0.8-0.5,0.7-1.3,0.3-2
					c0.8,0.3,1.6-0.8,0.2-1.7c-0.6-0.4-1.3-0.7-2-0.7c-1.8-0.1-2.4,2.3-2.7,3.7C15.9,43.2,15.9,44,15.8,44.8L15.8,44.8z"/>
			</g>
		</g>
		<g>
			<g>
				<path class="st52" d="M19.6,45c0,0,0,0,0-0.1c0,0,0-0.1,0-0.1c0-0.1,0-0.1-0.1-0.2c-0.1-0.1-0.2-0.2-0.3-0.3
					c-0.1-0.1-0.3-0.2-0.4-0.2c-0.3-0.1-0.6-0.2-0.8-0.2c-0.2,0-0.4-0.1-0.4-0.1s0.1,0.1,0.3,0.2c0.2,0.1,0.5,0.2,0.7,0.3
					c0.1,0,0.1,0.1,0.2,0.1c0.1,0,0.1,0.1,0.2,0.1c0.1,0.1,0.2,0.1,0.3,0.2c0,0,0.1,0.1,0.1,0.1C19.5,44.9,19.6,44.9,19.6,45
					C19.6,45,19.6,45,19.6,45z"/>
			</g>
		</g>
		<g>
			<g>
				<path class="st52" d="M20.2,43.2c0,0-0.1-0.1-0.2-0.3c-0.1-0.1-0.1-0.2-0.2-0.2c-0.1,0-0.1-0.1-0.2-0.1c-0.1,0-0.1-0.1-0.2-0.1
					c-0.1,0-0.2-0.1-0.4-0.1c-0.1,0-0.2,0-0.3-0.1c-0.2,0-0.3,0-0.3,0s0.1,0.1,0.3,0.2c0,0,0.1,0,0.1,0.1c0,0,0.1,0,0.1,0.1
					c0.1,0.1,0.2,0.1,0.3,0.2c0.1,0,0.1,0.1,0.2,0.1c0,0,0.1,0.1,0.2,0.1c0,0,0.1,0,0.1,0.1c0,0,0.1,0.1,0.1,0.1
					C20.1,43.2,20.2,43.2,20.2,43.2z"/>
			</g>
		</g>
		<g>
			<g>
				<path class="st52" d="M20.6,41.3c0,0,0,0-0.1-0.1c0,0,0-0.1-0.1-0.1c0,0-0.1-0.1-0.1-0.1c0,0-0.1-0.1-0.2-0.2
					c-0.1-0.1-0.1-0.1-0.2-0.1c-0.1,0-0.1-0.1-0.2-0.1c-0.1,0-0.2-0.1-0.2-0.1c-0.1,0-0.2,0-0.3-0.1c-0.1,0-0.2,0-0.2,0
					c-0.2,0-0.3,0-0.4,0c-0.3,0-0.4,0.1-0.4,0.1s0.2,0,0.4,0.1c0.1,0,0.3,0,0.4,0.1c0.1,0,0.3,0.1,0.5,0.1c0.1,0,0.1,0,0.2,0.1
					c0.1,0,0.1,0.1,0.2,0.1c0.1,0,0.1,0.1,0.2,0.1c0.1,0,0.1,0.1,0.2,0.1c0.1,0,0.1,0.1,0.1,0.1C20.4,41.2,20.5,41.2,20.6,41.3
					C20.5,41.3,20.6,41.3,20.6,41.3z"/>
			</g>
		</g>
		<g>
			<g>
				<path class="st52" d="M19.1,40.4c0,0,0-0.1,0-0.1c0-0.1,0-0.1-0.1-0.2c0-0.1-0.1-0.1-0.2-0.1c-0.1,0-0.1,0-0.1,0s0,0.1,0,0.1
					c0,0.1,0,0.1,0.1,0.2c0,0.1,0.1,0.1,0.2,0.1C19,40.4,19.1,40.4,19.1,40.4z"/>
			</g>
		</g>
		<g>
			<g>
				<path class="st59" d="M16.1,11.7c0,0,0,0.1,0,0.2C16.1,11.8,16.1,11.7,16.1,11.7C16.1,11.7,16.1,11.7,16.1,11.7z"/>
			</g>
			<g>
				<path class="st51" d="M27.6,11.3c0.3,0.4,0.7,0.9,0.8,1.3c-1-1.1-3.3-0.6-4.7-0.7c-1.4-0.1-2.9-0.3-4.3-0.6
					c-0.5-0.1-1-0.4-1.5-0.5c0.4,0.6,1.1,0.9,1.8,1.3c-1,0.2-2.2,0.1-3.6-0.4c0,0,0,0.1,0,0.1c0,1.6,0.8,7.6,0.7,7.6
					c-0.3,0.1-0.7-0.5-0.9-1c-0.1-0.1-0.2-0.3-0.2-0.4c-0.2-0.3-0.4-0.7-0.8-0.8C13.8,17,12.9,18.1,13,19c0.1,1.5,1.1,2.7,2.4,3.3
					c0.4,0.2,1.2,0.3,1.2,0.3s0.6,1,0.9,1.3c0.5,0.7,1.9,2,2.8,2.4c-0.1,0.8-0.5,1.9-0.5,2.3c0.1,0.4,1,1.2,1.7,1.2
					c0.3,0,0.6,0.1,0.9,0c0.4-0.1,0.4-0.3,0.5-0.7c0.1-0.6,0.3-1.4,0.4-2.1c0.7,0,1.4,0,2.1-0.1c1.2-0.2,2.4-0.8,3.1-1.9
					c0.8-1.2,0.5-3.1,0.5-4.4c0.1-1.6,0.1-3.3,0.4-5c0.1-0.7,0.2-1.3,0.2-2c0-0.3,0-0.5,0-0.8C29,12.2,28.4,11.4,27.6,11.3z"/>
			</g>
			<g>
				<path class="st49" d="M16.7,19.5c0.2,0-0.6-6-0.7-7.6c-0.1,0.4-0.2,0.8-0.2,1.2c-0.1,1.5,0.2,2.9,0.5,4.4c0,0.3,0.2,0.8,0,1.1
					c-0.2,0.3-0.3,0.1-0.5,0C16.1,19,16.4,19.5,16.7,19.5z"/>
			</g>
		</g>
		<g>
			<g>
				<path d="M27.6,14.2c-0.2-0.5-0.7-0.8-1.2-0.6"/>
			</g>
		</g>
		<g>
			<g>
				<path d="M21.3,13.1c-0.5-0.2-1,0-1.2,0.4"/>
			</g>
		</g>
		<g>
			<g>
				<path class="st52" d="M15.9,21.5c0,0,0-0.1,0-0.2c0-0.1,0-0.2,0-0.4c0-0.2-0.1-0.4-0.2-0.6c0-0.1-0.1-0.2-0.1-0.3
					c-0.1-0.1-0.1-0.2-0.2-0.3c-0.1-0.1-0.1-0.2-0.2-0.3c-0.1-0.1-0.1-0.2-0.2-0.3c-0.1-0.2-0.3-0.3-0.4-0.4
					c-0.1-0.1-0.3-0.2-0.4-0.2c-0.1-0.1-0.1-0.1-0.1-0.1s0,0,0.1,0.1c0.1,0.1,0.2,0.2,0.3,0.3c0.1,0.1,0.1,0.1,0.2,0.2
					c0.1,0.1,0.1,0.2,0.2,0.2c0.1,0.2,0.3,0.4,0.4,0.5c0.1,0.2,0.2,0.4,0.3,0.6c0,0.1,0.1,0.2,0.1,0.3c0,0.1,0.1,0.2,0.1,0.2
					c0,0.1,0.1,0.1,0.1,0.2c0,0.1,0,0.1,0.1,0.2C15.8,21.4,15.9,21.5,15.9,21.5z"/>
			</g>
		</g>
		<g>
			<g>
				<g>
					<path class="st60" d="M26,22.9c0.2,0,0.4-0.1,0.5-0.2L26.4,23c-0.3,0.3-0.6,0.5-0.9,0.7c-0.1-0.1-0.3-0.3-0.5-0.4
						C25.4,23.2,25.7,23.1,26,22.9z"/>
				</g>
			</g>
			<g>
				<g>
					<path class="st61" d="M21.7,22.6c0.6,0.4,1.4,0.5,2.1,0.6c0.4,0,0.8,0.1,1.2,0c0.2,0.1,0.3,0.3,0.5,0.4
						c-0.6,0.3-1.3,0.3-1.9,0.3c-0.7-0.1-1.4-0.4-2-0.8c-0.3-0.2-0.6-0.5-1-0.9C20.9,22.4,21.3,22.5,21.7,22.6z"/>
				</g>
			</g>
			<g>
				<g>
					<path class="st3" d="M23.7,23.2c-0.7-0.1-1.4-0.2-2.1-0.6c0.5,0.1,1.1,0.2,1.6,0.3c0.8,0,1.8,0.2,2.7,0
						C25.4,23.3,24.4,23.3,23.7,23.2z"/>
				</g>
			</g>
		</g>
		<g>
			<g>
				<path d="M20.8,16.9C20.8,16.9,20.8,16.9,20.8,16.9c0.4,0.3,0.3,1.4-0.3,1.1C20,17.8,20.2,16.5,20.8,16.9z"/>
			</g>
		</g>
		<g>
			<g>
				<path d="M26.6,17.4C26.6,17.4,26.6,17.4,26.6,17.4c0.4,0.3,0.3,1.4-0.3,1.1C25.8,18.4,26,17.1,26.6,17.4z"/>
			</g>
		</g>
		<g>
			<path class="st52" d="M24.5,16.5c0,0.2,0.1,0.4,0.1,0.6c0,0.1,0.1,0.2,0.1,0.3c0,0.1,0.1,0.2,0.1,0.3c0,0.1,0.1,0.2,0.1,0.3
				l0.1,0.3c0.1,0.2,0.2,0.4,0.2,0.6c0.1,0.2,0.2,0.4,0.3,0.6c0.1,0.2,0.2,0.4,0.3,0.6c0.2,0.4,0.5,0.7,0.7,1.1l0.1,0.2l-0.2,0.1
				L26,21.6c-0.2,0-0.3,0.1-0.5,0.1c-0.2,0-0.3,0-0.5,0c-0.1,0-0.2,0-0.2,0l-0.2,0c-0.1,0-0.2,0-0.2,0l-0.2,0c-0.1,0-0.1,0-0.2-0.1
				l-0.2-0.1c-0.1,0-0.1-0.1-0.2-0.1l-0.2-0.1c-0.1,0-0.1-0.1-0.2-0.1L23,21l0.2,0.1c0.1,0,0.1,0.1,0.2,0.1l0.2,0.1
				c0.1,0,0.1,0.1,0.2,0.1l0.2,0.1c0.1,0,0.1,0,0.2,0l0.2,0c0.1,0,0.1,0,0.2,0l0.2,0c0.1,0,0.1,0,0.2,0l0.2,0c0.1,0,0.1,0,0.2,0
				l0.4-0.1l0.4-0.1l-0.1,0.2l-0.4-0.6c-0.1-0.2-0.2-0.4-0.3-0.6c-0.1-0.2-0.2-0.4-0.3-0.6c-0.1-0.2-0.2-0.4-0.3-0.6l-0.1-0.3
				c0-0.1-0.1-0.2-0.1-0.3l-0.1-0.3c0-0.1-0.1-0.2-0.1-0.3c0-0.1,0-0.2,0-0.3c0-0.1,0-0.2,0-0.3C24.5,16.9,24.5,16.7,24.5,16.5z"/>
		</g>
	</g>
	<g>
		<path class="st62" d="M168.9,113.8c0,1.2-9.6,2.2-21.1,2.2c-11.5,0-20.6-1-20.6-2.2c0-1.2,9.1-2.2,20.6-2.2
			C159.2,111.6,168.9,112.6,168.9,113.8z"/>
		<g>
			<polygon class="st63" points="153.7,105.1 154.7,111.3 157.1,111.3 156.3,104.6 			"/>
			<path class="st64" d="M157.8,108.4c0,0,1.4,1.8,3.4,2.4c2.1,0.6,3.9,1.4,3.8,2.6c0,0-3.1,1.5-8-0.2v0.5l-3.3-0.1v-4.3l2.7,0.2
				l-0.2-0.4L157.8,108.4z"/>
			<g>
				<path class="st65" d="M159.2,113.3c4.5,1.1,5.6-0.1,5.9-0.2c0,0.1,0,0.2,0,0.3c0,0-3.1,1.5-8-0.2v0.5l-3.3-0.1v-0.9
					C154.9,112.8,155.9,112.4,159.2,113.3z"/>
			</g>
		</g>
		<g>
			<polygon class="st63" points="142.3,105.1 141.3,111.3 138.9,111.3 139.7,104.6 			"/>
			<path class="st64" d="M138.2,108.4c0,0-1.4,1.8-3.4,2.4c-2.1,0.6-4.1,1.4-4,2.6c0,0,3.3,1.5,8.3-0.2v0.5l3.3-0.1v-4.3l-2.7,0.2
				l0.2-0.4L138.2,108.4z"/>
			<g>
				<path class="st65" d="M136.2,113.5c-3.1,0.5-5.1-0.4-5.4-0.4c0,0.1,0,0.2,0,0.3c0,0,3.3,1.5,8.3-0.2v0.5l3.3-0.1v-1.1
					C141.2,112.6,139.2,113,136.2,113.5z"/>
			</g>
		</g>
		<path class="st66" d="M153.3,54.1l2.6,31.7l2.2,21.7c0,0-1.2,1.7-5.7,0.9L150,85.6L147.1,67h-2.3l-1.6,41.4c0,0-2,1.5-5.6,0.2
			l0.7-53.3L153.3,54.1z"/>
		<polygon class="st67" points="146.7,26.9 146.5,35.3 141.4,33 141.6,24.4 		"/>
		<path class="st68" d="M164.9,59.7c-0.7-0.9-1.5-1-2.6-1.2c-0.9-3.1-3.4-11.4-3.4-11.4l-3.6,2.5c0,0,2.5,6.7,4.2,10.1c0,0,0,0,0,0
			c-0.4,0.9,0.1,2,0.4,2.7s0.3,1,0.5,1.7c0.2,0.6,0.5,1.6,0.9,1.3c0.4-0.3-0.3-2.2-0.1-2.3c0.2-0.1,1.8,4,2.4,3.1
			c0.2-0.3-1.1-2.7-1-3.2c0-0.5,2,3.4,2.7,2.8c0.4-0.3-1.9-3.7-1.5-3.4c0.6,0.4,2,2.2,2.4,2.3c0.4,0.1,0.8,0.3-0.4-1.5
			c-0.9-1.3-1.7-2.2-1.6-2.6c0.1-0.5,0.7,0.2,0.7,0.2c1.7,1.2,1.9,0.3,2,0C166.9,60.8,165.6,60.6,164.9,59.7z"/>
		<g>
			<path class="st3" d="M162.4,56.9l-4.3-12.7l-3.4-11.8c-0.3-0.9-1.1-1.5-2-1.4c-1.8,0.3-3.5,1.8-1.6,7.1l3.2,9.8l3.7,11.1
				L162.4,56.9z"/>
		</g>
		<path class="st69" d="M154.9,33.1c0,0-0.5,15-1.5,22.7c0,0-3.7,1.7-9.7,1.4c-4.2-0.2-5.4-1.1-5.4-1.1l-6-24.7c0,0,3-1.5,9.4-1.5
			c0,0,0-0.2,1.4,0.6c1.1,0.6,1.5,4.6,1.5,4.6s0.2-4,0.8-4.4c1-0.5,0.8-0.4,1.6-0.6c2,0.1,4,0.2,6.2,0.6
			C154.2,31,154.8,32.2,154.9,33.1L154.9,33.1z"/>
		<polygon class="st70" points="148.8,30 147.3,33.4 145.5,30.8 148.3,28.9 		"/>
		<polygon class="st70" points="139.8,29.9 141.9,33.3 143.4,30.5 140.3,28.6 		"/>
		<path class="st68" d="M142.5,6c-4.8,1.1-4.7,4.4-4.7,4.4s0.1,2.6,0.2,5.6c-0.4-0.6-1.2-0.9-2-0.5c-1.6,0.7-0.4,5.9,2.1,5.4
			c0.1,1.4,0.2,2.6,0.4,3c0.7,1.5,3.8,3.7,6.5,4.1s6.2-1.5,6.2-4.7c0-3.2,0-15.1,0-15.1S150.5,4.1,142.5,6z"/>
		<path class="st71" d="M144.9,16.2c0,0.7-0.3,1.3-0.7,1.3c-0.4,0-0.7-0.6-0.7-1.3s0.3-1.3,0.7-1.3
			C144.6,14.9,144.9,15.5,144.9,16.2z"/>
		<path class="st71" d="M150.3,16c0,0.7-0.3,1.3-0.7,1.3c-0.4,0-0.7-0.6-0.7-1.3c0-0.7,0.3-1.3,0.7-1.3
			C150,14.7,150.3,15.3,150.3,16z"/>
		<g>
			<path class="st72" d="M145.1,12.8l-1.4,1.1c-0.3,0.2-0.5,0.3-0.5,0.4c-0.1,0-0.1-0.1-0.3-0.4c-0.2-0.2-0.7-0.4-1.6-0.5
				c-0.5-0.7-0.5-1.5-0.1-2.1c0.4-0.6,1.1-1,1.8-1c0.6,0,1.2,0.2,1.6,0.6C145,11.3,145.2,11.9,145.1,12.8z"/>
		</g>
		<g>
			<path class="st72" d="M148,12.8c-0.2-0.9,0-1.4,0.3-1.9c0.3-0.4,0.9-0.7,1.6-0.6c0.7,0,1.4,0.6,1.6,1.2c0.3,0.6,0.1,1.3-0.5,1.9
				c-0.9,0.1-1.3,0.2-1.6,0.4c-0.2,0.2-0.1,0.5,0,0.5c0.1,0,0.1-0.2-0.2-0.4C149.1,13.6,148.7,13.3,148,12.8z"/>
		</g>
		<path class="st73" d="M136.3,16.3c0.9-0.4,1.6,0.9,1.6,2.4c-0.7-0.1-0.8,0.7-0.4,1.3C136.1,20.3,135.4,16.8,136.3,16.3z"/>
		<g>
			<path class="st74" d="M147,14.4c0.6,0.7,0.9,1.6,1.1,2.4c0.2,0.8,0.3,1.7,0.3,2.6l0,0.3l-0.2,0.1c-0.5,0.2-1.1,0.4-1.7,0.5
				c0.4-0.4,0.9-0.8,1.4-1.1l-0.2,0.4c-0.2-0.8-0.4-1.7-0.5-2.5C147,16.1,147,15.3,147,14.4z"/>
		</g>
		<g>
			<path class="st74" d="M143.1,22.2c1.1,0.2,2,0.5,3,0.6c0.5,0.1,1,0.1,1.5,0c0.5,0,1-0.1,1.5-0.2c-0.4,0.4-0.8,0.8-1.4,1
				c-0.5,0.2-1.1,0.2-1.7,0.2c-0.6-0.1-1.1-0.2-1.6-0.5C143.9,23,143.4,22.6,143.1,22.2z"/>
		</g>
		<path class="st72" d="M151.4,8.9c1-0.1,2.8-2.1,2.1-4.2c0,0-0.2,1.1-1.8,1.1c0,0,0.9-0.4,1.1-0.9c0,0-1.1,0.7-3.8-0.9
			c-0.2-0.1-0.5-0.3-0.8-0.5c-0.4-0.2-0.8-0.4-1.2-0.6c-3-1.2-7.4-1.6-8.9,4.1C138,7.3,138,7.4,138,7.4s-2.1-0.2-2.1,3.4
			c0,1.4,0.5,2.8,1.2,4.5c0.6,0.1,1.1,1,1.1,1l0.3,2.3c0,0.6,0,1.7-0.3,2.3c-0.3,0.8-0.8,4.8,4.4,6.8c5.2,2,9.9-0.1,8.7-6.8
			c0,0,0.1,1.8-0.7,1.6c-0.8-0.2-0.1-2.6-3.9-2.1c-1.2-0.2-2.9-1.2-4.3,1.2c-1.1,1.8-3,0.6-3.2-4v-1.2c0-0.1,0-0.1,0-0.2l0,0v-3.1
			c0,0,1.4-1.2,1.6-3c9.5,3.6,12.4-1,12.4-1S152.5,9.2,151.4,8.9z M143.3,21.8c2,0.6,3.5-0.2,3.5-0.2c1.2,0.9,2.7,0.8,2.7,0.8
			c0.2,0.3,0.9,2.3-1.3,3.1c-2.2,0.8-1.6-1.6-1.6-1.6l-0.9-0.1c0,0,0.3,1.9-1.6,1.7C141.3,25.3,143.3,21.8,143.3,21.8z"/>
		<g>
			<g>
				<path class="st75" d="M151.4,57.2c1.3-0.3,1.9-0.7,1.9-0.7c0.4-0.1,0.3,0.3,0.4,0.7c0.1,0.6,0,0.9-0.4,1c-0.1,0-0.4,0.4-1.7,0.7
					C151.6,58.4,151.5,57.8,151.4,57.2z"/>
				<path class="st75" d="M142.1,57.7c1.4,0.2,3,0.2,4.7,0.1c1.3,0,2.5-0.2,3.5-0.4c0,0.6,0,1.2,0.1,1.8c-1,0.2-2.2,0.4-3.6,0.4
					c-0.6,0-1.1,0-1.6,0c-1.2,0-2.3-0.1-3.3-0.2C142,58.9,142.1,58.3,142.1,57.7z"/>
				<path class="st75" d="M137.9,57.6c0.1-0.4,0.1-0.8,0.5-0.7c0.8,0.3,1.8,0.5,2.8,0.7c0,0.6-0.1,1.1-0.2,1.7c-1-0.2-2-0.4-2.9-0.8
					C137.8,58.4,137.8,58,137.9,57.6z"/>
			</g>
			<path class="st76" d="M144.5,57.6l0,2.3l3.4-0.2l0-2.1L144.5,57.6z M145,58l2.2,0l0,1.4l-2.2,0.1L145,58z"/>
		</g>
		<g>
			<path class="st68" d="M128,55.4c0,0-1.9,8.2-1.1,8.8c0,0,0.1,0.5,0.9,0.5c0,0,0.2,0.7,1,0.4c0,0,0.1,0.5,0.4,0.8
				c0.4,0.4,1.3,0,1.1-1.9c0,0,0.3,0.6,0.9,0.7c0.8,0.2,0.3-0.9,0.3-0.9s-0.2-1.1-0.5-2.5c-0.3-1.4-0.8-1.7-0.8-1.7l1.9-10.5
				L128,55.4z"/>
			<path class="st3" d="M127.1,57.5l2.3-13.1l1.9-11.4c0.4-2.3,3.7-2.8,4.5-0.5c0.4,1.1,0.5,2.7-0.1,5.1l-2,10.1l-2.6,11L127.1,57.5
				z"/>
			<polygon class="st70" points="126.8,58.3 127.1,55.6 132,57.1 131.3,59.5 			"/>
		</g>
		<polygon class="st70" points="157.3,57.5 162.4,55.6 163.2,57.3 157.9,59.6 		"/>
	</g>
</g>
</svg>
