<?xml version="1.0" encoding="utf-8"?>
<!-- Generator: Adobe Illustrator 22.0.0, SVG Export Plug-In . SVG Version: 6.00 Build 0)  -->
<svg version="1.1" id="Layer_1" xmlns="http://www.w3.org/2000/svg" xmlns:xlink="http://www.w3.org/1999/xlink" x="0px" y="0px"
	 viewBox="0 0 336 336" style="enable-background:new 0 0 336 336;" xml:space="preserve">
<style type="text/css">
	.st0{clip-path:url(#SVGID_2_);fill:#FFF8E6;}
	.st1{clip-path:url(#SVGID_2_);}
	.st2{fill:#18627D;}
	.st3{fill:#55D6D2;}
	.st4{fill:#F85B30;}
	.st5{clip-path:url(#SVGID_2_);fill:#18627D;}
</style>
<g>
	<g>
		<defs>
			
				<ellipse id="SVGID_1_" transform="matrix(0.7071 -0.7071 0.7071 0.7071 -69.5878 167.9999)" cx="168" cy="168" rx="166.2" ry="166.2"/>
		</defs>
		<use xlink:href="#SVGID_1_"  style="overflow:visible;fill:#FDB813;"/>
		<clipPath id="SVGID_2_">
			<use xlink:href="#SVGID_1_"  style="overflow:visible;"/>
		</clipPath>
		<path class="st0" d="M62.2,187.9l-68.4,29.6l20.8,48.1l74.1-32.1c3.1,0.2,6.2-0.1,8.5-0.3c17.7-2,43.9-15.8,43.9-15.8
			c0,0,0-0.1,0-0.1l40-17.3c3.8-1.7,5.6-6.1,3.9-9.9c-1.7-3.8-6.1-5.6-9.9-3.9l-32.3,14c-0.1-0.4-0.2-0.7-0.3-1.1l49.6-21.5
			c4.1-1.8,6-6.6,4.2-10.7c-1.8-4.1-6.6-6-10.7-4.2l-48.3,20.9c-0.1-0.3-0.3-0.6-0.4-1l59.6-25.8c4.1-1.8,6-6.6,4.2-10.7
			c-1.8-4.1-6.6-6-10.7-4.2l-60.3,26.1c-0.2-0.3-0.4-0.6-0.6-1l53.6-23.2c4.1-1.8,6-6.6,4.2-10.7c-1.8-4.1-6.6-6-10.7-4.2l-62.4,27
			c0,0,0,0-0.1,0c-6.1,2.6-17.8,8.6-20.2,9.9L62.2,187.9z"/>
		<g class="st1">
			<path class="st2" d="M259.3,221.4l-0.6-3.2l-0.3,0.1c0-0.8,0-1.7-0.2-2.6L230.8,77.9c-1.3-6.4-7.5-10.5-13.8-9.2L96.9,92.5
				c-6.4,1.3-10.5,7.5-9.2,13.8L115,244.2c0.2,0.9,0.4,1.7,0.8,2.5l-0.3,0.1l0.6,3.2c1.3,6.4,7.5,10.5,13.8,9.2L250,235.3
				C256.4,234,260.5,227.8,259.3,221.4z M235.9,162.8l-120.6,24l-5.5-27.6l120.6-24L235.9,162.8z M229.6,131L109,155l-5.5-27.6
				l120.6-24L229.6,131z M99.1,103.7l120.1-23.8c0.2,0,0.3,0.1,0.3,0.2l3.8,19.1l-120.6,24l-3.8-19.1
				C98.9,103.9,99,103.7,99.1,103.7z M116.2,191l120.6-24l5.5,27.6l-120.6,24L116.2,191z M246.7,218.3l-120.1,23.8
				c-0.2,0-0.3-0.1-0.3-0.2l-3.8-19.1l120.6-24l3.8,19.1C246.9,218.1,246.8,218.3,246.7,218.3z"/>
			<path class="st3" d="M140.8,123.6c0.5,2.4-1.1,4.7-3.5,5.2l-1.6,0.3c-2.4,0.5-4.7-1.1-5.2-3.5l-2.2-11.1
				c-0.5-2.4,1.1-4.7,3.5-5.2l1.6-0.3c2.4-0.5,4.7,1.1,5.2,3.5L140.8,123.6z"/>
			<path class="st3" d="M156,120.5c0.5,2.4-1.1,4.7-3.5,5.2l-1.6,0.3c-2.4,0.5-4.7-1.1-5.2-3.5l-2.2-11.1c-0.5-2.4,1.1-4.7,3.5-5.2
				l1.6-0.3c2.4-0.5,4.7,1.1,5.2,3.5L156,120.5z"/>
			<path class="st4" d="M159.8,219c0.5,2.4-1.1,4.7-3.5,5.2l-1.6,0.3c-2.4,0.5-4.7-1.1-5.2-3.5l-2.2-11.1c-0.5-2.4,1.1-4.7,3.5-5.2
				l1.6-0.3c2.4-0.5,4.7,1.1,5.2,3.5L159.8,219z"/>
			<path class="st4" d="M174.9,216c0.5,2.4-1.1,4.7-3.5,5.2l-1.6,0.3c-2.4,0.5-4.7-1.1-5.2-3.5l-2.2-11.1c-0.5-2.4,1.1-4.7,3.5-5.2
				l1.6-0.3c2.4-0.5,4.7,1.1,5.2,3.5L174.9,216z"/>
			<path class="st4" d="M172,117.4c0.5,2.4-1.1,4.7-3.5,5.2l-1.6,0.3c-2.4,0.5-4.7-1.1-5.2-3.5l-2.2-11.1c-0.5-2.4,1.1-4.7,3.5-5.2
				l1.6-0.3c2.4-0.5,4.7,1.1,5.2,3.5L172,117.4z"/>
			<path class="st4" d="M187.1,114.4c0.5,2.4-1.1,4.7-3.5,5.2l-1.6,0.3c-2.4,0.5-4.7-1.1-5.2-3.5l-2.2-11.1
				c-0.5-2.4,1.1-4.7,3.5-5.2l1.6-0.3c2.4-0.5,4.7,1.1,5.2,3.5L187.1,114.4z"/>
			<path class="st4" d="M153.5,187.2c0.5,2.4-1.1,4.7-3.5,5.2l-1.6,0.3c-2.4,0.5-4.7-1.1-5.2-3.5l-2.2-11.1
				c-0.5-2.4,1.1-4.7,3.5-5.2l1.6-0.3c2.4-0.5,4.7,1.1,5.2,3.5L153.5,187.2z"/>
			<path class="st4" d="M168.6,184.2c0.5,2.4-1.1,4.7-3.5,5.2l-1.6,0.3c-2.4,0.5-4.7-1.1-5.2-3.5l-2.2-11.1
				c-0.5-2.4,1.1-4.7,3.5-5.2l1.6-0.3c2.4-0.5,4.7,1.1,5.2,3.5L168.6,184.2z"/>
			<path class="st4" d="M184.6,181c0.5,2.4-1.1,4.7-3.5,5.2l-1.6,0.3c-2.4,0.5-4.7-1.1-5.2-3.5l-2.2-11.1c-0.5-2.4,1.1-4.7,3.5-5.2
				l1.6-0.3c2.4-0.5,4.7,1.1,5.2,3.5L184.6,181z"/>
			<path class="st4" d="M199.8,178c0.5,2.4-1.1,4.7-3.5,5.2l-1.6,0.3c-2.4,0.5-4.7-1.1-5.2-3.5l-2.2-11.1c-0.5-2.4,1.1-4.7,3.5-5.2
				l1.6-0.3c2.4-0.5,4.7,1.1,5.2,3.5L199.8,178z"/>
			<path class="st4" d="M204.5,110.9c0.5,2.4-1.1,4.7-3.5,5.2l-1.6,0.3c-2.4,0.5-4.7-1.1-5.2-3.5l-2.2-11.1
				c-0.5-2.4,1.1-4.7,3.5-5.2l1.6-0.3c2.4-0.5,4.7,1.1,5.2,3.5L204.5,110.9z"/>
			<path class="st3" d="M206.1,209.8c0.5,2.4-1.1,4.7-3.5,5.2l-1.6,0.3c-2.4,0.5-4.7-1.1-5.2-3.5l-2.2-11.1
				c-0.5-2.4,1.1-4.7,3.5-5.2l1.6-0.3c2.4-0.5,4.7,1.1,5.2,3.5L206.1,209.8z"/>
			<path class="st4" d="M223.4,206.4c0.5,2.4-1.1,4.7-3.5,5.2l-1.6,0.3c-2.4,0.5-4.7-1.1-5.2-3.5l-2.2-11.1
				c-0.5-2.4,1.1-4.7,3.5-5.2l1.6-0.3c2.4-0.5,4.7,1.1,5.2,3.5L223.4,206.4z"/>
			<path class="st3" d="M178.3,149.2c0.5,2.4-1.1,4.7-3.5,5.2l-1.6,0.3c-2.4,0.5-4.7-1.1-5.2-3.5l-2.2-11.1
				c-0.5-2.4,1.1-4.7,3.5-5.2l1.6-0.3c2.4-0.5,4.7,1.1,5.2,3.5L178.3,149.2z"/>
			<path class="st3" d="M193.5,146.2c0.5,2.4-1.1,4.7-3.5,5.2l-1.6,0.3c-2.4,0.5-4.7-1.1-5.2-3.5l-2.2-11.1
				c-0.5-2.4,1.1-4.7,3.5-5.2l1.6-0.3c2.4-0.5,4.7,1.1,5.2,3.5L193.5,146.2z"/>
			<path class="st3" d="M210.8,142.7c0.5,2.4-1.1,4.7-3.5,5.2l-1.6,0.3c-2.4,0.5-4.7-1.1-5.2-3.5l-2.2-11.1
				c-0.5-2.4,1.1-4.7,3.5-5.2l1.6-0.3c2.4-0.5,4.7,1.1,5.2,3.5L210.8,142.7z"/>
		</g>
		<path class="st0" d="M93.8,165.7c2.3-7.6,4.3-13.7,4.3-13.7s8-10,10.8-12.9c9.4-9.6,4.2-19.7,2.6-21.4c-2.7-2.9-6.2,1.6-6.2,1.6
			l-26.2,26.1c-6.7,7.3-14.5,28.8-16.9,42.5L93.8,165.7z"/>
		<path class="st0" d="M276.6,191.4l-1.4-10c-0.6-4.5-4.7-7.6-9.1-7.1c-3.2,0.4-5.7,2.6-6.7,5.5l-0.1-1.5c-0.6-4.8-5-8.1-9.7-7.5
			c-3.5,0.4-6.2,2.9-7.2,6.1l-0.2-1.5c-0.7-4.9-5.1-8.3-9.9-7.6c-4.8,0.7-8,5.2-7.4,10.1l0,0c-0.1,0-0.1,0-0.2,0c0,0,0,0,0,0
			c0,0,0,0,0,0c-0.1,0-0.1,0-0.2,0l-7-40.4c-0.9-4.9-5.6-8.2-10.5-7.3c-4.9,0.9-8.2,5.6-7.3,10.5c0,0,7.5,45.7,11,66.6l-13.6,12
			l3.3,24.4c3,4.1,19.4,18.6,25,23.5c0.9,0.7,1.6,1.4,2,1.7l7.2,52.2l46.8-6.4l-7.1-55c0,0,5.2-14.4,5.2-14.6
			C279.5,239.9,280.6,210,276.6,191.4z"/>
		
			<rect x="226.4" y="272.7" transform="matrix(0.99 -0.1408 0.1408 0.99 -39.4308 39.3504)" class="st5" width="63.9" height="51.3"/>
		
			<rect x="10.5" y="197.2" transform="matrix(0.924 -0.3823 0.3823 0.924 -84.8465 31.2242)" class="st5" width="51.3" height="63.9"/>
	</g>
</g>
</svg>
