<?xml version="1.0" encoding="utf-8"?>
<!-- Generator: Adobe Illustrator 22.0.0, SVG Export Plug-In . SVG Version: 6.00 Build 0)  -->
<svg version="1.1" id="Layer_1" xmlns="http://www.w3.org/2000/svg" xmlns:xlink="http://www.w3.org/1999/xlink" x="0px" y="0px"
	 viewBox="0 0 336 336" style="enable-background:new 0 0 336 336;" xml:space="preserve">
<style type="text/css">
	.st0{clip-path:url(#SVGID_2_);}
	.st1{fill:#184462;}
	.st2{fill:#FFFFF4;}
	.st3{opacity:0.44;fill:#232020;}
	.st4{opacity:3.000000e-02;fill:#184462;}
	.st5{fill:#35B293;}
	.st6{fill:#F2DADE;}
	.st7{fill:#18627D;}
	.st8{fill:#FFD22C;}
</style>
<g>
	<defs>
		<circle id="SVGID_1_" cx="168" cy="168" r="166"/>
	</defs>
	<clipPath id="SVGID_2_">
		<use xlink:href="#SVGID_1_"  style="overflow:visible;"/>
	</clipPath>
	<g class="st0">
		<g>
			<g>
				<defs>
					
						<ellipse id="SVGID_3_" transform="matrix(0.7071 -0.7071 0.7071 0.7071 -69.8665 167.9743)" cx="167.8" cy="168.3" rx="166.2" ry="166.2"/>
				</defs>
				<use xlink:href="#SVGID_3_"  style="overflow:visible;fill:#55D6D2;"/>
				<clipPath id="SVGID_4_">
					<use xlink:href="#SVGID_3_"  style="overflow:visible;"/>
				</clipPath>
			</g>
		</g>
		<g>
			<g>
				<polygon class="st1" points="254.3,222.6 254.3,45.1 18,45.1 18,222.6 122.6,222.6 122.6,241.6 103.8,241.6 103.8,254.9 
					168.5,254.9 168.5,241.6 149.7,241.6 149.7,222.6 				"/>
				<rect x="26.2" y="51.9" class="st2" width="219.8" height="165.2"/>
				<polygon class="st3" points="122.8,223.9 149.7,223.9 149.7,242.5 				"/>
			</g>
			<polygon class="st4" points="26.2,51.9 26.2,217.1 246.1,217.1 			"/>
			<g>
				<path class="st5" d="M152.2,206.9h-32c-1.8,0-3.3-1.5-3.3-3.3v-4.3c0-1.8,1.5-3.3,3.3-3.3h32c1.8,0,3.3,1.5,3.3,3.3v4.3
					C155.5,205.4,154.1,206.9,152.2,206.9z"/>
			</g>
			<g>
				<ellipse class="st1" cx="136.1" cy="116.3" rx="16.5" ry="17.9"/>
				<polygon class="st1" points="144.1,177.4 128.2,177.4 131.2,126.5 141.1,126.5 				"/>
			</g>
			<g>
				<path class="st5" d="M28,66.7c-0.8-1.2-1.1-3-1.1-5.4c0-2.4,0.4-4.2,1.1-5.4c0.8-1.2,1.9-1.9,3.3-1.9c1.5,0,2.6,0.6,3.3,1.8
					c0.7,1.2,1.1,3,1.1,5.4c0,2.4-0.4,4.2-1.1,5.4c-0.8,1.2-1.9,1.9-3.3,1.9C29.8,68.5,28.7,67.9,28,66.7z M34,66.1
					c0.6-1.1,0.9-2.7,0.9-4.9c0-2.2-0.3-3.8-0.9-4.9c-0.6-1-1.5-1.6-2.7-1.6c-1.2,0-2.1,0.5-2.7,1.6c-0.6,1.1-0.9,2.7-0.9,4.9
					c0,2.2,0.3,3.8,0.9,4.9c0.6,1.1,1.5,1.6,2.7,1.6C32.5,67.7,33.4,67.2,34,66.1z"/>
				<path class="st5" d="M39,66.7c-0.8-1.2-1.1-3-1.1-5.4c0-2.4,0.4-4.2,1.1-5.4c0.8-1.2,1.9-1.9,3.3-1.9c1.5,0,2.6,0.6,3.3,1.8
					c0.7,1.2,1.1,3,1.1,5.4c0,2.4-0.4,4.2-1.1,5.4c-0.8,1.2-1.9,1.9-3.3,1.9C40.9,68.5,39.8,67.9,39,66.7z M45.1,66.1
					c0.6-1.1,0.9-2.7,0.9-4.9c0-2.2-0.3-3.8-0.9-4.9c-0.6-1-1.5-1.6-2.7-1.6c-1.2,0-2.1,0.5-2.7,1.6c-0.6,1.1-0.9,2.7-0.9,4.9
					c0,2.2,0.3,3.8,0.9,4.9c0.6,1.1,1.5,1.6,2.7,1.6C43.6,67.7,44.5,67.2,45.1,66.1z"/>
				<path class="st5" d="M54.2,67.6h2.9v0.8h-6.6v-0.8h2.9V55.3l-2.7,2v-1l2.7-2v-0.1l0.1,0.1l0.3-0.2h0.4V67.6z"/>
				<path class="st5" d="M61.2,66.7c-0.8-1.2-1.1-3-1.1-5.4c0-2.4,0.4-4.2,1.1-5.4c0.8-1.2,1.9-1.9,3.3-1.9c1.5,0,2.6,0.6,3.3,1.8
					c0.7,1.2,1.1,3,1.1,5.4c0,2.4-0.4,4.2-1.1,5.4c-0.8,1.2-1.9,1.9-3.3,1.9C63,68.5,61.9,67.9,61.2,66.7z M67.2,66.1
					c0.6-1.1,0.9-2.7,0.9-4.9c0-2.2-0.3-3.8-0.9-4.9c-0.6-1-1.5-1.6-2.7-1.6c-1.2,0-2.1,0.5-2.7,1.6c-0.6,1.1-0.9,2.7-0.9,4.9
					c0,2.2,0.3,3.8,0.9,4.9c0.6,1.1,1.5,1.6,2.7,1.6C65.7,67.7,66.6,67.2,67.2,66.1z"/>
				<path class="st5" d="M76.3,67.6h2.9v0.8h-6.6v-0.8h2.9V55.3l-2.7,2v-1l2.7-2v-0.1l0.1,0.1l0.3-0.2h0.4V67.6z"/>
				<path class="st5" d="M83.3,66.7c-0.8-1.2-1.1-3-1.1-5.4c0-2.4,0.4-4.2,1.1-5.4c0.8-1.2,1.9-1.9,3.3-1.9c1.5,0,2.6,0.6,3.3,1.8
					c0.7,1.2,1.1,3,1.1,5.4c0,2.4-0.4,4.2-1.1,5.4c-0.8,1.2-1.9,1.9-3.3,1.9C85.2,68.5,84.1,67.9,83.3,66.7z M89.3,66.1
					c0.6-1.1,0.9-2.7,0.9-4.9c0-2.2-0.3-3.8-0.9-4.9c-0.6-1-1.5-1.6-2.7-1.6c-1.2,0-2.1,0.5-2.7,1.6C83.3,57.4,83,59,83,61.2
					c0,2.2,0.3,3.8,0.9,4.9c0.6,1.1,1.5,1.6,2.7,1.6C87.8,67.7,88.7,67.2,89.3,66.1z"/>
				<path class="st5" d="M98.5,67.6h2.9v0.8h-6.6v-0.8h2.9V55.3l-2.7,2v-1l2.7-2v-0.1l0.1,0.1l0.3-0.2h0.4V67.6z"/>
				<path class="st5" d="M32.1,91.6H35v0.8h-6.6v-0.8h2.9V79.3l-2.7,2v-1l2.7-2v-0.1l0.1,0.1l0.3-0.2h0.4V91.6z"/>
				<path class="st5" d="M39,90.7c-0.8-1.2-1.1-3-1.1-5.4c0-2.4,0.4-4.2,1.1-5.4c0.8-1.2,1.9-1.9,3.3-1.9c1.5,0,2.6,0.6,3.3,1.8
					c0.7,1.2,1.1,3,1.1,5.4c0,2.4-0.4,4.2-1.1,5.4c-0.8,1.2-1.9,1.9-3.3,1.9C40.9,92.5,39.8,91.9,39,90.7z M45.1,90.1
					c0.6-1.1,0.9-2.7,0.9-4.9c0-2.2-0.3-3.8-0.9-4.9c-0.6-1-1.5-1.6-2.7-1.6c-1.2,0-2.1,0.5-2.7,1.6c-0.6,1.1-0.9,2.7-0.9,4.9
					c0,2.2,0.3,3.8,0.9,4.9c0.6,1.1,1.5,1.6,2.7,1.6C43.6,91.7,44.5,91.2,45.1,90.1z"/>
				<path class="st5" d="M50.1,90.7c-0.8-1.2-1.1-3-1.1-5.4c0-2.4,0.4-4.2,1.1-5.4c0.8-1.2,1.9-1.9,3.3-1.9c1.5,0,2.6,0.6,3.3,1.8
					c0.7,1.2,1.1,3,1.1,5.4c0,2.4-0.4,4.2-1.1,5.4c-0.8,1.2-1.9,1.9-3.3,1.9C52,92.5,50.9,91.9,50.1,90.7z M56.1,90.1
					c0.6-1.1,0.9-2.7,0.9-4.9c0-2.2-0.3-3.8-0.9-4.9c-0.6-1-1.5-1.6-2.7-1.6c-1.2,0-2.1,0.5-2.7,1.6c-0.6,1.1-0.9,2.7-0.9,4.9
					c0,2.2,0.3,3.8,0.9,4.9c0.6,1.1,1.5,1.6,2.7,1.6C54.6,91.7,55.5,91.2,56.1,90.1z"/>
				<path class="st5" d="M65.3,91.6h2.9v0.8h-6.6v-0.8h2.9V79.3l-2.7,2v-1l2.7-2v-0.1l0.1,0.1l0.3-0.2h0.4V91.6z"/>
				<path class="st5" d="M72.3,90.7c-0.8-1.2-1.1-3-1.1-5.4c0-2.4,0.4-4.2,1.1-5.4c0.8-1.2,1.9-1.9,3.3-1.9c1.5,0,2.6,0.6,3.3,1.8
					c0.7,1.2,1.1,3,1.1,5.4c0,2.4-0.4,4.2-1.1,5.4c-0.8,1.2-1.9,1.9-3.3,1.9C74.1,92.5,73,91.9,72.3,90.7z M78.3,90.1
					c0.6-1.1,0.9-2.7,0.9-4.9c0-2.2-0.3-3.8-0.9-4.9c-0.6-1-1.5-1.6-2.7-1.6c-1.2,0-2.1,0.5-2.7,1.6C72.3,81.4,72,83,72,85.2
					c0,2.2,0.3,3.8,0.9,4.9c0.6,1.1,1.5,1.6,2.7,1.6C76.8,91.7,77.7,91.2,78.3,90.1z"/>
				<path class="st5" d="M87.4,91.6h2.9v0.8h-6.6v-0.8h2.9V79.3l-2.7,2v-1l2.7-2v-0.1l0.1,0.1l0.3-0.2h0.4V91.6z"/>
				<path class="st5" d="M94.4,90.7c-0.8-1.2-1.1-3-1.1-5.4c0-2.4,0.4-4.2,1.1-5.4c0.8-1.2,1.9-1.9,3.3-1.9c1.5,0,2.6,0.6,3.3,1.8
					c0.7,1.2,1.1,3,1.1,5.4c0,2.4-0.4,4.2-1.1,5.4c-0.8,1.2-1.9,1.9-3.3,1.9C96.2,92.5,95.1,91.9,94.4,90.7z M100.4,90.1
					c0.6-1.1,0.9-2.7,0.9-4.9c0-2.2-0.3-3.8-0.9-4.9c-0.6-1-1.5-1.6-2.7-1.6c-1.2,0-2.1,0.5-2.7,1.6c-0.6,1.1-0.9,2.7-0.9,4.9
					c0,2.2,0.3,3.8,0.9,4.9c0.6,1.1,1.5,1.6,2.7,1.6C98.9,91.7,99.8,91.2,100.4,90.1z"/>
				<path class="st5" d="M32.1,115.6H35v0.8h-6.6v-0.8h2.9v-12.3l-2.7,2v-1l2.7-2v-0.1l0.1,0.1l0.3-0.2h0.4V115.6z"/>
				<path class="st5" d="M43.1,115.6h2.9v0.8h-6.6v-0.8h2.9v-12.3l-2.7,2v-1l2.7-2v-0.1l0.1,0.1l0.3-0.2h0.4V115.6z"/>
				<path class="st5" d="M50.1,114.7c-0.8-1.2-1.1-3-1.1-5.4c0-2.4,0.4-4.2,1.1-5.4c0.8-1.2,1.9-1.9,3.3-1.9c1.5,0,2.6,0.6,3.3,1.8
					c0.7,1.2,1.1,3,1.1,5.4c0,2.4-0.4,4.2-1.1,5.4c-0.8,1.2-1.9,1.9-3.3,1.9C52,116.5,50.9,115.9,50.1,114.7z M56.1,114.1
					c0.6-1.1,0.9-2.7,0.9-4.9c0-2.2-0.3-3.8-0.9-4.9c-0.6-1-1.5-1.6-2.7-1.6c-1.2,0-2.1,0.5-2.7,1.6c-0.6,1.1-0.9,2.7-0.9,4.9
					c0,2.2,0.3,3.8,0.9,4.9c0.6,1.1,1.5,1.6,2.7,1.6C54.6,115.7,55.5,115.2,56.1,114.1z"/>
				<path class="st5" d="M65.3,115.6h2.9v0.8h-6.6v-0.8h2.9v-12.3l-2.7,2v-1l2.7-2v-0.1l0.1,0.1l0.3-0.2h0.4V115.6z"/>
				<path class="st5" d="M72.3,114.7c-0.8-1.2-1.1-3-1.1-5.4c0-2.4,0.4-4.2,1.1-5.4c0.8-1.2,1.9-1.9,3.3-1.9c1.5,0,2.6,0.6,3.3,1.8
					c0.7,1.2,1.1,3,1.1,5.4c0,2.4-0.4,4.2-1.1,5.4c-0.8,1.2-1.9,1.9-3.3,1.9C74.1,116.5,73,115.9,72.3,114.7z M78.3,114.1
					c0.6-1.1,0.9-2.7,0.9-4.9c0-2.2-0.3-3.8-0.9-4.9c-0.6-1-1.5-1.6-2.7-1.6c-1.2,0-2.1,0.5-2.7,1.6c-0.6,1.1-0.9,2.7-0.9,4.9
					c0,2.2,0.3,3.8,0.9,4.9c0.6,1.1,1.5,1.6,2.7,1.6C76.8,115.7,77.7,115.2,78.3,114.1z"/>
				<path class="st5" d="M87.4,115.6h2.9v0.8h-6.6v-0.8h2.9v-12.3l-2.7,2v-1l2.7-2v-0.1l0.1,0.1l0.3-0.2h0.4V115.6z"/>
				<path class="st5" d="M94.4,114.7c-0.8-1.2-1.1-3-1.1-5.4c0-2.4,0.4-4.2,1.1-5.4c0.8-1.2,1.9-1.9,3.3-1.9c1.5,0,2.6,0.6,3.3,1.8
					c0.7,1.2,1.1,3,1.1,5.4c0,2.4-0.4,4.2-1.1,5.4c-0.8,1.2-1.9,1.9-3.3,1.9C96.2,116.5,95.1,115.9,94.4,114.7z M100.4,114.1
					c0.6-1.1,0.9-2.7,0.9-4.9c0-2.2-0.3-3.8-0.9-4.9c-0.6-1-1.5-1.6-2.7-1.6c-1.2,0-2.1,0.5-2.7,1.6c-0.6,1.1-0.9,2.7-0.9,4.9
					c0,2.2,0.3,3.8,0.9,4.9c0.6,1.1,1.5,1.6,2.7,1.6C98.9,115.7,99.8,115.2,100.4,114.1z"/>
				<path class="st5" d="M32.1,139.6H35v0.8h-6.6v-0.8h2.9v-12.3l-2.7,2v-1l2.7-2v-0.1l0.1,0.1l0.3-0.2h0.4V139.6z"/>
				<path class="st5" d="M39,138.7c-0.8-1.2-1.1-3-1.1-5.4c0-2.4,0.4-4.2,1.1-5.4c0.8-1.2,1.9-1.9,3.3-1.9c1.5,0,2.6,0.6,3.3,1.8
					c0.7,1.2,1.1,3,1.1,5.4c0,2.4-0.4,4.2-1.1,5.4c-0.8,1.2-1.9,1.9-3.3,1.9C40.9,140.5,39.8,139.9,39,138.7z M45.1,138.1
					c0.6-1.1,0.9-2.7,0.9-4.9c0-2.2-0.3-3.8-0.9-4.9c-0.6-1-1.5-1.6-2.7-1.6c-1.2,0-2.1,0.5-2.7,1.6c-0.6,1.1-0.9,2.7-0.9,4.9
					c0,2.2,0.3,3.8,0.9,4.9c0.6,1.1,1.5,1.6,2.7,1.6C43.6,139.7,44.5,139.2,45.1,138.1z"/>
				<path class="st5" d="M54.2,139.6h2.9v0.8h-6.6v-0.8h2.9v-12.3l-2.7,2v-1l2.7-2v-0.1l0.1,0.1l0.3-0.2h0.4V139.6z"/>
				<path class="st5" d="M61.2,138.7c-0.8-1.2-1.1-3-1.1-5.4c0-2.4,0.4-4.2,1.1-5.4c0.8-1.2,1.9-1.9,3.3-1.9c1.5,0,2.6,0.6,3.3,1.8
					c0.7,1.2,1.1,3,1.1,5.4c0,2.4-0.4,4.2-1.1,5.4c-0.8,1.2-1.9,1.9-3.3,1.9C63,140.5,61.9,139.9,61.2,138.7z M67.2,138.1
					c0.6-1.1,0.9-2.7,0.9-4.9c0-2.2-0.3-3.8-0.9-4.9c-0.6-1-1.5-1.6-2.7-1.6c-1.2,0-2.1,0.5-2.7,1.6c-0.6,1.1-0.9,2.7-0.9,4.9
					c0,2.2,0.3,3.8,0.9,4.9c0.6,1.1,1.5,1.6,2.7,1.6C65.7,139.7,66.6,139.2,67.2,138.1z"/>
				<path class="st5" d="M76.3,139.6h2.9v0.8h-6.6v-0.8h2.9v-12.3l-2.7,2v-1l2.7-2v-0.1l0.1,0.1l0.3-0.2h0.4V139.6z"/>
				<path class="st5" d="M83.3,138.7c-0.8-1.2-1.1-3-1.1-5.4c0-2.4,0.4-4.2,1.1-5.4c0.8-1.2,1.9-1.9,3.3-1.9c1.5,0,2.6,0.6,3.3,1.8
					c0.7,1.2,1.1,3,1.1,5.4c0,2.4-0.4,4.2-1.1,5.4c-0.8,1.2-1.9,1.9-3.3,1.9C85.2,140.5,84.1,139.9,83.3,138.7z M89.3,138.1
					c0.6-1.1,0.9-2.7,0.9-4.9c0-2.2-0.3-3.8-0.9-4.9c-0.6-1-1.5-1.6-2.7-1.6c-1.2,0-2.1,0.5-2.7,1.6c-0.6,1.1-0.9,2.7-0.9,4.9
					c0,2.2,0.3,3.8,0.9,4.9c0.6,1.1,1.5,1.6,2.7,1.6C87.8,139.7,88.7,139.2,89.3,138.1z"/>
				<path class="st5" d="M98.5,139.6h2.9v0.8h-6.6v-0.8h2.9v-12.3l-2.7,2v-1l2.7-2v-0.1l0.1,0.1l0.3-0.2h0.4V139.6z"/>
				<path class="st5" d="M32.1,163.6H35v0.8h-6.6v-0.8h2.9v-12.3l-2.7,2v-1l2.7-2v-0.1l0.1,0.1l0.3-0.2h0.4V163.6z"/>
				<path class="st5" d="M39,162.7c-0.8-1.2-1.1-3-1.1-5.4c0-2.4,0.4-4.2,1.1-5.4c0.8-1.2,1.9-1.9,3.3-1.9c1.5,0,2.6,0.6,3.3,1.8
					c0.7,1.2,1.1,3,1.1,5.4c0,2.4-0.4,4.2-1.1,5.4c-0.8,1.2-1.9,1.9-3.3,1.9C40.9,164.5,39.8,163.9,39,162.7z M45.1,162.1
					c0.6-1.1,0.9-2.7,0.9-4.9c0-2.2-0.3-3.8-0.9-4.9c-0.6-1-1.5-1.6-2.7-1.6c-1.2,0-2.1,0.5-2.7,1.6c-0.6,1.1-0.9,2.7-0.9,4.9
					c0,2.2,0.3,3.8,0.9,4.9c0.6,1.1,1.5,1.6,2.7,1.6C43.6,163.7,44.5,163.2,45.1,162.1z"/>
				<path class="st5" d="M50.1,162.7c-0.8-1.2-1.1-3-1.1-5.4c0-2.4,0.4-4.2,1.1-5.4c0.8-1.2,1.9-1.9,3.3-1.9c1.5,0,2.6,0.6,3.3,1.8
					c0.7,1.2,1.1,3,1.1,5.4c0,2.4-0.4,4.2-1.1,5.4c-0.8,1.2-1.9,1.9-3.3,1.9C52,164.5,50.9,163.9,50.1,162.7z M56.1,162.1
					c0.6-1.1,0.9-2.7,0.9-4.9c0-2.2-0.3-3.8-0.9-4.9c-0.6-1-1.5-1.6-2.7-1.6c-1.2,0-2.1,0.5-2.7,1.6c-0.6,1.1-0.9,2.7-0.9,4.9
					c0,2.2,0.3,3.8,0.9,4.9c0.6,1.1,1.5,1.6,2.7,1.6C54.6,163.7,55.5,163.2,56.1,162.1z"/>
				<path class="st5" d="M65.3,163.6h2.9v0.8h-6.6v-0.8h2.9v-12.3l-2.7,2v-1l2.7-2v-0.1l0.1,0.1l0.3-0.2h0.4V163.6z"/>
				<path class="st5" d="M76.3,163.6h2.9v0.8h-6.6v-0.8h2.9v-12.3l-2.7,2v-1l2.7-2v-0.1l0.1,0.1l0.3-0.2h0.4V163.6z"/>
				<path class="st5" d="M87.4,163.6h2.9v0.8h-6.6v-0.8h2.9v-12.3l-2.7,2v-1l2.7-2v-0.1l0.1,0.1l0.3-0.2h0.4V163.6z"/>
				<path class="st5" d="M94.4,162.7c-0.8-1.2-1.1-3-1.1-5.4c0-2.4,0.4-4.2,1.1-5.4c0.8-1.2,1.9-1.9,3.3-1.9c1.5,0,2.6,0.6,3.3,1.8
					c0.7,1.2,1.1,3,1.1,5.4c0,2.4-0.4,4.2-1.1,5.4c-0.8,1.2-1.9,1.9-3.3,1.9C96.2,164.5,95.1,163.9,94.4,162.7z M100.4,162.1
					c0.6-1.1,0.9-2.7,0.9-4.9c0-2.2-0.3-3.8-0.9-4.9c-0.6-1-1.5-1.6-2.7-1.6c-1.2,0-2.1,0.5-2.7,1.6c-0.6,1.1-0.9,2.7-0.9,4.9
					c0,2.2,0.3,3.8,0.9,4.9c0.6,1.1,1.5,1.6,2.7,1.6C98.9,163.7,99.8,163.2,100.4,162.1z"/>
				<path class="st5" d="M32.1,187.6H35v0.8h-6.6v-0.8h2.9v-12.3l-2.7,2v-1l2.7-2v-0.1l0.1,0.1l0.3-0.2h0.4V187.6z"/>
				<path class="st5" d="M39,186.7c-0.8-1.2-1.1-3-1.1-5.4c0-2.4,0.4-4.2,1.1-5.4c0.8-1.2,1.9-1.9,3.3-1.9c1.5,0,2.6,0.6,3.3,1.8
					c0.7,1.2,1.1,3,1.1,5.4c0,2.4-0.4,4.2-1.1,5.4c-0.8,1.2-1.9,1.9-3.3,1.9C40.9,188.6,39.8,187.9,39,186.7z M45.1,186.2
					c0.6-1.1,0.9-2.7,0.9-4.9c0-2.2-0.3-3.8-0.9-4.9c-0.6-1-1.5-1.6-2.7-1.6c-1.2,0-2.1,0.5-2.7,1.6c-0.6,1.1-0.9,2.7-0.9,4.9
					c0,2.2,0.3,3.8,0.9,4.9c0.6,1.1,1.5,1.6,2.7,1.6C43.6,187.7,44.5,187.2,45.1,186.2z"/>
				<path class="st5" d="M50.1,186.7c-0.8-1.2-1.1-3-1.1-5.4c0-2.4,0.4-4.2,1.1-5.4c0.8-1.2,1.9-1.9,3.3-1.9c1.5,0,2.6,0.6,3.3,1.8
					c0.7,1.2,1.1,3,1.1,5.4c0,2.4-0.4,4.2-1.1,5.4c-0.8,1.2-1.9,1.9-3.3,1.9C52,188.6,50.9,187.9,50.1,186.7z M56.1,186.2
					c0.6-1.1,0.9-2.7,0.9-4.9c0-2.2-0.3-3.8-0.9-4.9c-0.6-1-1.5-1.6-2.7-1.6c-1.2,0-2.1,0.5-2.7,1.6c-0.6,1.1-0.9,2.7-0.9,4.9
					c0,2.2,0.3,3.8,0.9,4.9c0.6,1.1,1.5,1.6,2.7,1.6C54.6,187.7,55.5,187.2,56.1,186.2z"/>
				<path class="st5" d="M65.3,187.6h2.9v0.8h-6.6v-0.8h2.9v-12.3l-2.7,2v-1l2.7-2v-0.1l0.1,0.1l0.3-0.2h0.4V187.6z"/>
				<path class="st5" d="M72.3,186.7c-0.8-1.2-1.1-3-1.1-5.4c0-2.4,0.4-4.2,1.1-5.4c0.8-1.2,1.9-1.9,3.3-1.9c1.5,0,2.6,0.6,3.3,1.8
					c0.7,1.2,1.1,3,1.1,5.4c0,2.4-0.4,4.2-1.1,5.4c-0.8,1.2-1.9,1.9-3.3,1.9C74.1,188.6,73,187.9,72.3,186.7z M78.3,186.2
					c0.6-1.1,0.9-2.7,0.9-4.9c0-2.2-0.3-3.8-0.9-4.9c-0.6-1-1.5-1.6-2.7-1.6c-1.2,0-2.1,0.5-2.7,1.6c-0.6,1.1-0.9,2.7-0.9,4.9
					c0,2.2,0.3,3.8,0.9,4.9c0.6,1.1,1.5,1.6,2.7,1.6C76.8,187.7,77.7,187.2,78.3,186.2z"/>
				<path class="st5" d="M83.3,186.7c-0.8-1.2-1.1-3-1.1-5.4c0-2.4,0.4-4.2,1.1-5.4c0.8-1.2,1.9-1.9,3.3-1.9c1.5,0,2.6,0.6,3.3,1.8
					c0.7,1.2,1.1,3,1.1,5.4c0,2.4-0.4,4.2-1.1,5.4c-0.8,1.2-1.9,1.9-3.3,1.9C85.2,188.6,84.1,187.9,83.3,186.7z M89.3,186.2
					c0.6-1.1,0.9-2.7,0.9-4.9c0-2.2-0.3-3.8-0.9-4.9c-0.6-1-1.5-1.6-2.7-1.6c-1.2,0-2.1,0.5-2.7,1.6c-0.6,1.1-0.9,2.7-0.9,4.9
					c0,2.2,0.3,3.8,0.9,4.9c0.6,1.1,1.5,1.6,2.7,1.6C87.8,187.7,88.7,187.2,89.3,186.2z"/>
				<path class="st5" d="M98.5,187.6h2.9v0.8h-6.6v-0.8h2.9v-12.3l-2.7,2v-1l2.7-2v-0.1l0.1,0.1l0.3-0.2h0.4V187.6z"/>
				<path class="st5" d="M28,210.7c-0.8-1.2-1.1-3-1.1-5.4c0-2.4,0.4-4.2,1.1-5.4c0.8-1.2,1.9-1.9,3.3-1.9c1.5,0,2.6,0.6,3.3,1.8
					c0.7,1.2,1.1,3,1.1,5.4c0,2.4-0.4,4.2-1.1,5.4c-0.8,1.2-1.9,1.9-3.3,1.9C29.8,212.6,28.7,212,28,210.7z M34,210.2
					c0.6-1.1,0.9-2.7,0.9-4.9c0-2.2-0.3-3.8-0.9-4.9c-0.6-1-1.5-1.6-2.7-1.6c-1.2,0-2.1,0.5-2.7,1.6c-0.6,1.1-0.9,2.7-0.9,4.9
					c0,2.2,0.3,3.8,0.9,4.9c0.6,1.1,1.5,1.6,2.7,1.6C32.5,211.8,33.4,211.2,34,210.2z"/>
				<path class="st5" d="M43.1,211.7h2.9v0.8h-6.6v-0.8h2.9v-12.3l-2.7,2v-1l2.7-2v-0.1l0.1,0.1l0.3-0.2h0.4V211.7z"/>
				<path class="st5" d="M50.1,210.7c-0.8-1.2-1.1-3-1.1-5.4c0-2.4,0.4-4.2,1.1-5.4c0.8-1.2,1.9-1.9,3.3-1.9c1.5,0,2.6,0.6,3.3,1.8
					c0.7,1.2,1.1,3,1.1,5.4c0,2.4-0.4,4.2-1.1,5.4c-0.8,1.2-1.9,1.9-3.3,1.9C52,212.6,50.9,212,50.1,210.7z M56.1,210.2
					c0.6-1.1,0.9-2.7,0.9-4.9c0-2.2-0.3-3.8-0.9-4.9c-0.6-1-1.5-1.6-2.7-1.6c-1.2,0-2.1,0.5-2.7,1.6c-0.6,1.1-0.9,2.7-0.9,4.9
					c0,2.2,0.3,3.8,0.9,4.9c0.6,1.1,1.5,1.6,2.7,1.6C54.6,211.8,55.5,211.2,56.1,210.2z"/>
				<path class="st5" d="M65.3,211.7h2.9v0.8h-6.6v-0.8h2.9v-12.3l-2.7,2v-1l2.7-2v-0.1l0.1,0.1l0.3-0.2h0.4V211.7z"/>
				<path class="st5" d="M76.3,211.7h2.9v0.8h-6.6v-0.8h2.9v-12.3l-2.7,2v-1l2.7-2v-0.1l0.1,0.1l0.3-0.2h0.4V211.7z"/>
				<path class="st5" d="M83.3,210.7c-0.8-1.2-1.1-3-1.1-5.4c0-2.4,0.4-4.2,1.1-5.4c0.8-1.2,1.9-1.9,3.3-1.9c1.5,0,2.6,0.6,3.3,1.8
					c0.7,1.2,1.1,3,1.1,5.4c0,2.4-0.4,4.2-1.1,5.4c-0.8,1.2-1.9,1.9-3.3,1.9C85.2,212.6,84.1,212,83.3,210.7z M89.3,210.2
					c0.6-1.1,0.9-2.7,0.9-4.9c0-2.2-0.3-3.8-0.9-4.9c-0.6-1-1.5-1.6-2.7-1.6c-1.2,0-2.1,0.5-2.7,1.6c-0.6,1.1-0.9,2.7-0.9,4.9
					c0,2.2,0.3,3.8,0.9,4.9c0.6,1.1,1.5,1.6,2.7,1.6C87.8,211.8,88.7,211.2,89.3,210.2z"/>
				<path class="st5" d="M94.4,210.7c-0.8-1.2-1.1-3-1.1-5.4c0-2.4,0.4-4.2,1.1-5.4c0.8-1.2,1.9-1.9,3.3-1.9c1.5,0,2.6,0.6,3.3,1.8
					c0.7,1.2,1.1,3,1.1,5.4c0,2.4-0.4,4.2-1.1,5.4c-0.8,1.2-1.9,1.9-3.3,1.9C96.2,212.6,95.1,212,94.4,210.7z M100.4,210.2
					c0.6-1.1,0.9-2.7,0.9-4.9c0-2.2-0.3-3.8-0.9-4.9c-0.6-1-1.5-1.6-2.7-1.6c-1.2,0-2.1,0.5-2.7,1.6c-0.6,1.1-0.9,2.7-0.9,4.9
					c0,2.2,0.3,3.8,0.9,4.9c0.6,1.1,1.5,1.6,2.7,1.6C98.9,211.8,99.8,211.2,100.4,210.2z"/>
			</g>
		</g>
		<polygon class="st6" points="255.7,189.8 291.5,194.2 280.7,285.8 236,293.6 236,262.8 230,251.7 225.7,231.4 254.4,202.8 		"/>
		<path class="st6" d="M255.7,189.8l35.7,4.4l-12.8,64.8c-2.7-2-5.8-2.3-9.1-3.3c-6.3-1.8-12.5-3.5-19-4.4
			c-7.3-0.9-14.3-2.1-21.3-3.6l-3.5-16.4l28.7-28.6L255.7,189.8z"/>
		<path class="st6" d="M289.6,188.2c-0.7-1-16.5-39.5-16.5-39.5L251.8,131c0,0-16.2-4.7-21.6-4.7c-2.7,0-7.6,4.5-1.8,11.4
			c3.6,4.2,15.9,6.3,15.9,6.3l9.9,11.7l6,18.1l-4.6,16.1l31.1,13.8C286.8,203.6,295.3,195.6,289.6,188.2z"/>
		
			<rect x="218.1" y="273.6" transform="matrix(0.999 -4.544890e-02 4.544890e-02 0.999 -13.3378 11.9752)" class="st7" width="77.1" height="51.5"/>
		<path class="st8" d="M239.8,139.6c-1.9-5.1-6.2-9-11.7-9.9c-5.4-0.8-11,1.7-14.8,5.5c-0.6,0.6-1.2,1.2-1.7,1.8
			c-1.5,1.7-3.7,2.5-5.8,2.2c0-0.6-0.3-1.2-0.8-1.4l-1.1-0.5c-0.6-0.3-1.3,0-1.7,0.6c-18.5-7.7-68-28.4-68-28.4
			c-1.8-0.8-3.9,0.1-4.6,1.9l0,0.1c-0.8,1.8,0.1,3.9,1.9,4.6c0,0,0.8,0.3,2.1,0.9l-1.9,4.6l0,0l-2,4.8l1.4,0.6l1.3-3.1l2.5,1
			l-1.3,3.1l1.4,0.6l2-4.8l2.4,1l-1.4,3.2l4.2,1.8l0.8-2l2,0.8l-2.3,5.5l2.5,1l4.7-11.4c16,6.7,38.3,16,49.4,20.6
			c-0.3,0.8,0,1.7,0.7,2l1.1,0.5c0.7,0.3,1.4,0,1.8-0.7c1.7,1.3,2.7,3.5,2.5,5.7c0,0,0,0,0,0c-0.5,5.7,1.1,11.5,5.2,15.7
			c1.9,1.9,4.4,3.1,7,3.7c2.6,0.6,5.3,0.3,7.9-0.5c6.4-2,11.2-7.6,13.7-13.6C241.4,151.7,241.9,145.3,239.8,139.6z M228,152.5
			c-0.7,0-1.2,0.8-0.8,1.4c2.1,3.3,3.6,8,0.5,11.2c0,0-0.1,0.1-0.1,0.1c-1.6,1.6-3.9,2.5-6,2.7c-3,0.3-6.1-0.9-8.3-3
			c-2.1-2-3.6-5.9-2.5-9c1.6-4.3,4.7-4.8,7.9-5.6c0.7-0.2,0.9-1.1,0.4-1.5c-2.5-2.2-3.4-6.4-2.1-9.5c2.1-4.9,8.6-6.1,13.3-4.3
			c3.7,1.4,6.4,5.7,6.6,9.5C237.2,149.3,232.4,152.8,228,152.5z"/>
		<path class="st6" d="M206.8,197.5c0,0-3.9-24.2-4.8-28.5c-2-9.2,6.5-12.9,12-8c2.6,2.3,6.5,22.7,6.5,22.7l11.4,15.6
			c0,0,15.5,2.5,19.3-2.9c1.1-1.6,4.6-6.5,4.6-6.5l18.2,36.4l-22.5,28.4l-21.4-2.8L206.8,197.5z"/>
	</g>
</g>
</svg>
