<?xml version="1.0" encoding="utf-8"?>
<!-- Generator: Adobe Illustrator 22.0.0, SVG Export Plug-In . SVG Version: 6.00 Build 0)  -->
<svg version="1.1" id="Layer_1" xmlns="http://www.w3.org/2000/svg" xmlns:xlink="http://www.w3.org/1999/xlink" x="0px" y="0px"
	 viewBox="0 0 16.3 15.4" style="enable-background:new 0 0 16.3 15.4;" xml:space="preserve">
<style type="text/css">
	.st0{fill:#FFAE0D;}
	.st1{fill:#FFCC01;}
	.st2{fill:#FFDB53;}
	.st3{fill:#FCBD11;}
</style>
<g>
	<path class="st1" d="M8.4,0.4l2.2,4.5c0,0.1,0.1,0.1,0.2,0.1l5,0.7c0.2,0,0.3,0.3,0.1,0.4l-3.6,3.5c-0.1,0.1-0.1,0.1-0.1,0.2l0.9,5
		c0,0.2-0.2,0.4-0.4,0.3l-4.5-2.3c-0.1,0-0.2,0-0.2,0l-4.5,2.3c-0.2,0.1-0.4-0.1-0.4-0.3l0.9-5c0-0.1,0-0.2-0.1-0.2L0.4,6.2
		C0.2,6,0.3,5.8,0.5,5.7l5-0.7c0.1,0,0.2-0.1,0.2-0.1l2.2-4.5C8,0.2,8.3,0.2,8.4,0.4z"/>
	<g>
		<path class="st2" d="M8.2,1.4l-2,3.8C6.1,5.5,5.9,5.6,5.6,5.6L1.3,6l4.6,0.2c0.3,0,0.6-0.2,0.7-0.4L8.2,1.4z"/>
	</g>
	<path class="st3" d="M3.3,14.3l-0.1,0.6c0,0.2,0.2,0.4,0.4,0.3L8,12.8c0.1,0,0.2,0,0.2,0l4.5,2.3c0.2,0.1,0.4-0.1,0.4-0.3l-0.9-5
		c0-0.1,0-0.2,0.1-0.2l3.6-3.5C16.1,6,16,5.8,15.8,5.7l-1.7-0.2C11.4,10.3,7.3,12.9,3.3,14.3z"/>
</g>
</svg>
