<?xml version="1.0" encoding="utf-8"?>
<!-- Generator: Adobe Illustrator 22.0.0, SVG Export Plug-In . SVG Version: 6.00 Build 0)  -->
<svg version="1.1" id="Layer_1" xmlns="http://www.w3.org/2000/svg" xmlns:xlink="http://www.w3.org/1999/xlink" x="0px" y="0px"
	 viewBox="0 0 31.9 32" style="enable-background:new 0 0 31.9 32;" xml:space="preserve">
<style type="text/css">
	.st0{fill:#FFFFFF;}
	.st1{clip-path:url(#SVGID_2_);fill:#FFB300;}
	.st2{clip-path:url(#SVGID_2_);fill:#3F51B5;}
	.st3{fill:#FFB300;}
</style>
<circle class="st0" cx="16" cy="16" r="15.9"/>
<g>
	<g>
		<defs>
			<rect id="SVGID_1_" x="4.6" y="3" width="22.8" height="24"/>
		</defs>
		<clipPath id="SVGID_2_">
			<use xlink:href="#SVGID_1_"  style="overflow:visible;"/>
		</clipPath>
		<path class="st1" d="M21.8,7.9c0.9,0,1.6-0.7,1.6-1.6V4.6c0-0.9-0.7-1.6-1.6-1.6c-0.9,0-1.6,0.7-1.6,1.6v1.7
			C20.2,7.2,20.9,7.9,21.8,7.9L21.8,7.9z M21.8,7.9"/>
		<path class="st2" d="M27.6,5.8h-3.3v0.8c0,1.4-1.1,2.5-2.5,2.5c-1.4,0-2.5-1.1-2.5-2.5V5.8h-6.6v0.8c0,1.4-1.1,2.5-2.5,2.5
			C9,9.1,7.9,8,7.9,6.6V5.8l-3.3,0v20.5h21.3l1.6,0L27.6,5.8z M25.9,24.7H6.3V11.5h19.7V24.7z M25.9,24.7"/>
	</g>
	<path class="st3" d="M10.3,7.9c0.9,0,1.6-0.7,1.6-1.6V4.6C12,3.7,11.2,3,10.3,3C9.4,3,8.7,3.7,8.7,4.6v1.7
		C8.7,7.2,9.4,7.9,10.3,7.9L10.3,7.9z M10.3,7.9"/>
	<g>
		<rect x="12.8" y="13.3" class="st3" width="2.6" height="2.3"/>
		<rect x="17" y="13.3" class="st3" width="2.6" height="2.3"/>
		<rect x="20.9" y="13.3" class="st3" width="2.6" height="2.3"/>
		<rect x="12.8" y="17.1" class="st3" width="2.6" height="2.3"/>
		<rect x="17" y="17.1" class="st3" width="2.6" height="2.3"/>
		<rect x="20.9" y="17.1" class="st3" width="2.6" height="2.3"/>
		<rect x="12.8" y="21" class="st3" width="2.6" height="2.3"/>
		<rect x="8.7" y="17.1" class="st3" width="2.6" height="2.3"/>
		<rect x="8.7" y="21" class="st3" width="2.6" height="2.3"/>
		<rect x="17" y="21" class="st3" width="2.6" height="2.3"/>
		<rect x="20.9" y="21" class="st3" width="2.6" height="2.3"/>
	</g>
</g>
</svg>
