<?xml version="1.0" encoding="utf-8"?>
<!-- Generator: Adobe Illustrator 22.0.0, SVG Export Plug-In . SVG Version: 6.00 Build 0)  -->
<svg version="1.1" id="Layer_1" xmlns="http://www.w3.org/2000/svg" xmlns:xlink="http://www.w3.org/1999/xlink" x="0px" y="0px"
	 viewBox="0 0 67.7 27.5" style="enable-background:new 0 0 67.7 27.5;" xml:space="preserve">
<style type="text/css">
	.st0{fill:none;stroke:#F65B50;stroke-width:3;stroke-miterlimit:10;}
	.st1{fill:#F65B50;}
</style>
<g>
	<g>
		<path class="st0" d="M65.9,22.7c0,1.8-1.4,3.2-3.2,3.2L5,25.8c-1.8,0-3.2-1.4-3.2-3.2l0-17.8c0-1.8,1.4-3.2,3.2-3.2l57.6,0.1
			c1.8,0,3.2,1.4,3.2,3.2L65.9,22.7z"/>
		<path class="st1" d="M63.8,23c0,0.7-0.5,1.2-1.2,1.2L4.8,24.1c-0.7,0-1.2-0.5-1.2-1.2l0-18c0-0.7,0.5-1.2,1.2-1.2l57.9,0.1
			c0.7,0,1.2,0.5,1.2,1.2L63.8,23z"/>
	</g>
</g>
</svg>
