<?xml version="1.0" encoding="utf-8"?>
<!-- Generator: Adobe Illustrator 22.0.0, SVG Export Plug-In . SVG Version: 6.00 Build 0)  -->
<svg version="1.1" id="Layer_1" xmlns="http://www.w3.org/2000/svg" xmlns:xlink="http://www.w3.org/1999/xlink" x="0px" y="0px"
	 viewBox="0 0 38 37" style="enable-background:new 0 0 38 37;" xml:space="preserve">
<style type="text/css">
	.st0{fill:#1E325E;}
	.st1{fill:#FFAE0D;}
</style>
<g>
	<g>
		<path class="st1" d="M5.5,31.6l3.8-6.1c0.7-1.2,2.4-1.6,3.6-0.8l3.1,1.9c0.1-0.1,0.3-0.3,0.4-0.4c1.4-1.2,3.2-2.9,4.9-5.7
			c1.7-2.8,2.4-5.2,2.9-7c0.1-0.2,0.1-0.4,0.2-0.5l-2.1-1.3l-1-0.6c-1.3-0.8-1.7-2.4-0.9-3.6l3.8-6.1c0.7-1.2,2.4-1.6,3.6-0.8
			l1.7,1.1l0,0c0.6,0.5,1.2,1.1,1.6,1.7c0.4,0.6,0.8,1.3,1,1.9c1.9,5.2,0.6,10.8-4.5,19c-7,11.5-14.7,12.5-15,12.6
			c-0.7,0.1-1.4,0.1-2.2,0c-0.8-0.1-1.6-0.3-2.3-0.7l0,0l-1.7-1C5.2,34.4,4.7,32.8,5.5,31.6z"/>
	</g>
</g>
</svg>
