<?xml version="1.0" encoding="utf-8"?>
<!-- Generator: Adobe Illustrator 22.0.0, SVG Export Plug-In . SVG Version: 6.00 Build 0)  -->
<svg version="1.1" id="Layer_1" xmlns="http://www.w3.org/2000/svg" xmlns:xlink="http://www.w3.org/1999/xlink" x="0px" y="0px"
	 viewBox="0 0 19.6 18.5" style="enable-background:new 0 0 19.6 18.5;" xml:space="preserve">
<style type="text/css">
	.st0{fill:#686868;}
	.st1{fill:#FFFFFF;}
</style>
<g>
	<path class="st0" d="M19,8.8v-1c0.2-0.1,0.4-0.4,0.4-0.7V4.2c0-0.4-0.3-0.7-0.7-0.7H15v-2c0-0.5-0.2-0.9-0.7-1.1
		c-0.4-0.2-0.9-0.2-1.3,0l-2.4,1.4c-0.4-0.2-0.9-0.2-1.4,0L6.9,0.4c-0.4-0.2-0.9-0.2-1.3,0C5.1,0.6,4.9,1,4.9,1.5v2H1.2
		c-0.4,0-0.7,0.3-0.7,0.7v2.9c0,0.4,0.3,0.7,0.7,0.7h6.6v9.4H2c-0.2,0-0.4-0.2-0.4-0.4V8.9c0-0.2-0.2-0.4-0.4-0.4
		c-0.2,0-0.4,0.2-0.4,0.4c0,0,0,0,0,0v7.9c0,0.3,0.1,0.6,0.3,0.8s0.5,0.3,0.8,0.3h5.9c0.1,0.2,0.4,0.4,0.6,0.4h2.9
		c0.3,0,0.5-0.1,0.6-0.4h5.9c0.6,0,1.1-0.5,1.1-1.1v-0.3 M23.1,17.9 M16,7.8h2.3v0.9 M18.7,7.1h-6.6V4.2h6.6V7.1z M13.4,1
		c0.2-0.1,0.4-0.1,0.6,0c0.2,0.1,0.3,0.3,0.3,0.5v2H12c0,0,0,0,0,0l1.4-0.8c0.2-0.1,0.2-0.3,0.1-0.5C13.4,2,13.2,1.9,13.1,2
		l-1.4,0.8c-0.1-0.2-0.2-0.4-0.4-0.6L13.4,1z M10.5,2.5c0.2,0.1,0.4,0.4,0.5,0.6H8.9C9,2.9,9.2,2.6,9.4,2.5
		C9.8,2.3,10.2,2.3,10.5,2.5z M5.6,1.5c0-0.2,0.1-0.4,0.3-0.5c0.2-0.1,0.4-0.1,0.6,0l2.1,1.2C8.5,2.4,8.3,2.6,8.3,2.8L6.9,2
		C6.7,1.9,6.5,2,6.4,2.1c-0.1,0.2,0,0.4,0.1,0.5l1.4,0.8c0,0,0,0,0,0H5.6V1.5z M1.2,4.2h6.6v2.9H1.2V4.2z M8.5,17.6l0-13.7h2.9
		c0,0,0,0,0,0c0,0,0,0,0,0v3.3H9.6c-0.2,0-0.4,0.2-0.4,0.4c0,0.2,0.2,0.4,0.4,0.4h1.8v9.8H8.5z M18.3,8.8l0-0.3v8.4h0
		c0,0.2-0.2,0.4-0.4,0.4h-5.8V7.8H16h0.2 M15.5,10.5 M18.9,15.4C18.9,15.4,18.9,15.4,18.9,15.4"/>
	<rect x="14.6" y="7.8" class="st1" width="3.7" height="1.9"/>
</g>
</svg>
