<?xml version="1.0" encoding="utf-8"?>
<!-- Generator: Adobe Illustrator 22.0.0, SVG Export Plug-In . SVG Version: 6.00 Build 0)  -->
<svg version="1.1" id="Layer_1" xmlns="http://www.w3.org/2000/svg" xmlns:xlink="http://www.w3.org/1999/xlink" x="0px" y="0px"
	 viewBox="0 0 22.5 22.9" style="enable-background:new 0 0 22.5 22.9;" xml:space="preserve">
<style type="text/css">
	.st0{fill:#29B6F6;}
</style>
<g>
	<g>
		<path class="st0" d="M2.3,19.5c-0.6,0-1.1-0.4-1.1-1l-0.6-5c0,0,0-0.1,0-0.1c0-0.6,0.5-1.1,1.1-1.1c0,0,0,0,0,0c0.6,0,1,0.4,1.1,1
			l0.6,4l3.5,0c0.6,0,1.1,0.5,1.1,1.1c0,0.6-0.5,1.1-1.1,1.1H2.3C2.3,19.5,2.3,19.5,2.3,19.5z M1.7,13c-0.2,0-0.4,0.2-0.4,0.4
			c0,0,0,0,0,0.1l0.6,5c0,0.2,0.2,0.3,0.4,0.3c0,0,0,0,0,0h4.7c0.2,0,0.4-0.2,0.4-0.4S7.2,18,6.9,18l-3.8,0c-0.2,0-0.3-0.1-0.4-0.3
			l-0.7-4.3C2,13.2,1.9,13,1.7,13C1.7,13,1.7,13,1.7,13z"/>
		
			<rect x="0.3" y="20.5" transform="matrix(0.3164 -0.9486 0.9486 0.3164 -18.3206 16.3081)" class="st0" width="3.6" height="0.8"/>
		<rect x="6.4" y="19" transform="matrix(0.9487 -0.3162 0.3162 0.9487 -6.2511 3.2048)" class="st0" width="0.8" height="3.6"/>
		<path class="st0" d="M16.6,16.1H5.9c-0.2,0-0.4-0.2-0.4-0.4v-1.5c0-0.2,0.2-0.4,0.4-0.4h10.7c0.2,0,0.4,0.2,0.4,0.4v1.5
			C17,15.9,16.8,16.1,16.6,16.1z M6.3,15.3h10v-0.8h-10V15.3z"/>
		<path class="st0" d="M12,23h-1.5c-0.2,0-0.4-0.2-0.4-0.4v-6.9c0-0.2,0.2-0.4,0.4-0.4H12c0.2,0,0.4,0.2,0.4,0.4v6.9
			C12.4,22.8,12.2,23,12,23z M10.9,22.2h0.8v-6.1h-0.8V22.2z"/>
		<path class="st0" d="M22,3.8H0.5c-0.1,0-0.2-0.1-0.3-0.1S0.1,3.5,0.2,3.4l0.8-3.1C1,0.1,1.1,0,1.3,0h19.9c0.2,0,0.3,0.1,0.4,0.3
			l0.8,3.1c0,0.1,0,0.2-0.1,0.3S22.1,3.8,22,3.8z M1,3.1h20.5l-0.6-2.3H1.6L1,3.1z"/>
		<path class="st0" d="M11.2,6.5c-1.1,0-1.9-0.9-1.9-1.9V3.4c0-0.2,0.2-0.4,0.4-0.4h3.1c0.2,0,0.4,0.2,0.4,0.4v1.1
			C13.2,5.6,12.3,6.5,11.2,6.5z M10.1,3.8v0.8c0,0.6,0.5,1.1,1.1,1.1c0.6,0,1.1-0.5,1.1-1.1V3.8H10.1z"/>
		<path class="st0" d="M8.2,6.5c-1.1,0-1.9-0.9-1.9-1.9V3.4c0-0.2,0.2-0.4,0.4-0.4h3.1c0.2,0,0.4,0.2,0.4,0.4v1.1
			C10.1,5.6,9.2,6.5,8.2,6.5z M7,3.8v0.8c0,0.6,0.5,1.1,1.1,1.1c0.6,0,1.1-0.5,1.1-1.1V3.8H7z"/>
		<path class="st0" d="M5.1,6.5c-1.1,0-1.9-0.9-1.9-1.9V3.4c0-0.2,0.2-0.4,0.4-0.4h3.1C6.9,3.1,7,3.2,7,3.4v1.1
			C7,5.6,6.2,6.5,5.1,6.5z M4,3.8v0.8c0,0.6,0.5,1.1,1.1,1.1s1.1-0.5,1.1-1.1V3.8H4z"/>
		<path class="st0" d="M2.1,6.5C1,6.5,0.1,5.6,0.1,4.6V3.4c0-0.2,0.2-0.4,0.4-0.4h3.1C3.8,3.1,4,3.2,4,3.4v1.1
			C4,5.6,3.1,6.5,2.1,6.5z M0.9,3.8v0.8c0,0.6,0.5,1.1,1.1,1.1s1.1-0.5,1.1-1.1V3.8H0.9z"/>
		<path class="st0" d="M14.3,6.5c-1.1,0-1.9-0.9-1.9-1.9V3.4c0-0.2,0.2-0.4,0.4-0.4h3.1c0.2,0,0.4,0.2,0.4,0.4v1.1
			C16.2,5.6,15.4,6.5,14.3,6.5z M13.2,3.8v0.8c0,0.6,0.5,1.1,1.1,1.1s1.1-0.5,1.1-1.1V3.8H13.2z"/>
		<path class="st0" d="M17.4,6.5c-1.1,0-1.9-0.9-1.9-1.9V3.4c0-0.2,0.2-0.4,0.4-0.4h3.1c0.2,0,0.4,0.2,0.4,0.4v1.1
			C19.3,5.6,18.4,6.5,17.4,6.5z M16.2,3.8v0.8c0,0.6,0.5,1.1,1.1,1.1c0.6,0,1.1-0.5,1.1-1.1V3.8H16.2z"/>
		<path class="st0" d="M20.4,6.5c-1.1,0-1.9-0.9-1.9-1.9V3.4c0-0.2,0.2-0.4,0.4-0.4H22c0.2,0,0.4,0.2,0.4,0.4v1.1
			C22.4,5.6,21.5,6.5,20.4,6.5z M19.3,3.8v0.8c0,0.6,0.5,1.1,1.1,1.1s1.1-0.5,1.1-1.1V3.8H19.3z"/>
		<rect x="9.3" y="0.4" class="st0" width="0.8" height="3.1"/>
		<rect x="12.4" y="0.4" class="st0" width="0.8" height="3.1"/>
		<rect x="6.3" y="0.4" class="st0" width="0.8" height="3.1"/>
		<rect x="15.5" y="0.4" class="st0" width="0.8" height="3.1"/>
		<rect x="2.2" y="1.5" transform="matrix(0.124 -0.9923 0.9923 0.124 1.4145 5.4311)" class="st0" width="3.1" height="0.8"/>
		
			<rect x="18.3" y="0.4" transform="matrix(0.9923 -0.124 0.124 0.9923 -9.294713e-02 2.3353)" class="st0" width="0.8" height="3.1"/>
		<path class="st0" d="M20.2,19.5C20.2,19.5,20.2,19.5,20.2,19.5h-4.7c-0.6,0-1.1-0.5-1.1-1.1c0-0.6,0.5-1.1,1.1-1.1l3.5,0l0.6-4
			c0.1-0.6,0.6-1,1.1-1c0,0,0,0,0,0c0.6,0,1.1,0.5,1.1,1.1c0,0,0,0.1,0,0.2l-0.6,5C21.3,19.1,20.8,19.5,20.2,19.5z M20.8,13
			c-0.2,0-0.4,0.1-0.4,0.3l-0.7,4.3c0,0.2-0.2,0.3-0.4,0.3l-3.8,0c-0.2,0-0.4,0.2-0.4,0.4c0,0.2,0.2,0.4,0.4,0.4h4.7c0,0,0,0,0,0
			c0.2,0,0.4-0.1,0.4-0.3l0.6-5c0,0,0,0,0-0.1C21.2,13.2,21,13,20.8,13C20.8,13,20.8,13,20.8,13z"/>
		<rect x="20" y="19" transform="matrix(0.9487 -0.3162 0.3162 0.9487 -5.5539 7.5021)" class="st0" width="0.8" height="3.6"/>
		
			<rect x="13.9" y="20.5" transform="matrix(0.3165 -0.9486 0.9486 0.3165 -9.0258 29.1978)" class="st0" width="3.6" height="0.8"/>
	</g>
</g>
</svg>
