<?xml version="1.0" encoding="utf-8"?>
<!-- Generator: Adobe Illustrator 22.0.0, SVG Export Plug-In . SVG Version: 6.00 Build 0)  -->
<svg version="1.1" id="Layer_1" xmlns="http://www.w3.org/2000/svg" xmlns:xlink="http://www.w3.org/1999/xlink" x="0px" y="0px"
	 viewBox="0 0 38 37" style="enable-background:new 0 0 38 37;" xml:space="preserve">
<style type="text/css">
	.st0{fill:#FFAE0D;}
	.st1{fill:#1E325E;}
</style>
<g>
	<path class="st0" d="M13.7,37V16.8H9.9v-6.1h3.8V9.1c0-2.2,0.2-3.9,0.7-5c0.5-1.1,1.4-2.1,2.7-2.8c1.3-0.7,2.9-1,4.9-1
		c2,0,3.9,0.3,5.8,0.9l0.3,0.1L27,6.8l-0.4-0.1c-1-0.2-2.1-0.4-3-0.4c-0.8,0-1.5,0.2-1.8,0.6c-0.4,0.4-0.5,1.2-0.5,2.3v1.4h5.1v6.1
		h-5.1V37H13.7z"/>
</g>
</svg>
