<?xml version="1.0" encoding="utf-8"?>
<!-- Generator: Adobe Illustrator 22.0.0, SVG Export Plug-In . SVG Version: 6.00 Build 0)  -->
<svg version="1.1" id="Layer_1" xmlns="http://www.w3.org/2000/svg" xmlns:xlink="http://www.w3.org/1999/xlink" x="0px" y="0px"
	 viewBox="0 0 41.2 41.4" style="enable-background:new 0 0 41.2 41.4;" xml:space="preserve">
<style type="text/css">
	.st0{fill:#FFFFFF;}
	.st1{fill:#3F51B5;}
	.st2{fill:#FFB300;}
</style>
<circle class="st0" cx="20.7" cy="20.7" r="20.4"/>
<g>
	<path class="st1" d="M16.5,21.7c0.5,2.3,2.8,3.8,5.2,3.2c2.1-0.5,3.4-2.3,3.3-4.3l-6.2,2.1l2.6-6.1c-0.5-0.1-1.1-0.1-1.7,0
		C17.4,17,16,19.3,16.5,21.7z"/>
	<path class="st2" d="M23.5,11.5c-1.6-0.5-3.2-0.6-5-0.2c-5.2,1.2-8.5,6.4-7.3,11.6c1.2,5.2,6.4,8.5,11.6,7.3
		c5.1-1.2,8.4-6.2,7.3-11.3l-2.1,0.7c0.6,3.9-1.8,7.6-5.7,8.5c-4.1,0.9-8.1-1.6-9-5.7c-0.9-4,1.6-8.1,5.7-9c1.2-0.3,2.5-0.2,3.6,0.1
		L23.5,11.5z"/>
	<polygon class="st2" points="24.2,12.7 20.8,20.8 29.2,18 25.7,16.9 36.6,8.4 34.4,6 25,16.2 	"/>
	<path class="st1" d="M34.3,17.6c-0.4-1.7-1.1-3.2-2-4.6l-1.7,1.3c0.7,1.1,1.2,2.2,1.5,3.5l0.4,0.1l-0.4,0.1
		c1.4,6.3-2.6,12.6-8.9,14.1c-4.3,1-8.5-0.5-11.3-3.5c0,0,0,0,0,0c-1-1.1-1.8-2.4-2.4-3.9c0,0,0,0,0,0c-0.2-0.5-0.3-1-0.5-1.5
		C7.7,17,11.7,10.6,18.1,9.2c2.2-0.5,4.3-0.3,6.3,0.3l0.1-0.2l0.1,0.3c1.2,0.4,2.4,1,3.5,1.9l1.4-1.6c-2.5-2-5.7-3.1-9-3.1
		c0,0,0,0-0.1,0c-0.2,0-0.4,0-0.6,0c0,0-0.1,0-0.1,0c-0.2,0-0.4,0-0.6,0.1c-0.1,0-0.1,0-0.2,0c-0.2,0-0.3,0-0.5,0.1
		C18.2,7,18,7,17.8,7c-0.1,0-0.2,0-0.2,0C10.1,8.8,5.3,16.3,7.1,23.8c0.1,0.6,0.3,1.1,0.5,1.6l0,0c0.6,1.8,1.6,3.3,2.8,4.6l0,0
		c3.1,3.3,7.7,5.1,12.4,4.4c0.1,0,0.1,0,0.2,0c0.1,0,0.2,0,0.3-0.1c0.2,0,0.3-0.1,0.5-0.1c0,0,0.1,0,0.1,0
		C31.3,32.6,36.1,25.1,34.3,17.6z"/>
</g>
</svg>
