<?xml version="1.0" encoding="utf-8"?>
<!-- Generator: Adobe Illustrator 22.0.0, SVG Export Plug-In . SVG Version: 6.00 Build 0)  -->
<svg version="1.1" id="Layer_1" xmlns="http://www.w3.org/2000/svg" xmlns:xlink="http://www.w3.org/1999/xlink" x="0px" y="0px"
	 viewBox="0 0 42.3 49.6" style="enable-background:new 0 0 42.3 49.6;" xml:space="preserve">
<style type="text/css">
	.st0{fill:#3F51B5;}
	.st1{fill:#FFB300;}
	.st2{font-family:'MyriadPro-Regular';}
	.st3{font-size:13.3061px;}
</style>
<g>
	<path class="st0" d="M29.1,21.9c-5.7,2.5-12.3,0-14.9-5.7c-2.5-5.7,0-12.3,5.7-14.9c5.7-2.5,12.3,0,14.9,5.7
		C37.3,12.6,34.8,19.3,29.1,21.9z M20.3,2.4c-5.1,2.3-7.4,8.3-5.1,13.3s8.3,7.4,13.3,5.1c5.1-2.3,7.4-8.3,5.1-13.3
		S25.4,0.1,20.3,2.4z"/>
	<path class="st1" d="M21.9,17.7l-8.7-4.8c-1.3-0.7-3-0.3-3.7,1.1l-9,16.2c-0.7,1.3-0.3,3,1.1,3.7l8.7,4.8c1.3,0.7,3,0.3,3.7-1.1
		l9-16.2C23.7,20.1,23.2,18.4,21.9,17.7z M15.1,19.7c-0.7-0.4-1-1.3-0.6-2.1c0.4-0.7,1.3-1,2.1-0.6c0.7,0.4,1,1.3,0.6,2.1
		C16.8,19.8,15.9,20.1,15.1,19.7z"/>
	<g>
		<path class="st0" d="M35.3,31.2l-3.4,1.5c-0.2,0.1-0.4,0.4-0.2,0.6l2.1,4.6c0,0.1,0.1,0.1,0.1,0.2L35,39c0.1,0,0.1,0.1,0.1,0.2
			l0.3,0.7c0.1,0.1,0.1,0.3,0,0.4l-0.2,0.4c-0.1,0.3,0,0.5,0.3,0.6l0,0c0.3,0.1,0.4,0.4,0.3,0.6l0,0c-0.1,0.3,0,0.5,0.3,0.6l0.4,0.2
			c0.1,0,0.2,0.1,0.3,0.3l0.7,1.4c0.1,0.1,0.1,0.3,0,0.4l0,0.1c-0.1,0.3,0,0.5,0.3,0.6l0.3,0.1l0.1,0.2L38,46.1
			c-0.1,0.3,0,0.5,0.3,0.6l0.3,0.1l-0.1,0.2c-0.1,0.2,0,0.4,0.2,0.5c0.1,0,0.2,0.1,0.3,0.3l0.2,0.4c0,0.1,0.1,0.2,0.2,0.2l1.5,0.8
			l0,0l0.1,0c0.1,0.1,0.3,0.1,0.4,0c0.1-0.1,0.2-0.2,0.3-0.3l0-0.1l0,0l0.2-0.6l0.3-1c0-0.1,0-0.2,0-0.3l-0.2-0.4
			c-0.1-0.1-0.1-0.3,0-0.4c0.1-0.2,0-0.4-0.2-0.5l-0.2-0.1l0.1-0.3c0.1-0.3,0-0.5-0.3-0.6L41,44.6l-0.1-0.2l0.1-0.3
			c0.1-0.3,0-0.5-0.3-0.6l-0.1,0c-0.1,0-0.2-0.1-0.3-0.3l-0.6-1.4c-0.1-0.1-0.1-0.3,0-0.4l0.2-0.4c0.1-0.3,0-0.5-0.3-0.6l0,0
			c-0.3-0.1-0.4-0.4-0.3-0.6l0,0c0.1-0.3,0-0.5-0.3-0.6l-0.4-0.2c-0.1,0-0.2-0.1-0.3-0.3L38,37.9c0-0.1,0-0.2,0-0.2l0.1-1.3
			c0-0.1,0-0.2,0-0.2l-0.3-0.6l-1.8-4.1C35.8,31.2,35.5,31.1,35.3,31.2z"/>
		<path class="st0" d="M41,48.4L41,48.4c-0.2,0.1-0.5,0-0.6-0.2l-5.8-13c-0.1-0.2,0-0.5,0.2-0.5l0,0c0.2-0.1,0.5,0,0.5,0.2l5.8,13
			C41.3,48.1,41.2,48.4,41,48.4z"/>
	</g>
	<path class="st1" d="M37.2,22.3c-0.4-0.9-1-1.7-1.7-2.4c-2.1-1.9-5.2-2.5-7.9-1.3c-2.7,1.2-4.3,3.9-4.3,6.8c0,1,0.2,1.9,0.6,2.8
		c1.1,2.5,3.4,4,5.9,4.2c0,0.1,0.1,0.2,0.1,0.3c0.6,1.3,2.6,1.8,4.4,1c1.8-0.8,2.8-2.6,2.2-3.9c0-0.1-0.1-0.2-0.1-0.3
		C38,27.5,38.3,24.8,37.2,22.3z M28.3,20.2c1.2-0.5,2.4-0.3,2.8,0.4c0.3,0.8-0.3,1.8-1.5,2.4c-1.2,0.5-2.4,0.3-2.8-0.4
		C26.4,21.8,27.1,20.7,28.3,20.2z"/>
	<path class="st0" d="M16.2,17.4l-1.1,0.5c1.9,2.8,4.9,4.6,8.1,4.9l-0.6-1.3C20.1,21,17.8,19.6,16.2,17.4z"/>
	<path class="st0" d="M19.9,1.3c-3.6,1.6-5.9,4.9-6.5,8.5l0.8-0.4l0.3,0.8c0.5-3.3,2.6-6.4,5.9-7.8c5.1-2.3,11.1,0,13.3,5.1
		s0,11.1-5.1,13.3c-0.1,0-0.2,0.1-0.2,0.1l0.5,1.1c0.1,0,0.2-0.1,0.2-0.1c5.7-2.5,8.2-9.2,5.7-14.9C32.2,1.3,25.5-1.2,19.9,1.3z"/>
	<text transform="matrix(0.8436 0.537 -0.537 0.8436 3.9859 27.5383)" class="st0 st2 st3">%</text>
</g>
</svg>
