<?xml version="1.0" encoding="utf-8"?>
<!-- Generator: Adobe Illustrator 22.0.0, SVG Export Plug-In . SVG Version: 6.00 Build 0)  -->
<svg version="1.1" id="Layer_1" xmlns="http://www.w3.org/2000/svg" xmlns:xlink="http://www.w3.org/1999/xlink" x="0px" y="0px"
	 viewBox="0 0 31.3 48.1" style="enable-background:new 0 0 31.3 48.1;" xml:space="preserve">
<style type="text/css">
	.st0{fill:#FFB300;}
	.st1{fill:#3F51B5;}
	.st2{font-family:'MyriadPro-Regular';}
	.st3{font-size:22.0041px;}
</style>
<g>
	<path class="st0" d="M31.2,2.5v43.2c0,1.4-1.1,2.5-2.5,2.5H2.5C1.2,48.1,0,47,0,45.7V2.5C0,1.1,1.2,0,2.5,0h26.3
		C30.1,0,31.2,1.1,31.2,2.5z"/>
	<g>
		<path class="st1" d="M27.1,4.1h-5c-0.5,0-0.9,0.4-0.9,0.9l0,0c0,0.5,0.4,0.9,0.9,0.9h5C27.6,5.9,28,5.5,28,5S27.6,4.1,27.1,4.1z"
			/>
		<path class="st1" d="M27.1,8.4h-5c-0.5,0-0.9,0.4-0.9,0.9l0,0c0,0.5,0.4,0.9,0.9,0.9h5c0.4,0,0.8-0.4,0.8-0.9
			C28,8.8,27.6,8.4,27.1,8.4z"/>
		<path class="st1" d="M27.1,12.6h-5c-0.5,0-0.9,0.4-0.9,0.9l0,0c0,0.5,0.4,0.9,0.9,0.9h5c0.4,0,0.8-0.4,0.8-0.9
			C28,13,27.6,12.6,27.1,12.6z"/>
		<path class="st1" d="M27.1,16.9h-5c-0.5,0-0.9,0.4-0.9,0.9l0,0c0,0.5,0.4,0.9,0.9,0.9h5c0.4,0,0.8-0.4,0.8-0.9
			C28,17.3,27.6,16.9,27.1,16.9z"/>
		<path class="st1" d="M4.4,22L4.4,22c0-0.5,0.4-0.9,0.8-0.9h21.9c0.4,0,0.8,0.4,0.8,0.9v0c0,0.5-0.4,0.9-0.8,0.9H5.2
			C4.8,22.9,4.4,22.5,4.4,22z"/>
		<path class="st1" d="M4.4,26.2L4.4,26.2c0-0.5,0.4-0.9,0.8-0.9h21.9c0.4,0,0.8,0.4,0.8,0.9l0,0c0,0.5-0.4,0.9-0.8,0.9H5.2
			C4.8,27.1,4.4,26.7,4.4,26.2z"/>
		<path class="st1" d="M4.4,30.5L4.4,30.5c0-0.5,0.4-0.9,0.8-0.9h21.9c0.4,0,0.8,0.4,0.8,0.9l0,0c0,0.5-0.4,0.9-0.8,0.9H5.2
			C4.8,31.4,4.4,31,4.4,30.5z"/>
		<path class="st1" d="M4.4,34.7L4.4,34.7c0-0.5,0.4-0.9,0.8-0.9h21.9c0.4,0,0.8,0.4,0.8,0.9l0,0c0,0.5-0.4,0.9-0.8,0.9H5.2
			C4.8,35.6,4.4,35.2,4.4,34.7z"/>
		<path class="st1" d="M4.4,38.9L4.4,38.9c0-0.5,0.4-0.9,0.8-0.9h21.9c0.4,0,0.8,0.4,0.8,0.9l0,0c0,0.5-0.4,0.9-0.8,0.9H5.2
			C4.8,39.8,4.4,39.4,4.4,38.9z"/>
		<path class="st1" d="M4.4,43.2L4.4,43.2c0-0.5,0.4-0.9,0.8-0.9h21.9c0.4,0,0.8,0.4,0.8,0.9l0,0c0,0.5-0.4,0.9-0.8,0.9H5.2
			C4.8,44.1,4.4,43.7,4.4,43.2z"/>
	</g>
	<text transform="matrix(1 0 0 1 3.5617 16.4368)" class="st1 st2 st3">@</text>
</g>
</svg>
