<?xml version="1.0" encoding="utf-8"?>
<!-- Generator: Adobe Illustrator 22.0.0, SVG Export Plug-In . SVG Version: 6.00 Build 0)  -->
<svg version="1.1" id="Layer_1" xmlns="http://www.w3.org/2000/svg" xmlns:xlink="http://www.w3.org/1999/xlink" x="0px" y="0px"
	 viewBox="0 0 38 37" style="enable-background:new 0 0 38 37;" xml:space="preserve">
<style type="text/css">
	.st0{fill:#FFAE0D;}
	.st1{fill:#1E325E;}
</style>
<g>
	<g>
		<path class="st0" d="M11.1,37C5.2,37,0.5,32.3,0.5,26.4V10.6C0.5,4.7,5.2,0,11.1,0h15.9c5.8,0,10.6,4.7,10.6,10.6v15.9
			c0,5.8-4.7,10.6-10.6,10.6H11.1z M11.1,3.3c-4,0-7.3,3.3-7.3,7.3v15.9c0,4,3.3,7.3,7.3,7.3h15.9c4,0,7.3-3.3,7.3-7.3V10.6
			c0-4-3.3-7.3-7.3-7.3H11.1z"/>
	</g>
	<g>
		<path class="st0" d="M19,28c-5.2,0-9.5-4.3-9.5-9.5S13.8,9,19,9c5.2,0,9.5,4.3,9.5,9.5S24.2,28,19,28z M19,12.3
			c-3.4,0-6.2,2.8-6.2,6.2c0,3.4,2.8,6.2,6.2,6.2c3.4,0,6.2-2.8,6.2-6.2C25.2,15.1,22.4,12.3,19,12.3z"/>
	</g>
	<g>
		<path class="st0" d="M28.9,10.8c-1.3,0-2.3-1-2.3-2.3c0-1.3,1-2.3,2.3-2.3c1.3,0,2.3,1,2.3,2.3C31.2,9.8,30.1,10.8,28.9,10.8z"/>
	</g>
</g>
</svg>
