<?xml version="1.0" encoding="utf-8"?>
<!-- Generator: Adobe Illustrator 22.0.0, SVG Export Plug-In . SVG Version: 6.00 Build 0)  -->
<svg version="1.1" id="Layer_1" xmlns="http://www.w3.org/2000/svg" xmlns:xlink="http://www.w3.org/1999/xlink" x="0px" y="0px"
	 viewBox="0 0 49.6 47.5" style="enable-background:new 0 0 49.6 47.5;" xml:space="preserve">
<style type="text/css">
	.st0{fill:#686868;}
	.st1{fill:#FFFFFF;}
</style>
<g>
	<path class="st0" d="M48.5,22.4v-2.7c0.6-0.3,1.1-1,1.1-1.7v-7.6c0-1-0.8-1.9-1.9-1.9h-9.5V3.5c0-1.3-0.6-2.4-1.7-3
		c-1.1-0.6-2.4-0.6-3.5,0l-6.3,3.7c-1.1-0.5-2.4-0.5-3.5,0l-6.3-3.7c-1.1-0.6-2.4-0.6-3.5,0c-1.1,0.6-1.7,1.7-1.7,3v5.1H2
		c-1,0-1.9,0.8-1.9,1.9v7.6C0.1,19.1,1,20,2,20h17.2v24.6H4c-0.5,0-0.9-0.4-0.9-0.9V22.8c0-0.5-0.4-0.9-0.9-0.9
		c-0.5,0-0.9,0.4-0.9,0.9c0,0,0,0,0,0v20.8c0,0.8,0.3,1.5,0.8,2s1.2,0.8,2,0.8h15.4c0.3,0.6,0.9,0.9,1.6,0.9h7.6
		c0.7,0,1.3-0.4,1.6-0.9h15.4c1.6,0,2.8-1.3,2.8-2.8v-0.8 M59.2,46.2 M40.6,20h6v2.5 M47.7,18.1H30.5v-7.6h17.2V18.1z M33.9,2.1
		c0.5-0.3,1.1-0.3,1.6,0c0.5,0.3,0.8,0.8,0.8,1.4v5.1h-6c0,0,0-0.1,0-0.1l3.7-2.1c0.5-0.3,0.6-0.8,0.3-1.3C34,4.7,33.4,4.5,33,4.8
		l-3.7,2.1c-0.2-0.6-0.5-1.1-0.9-1.6L33.9,2.1z M26.2,6c0.6,0.4,1.1,0.9,1.3,1.6h-5.4C22.4,7,22.8,6.4,23.5,6
		C24.3,5.5,25.4,5.6,26.2,6z M13.4,3.5c0-0.6,0.3-1.1,0.8-1.4c0.5-0.3,1.1-0.3,1.6,0l5.6,3.2c-0.4,0.5-0.7,1-0.9,1.6l-3.7-2.1
		c-0.5-0.3-1-0.1-1.3,0.3c-0.3,0.5-0.1,1,0.3,1.3l3.7,2.1c0,0,0,0.1,0,0.1h-6L13.4,3.5z M2,10.5h17.2v7.6H2V10.5z M21.1,45.5l0-35.9
		h7.6c0,0,0,0,0,0c0,0,0,0,0,0v8.5h-4.8c-0.5,0-0.9,0.4-0.9,0.9c0,0.5,0.4,0.9,0.9,0.9h4.8v25.5H21.1z M46.6,22.4l0-0.7v21.9h0
		c0,0.5-0.4,0.9-0.9,0.9H30.5V20h10.1h0.6 M39.4,26.9 M48.2,39.9C48.2,39.9,48.2,39.9,48.2,39.9"/>
	<rect x="36.9" y="20" class="st1" width="9.6" height="5.1"/>
</g>
</svg>
