<?xml version="1.0" encoding="utf-8"?>
<!-- Generator: Adobe Illustrator 22.0.0, SVG Export Plug-In . SVG Version: 6.00 Build 0)  -->
<svg version="1.1" id="Layer_1" xmlns="http://www.w3.org/2000/svg" xmlns:xlink="http://www.w3.org/1999/xlink" x="0px" y="0px"
	 viewBox="0 0 41.3 39.6" style="enable-background:new 0 0 41.3 39.6;" xml:space="preserve">
<style type="text/css">
	.st0{fill:#FFAE0D;}
</style>
<g>
	<g>
		<path class="st0" d="M40.3,18.8v-2.2c0.5-0.3,0.9-0.8,0.9-1.4V8.9c0-0.9-0.7-1.6-1.6-1.6h-7.8V3.2c0-1-0.5-2-1.4-2.5
			c-0.9-0.5-2-0.5-2.9,0l-5.2,3c-0.9-0.4-2-0.4-2.9,0l-5.2-3c-0.9-0.5-2-0.5-2.9,0c-0.9,0.5-1.4,1.4-1.4,2.5v4.2H2
			c-0.9,0-1.6,0.7-1.6,1.6v6.2c0,0.9,0.7,1.6,1.6,1.6h14.1V37H3.6c-0.4,0-0.8-0.4-0.8-0.8V19.1c0-0.4-0.3-0.8-0.8-0.8
			c-0.4,0-0.8,0.3-0.8,0.8c0,0,0,0,0,0v17.1c0,0.6,0.2,1.2,0.7,1.7c0.4,0.4,1,0.7,1.7,0.7h12.7c0.3,0.5,0.8,0.8,1.3,0.8h6.2
			c0.6,0,1.1-0.3,1.3-0.8h12.7c1.3,0,2.3-1,2.3-2.3v-0.6 M49.1,38.4 M33.8,16.7h4.9v2 M39.6,15.2H25.4V8.9h14.1V15.2z M28.2,2
			c0.4-0.2,0.9-0.2,1.3,0c0.4,0.2,0.6,0.7,0.6,1.1v4.2h-4.9c0,0,0,0,0-0.1l3-1.8c0.4-0.2,0.5-0.7,0.3-1.1c-0.2-0.4-0.7-0.5-1.1-0.3
			l-3,1.7c-0.2-0.5-0.4-0.9-0.8-1.3L28.2,2z M21.9,5.3C22.4,5.6,22.8,6,23,6.6h-4.5c0.2-0.6,0.6-1.1,1.1-1.3
			C20.4,4.9,21.2,4.9,21.9,5.3z M11.4,3.2c0-0.5,0.2-0.9,0.6-1.1c0.4-0.2,0.9-0.2,1.3,0l4.6,2.6c-0.3,0.4-0.6,0.8-0.8,1.3l-3-1.7
			C13.7,4,13.2,4.1,13,4.5c-0.2,0.4-0.1,0.8,0.3,1.1l3,1.8c0,0,0,0,0,0.1h-4.9L11.4,3.2z M2,8.9h14.1v6.2H2V8.9z M17.7,37.8l0-29.6
			h6.2c0,0,0,0,0,0c0,0,0,0,0,0v7h-3.9c-0.4,0-0.8,0.3-0.8,0.8c0,0.4,0.3,0.8,0.8,0.8h3.9v21H17.7z M38.7,18.8l0-0.6v18.1h0
			c0,0.4-0.3,0.8-0.8,0.8H25.4V16.7h8.3h0.5 M32.7,22.5 M40,33.2C40,33.2,40,33.2,40,33.2"/>
	</g>
	<g>
		<rect x="30.7" y="16.7" class="st0" width="7.9" height="4.2"/>
	</g>
</g>
</svg>
