<?xml version="1.0" encoding="utf-8"?>
<!-- Generator: Adobe Illustrator 22.0.0, SVG Export Plug-In . SVG Version: 6.00 Build 0)  -->
<svg version="1.1" id="Layer_1" xmlns="http://www.w3.org/2000/svg" xmlns:xlink="http://www.w3.org/1999/xlink" x="0px" y="0px"
	 viewBox="0 0 50.5 38.1" style="enable-background:new 0 0 50.5 38.1;" xml:space="preserve">
<style type="text/css">
	.st0{fill:#3F51B5;}
	.st1{fill:#FFB300;}
	.st2{fill:#FFFFFF;}
</style>
<g>
	<g>
		<path class="st0" d="M33.5,7c0,0.5-0.4,0.9-0.9,0.9l-1.8,0c-0.5,0-0.9-0.4-0.9-0.9l0-4.3c0-0.5,0.4-0.9,0.9-0.9l1.8,0
			c0.5,0,0.9,0.4,0.9,0.9L33.5,7z"/>
		<path class="st0" d="M44.8,8c0,0.5-0.5,0.9-1.1,0.9l-7.5,0c-0.6,0-1.1-0.4-1.1-0.9l0-6.9c0-0.5,0.5-0.9,1.1-0.9l7.5,0
			c0.6,0,1.1,0.4,1.1,0.9L44.8,8z"/>
	</g>
	<path class="st1" d="M50.3,33.5c0,2.4-2,4.4-4.4,4.4L4.6,38c-2.4,0-4.4-2-4.4-4.4l0-24.8c0-2.4,2-4.4,4.4-4.4l41.3,0
		c2.4,0,4.4,2,4.4,4.4L50.3,33.5z"/>
	<rect x="0.2" y="15.6" class="st0" width="50.1" height="11.1"/>
	<path class="st2" d="M41.7,21.1c0,5.6-4.5,10.1-10.1,10.1c-5.6,0-10.1-4.5-10.1-10.1c0-5.6,4.5-10.1,10.1-10.1
		C37.1,11,41.7,15.5,41.7,21.1z"/>
	<path class="st1" d="M38.3,21.1c0,3.7-3,6.8-6.7,6.8c-3.7,0-6.8-3-6.8-6.7c0-3.7,3-6.8,6.7-6.8S38.3,17.4,38.3,21.1z"/>
	<path class="st0" d="M35.4,21.1c0,2.1-1.7,3.8-3.8,3.9c-2.1,0-3.8-1.7-3.9-3.8c0-2.1,1.7-3.8,3.8-3.9C33.7,17.3,35.4,19,35.4,21.1z
		"/>
	<path class="st2" d="M37.7,17.4c0,1.6-1.3,2.9-2.9,2.9c-1.6,0-2.9-1.3-2.9-2.9c0-1.6,1.3-2.9,2.9-2.9
		C36.4,14.5,37.7,15.8,37.7,17.4z"/>
	<rect x="38.4" y="8" class="st2" width="7.6" height="4.2"/>
	<path class="st2" d="M7.8,10.1c0,1.2-1,2.2-2.2,2.2c-1.2,0-2.2-1-2.2-2.2c0-1.2,1-2.2,2.2-2.2C6.8,7.9,7.8,8.9,7.8,10.1z"/>
</g>
</svg>
