<?xml version="1.0" encoding="utf-8"?>
<!-- Generator: Adobe Illustrator 22.0.0, SVG Export Plug-In . SVG Version: 6.00 Build 0)  -->
<svg version="1.1" id="Layer_1" xmlns="http://www.w3.org/2000/svg" xmlns:xlink="http://www.w3.org/1999/xlink" x="0px" y="0px"
	 viewBox="0 0 36.9 54.8" style="enable-background:new 0 0 36.9 54.8;" xml:space="preserve">
<style type="text/css">
	.st0{fill-rule:evenodd;clip-rule:evenodd;fill:#3F51B5;}
	.st1{fill-rule:evenodd;clip-rule:evenodd;fill:#FFB300;}
	.st2{fill-rule:evenodd;clip-rule:evenodd;fill:#F5BC24;}
	.st3{fill-rule:evenodd;clip-rule:evenodd;fill:#EDB009;}
	.st4{fill-rule:evenodd;clip-rule:evenodd;fill:#FFFFFF;}
</style>
<g>
	<polygon class="st0" points="29.6,34.3 37,42 34.1,54.9 30.2,54.6 31.5,44.2 28.8,42 	"/>
	<polygon class="st0" points="7.4,34.3 0,42 2.9,54.9 6.7,54.6 5.4,44.2 8.2,42 	"/>
	<path class="st1" d="M18.3,46.9H8.9C4.4,29.1,8.6,7.1,18.3,0V46.9z"/>
	<path class="st1" d="M18.3,46.9h9.5C32.2,29.1,28.1,7.1,18.3,0V46.9z"/>
	<path class="st0" d="M8.3,44.6C8,43,7.8,41.5,7.6,39.9h10.7v4.6H8.3z"/>
	<path class="st0" d="M28.3,44.6c0.3-1.5,0.6-3.1,0.8-4.6H18.3v4.6H28.3z"/>
	<path class="st2" d="M8.1,43.5C8,42.7,7.8,41.8,7.7,41h10.6v2.5H8.1z"/>
	<path class="st3" d="M28.5,43.5c0.2-0.8,0.3-1.7,0.4-2.5H18.3v2.5H28.5z"/>
	<path class="st0" d="M18.3,6.8h-5.7c1.6-2.9,3.5-5.2,5.7-6.8V6.8z"/>
	<path class="st0" d="M24,6.8h-5.7V0C20.5,1.6,22.4,3.9,24,6.8z"/>
	
		<ellipse transform="matrix(2.677588e-02 -0.9996 0.9996 2.677588e-02 -6.7982 42.2946)" class="st0" cx="18.3" cy="24.6" rx="7.9" ry="7.9"/>
	<ellipse transform="matrix(0.3845 -0.9231 0.9231 0.3845 -11.467 32.0796)" class="st4" cx="18.3" cy="24.6" rx="6.7" ry="6.7"/>
	<rect x="17.1" y="34.2" class="st0" width="1.3" height="20.6"/>
	<rect x="18.3" y="34.2" class="st0" width="1.3" height="20.6"/>
</g>
</svg>
