<?xml version="1.0" encoding="utf-8"?>
<!-- Generator: Adobe Illustrator 22.0.0, SVG Export Plug-In . SVG Version: 6.00 Build 0)  -->
<svg version="1.1" id="Layer_1" xmlns="http://www.w3.org/2000/svg" xmlns:xlink="http://www.w3.org/1999/xlink" x="0px" y="0px"
	 viewBox="0 0 19.8 25.3" style="enable-background:new 0 0 19.8 25.3;" xml:space="preserve">
<style type="text/css">
	.st0{fill:#FFAE0D;}
</style>
<g id="User-female_42_">
	<path class="st0" d="M19.2,19c-0.3-3.1-3.2-3.7-3.8-3.9c-0.3-0.1-1.2-0.4-1.9-0.7c1.6-0.2,2.8-1.2,2.8-1.2
		c-1.6-0.6-2.1-2.8-2.3-3.5c0,0,0,0,0-0.1c0.4,0.3,0.6-0.1,0.6-0.1C16,7.6,15.2,6.8,15,6.7c-0.1-0.1-0.1-0.1-0.2,0
		c0.3-0.8,0.4-1.3,0.3-2c-0.1-0.9-1.5-2.9-1.8-3.4c-0.4-0.4-0.8-0.6-1.2-0.3c-0.1,0.1-0.3,0.3-0.4,0.5c0-0.2,0.1-0.4,0.1-0.5
		c0-0.2-0.3-1.1-1.1-0.8C9.9,0.6,6.1,0.7,5.5,2.1c0,0-1.6,2.2-0.6,4.9l0,0C4.7,7.5,4.6,8.2,5.5,9.6c0,0,0.1,0.1,0.2,0.2
		c-0.1,0.7-0.7,2.9-2.2,3.5c0,0,1.2,1.1,2.8,1.3c-0.7,0.3-1.6,0.6-1.9,0.7c-0.6,0.2-3.5,0.7-3.8,3.9l-0.5,3.5c0,0,1,1.4,2.7,1.2
		c0,0,3.4,1.6,7.1,1.5c3.7,0,7.1-1.5,7.1-1.5c1.7,0.3,2.7-1.2,2.7-1.2L19.2,19z"/>
</g>
</svg>
