<?xml version="1.0" encoding="utf-8"?>
<!-- Generator: Adobe Illustrator 22.0.0, SVG Export Plug-In . SVG Version: 6.00 Build 0)  -->
<svg version="1.1" id="Layer_1" xmlns="http://www.w3.org/2000/svg" xmlns:xlink="http://www.w3.org/1999/xlink" x="0px" y="0px"
	 viewBox="0 0 101.2 21.6" style="enable-background:new 0 0 101.2 21.6;" xml:space="preserve">
<style type="text/css">
	.st0{fill:#FFFFFF;}
	.st1{fill:#3F51B5;}
	.st2{fill:#239E46;}
	.st3{fill:#BE0027;}
</style>
<g>
	<g>
		<path class="st0" d="M98.7,21H2.4c-0.9,0-1.7-0.8-1.7-1.7v-17c0-0.9,0.8-1.7,1.7-1.7h96.3c0.9,0,1.7,0.8,1.7,1.7v17
			C100.4,20.3,99.7,21,98.7,21z"/>
		<path d="M98.7,21.5H2.4c-1.2,0-2.2-1-2.2-2.2v-17c0-1.2,1-2.2,2.2-2.2h96.3c1.2,0,2.2,1,2.2,2.2v17
			C100.9,20.5,99.9,21.5,98.7,21.5z M2.4,1.2c-0.6,0-1.2,0.5-1.2,1.2v17c0,0.6,0.5,1.2,1.2,1.2h96.3c0.6,0,1.2-0.5,1.2-1.2v-17
			c0-0.6-0.5-1.2-1.2-1.2H2.4z"/>
	</g>
	<g>
		<path class="st1" d="M10.2,20.6H2.8c-0.9,0-1.7-0.8-1.7-1.7V2.7C1.1,1.7,1.9,1,2.8,1h7.4V20.6z"/>
	</g>
	<g>
		<rect x="75.6" y="0.1" width="0.8" height="20.9"/>
	</g>
	<g>
		<g>
			<rect x="2.4" y="3.4" class="st2" width="6.5" height="1.4"/>
		</g>
		<g>
			<rect x="2.4" y="4.8" class="st0" width="6.5" height="1.4"/>
		</g>
		<g>
			<rect x="2.4" y="6.2" class="st3" width="6.5" height="1.4"/>
		</g>
		<g>
			<g>
				<path class="st3" d="M5.8,5.5C5.8,5.5,5.8,5.5,5.8,5.5C5.8,5.5,5.8,5.5,5.8,5.5C5.8,5.5,5.8,5.5,5.8,5.5
					C5.8,5.5,5.8,5.4,5.8,5.5c0-0.1,0-0.1,0-0.1c0,0,0,0,0,0s0,0,0,0c0,0,0,0,0,0C5.9,5.4,5.9,5.5,5.8,5.5c0,0.1,0,0.1,0,0.1
					c0,0,0,0.1-0.1,0.1c0,0-0.1,0-0.1,0c0,0,0,0,0,0c0,0,0,0,0,0c0,0,0,0,0,0c0,0,0,0,0,0c0,0,0,0,0,0s0,0,0,0c0,0,0,0,0,0s0,0,0,0
					c0,0,0,0,0,0s0,0,0,0c0,0,0,0,0,0c0,0,0,0,0,0c0,0,0,0-0.1,0.1c0,0-0.1,0-0.1,0.1c0,0,0,0,0,0c0,0,0,0,0,0c0,0,0,0,0,0
					c0,0,0.1-0.1,0.1-0.1c0.1-0.1,0.1-0.1,0.1-0.1c0,0,0,0,0,0c0,0,0,0,0,0c0,0,0,0,0,0c0,0,0,0,0,0c0,0,0,0,0.1,0c0,0,0,0,0,0
					c0,0,0,0,0,0s0,0,0,0c0,0,0,0,0,0c0,0,0,0,0,0s0,0,0,0c0,0,0,0,0,0c0,0,0,0,0,0c0,0,0,0.1,0,0.1c0,0,0,0,0,0c0,0,0,0,0,0
					C5.8,5.6,5.8,5.6,5.8,5.5C5.8,5.6,5.8,5.6,5.8,5.5C5.8,5.6,5.8,5.6,5.8,5.5C5.8,5.5,5.8,5.5,5.8,5.5z"/>
			</g>
			<g>
				<path class="st3" d="M6,5.3l0.1-0.1c0,0,0,0,0,0c0,0,0,0,0,0C6.1,5.2,6.1,5.2,6,5.3C6.1,5.2,6.1,5.3,6,5.3
					C6.1,5.3,6.1,5.3,6,5.3C6.1,5.3,6.1,5.4,6,5.3c0,0.1,0,0.1,0,0.1c0,0,0,0,0,0.1c0,0.1,0,0.1,0,0.1c0,0,0,0.1,0,0.1c0,0,0,0,0,0
					c0,0,0,0,0,0c0,0,0,0,0,0s0,0,0-0.1c0,0,0,0,0-0.1c0,0,0,0,0-0.1c0,0,0,0,0-0.1C6,5.4,6,5.4,6,5.3C6,5.4,6,5.3,6,5.3z"/>
			</g>
		</g>
	</g>
	<g>
		<path class="st0" d="M2.6,14.7H2.3v-2.2h0.3V14.7z"/>
		<path class="st0" d="M3.1,14.5C3.1,14.5,3.1,14.4,3.1,14.5c0-0.1,0-0.1,0.1-0.1c0,0,0,0,0.1,0c0,0,0,0,0.1,0s0.1,0,0.1,0
			c0,0,0,0,0.1,0c0,0,0,0,0,0.1c0,0,0,0,0,0.1c0,0,0,0.1,0,0.1c0,0,0,0,0,0.1c0,0,0,0-0.1,0c0,0,0,0-0.1,0s-0.1,0-0.1,0
			c0,0,0,0-0.1,0C3.1,14.6,3.1,14.6,3.1,14.5C3.1,14.6,3.1,14.5,3.1,14.5z"/>
		<path class="st0" d="M4.2,13.8v0.9H3.9v-2.2h0.6c0.1,0,0.3,0,0.4,0c0.1,0,0.2,0.1,0.2,0.1s0.1,0.1,0.1,0.2s0,0.2,0,0.3
			c0,0.1,0,0.1,0,0.2c0,0.1-0.1,0.1-0.1,0.2c0,0.1-0.1,0.1-0.2,0.1c-0.1,0-0.1,0.1-0.2,0.1c0,0,0.1,0.1,0.1,0.1l0.6,0.9H5.2
			c-0.1,0-0.1,0-0.1-0.1l-0.6-0.8c0,0,0,0-0.1-0.1c0,0-0.1,0-0.1,0H4.2z M4.2,13.5h0.3c0.1,0,0.2,0,0.2,0s0.1,0,0.2-0.1
			s0.1-0.1,0.1-0.1c0-0.1,0-0.1,0-0.2c0-0.1,0-0.2-0.1-0.3c-0.1-0.1-0.2-0.1-0.4-0.1H4.2V13.5z"/>
		<path class="st0" d="M5.7,14.5C5.7,14.5,5.7,14.4,5.7,14.5c0-0.1,0-0.1,0.1-0.1c0,0,0,0,0.1,0c0,0,0,0,0.1,0s0.1,0,0.1,0
			c0,0,0,0,0.1,0c0,0,0,0,0,0.1c0,0,0,0,0,0.1c0,0,0,0.1,0,0.1c0,0,0,0,0,0.1c0,0,0,0-0.1,0c0,0,0,0-0.1,0s-0.1,0-0.1,0
			c0,0,0,0-0.1,0C5.7,14.6,5.7,14.6,5.7,14.5C5.7,14.6,5.7,14.5,5.7,14.5z"/>
		<path class="st0" d="M2.6,18.3H2.3v-2.2h0.3V18.3z"/>
		<path class="st0" d="M3.5,17.4v0.9H3.2v-2.2h0.6c0.1,0,0.3,0,0.4,0c0.1,0,0.2,0.1,0.2,0.1s0.1,0.1,0.1,0.2s0,0.2,0,0.3
			c0,0.1,0,0.1,0,0.2c0,0.1-0.1,0.1-0.1,0.2c0,0.1-0.1,0.1-0.2,0.1c-0.1,0-0.1,0.1-0.2,0.1c0,0,0.1,0.1,0.1,0.1l0.6,0.9H4.6
			c-0.1,0-0.1,0-0.1-0.1l-0.6-0.8c0,0,0,0-0.1-0.1c0,0-0.1,0-0.1,0H3.5z M3.5,17.2h0.3c0.1,0,0.2,0,0.2,0c0.1,0,0.1,0,0.2-0.1
			s0.1-0.1,0.1-0.1c0-0.1,0-0.1,0-0.2c0-0.1,0-0.2-0.1-0.3c-0.1-0.1-0.2-0.1-0.4-0.1H3.5V17.2z"/>
		<path class="st0" d="M7,18.3H6.7c0,0,0,0-0.1,0c0,0,0,0,0-0.1l-0.2-0.5h-1l-0.2,0.5c0,0,0,0,0,0c0,0,0,0-0.1,0H4.9l0.9-2.2h0.3
			L7,18.3z M5.5,17.5h0.8L6,16.6c0-0.1,0-0.1-0.1-0.2c0,0,0,0.1,0,0.1c0,0,0,0.1,0,0.1L5.5,17.5z"/>
		<path class="st0" d="M7.4,16.1C7.5,16.2,7.5,16.2,7.4,16.1l1.3,1.7c0,0,0-0.1,0-0.1c0,0,0,0,0-0.1v-1.5H9v2.2H8.8c0,0,0,0-0.1,0
			c0,0,0,0,0,0l-1.3-1.6c0,0,0,0,0,0.1s0,0,0,0.1v1.6H7.2v-2.2L7.4,16.1C7.4,16.1,7.4,16.1,7.4,16.1z"/>
	</g>
</g>
</svg>
