<?xml version="1.0" encoding="utf-8"?>
<!-- Generator: Adobe Illustrator 22.0.0, SVG Export Plug-In . SVG Version: 6.00 Build 0)  -->
<svg version="1.1" id="Layer_1" xmlns="http://www.w3.org/2000/svg" xmlns:xlink="http://www.w3.org/1999/xlink" x="0px" y="0px"
	 viewBox="0 0 24 24" style="enable-background:new 0 0 24 24;" xml:space="preserve">
<style type="text/css">
	.st0{fill:#686868;}
</style>
<g id="User-female_2_">
	<path class="st0" d="M12.1,24c-0.1,0-0.2,0-0.2,0c-3,0-5.8-1.1-6.5-1.4c-1.7,0.2-2.7-1.3-2.8-1.3l-0.1-0.2L3,17.8
		c0.2-2,1.4-3.3,3.6-3.9l0.3-0.1c0.1,0,0.1,0,0.2-0.1c-0.8-0.4-1.3-0.8-1.3-0.8l-0.6-0.5l0.7-0.3c1.1-0.4,1.5-1.8,1.7-2.6
		c0-0.1-0.1-0.1-0.1-0.2c-0.8-1.1-0.8-2-0.6-2.5C6,4.4,7.3,2.4,7.5,2.1c0.5-1.2,2.5-1.5,4-1.7c0.4-0.1,0.9-0.1,1-0.2
		c0.4-0.2,0.7-0.1,1,0.1c0.2,0.1,0.3,0.3,0.4,0.5c0.1,0,0.2-0.1,0.4-0.1c0.4,0,0.7,0.2,1,0.6c0.3,0.4,1.7,2.3,1.8,3.3
		c0.1,0.6,0.1,1.1-0.1,1.7c0.3,0.4,0.9,1.3-0.3,3.2c0,0.1-0.2,0.2-0.4,0.3c0.2,0.8,0.7,2,1.6,2.3l0.7,0.3l-0.6,0.5
		c0,0-0.5,0.5-1.3,0.8c0.1,0,0.1,0,0.2,0.1l0.3,0.1c2.2,0.6,3.5,1.9,3.6,3.9l0.5,3.4l-0.1,0.2c0,0.1-1.1,1.5-2.8,1.3
		C18,22.9,15.2,24,12.1,24z M12,23c3.2,0,6.3-1.3,6.3-1.4l0.1-0.1l0.1,0c0.9,0.1,1.6-0.5,1.9-0.8l-0.4-3c-0.2-2.3-2.2-2.9-2.9-3.1
		l-0.3-0.1c-0.4-0.1-1.1-0.3-1.7-0.6l-1.6-0.7l1.8-0.2c0.7-0.1,1.3-0.4,1.7-0.6c-1.1-0.9-1.5-2.5-1.7-3.2l0-0.1l0.3-0.7L16,8.8
		c0.6-0.9,0.6-1.5,0.4-1.8l-0.9,0.3l0.5-1c0.3-0.6,0.3-1,0.2-1.6C16.2,4,15,2.2,14.7,1.8c-0.2-0.2-0.4-0.3-0.4-0.3
		C14.2,1.7,14.1,1.8,14,2l-1.2,1.8l0.3-2.1c0-0.2,0-0.3,0.1-0.4C13.2,1.2,13.1,1,13,1c0,0-0.1,0-0.1,0c-0.3,0.1-0.7,0.2-1.2,0.3
		c-1,0.2-2.9,0.5-3.3,1.2L8.3,2.6C8.3,2.6,7.1,4.2,7.7,6.3l0.5,0L7.8,7c-0.2,0.4,0,1.1,0.5,1.8L8.7,9L8.6,9.4
		c-0.1,0.7-0.6,2.3-1.7,3.2c0.4,0.3,1,0.6,1.7,0.6l1.8,0.2l-1.7,0.7c-0.6,0.3-1.3,0.5-1.7,0.6l-0.3,0.1c-0.7,0.2-2.7,0.8-2.9,3.1
		l-0.4,3c0.3,0.3,0.9,0.9,1.9,0.8l0.1,0l0.1,0.1C5.7,21.7,8.8,23,12,23z M16,8.9C16,8.9,16,8.9,16,8.9C16,8.9,16,8.9,16,8.9z"/>
</g>
</svg>
