<?xml version="1.0" encoding="utf-8"?>
<!-- Generator: Adobe Illustrator 22.0.0, SVG Export Plug-In . SVG Version: 6.00 Build 0)  -->
<svg version="1.1" id="Layer_1" xmlns="http://www.w3.org/2000/svg" xmlns:xlink="http://www.w3.org/1999/xlink" x="0px" y="0px"
	 viewBox="0 0 34.9 39.5" style="enable-background:new 0 0 34.9 39.5;" xml:space="preserve">
<style type="text/css">
	.st0{fill:#3F51B5;}
	.st1{fill:#FFB300;}
</style>
<g>
	<rect x="8.7" y="15.5" class="st0" width="18.1" height="20.7"/>
	<g>
		<g>
			<g>
				<g>
					<g>
						<path class="st1" d="M31.4,11.6h-1.4c-0.1-1.2-0.4-2.4-0.9-3.5c-1.9-4.6-6.4-7.9-11.7-8h-0.1c-5.3,0-9.9,3.3-11.8,8
							c-0.5,1.1-0.8,2.3-0.9,3.5H3.3c-1.8,0-3.3,1.5-3.3,3.3v21.3c0,1.8,1.5,3.3,3.3,3.3h28.2c1.8,0,3.3-1.5,3.3-3.3V14.9
							C34.7,13.1,33.2,11.6,31.4,11.6z M20.5,32.3H14l1.5-6.3c-0.2-0.1-0.4-0.3-0.6-0.5c-0.7-0.7-1.1-1.6-1.1-2.6
							c0-0.6,0.1-1.1,0.4-1.6c0.6-1.2,1.8-2,3.2-2c0,0,0.1,0,0.1,0c1.4,0,2.6,0.8,3.2,2c0.2,0.5,0.4,1,0.4,1.6c0,1-0.4,1.9-1,2.5
							c-0.3,0.3-0.6,0.5-1,0.7L20.5,32.3z M8.5,11.6c0.2-1.3,0.6-2.5,1.3-3.5C11.4,5.6,14.2,4,17.3,4c0,0,0.1,0,0.1,0
							c3.1,0,5.9,1.7,7.5,4.2c0.7,1,1.1,2.2,1.3,3.5H8.5z"/>
					</g>
				</g>
			</g>
		</g>
	</g>
	<path class="st0" d="M10,7.8C9.9,7.9,9.8,8,9.8,8.1c-0.7,1-1.1,2.2-1.3,3.5H4.6c0.1-1.2,0.4-2.4,0.9-3.5c0-0.1,0.1-0.2,0.1-0.3H10z
		"/>
	<path class="st0" d="M30.1,11.6h-3.8c-0.2-1.3-0.6-2.5-1.3-3.5c-0.1-0.1-0.1-0.2-0.2-0.3H29c0,0.1,0.1,0.2,0.1,0.3
		C29.6,9.2,29.9,10.4,30.1,11.6z"/>
</g>
</svg>
