<?xml version="1.0" encoding="utf-8"?>
<!-- Generator: Adobe Illustrator 22.0.0, SVG Export Plug-In . SVG Version: 6.00 Build 0)  -->
<svg version="1.1" id="Layer_1" xmlns="http://www.w3.org/2000/svg" xmlns:xlink="http://www.w3.org/1999/xlink" x="0px" y="0px"
	 viewBox="0 0 38 37" style="enable-background:new 0 0 38 37;" xml:space="preserve">
<style type="text/css">
	.st0{fill:#1E325E;}
	.st1{fill:#FFAE0D;}
</style>
<g>
	<g>
		<path class="st1" d="M27.7,4.6c-3-3-7.4-4.2-11.5-3.3C13,2,10.3,4,8.6,6.8c-0.9,1.4-1.5,2.9-1.7,4.6c-0.3,1.8-0.1,3.5,0.2,5.3
			c0.7,3.3,2.2,6.3,3.9,9.2c1.5,2.5,3.2,4.9,5,7.1c0.6,0.7,1.1,1.4,1.7,2c0.3,0.3,0.7,0.9,1.1,1c0.1,0,0.2,0.1,0.3,0.1
			c0.1,0,0.2-0.1,0.3-0.1c0.2-0.1,0.4-0.3,0.6-0.4c0.1-0.1,0.2-0.2,0.2-0.3c0.5-0.6,1-1.1,1.4-1.7c1.7-2.1,3.4-4.4,4.8-6.8
			c1.8-2.9,3.3-5.9,4.2-9.1c0.5-1.8,0.8-3.6,0.6-5.5c-0.2-1.9-0.8-3.8-1.8-5.4C28.9,6,28.3,5.2,27.7,4.6 M26.4,16
			c-1.3,3.5-5,5.7-8.8,5.1c-2.8-0.5-5.2-2.5-6.2-5.2c-0.9-2.8-0.3-5.9,1.8-8c2.2-2.3,5.5-3,8.5-1.9c3.5,1.3,5.7,5.1,5,8.8
			C26.7,15.1,26.6,15.6,26.4,16C26.4,16.2,26.7,15.1,26.4,16z"/>
	</g>
	<g>
		<path class="st1" d="M31.3,13.3c0,3.1-1.1,6.2-2.4,9.1c-1.3,2.7-2.8,5.2-4.5,7.6c-1.2,1.7-2.4,3.3-3.7,4.8
			c-0.2,0.3-0.4,0.5-0.7,0.8c-0.2,0.2-0.4,0.4-0.6,0.4c-0.1,0-0.3,0.2-0.4,0.1c0,0,0-0.2,0-0.3c0-1.5,0-3,0-4.5c0-2.1,0-4.3,0-6.4
			c0-0.8,0-1.6,0-2.4c0-0.3,0-0.5,0-0.8c0-0.1,0-0.3,0-0.4c0.1-0.1,0.5,0,0.6,0c0.5,0,1-0.1,1.4-0.2c0.9-0.3,1.8-0.7,2.6-1.2
			c1.6-1.2,2.7-2.9,3.1-4.8c0.4-2,0-4.1-1-5.8c-0.9-1.5-2.3-2.6-4-3.2c-0.4-0.2-0.9-0.3-1.4-0.4c-0.2,0-0.4-0.1-0.7-0.1
			c-0.1,0-0.2,0-0.4,0c0,0-0.3,0-0.3,0c0,0,0-0.2,0-0.2c0-0.2,0-0.3,0-0.5c0-1,0-2,0-3c0-0.2,0-0.4,0-0.7c2.7,0,5.4,0.9,7.6,2.6
			c1.9,1.5,3.3,3.4,4,5.7C31.1,10.6,31.3,11.9,31.3,13.3z"/>
	</g>
</g>
</svg>
