<?xml version="1.0" encoding="utf-8"?>
<!-- Generator: Adobe Illustrator 22.0.0, SVG Export Plug-In . SVG Version: 6.00 Build 0)  -->
<svg version="1.1" id="Layer_1" xmlns="http://www.w3.org/2000/svg" xmlns:xlink="http://www.w3.org/1999/xlink" x="0px" y="0px"
	 viewBox="0 0 41.2 41.4" style="enable-background:new 0 0 41.2 41.4;" xml:space="preserve">
<style type="text/css">
	.st0{fill:#FFFFFF;}
	.st1{fill:#3F51B5;}
	.st2{fill:#FFB300;}
</style>
<circle class="st0" cx="20.7" cy="20.7" r="20.4"/>
<g>
	<polygon class="st1" points="15.9,3.5 13.2,3 12.8,5.4 7.2,35.9 9.8,36.4 12.1,24.2 13.5,16.6 15.7,4.3 	"/>
	<path class="st2" d="M32.3,14.3c0.6-1.6,1.5-3.1,1.8-4.9c0.3-1.9-0.4-3.2-0.9-4.8c-0.9,4.6-4.5,4.5-8.5,3.5
		c-1.2-0.3-3.2-1.7-5.2-2.7c-1.4-0.7-2.8-1.2-3.9-1l-2.2,12.2c1.4-0.3,3.3,0.4,4.4,0.8c2.1,0.9,3.3,2.5,5.1,3.9
		c3.1,2.4,6.4,2.5,10.1,1.8C31.2,20.4,31.1,17.4,32.3,14.3z"/>
</g>
</svg>
