<?xml version="1.0" encoding="utf-8"?>
<!-- Generator: Adobe Illustrator 22.0.0, SVG Export Plug-In . SVG Version: 6.00 Build 0)  -->
<svg version="1.1" id="Layer_1" xmlns="http://www.w3.org/2000/svg" xmlns:xlink="http://www.w3.org/1999/xlink" x="0px" y="0px"
	 viewBox="0 0 41.1 39.8" style="enable-background:new 0 0 41.1 39.8;" xml:space="preserve">
<style type="text/css">
	.st0{fill:#686868;}
	.st1{fill:#FFFFFF;}
</style>
<g>
	<path class="st0" d="M39.8,18.9v-2.2c0.5-0.3,0.9-0.8,0.9-1.4V9c0-0.9-0.7-1.6-1.6-1.6h-7.8V3.3c0-1-0.5-2-1.4-2.5
		c-0.9-0.5-2-0.5-2.9,0l-5.2,3c-0.9-0.4-2-0.4-2.9,0l-5.2-3c-0.9-0.5-2-0.5-2.9,0C9.9,1.3,9.4,2.2,9.4,3.3v4.2H1.6
		C0.7,7.5,0,8.2,0,9v6.2c0,0.9,0.7,1.6,1.6,1.6h14.1v20.3H3.2c-0.4,0-0.8-0.4-0.8-0.8V19.2c0-0.4-0.3-0.8-0.8-0.8
		c-0.4,0-0.8,0.3-0.8,0.8c0,0,0,0,0,0v17.1c0,0.6,0.2,1.2,0.7,1.7c0.4,0.4,1,0.7,1.7,0.7h12.7c0.3,0.5,0.8,0.8,1.3,0.8h6.2
		c0.6,0,1.1-0.3,1.3-0.8h12.7c1.3,0,2.3-1,2.3-2.3v-0.6 M48.6,38.5 M33.4,16.8h4.9v2 M39.2,15.3H25V9h14.1V15.3z M27.8,2.1
		c0.4-0.2,0.9-0.2,1.3,0c0.4,0.2,0.6,0.7,0.6,1.1v4.2h-4.9c0,0,0,0,0-0.1l3-1.8c0.4-0.2,0.5-0.7,0.3-1.1c-0.2-0.4-0.7-0.5-1.1-0.3
		l-3,1.7c-0.2-0.5-0.4-0.9-0.8-1.3L27.8,2.1z M21.5,5.4c0.5,0.3,0.9,0.8,1.1,1.3h-4.5c0.2-0.6,0.6-1.1,1.1-1.3C20,5,20.8,5,21.5,5.4
		z M11,3.3c0-0.5,0.2-0.9,0.6-1.1c0.4-0.2,0.9-0.2,1.3,0l4.6,2.6c-0.3,0.4-0.6,0.8-0.8,1.3l-3-1.7c-0.4-0.2-0.8-0.1-1.1,0.3
		c-0.2,0.4-0.1,0.8,0.3,1.1l3,1.8c0,0,0,0,0,0.1H11L11,3.3z M1.6,9h14.1v6.2H1.6V9z M17.2,37.9l0-29.6h6.2c0,0,0,0,0,0c0,0,0,0,0,0
		v7h-3.9c-0.4,0-0.8,0.3-0.8,0.8c0,0.4,0.3,0.8,0.8,0.8h3.9v21H17.2z M38.3,18.9l0-0.6v18.1h0c0,0.4-0.3,0.8-0.8,0.8H25V16.8h8.3
		h0.5 M32.3,22.6 M39.6,33.2C39.6,33.2,39.6,33.2,39.6,33.2"/>
	<rect x="30.3" y="16.8" class="st1" width="7.9" height="4.2"/>
</g>
</svg>
