<?xml version="1.0" encoding="utf-8"?>
<!-- Generator: Adobe Illustrator 22.0.0, SVG Export Plug-In . SVG Version: 6.00 Build 0)  -->
<svg version="1.1" id="Layer_1" xmlns="http://www.w3.org/2000/svg" xmlns:xlink="http://www.w3.org/1999/xlink" x="0px" y="0px"
	 viewBox="0 0 24 24" style="enable-background:new 0 0 24 24;" xml:space="preserve">
<style type="text/css">
	.st0{fill:#686868;}
</style>
<g id="XMLID_2_">
	<path class="st0" d="M11.6,24c-3.2,0-6.2-1.2-6.8-1.5c-1.8,0.2-2.8-1.3-2.9-1.3l-0.1-0.1l0.5-3.5c0.3-3.1,2.9-3.8,3.8-4l0.3-0.1
		c2-0.6,2.4-0.9,2.4-1.1c0,0,0.1-0.2,0-0.7C8.2,10.8,7.7,9.8,7.4,9c-0.1,0-0.2,0-0.2,0C6.8,8.9,6.7,8.7,6.7,8.6
		C5.2,6.5,6.3,5.5,6.5,5.3c0.1-0.1,0.1-0.1,0.2-0.1c0-1.5,0.5-2.7,1.3-3.6C9.3,0.2,11.3,0,11.7,0L12,0l0,0l0,0v0l0.3,0
		c0.4,0,2.3,0.2,3.7,1.7c0.8,0.9,1.2,2.1,1.3,3.6c0.1,0,0.1,0.1,0.2,0.1c0.2,0.2,1.3,1.2-0.2,3.3l0,0c0,0-0.1,0.3-0.4,0.3
		c-0.1,0-0.1,0-0.2,0c-0.3,0.8-0.8,1.8-1.4,2.6c0,0.5,0,0.7,0,0.7c0.1,0.2,0.5,0.5,2.4,1.1l0.3,0.1c0.9,0.2,3.5,1,3.8,4l0.5,3.5
		l-0.1,0.1c0,0.1-1.1,1.5-2.9,1.3c-0.6,0.3-3.7,1.5-7,1.5L12,24l-0.3,0C11.7,24,11.7,24,11.6,24z M4.9,21.7l0.1,0
		c0,0,3.2,1.4,6.6,1.4c0,0,0.1,0,0.1,0l0.3,0l0.3,0c3.4,0,6.7-1.4,6.7-1.4l0.1,0l0.1,0c1.1,0.2,1.9-0.6,2.1-0.9l-0.4-3.2
		c-0.2-2.5-2.4-3.1-3.2-3.4l-0.4-0.1c-1.6-0.5-2.7-0.9-2.9-1.5c-0.1-0.3-0.1-0.6-0.1-1.2l0-0.1l0.1-0.1c0.7-0.9,1.2-2,1.5-2.8
		l0.2-0.5L16.4,8l0.1-2.2c0.1-1.5-0.3-2.7-1.1-3.6c-1.1-1.2-2.8-1.4-3.1-1.4v0c-0.1,0-0.2,0-0.3,0c-0.1,0-0.2,0-0.3,0v0
		c-0.2,0-2,0.1-3.1,1.4C7.8,3.1,7.4,4.3,7.5,5.8L7.6,8l0.2-0.1L8,8.4c0.3,0.8,0.8,1.9,1.5,2.8l0.1,0.1l0,0.1c0,0.6,0,1-0.1,1.2
		c-0.3,0.6-1.4,1.1-2.9,1.5l-0.4,0.1c-0.8,0.2-2.9,0.8-3.2,3.3l-0.4,3.2c0.3,0.3,1,1,2.1,0.9L4.9,21.7z M16.6,8.3
		C16.6,8.3,16.6,8.3,16.6,8.3C16.6,8.3,16.6,8.3,16.6,8.3z M7.4,8.2C7.4,8.2,7.4,8.2,7.4,8.2C7.4,8.2,7.4,8.2,7.4,8.2z M16.5,8.1
		L16.5,8.1c0.1,0.1,0.1,0.1,0.1,0.1c0.7-1.1,0.7-1.7,0.6-2L16.5,8.1z M6.8,6.2c-0.1,0.3-0.2,0.9,0.6,2c0,0,0,0,0,0l0.1,0L6.8,6.2z"
		/>
</g>
</svg>
