<?xml version="1.0" encoding="utf-8"?>
<!-- Generator: Adobe Illustrator 22.0.0, SVG Export Plug-In . SVG Version: 6.00 Build 0)  -->
<svg version="1.1" id="Layer_1" xmlns="http://www.w3.org/2000/svg" xmlns:xlink="http://www.w3.org/1999/xlink" x="0px" y="0px"
	 viewBox="0 0 29.2 27.7" style="enable-background:new 0 0 29.2 27.7;" xml:space="preserve">
<style type="text/css">
	.st0{fill:#686868;}
	.st1{fill:#FFFFFF;}
</style>
<g>
	<path class="st0" d="M28.4,13.1v-1.6c0.4-0.2,0.6-0.6,0.6-1V6.2c0-0.6-0.5-1.1-1.1-1.1h-5.5v-3c0-0.7-0.4-1.4-1-1.7
		c-0.6-0.4-1.4-0.4-2,0l-3.7,2.1c-0.7-0.3-1.4-0.3-2.1,0L9.9,0.4C9.2,0,8.5,0,7.8,0.4c-0.6,0.4-1,1-1,1.7v3H1.3
		c-0.6,0-1.1,0.5-1.1,1.1v4.4c0,0.6,0.5,1.1,1.1,1.1h10V26H2.5c-0.3,0-0.5-0.2-0.6-0.6V13.3c0-0.3-0.2-0.6-0.6-0.6
		c-0.3,0-0.5,0.2-0.6,0.5c0,0,0,0,0,0v12.1c0,0.4,0.2,0.9,0.5,1.2s0.7,0.5,1.2,0.5h9c0.2,0.3,0.5,0.6,1,0.6h4.4c0.4,0,0.8-0.2,1-0.6
		h9c0.9,0,1.7-0.7,1.7-1.7V25 M34.6,27 M23.8,11.7h3.5v1.4 M27.9,10.6h-10V6.2h10V10.6z M19.9,1.3c0.3-0.2,0.6-0.2,0.9,0
		c0.3,0.2,0.5,0.5,0.5,0.8v3h-3.5c0,0,0,0,0,0l2.1-1.2c0.3-0.2,0.4-0.5,0.2-0.8c-0.2-0.3-0.5-0.4-0.8-0.2l-2.1,1.2
		c-0.1-0.3-0.3-0.6-0.6-0.9L19.9,1.3z M15.4,3.6c0.4,0.2,0.7,0.6,0.8,0.9H13c0.1-0.4,0.4-0.7,0.8-0.9C14.3,3.3,14.9,3.3,15.4,3.6z
		 M7.9,2.1c0-0.3,0.2-0.6,0.5-0.8c0.3-0.2,0.6-0.2,0.9,0l3.2,1.9c-0.2,0.3-0.4,0.6-0.6,0.9L9.9,2.8C9.6,2.7,9.3,2.8,9.1,3
		C9,3.3,9.1,3.7,9.3,3.8L11.5,5c0,0,0,0,0,0H7.9L7.9,2.1z M1.3,6.2h10v4.4h-10V6.2z M12.4,26.6l0-20.9h4.4c0,0,0,0,0,0c0,0,0,0,0,0
		v5H14c-0.3,0-0.6,0.2-0.6,0.6c0,0.3,0.2,0.6,0.6,0.6h2.8v14.9H12.4z M27.3,13.1l0-0.4v12.8h0c0,0.3-0.2,0.6-0.6,0.6h-8.8V11.7h5.9
		h0.4 M23,15.8 M28.2,23.3C28.2,23.3,28.2,23.3,28.2,23.3"/>
	<rect x="21.6" y="11.7" class="st1" width="5.6" height="3"/>
</g>
</svg>
