<?xml version="1.0" encoding="utf-8"?>
<!-- Generator: Adobe Illustrator 22.0.0, SVG Export Plug-In . SVG Version: 6.00 Build 0)  -->
<svg version="1.1" id="Layer_1" xmlns="http://www.w3.org/2000/svg" xmlns:xlink="http://www.w3.org/1999/xlink" x="0px" y="0px"
	 viewBox="0 0 24 24" style="enable-background:new 0 0 24 24;" xml:space="preserve">
<style type="text/css">
	.st0{fill:#686868;}
</style>
<g>
	<g>
		<path class="st0" d="M20.5,23.9h-17v-8h17V23.9z M4,23.4h16v-7H4V23.4z"/>
	</g>
	<g>
		<path class="st0" d="M19.9,16.9H4.1c-1.6,0-2.9-1.3-2.9-2.9s1.3-2.9,2.9-2.9h15.9c1.6,0,2.9,1.3,2.9,2.9S21.5,16.9,19.9,16.9z
			 M4.1,11.7c-1.3,0-2.4,1.1-2.4,2.4c0,1.3,1.1,2.4,2.4,2.4h15.9c1.3,0,2.4-1.1,2.4-2.4c0-1.3-1.1-2.4-2.4-2.4H4.1z"/>
	</g>
	<g>
		<path class="st0" d="M20.6,12.3H3.4L2.6,2.2c0-0.5,0.2-1.1,0.5-1.5c0.4-0.4,0.9-0.6,1.4-0.6h14.8c0.5,0,1.1,0.2,1.4,0.6
			c0.4,0.4,0.6,0.9,0.5,1.5L20.6,12.3z M3.8,11.8h16.4l0.7-9.6c0-0.4-0.1-0.8-0.4-1.1c-0.3-0.3-0.7-0.5-1.1-0.5H4.6
			c-0.4,0-0.8,0.2-1.1,0.5S3.1,1.8,3.1,2.2L3.8,11.8z"/>
	</g>
</g>
</svg>
