<?xml version="1.0" encoding="utf-8"?>
<!-- Generator: Adobe Illustrator 22.0.0, SVG Export Plug-In . SVG Version: 6.00 Build 0)  -->
<svg version="1.1" id="Layer_1" xmlns="http://www.w3.org/2000/svg" xmlns:xlink="http://www.w3.org/1999/xlink" x="0px" y="0px"
	 viewBox="0 0 19.6 18.4" style="enable-background:new 0 0 19.6 18.4;" xml:space="preserve">
<style type="text/css">
	.st0{fill:#FFAE0D;}
</style>
<g>
	<g>
		<path class="st0" d="M19.1,8.7v-1c0.2-0.1,0.4-0.4,0.4-0.7V4.2c0-0.4-0.3-0.7-0.7-0.7h-3.6v-2c0-0.5-0.2-0.9-0.7-1.1
			c-0.4-0.2-0.9-0.2-1.3,0l-2.4,1.4c-0.4-0.2-0.9-0.2-1.4,0L7,0.3c-0.4-0.2-0.9-0.2-1.3,0C5.2,0.6,5,1,5,1.5v2H1.3
			c-0.4,0-0.7,0.3-0.7,0.7V7c0,0.4,0.3,0.7,0.7,0.7h6.6v9.4H2.1c-0.2,0-0.4-0.2-0.4-0.4V8.9c0-0.2-0.2-0.4-0.4-0.4
			C1.2,8.5,1,8.7,1,8.9c0,0,0,0,0,0v7.9c0,0.3,0.1,0.6,0.3,0.8s0.5,0.3,0.8,0.3H8c0.1,0.2,0.4,0.4,0.6,0.4h2.9
			c0.3,0,0.5-0.1,0.6-0.4H18c0.6,0,1.1-0.5,1.1-1.1v-0.3 M23.2,17.8 M16.1,7.8h2.3v0.9 M18.8,7h-6.6V4.2h6.6V7z M13.5,1
			c0.2-0.1,0.4-0.1,0.6,0c0.2,0.1,0.3,0.3,0.3,0.5v2h-2.3c0,0,0,0,0,0l1.4-0.8c0.2-0.1,0.2-0.3,0.1-0.5c-0.1-0.2-0.3-0.2-0.5-0.1
			l-1.4,0.8c-0.1-0.2-0.2-0.4-0.4-0.6L13.5,1z M10.6,2.4c0.2,0.1,0.4,0.4,0.5,0.6H9c0.1-0.3,0.3-0.5,0.5-0.6
			C9.9,2.3,10.3,2.3,10.6,2.4z M5.7,1.5C5.7,1.3,5.8,1.1,6,1c0.2-0.1,0.4-0.1,0.6,0l2.1,1.2C8.6,2.4,8.5,2.6,8.4,2.8L7,2
			c-0.2-0.1-0.4,0-0.5,0.1c-0.1,0.2,0,0.4,0.1,0.5L8,3.4c0,0,0,0,0,0H5.7L5.7,1.5z M1.3,4.2h6.6V7H1.3V4.2z M8.6,17.5l0-13.7h2.9
			c0,0,0,0,0,0c0,0,0,0,0,0V7H9.7C9.5,7,9.3,7.2,9.3,7.4c0,0.2,0.2,0.4,0.4,0.4h1.8v9.8H8.6z M18.4,8.7l0-0.3v8.4h0
			c0,0.2-0.2,0.4-0.4,0.4h-5.8V7.8h3.9h0.2 M15.6,10.4 M19,15.4C19,15.4,19,15.4,19,15.4"/>
	</g>
	<g>
		<rect x="14.7" y="7.8" class="st0" width="3.7" height="1.9"/>
	</g>
</g>
</svg>
