<?xml version="1.0" encoding="utf-8"?>
<!-- Generator: Adobe Illustrator 22.0.0, SVG Export Plug-In . SVG Version: 6.00 Build 0)  -->
<svg version="1.1" id="Layer_1" xmlns="http://www.w3.org/2000/svg" xmlns:xlink="http://www.w3.org/1999/xlink" x="0px" y="0px"
	 viewBox="0 0 30 30" style="enable-background:new 0 0 30 30;" xml:space="preserve">
<style type="text/css">
	.st0{fill:#686868;}
</style>
<g>
	<g>
		<path class="st0" d="M27.1,27.6h-1.9l0-0.2c-0.2-1.1-1.2-1.9-2.3-1.9s-2.1,0.8-2.3,1.9l0,0.2H9.5l0-0.2c-0.2-1.1-1.2-1.9-2.3-1.9
			s-2.1,0.8-2.3,1.9l0,0.2H2.9c-1.6,0-2.9-1.3-2.9-2.9V14.2c0-1.6,1.3-2.9,2.9-2.9h24.1c1.6,0,2.9,1.3,2.9,2.9v10.5
			C30,26.3,28.7,27.6,27.1,27.6z M25.7,27h1.4c1.3,0,2.3-1,2.3-2.3V14.2c0-1.3-1-2.3-2.3-2.3H2.9c-1.3,0-2.3,1-2.3,2.3v10.5
			c0,1.3,1,2.3,2.3,2.3h1.4c0.4-1.2,1.5-2.1,2.8-2.1c1.3,0,2.4,0.9,2.8,2.1h10.1c0.4-1.2,1.5-2.1,2.8-2.1
			C24.2,24.9,25.3,25.8,25.7,27z M23.7,24.5H22V14.4h1.7V24.5z M22.7,23.9h0.4V15h-0.4V23.9z M15.8,24.5h-1.7V14.4h1.7V24.5z
			 M14.8,23.9h0.4V15h-0.4V23.9z M8,24.5H6.3V14.4H8V24.5z M6.9,23.9h0.4V15H6.9V23.9z"/>
	</g>
	<g>
		<path class="st0" d="M17.4,10.8h-4.8V9.2h4.8V10.8z M13.2,10.2h3.6V9.8h-3.6V10.2z"/>
	</g>
	<g>
		<path class="st0" d="M22.9,29.7c-1,0-1.9-0.8-1.9-1.9c0-1,0.8-1.9,1.9-1.9c1,0,1.9,0.8,1.9,1.9C24.8,28.9,23.9,29.7,22.9,29.7z
			 M22.9,26.6c-0.7,0-1.3,0.6-1.3,1.3s0.6,1.3,1.3,1.3c0.7,0,1.3-0.6,1.3-1.3S23.6,26.6,22.9,26.6z"/>
	</g>
	<g>
		<path class="st0" d="M7.1,29.7c-1,0-1.9-0.8-1.9-1.9c0-1,0.8-1.9,1.9-1.9c1,0,1.9,0.8,1.9,1.9C9,28.9,8.2,29.7,7.1,29.7z
			 M7.1,26.6c-0.7,0-1.3,0.6-1.3,1.3s0.6,1.3,1.3,1.3c0.7,0,1.3-0.6,1.3-1.3S7.8,26.6,7.1,26.6z"/>
	</g>
	<g>
		<path class="st0" d="M17.9,1.9h-5.9V0.3h5.9V1.9z M12.7,1.3h4.6V0.9h-4.6V1.3z"/>
	</g>
	<g>
		<path class="st0" d="M20.6,10.8h-1.7V1.9h-0.5V0.3h1.4c0.5,0,0.8,0.4,0.8,0.8V10.8z M19.5,10.2h0.4V1.1c0-0.1-0.1-0.2-0.2-0.2H19
			v0.4h0.5V10.2z"/>
	</g>
	<g>
		<path class="st0" d="M11.1,10.8H9.4V1.1c0-0.5,0.4-0.8,0.8-0.8h1.4v1.7h-0.5V10.8z M10.1,10.2h0.4V1.3H11V0.9h-0.7
			c-0.1,0-0.2,0.1-0.2,0.2V10.2z"/>
	</g>
</g>
</svg>
