<?xml version="1.0" encoding="utf-8"?>
<!-- Generator: Adobe Illustrator 22.0.0, SVG Export Plug-In . SVG Version: 6.00 Build 0)  -->
<svg version="1.1" id="Layer_1" xmlns="http://www.w3.org/2000/svg" xmlns:xlink="http://www.w3.org/1999/xlink" x="0px" y="0px"
	 viewBox="0 0 29.2 27.7" style="enable-background:new 0 0 29.2 27.7;" xml:space="preserve">
<style type="text/css">
	.st0{fill:#FFAE0D;}
</style>
<g>
	<g>
		<path class="st0" d="M28.3,13.2v-1.6c0.4-0.2,0.6-0.6,0.6-1V6.3c0-0.6-0.5-1.1-1.1-1.1h-5.5v-3c0-0.7-0.4-1.4-1-1.7
			c-0.6-0.4-1.4-0.4-2,0l-3.7,2.1c-0.7-0.3-1.4-0.3-2.1,0L9.8,0.4c-0.6-0.4-1.4-0.4-2,0c-0.6,0.4-1,1-1,1.7v3H1.2
			c-0.6,0-1.1,0.5-1.1,1.1v4.4c0,0.6,0.5,1.1,1.1,1.1h10v14.3H2.4c-0.3,0-0.5-0.2-0.6-0.6V13.4c0-0.3-0.2-0.6-0.6-0.6
			c-0.3,0-0.5,0.2-0.6,0.5c0,0,0,0,0,0v12.1c0,0.4,0.2,0.9,0.5,1.2s0.7,0.5,1.2,0.5h9c0.2,0.3,0.5,0.6,1,0.6h4.4
			c0.4,0,0.8-0.2,1-0.6h9c0.9,0,1.7-0.7,1.7-1.7v-0.4 M34.5,27.1 M23.7,11.8h3.5v1.4 M27.8,10.7h-10V6.3h10V10.7z M19.8,1.4
			c0.3-0.2,0.6-0.2,0.9,0c0.3,0.2,0.5,0.5,0.5,0.8v3h-3.5c0,0,0,0,0,0l2.1-1.2C20,3.7,20.1,3.4,20,3.1c-0.2-0.3-0.5-0.4-0.8-0.2
			l-2.1,1.2c-0.1-0.3-0.3-0.6-0.6-0.9L19.8,1.4z M15.3,3.7c0.4,0.2,0.7,0.6,0.8,0.9h-3.1c0.1-0.4,0.4-0.7,0.8-0.9
			C14.2,3.4,14.8,3.4,15.3,3.7z M7.9,2.2c0-0.3,0.2-0.6,0.5-0.8c0.3-0.2,0.6-0.2,0.9,0l3.2,1.9c-0.2,0.3-0.4,0.6-0.6,0.9L9.8,2.9
			C9.5,2.8,9.2,2.9,9,3.1C8.9,3.4,9,3.7,9.2,3.9l2.1,1.2c0,0,0,0,0,0H7.9L7.9,2.2z M1.2,6.3h10v4.4h-10V6.3z M12.3,26.6l0-20.9h4.4
			c0,0,0,0,0,0c0,0,0,0,0,0v5h-2.8c-0.3,0-0.6,0.2-0.6,0.6c0,0.3,0.2,0.6,0.6,0.6h2.8v14.9H12.3z M27.2,13.2l0-0.4v12.8h0
			c0,0.3-0.2,0.6-0.6,0.6h-8.8V11.8h5.9h0.4 M23,15.8 M28.1,23.4C28.1,23.4,28.1,23.4,28.1,23.4"/>
	</g>
	<g>
		<rect x="21.5" y="11.8" class="st0" width="5.6" height="3"/>
	</g>
</g>
</svg>
