<?xml version="1.0" encoding="utf-8"?>
<!-- Generator: Adobe Illustrator 22.0.0, SVG Export Plug-In . SVG Version: 6.00 Build 0)  -->
<svg version="1.1" id="Layer_1" xmlns="http://www.w3.org/2000/svg" xmlns:xlink="http://www.w3.org/1999/xlink" x="0px" y="0px"
	 viewBox="0 0 40 62.7" style="enable-background:new 0 0 40 62.7;" xml:space="preserve">
<style type="text/css">
	.st0{fill:#686868;}
</style>
<g>
	<g>
		<path class="st0" d="M25.9,3.1H14.1v-3h11.8V3.1z M14.9,2.3h10.3V0.9H14.9V2.3z"/>
	</g>
	<g>
		<path class="st0" d="M33.2,58.1H6.8c-0.8,0-1.5-0.7-1.5-1.5V21.4C5.3,20.6,6,20,6.8,20h26.4c0.8,0,1.5,0.7,1.5,1.5v35.2
			C34.7,57.5,34,58.1,33.2,58.1z M6.8,20.7c-0.4,0-0.7,0.3-0.7,0.7v35.2c0,0.4,0.3,0.7,0.7,0.7h26.4c0.4,0,0.7-0.3,0.7-0.7V21.4
			c0-0.4-0.3-0.7-0.7-0.7H6.8z M29.2,53.7h-3V24.4h3V53.7z M27,53h1.5V25.1H27V53z M21.5,53.7h-3V24.4h3V53.7z M19.3,53h1.5V25.1
			h-1.5V53z M13.8,53.7h-3V24.4h3V53.7z M11.6,53H13V25.1h-1.5V53z"/>
	</g>
	<g>
		<path class="st0" d="M31.4,62.5h-3v-3h3V62.5z M29.2,61.8h1.5v-1.5h-1.5V61.8z"/>
	</g>
	<g>
		<path class="st0" d="M11.6,62.5h-3v-3h3V62.5z M9.4,61.8h1.5v-1.5H9.4V61.8z"/>
	</g>
	<g>
		<path class="st0" d="M25.9,18.5h-3v-14h3V18.5z M23.7,17.8h1.5V5.3h-1.5V17.8z M17.1,18.5h-3v-14h3V18.5z M14.9,17.8h1.5V5.3h-1.5
			V17.8z"/>
	</g>
</g>
</svg>
