<?xml version="1.0" encoding="utf-8"?>
<!-- Generator: Adobe Illustrator 22.0.0, SVG Export Plug-In . SVG Version: 6.00 Build 0)  -->
<svg version="1.1" id="Layer_1" xmlns="http://www.w3.org/2000/svg" xmlns:xlink="http://www.w3.org/1999/xlink" x="0px" y="0px"
	 viewBox="0 0 38 37" style="enable-background:new 0 0 38 37;" xml:space="preserve">
<style type="text/css">
	.st0{fill:#FFAE0D;}
</style>
<path class="st0" d="M12,33.8c-4.2,0-8.4-1-11.9-3.4c-0.1-0.1-0.4-0.3-0.4-0.3s0.4,0,0.5,0c0.6,0,1.1,0.1,1.7,0.1
	c3.2,0,6.3-1,8.9-2.8l0.4-0.3l-0.5-0.1c-3-0.4-5.6-2.5-6.6-5.3l-0.1-0.2l0.2,0c0.5,0.1,1,0.1,1.4,0.1c0.3,0,1.1,0,1.4-0.1
	c0,0-0.4-0.2-0.6-0.3c-2-0.9-3.8-2.4-4.6-4.5c-0.4-0.9-0.5-1.9-0.5-2.8v-0.3l0.2,0.1c0.8,0.4,1.6,0.7,2.4,0.8l0.6,0.1l-0.5-0.4
	c-1.7-1.5-2.7-3.6-2.7-5.8c0-1.4,0.4-2.7,1.1-3.9l0.1-0.1l0.1,0.1c3.8,4.6,9.5,7.5,15.6,7.9l0.2,0l0-0.2c-0.1-0.5-0.1-0.9-0.1-1.4
	c0-4.3,3.5-7.8,7.9-7.8c2.1,0,4.2,0.9,5.7,2.3L32,5.6l0.1,0c1.7-0.3,3.3-1,4.7-1.8l0.3-0.2L37,3.9c-0.5,1.4-1.3,2.6-2.4,3.6
	l-0.4,0.3c0,0,0.4,0,0.5,0c1.1-0.1,2.2-0.6,3.2-1l0.4-0.2L38.1,7c-1,1.5-2.3,2.8-3.8,3.9l-0.1,0.1l0,0.1c0,0.3,0,0.6,0,0.8
	c0,1.5-0.2,3.1-0.5,4.6C31.8,25.1,24.3,33.8,12,33.8z"/>
</svg>
