<?xml version="1.0" encoding="utf-8"?>
<!-- Generator: Adobe Illustrator 22.0.0, SVG Export Plug-In . SVG Version: 6.00 Build 0)  -->
<svg version="1.1" id="Layer_1" xmlns="http://www.w3.org/2000/svg" xmlns:xlink="http://www.w3.org/1999/xlink" x="0px" y="0px"
	 viewBox="0 0 17.2 19.5" style="enable-background:new 0 0 17.2 19.5;" xml:space="preserve">
<style type="text/css">
	.st0{clip-path:url(#SVGID_2_);fill:#29B6F6;}
</style>
<g>
	<g>
		<defs>
			<rect id="SVGID_1_" x="0.5" y="0.3" width="16.3" height="18.8"/>
		</defs>
		<clipPath id="SVGID_2_">
			<use xlink:href="#SVGID_1_"  style="overflow:visible;"/>
		</clipPath>
		<path class="st0" d="M5.1,19.1c-1.3-2.6-0.6-4.1,0.4-5.5c1.1-1.5,1.3-3.1,1.3-3.1s0.8,1.1,0.5,2.8C8.7,11.7,9,9.1,8.8,8.1
			c3.3,2.3,4.7,7.3,2.8,11c10.1-5.7,2.5-14.3,1.2-15.3c0.4,1,0.5,2.6-0.4,3.4c-1.5-5.7-5.3-6.9-5.3-6.9c0.4,3-1.6,6.2-3.6,8.6
			C3.5,7.8,3.5,7,2.8,5.8c-0.1,2.1-1.8,3.9-2.2,6C0,14.8,1.1,16.9,5.1,19.1L5.1,19.1z M5.1,19.1"/>
	</g>
</g>
</svg>
