<?xml version="1.0" encoding="utf-8"?>
<!-- Generator: Adobe Illustrator 22.0.0, SVG Export Plug-In . SVG Version: 6.00 Build 0)  -->
<svg version="1.1" id="Layer_1" xmlns="http://www.w3.org/2000/svg" xmlns:xlink="http://www.w3.org/1999/xlink" x="0px" y="0px"
	 viewBox="0 0 56.2 29.2" style="enable-background:new 0 0 56.2 29.2;" xml:space="preserve">
<style type="text/css">
	.st0{fill:#EFA30A;}
	.st1{fill:#FFB300;}
	.st2{fill:#4F63BA;}
	.st3{fill:#3F51B5;}
	.st4{fill:#ADCAC6;}
	.st5{fill:#FDCD08;}
	.st6{fill:#FFFFFF;}
</style>
<g>
	<path class="st0" d="M36.5,21.7l13.2-5.8c5-2.4,5.7,1.1,2,3c-4.1,2.2-12.1,5.6-12.1,5.6l-3.1-0.8V21.7z"/>
	<g>
		<g>
			<path class="st1" d="M36.5,29.2c-4.6-0.5-22.4-3.7-22.8-3.7l-2.3,0V15l2.7,0c4.8-1.3,6.1-3.2,12.7-2.2c1.8,0.3,10.8,0.8,15.4,1.3
				c3,0.4,3.8,4.1-2.6,4.3c-6.8,0.3-9.9,0.4-9.9,0.4s6.1,2.5,8.2,3.3L52.5,17c4-1.9,4.6,1.6,2,3C52.2,21.3,44.1,25.9,36.5,29.2z"/>
		</g>
	</g>
	<rect x="5.9" y="13.6" class="st2" width="7.7" height="13.1"/>
	<rect y="12.8" class="st3" width="11.6" height="14.7"/>
	<path class="st4" d="M9,16.3c0,0.7-0.6,1.3-1.3,1.3c-0.7,0-1.3-0.6-1.3-1.3c0-0.7,0.6-1.3,1.3-1.3C8.4,15.1,9,15.6,9,16.3z"/>
	<path class="st5" d="M43.1,6.1c0,3.2-2.6,5.9-5.9,5.9c-3.2,0-5.9-2.6-5.9-5.9c0-3.2,2.6-5.9,5.9-5.9C40.4,0.2,43.1,2.9,43.1,6.1z"
		/>
	<path class="st3" d="M42,6.1c0,2.6-2.1,4.8-4.8,4.8c-2.6,0-4.8-2.1-4.8-4.8c0-2.6,2.1-4.8,4.8-4.8C39.8,1.3,42,3.5,42,6.1z"/>
	<path class="st5" d="M40.8,6.1c0,2-1.6,3.6-3.6,3.6c-2,0-3.6-1.6-3.6-3.6c0-2,1.6-3.6,3.6-3.6C39.2,2.5,40.8,4.1,40.8,6.1z"/>
	<path class="st3" d="M38.7,6.1c-0.2-0.2-0.6-0.4-1.1-0.5l-0.5-0.1c-0.2,0-0.4-0.1-0.5-0.2c-0.1-0.1-0.1-0.2-0.1-0.3
		c0-0.2,0.1-0.3,0.2-0.4c0.1-0.1,0.3-0.1,0.6-0.1c0.2,0,0.4,0,0.7,0.1c0.2,0.1,0.5,0.1,0.7,0.3V4c-0.3-0.1-0.6-0.1-0.8-0.2
		c-0.1,0-0.2,0-0.2,0V3.3h-0.9v0.5c-0.4,0-0.7,0.2-0.9,0.3c-0.3,0.2-0.4,0.6-0.4,1c0,0.4,0.1,0.6,0.3,0.9c0.2,0.2,0.5,0.4,1,0.5
		l0.5,0.1c0.3,0.1,0.5,0.1,0.5,0.2c0.1,0.1,0.1,0.2,0.1,0.3c0,0.2-0.1,0.3-0.2,0.4c-0.1,0.1-0.3,0.1-0.6,0.1c-0.3,0-0.5,0-0.8-0.1
		c-0.3-0.1-0.5-0.2-0.8-0.3v1c0.3,0.1,0.6,0.2,0.9,0.2c0.1,0,0.3,0,0.4,0.1v0.5h0.9V8.4c0.4,0,0.7-0.2,0.9-0.3C38.8,7.8,39,7.5,39,7
		C39,6.6,38.9,6.3,38.7,6.1z"/>
	<rect x="33" y="2.5" transform="matrix(0.7073 -0.7069 0.7069 0.7073 7.6308 24.6186)" class="st6" width="1.1" height="1.1"/>
</g>
</svg>
