<?xml version="1.0" encoding="utf-8"?>
<!-- Generator: Adobe Illustrator 22.0.0, SVG Export Plug-In . SVG Version: 6.00 Build 0)  -->
<svg version="1.1" id="Layer_1" xmlns="http://www.w3.org/2000/svg" xmlns:xlink="http://www.w3.org/1999/xlink" x="0px" y="0px"
	 viewBox="0 0 20.8 25.3" style="enable-background:new 0 0 20.8 25.3;" xml:space="preserve">
<style type="text/css">
	.st0{fill:#FFAE0D;}
</style>
<g id="XMLID_113_">
	<path class="st0" d="M2.9,23.3c0,0,3.5,1.6,7.2,1.5c0.1,0,0.3,0,0.3,0s0.2,0,0.3,0c3.7,0,7.2-1.5,7.2-1.5c1.7,0.3,2.7-1.2,2.7-1.2
		l-0.5-3.5c-0.3-3.2-3.2-3.7-3.8-3.9c-0.6-0.2-2.7-0.8-3-1.4c-0.1-0.2-0.1-0.6-0.1-1.1c0.8-1,1.4-2.3,1.7-3.1
		c0.4,0.3,0.6-0.1,0.6-0.1C17,7,16.1,6.2,15.9,6c-0.2-0.1-0.4,0.1-0.4,0.1l0,0.1c0.3-5.3-4.2-5.6-4.8-5.7c0,0,0,0-0.3,0
		c-0.3,0-0.4,0-0.3,0c-0.5,0-5,0.4-4.8,5.7l0-0.1c0,0-0.2-0.3-0.4-0.1c-0.2,0.1-1,1,0.3,2.9c0,0,0.2,0.4,0.6,0.1
		c0.3,0.8,0.8,2.1,1.7,3.1c0,0.5,0,0.9-0.1,1.1c-0.3,0.7-2.4,1.2-3,1.4c-0.6,0.2-3.5,0.7-3.8,3.9l-0.5,3.5
		C0.2,22.1,1.2,23.5,2.9,23.3z"/>
</g>
</svg>
