<?xml version="1.0" encoding="utf-8"?>
<!-- Generator: Adobe Illustrator 22.0.0, SVG Export Plug-In . SVG Version: 6.00 Build 0)  -->
<svg version="1.1" id="Layer_1" xmlns="http://www.w3.org/2000/svg" xmlns:xlink="http://www.w3.org/1999/xlink" x="0px" y="0px"
	 viewBox="0 0 24 24" style="enable-background:new 0 0 24 24;" xml:space="preserve">
<style type="text/css">
	.st0{fill:#686868;}
</style>
<g>
	<g>
		<path class="st0" d="M22.7,23H1.3C0.6,23,0,22.4,0,21.7V8.1c0-0.7,0.6-1.3,1.3-1.3h21.4c0.7,0,1.3,0.6,1.3,1.3v13.6
			C24,22.4,23.4,23,22.7,23z M1.3,7.5c-0.4,0-0.7,0.3-0.7,0.7v13.6c0,0.4,0.3,0.7,0.7,0.7h21.4c0.4,0,0.7-0.3,0.7-0.7V8.1
			c0-0.4-0.3-0.7-0.7-0.7H1.3z M19.1,19.1h-2.6v-8.4h2.6V19.1z M17.2,18.5h1.3v-7.1h-1.3V18.5z M13.3,19.1h-2.6v-8.4h2.6V19.1z
			 M11.3,18.5h1.3v-7.1h-1.3V18.5z M7.5,19.1H4.9v-8.4h2.6V19.1z M5.5,18.5h1.3v-7.1H5.5V18.5z"/>
	</g>
	<g>
		<path class="st0" d="M19.1,5.5h-2.6V4.2c0-0.4-0.3-0.7-0.7-0.7H8.1c-0.4,0-0.7,0.3-0.7,0.7v1.3H4.9V4.2C4.9,2.4,6.3,1,8.1,1h7.8
			c1.8,0,3.2,1.5,3.2,3.2V5.5z M17.2,4.9h1.3V4.2c0-1.4-1.2-2.6-2.6-2.6H8.1c-1.4,0-2.6,1.2-2.6,2.6v0.7h1.3V4.2
			c0-0.7,0.6-1.3,1.3-1.3h7.8c0.7,0,1.3,0.6,1.3,1.3V4.9z"/>
	</g>
</g>
</svg>
