<?xml version="1.0" encoding="utf-8"?>
<!-- Generator: Adobe Illustrator 22.0.0, SVG Export Plug-In . SVG Version: 6.00 Build 0)  -->
<svg version="1.1" id="Layer_1" xmlns="http://www.w3.org/2000/svg" xmlns:xlink="http://www.w3.org/1999/xlink" x="0px" y="0px"
	 viewBox="0 0 21.6 22.2" style="enable-background:new 0 0 21.6 22.2;" xml:space="preserve">
<style type="text/css">
	.st0{clip-path:url(#SVGID_2_);fill:#29B6F6;}
</style>
<g>
	<g>
		<defs>
			<rect id="SVGID_1_" x="0.1" y="0.3" width="21.5" height="21.7"/>
		</defs>
		<clipPath id="SVGID_2_">
			<use xlink:href="#SVGID_1_"  style="overflow:visible;"/>
		</clipPath>
		<path class="st0" d="M21.3,14.2l-0.1-0.3l-2-0.5c0-0.2,0-0.4,0-0.6c0-2.5-1-4.9-2.8-6.5l-0.8,1c1.5,1.4,2.4,3.4,2.4,5.6
			c0,0.1,0,0.2,0,0.3l-1.3-0.3c0-1.4-0.5-2.7-1.3-3.7l-1,0.8c0.6,0.7,0.9,1.6,1,2.6L14,11.9c-0.1-0.6-0.5-1.2-0.9-1.7l2-7.5
			l-0.2-0.3c-1-1.2-2.4-1.8-4-1.8s-3,0.7-4,1.8L6.7,2.7l0.6,2.1C6.8,5.1,6.4,5.4,6,5.7C4.6,6.8,3.6,8.3,3,10.1l1.2,0.4
			C4.8,8.6,6,7,7.6,6.1L8,7.5C7.5,7.8,7.1,8.2,6.7,8.7l0.9,0.9C7.8,9.3,8.1,9,8.4,8.8l0.4,1.4c-0.4,0.4-0.8,1-0.9,1.7l-1.3,0.4
			c0-0.5,0.2-1.1,0.4-1.6l-1.1-0.6c-0.3,0.8-0.5,1.6-0.5,2.5l-4.6,1.2l-0.1,0.3c-0.5,1.5-0.3,3.2,0.5,4.6c0.8,1.4,2,2.4,3.5,2.7
			l0.3,0.1l1.5-1.6c1.4,1,3,1.5,4.6,1.5c0.6,0,1.1-0.1,1.7-0.2l-0.3-1.3c-0.5,0.1-1,0.2-1.4,0.2c-1.4,0-2.6-0.4-3.7-1.1l0.9-1
			c0.8,0.5,1.8,0.8,2.8,0.8v-1.3c-0.7,0-1.3-0.2-1.9-0.4l1-1c0.3,0.1,0.6,0.1,0.9,0.1c0.3,0,0.6,0,0.9-0.1l5.1,5.6l0.3-0.1
			c1.4-0.3,2.7-1.3,3.5-2.7C21.6,17.3,21.8,15.6,21.3,14.2L21.3,14.2z M13,15.3c0.6-0.5,1-1.2,1.1-2l6.2,1.6c0.2,1,0.1,2.2-0.5,3.2
			c-0.5,1-1.4,1.7-2.4,2L13,15.3z M8.1,3.1c0.7-0.7,1.8-1.1,2.8-1.1c1.1,0,2.1,0.4,2.8,1.1L12,9.5c-0.3-0.1-0.7-0.2-1.1-0.2
			c-0.4,0-0.7,0.1-1.1,0.2L8.1,3.1z M4.5,20.1c-1-0.3-1.8-1-2.3-2c-0.5-1-0.7-2.1-0.5-3.2l6.2-1.6c0.1,0.8,0.5,1.5,1.1,2L4.5,20.1z
			 M9,12.7c0-1.1,0.9-2,1.9-2c1.1,0,1.9,0.9,1.9,2c0,1.1-0.9,2-1.9,2C9.9,14.7,9,13.8,9,12.7L9,12.7z M9,12.7"/>
	</g>
</g>
</svg>
