<?xml version="1.0" encoding="utf-8"?>
<!-- Generator: Adobe Illustrator 22.0.0, SVG Export Plug-In . SVG Version: 6.00 Build 0)  -->
<svg version="1.1" id="Layer_1" xmlns="http://www.w3.org/2000/svg" xmlns:xlink="http://www.w3.org/1999/xlink" x="0px" y="0px"
	 viewBox="0 0 38 37" style="enable-background:new 0 0 38 37;" xml:space="preserve">
<style type="text/css">
	.st0{fill:#FFAE0D;}
	.st1{fill:#1E325E;}
</style>
<path class="st0" d="M35.4,2.8L1,16.2c-1.1,0.4-1,2,0.1,2.4l8.7,2.6l3.3,10.4c0.3,1.1,1.7,1.4,2.5,0.6l4.5-4.6L29,34
	c1.1,0.8,2.6,0.2,2.9-1.1l5.9-28.1C38.1,3.4,36.7,2.3,35.4,2.8L35.4,2.8L35.4,2.8z M31.1,9l-16,14.1c-0.2,0.1-0.3,0.3-0.3,0.5
	l-0.6,5.5c0,0.2-0.3,0.2-0.3,0L11.3,21c-0.1-0.4,0-0.8,0.4-1L30.6,8.3C31,8.1,31.5,8.7,31.1,9L31.1,9L31.1,9z"/>
</svg>
