<?xml version="1.0" encoding="utf-8"?>
<!-- Generator: Adobe Illustrator 22.0.0, SVG Export Plug-In . SVG Version: 6.00 Build 0)  -->
<svg version="1.1" id="Layer_1" xmlns="http://www.w3.org/2000/svg" xmlns:xlink="http://www.w3.org/1999/xlink" x="0px" y="0px"
	 viewBox="0 0 38 37" style="enable-background:new 0 0 38 37;" xml:space="preserve">
<style type="text/css">
	.st0{fill:#1E325E;}
</style>
<g>
	<g>
		<path class="st0" d="M19,3.1c-8.7,0-15.7,7-15.7,15.7s7,15.7,15.7,15.7s15.7-7,15.7-15.7S27.7,3.1,19,3.1z M14.5,7.4
			c2.5,0,4.4,2,4.4,4.4c0,2.5-2,4.4-4.4,4.4c-2.5,0-4.4-2-4.4-4.4C10,9.4,12,7.4,14.5,7.4z M12.2,28.1c-2.5,0-4.4-2-4.4-4.4
			c0-2.5,2-4.4,4.4-4.4s4.4,2,4.4,4.4C16.6,26.1,14.6,28.1,12.2,28.1z M19,20.9c-1.1,0-2-0.9-2-2c0-1.1,0.9-2,2-2c1.1,0,2,0.9,2,2
			C21,20,20.1,20.9,19,20.9z M23.5,30.2c-2.5,0-4.4-2-4.4-4.4c0-2.5,2-4.4,4.4-4.4s4.4,2,4.4,4.4C27.9,28.2,25.9,30.2,23.5,30.2z
			 M25.8,18.4c-2.5,0-4.4-2-4.4-4.4s2-4.4,4.4-4.4c2.5,0,4.4,2,4.4,4.4S28.2,18.4,25.8,18.4z"/>
		<g>
			<path class="st0" d="M2,20.5l-1.1,4.2c-0.8,2.9,1,5.9,3.9,6.7L9,32.5C4.7,30.1,2,25.4,2,20.5z"/>
			<path class="st0" d="M17.1,2l-4.3-1.1c-2.9-0.8-5.9,1-6.7,3.9L5,9C7.5,4.7,12.2,2,17.1,2z"/>
			<path class="st0" d="M33.3,6.3L29,5.2c4.3,2.5,7,7.1,7,12.1l1.1-4.2C37.9,10.1,36.2,7.1,33.3,6.3z"/>
			<path class="st0" d="M20.9,35.7l4.3,1.1c2.9,0.8,5.9-1,6.7-3.9l1.1-4.2C30.5,33,25.8,35.7,20.9,35.7z"/>
		</g>
	</g>
</g>
</svg>
