<?xml version="1.0" encoding="utf-8"?>
<!-- Generator: Adobe Illustrator 22.0.0, SVG Export Plug-In . SVG Version: 6.00 Build 0)  -->
<svg version="1.1" id="Layer_1" xmlns="http://www.w3.org/2000/svg" xmlns:xlink="http://www.w3.org/1999/xlink" x="0px" y="0px"
	 viewBox="0 0 574.2 554.9" style="enable-background:new 0 0 574.2 554.9;" xml:space="preserve">
<style type="text/css">
	.st0{opacity:0.15;fill:#7E79DE;}
	.st1{fill:#BCC6D9;}
	.st2{fill:#D38E89;}
	.st3{fill:none;stroke:#AF9F9A;stroke-width:4;stroke-linejoin:round;stroke-miterlimit:10;}
	.st4{fill:#3E3B44;}
	.st5{fill:#FFB4AC;}
	.st6{fill:#6D5E5C;}
	.st7{fill:#756863;}
	.st8{opacity:0.5;fill:#4A4751;}
	.st9{fill:#7E79DE;}
	.st10{fill:#423883;}
	.st11{opacity:0.3;fill:#423883;}
	.st12{opacity:0.2;}
	.st13{fill:#546070;}
	.st14{fill:#635654;}
	.st15{opacity:0.7;fill:#3E3B44;}
	.st16{fill:#C3C5FF;}
	.st17{fill:#423883;stroke:#423883;stroke-miterlimit:10;}
	.st18{fill:#FFFFFF;}
	.st19{fill:#7880E7;}
	.st20{fill:#DEE0FC;}
	.st21{fill:#90ADAC;}
	.st22{fill:#B8E0E0;}
	.st23{fill:#A3C9C8;}
	.st24{fill:#FFCD5C;}
	.st25{opacity:0.3;fill:#FFBC64;}
	.st26{fill:#488593;}
	.st27{fill:#444444;}
	.st28{fill:#545659;}
	.st29{fill:#666A7F;}
	.st30{fill:#ABB3C9;}
	.st31{opacity:0.4;}
	.st32{opacity:0.5;}
	.st33{fill:#4A4751;}
	.st34{fill:#8893B0;}
	.st35{fill:#959FBA;}
	.st36{opacity:0.3;fill:#403E38;}
	.st37{fill:#8088A1;}
	.st38{fill:#CFD9E8;}
	.st39{opacity:0.5;fill:#CFD9E8;}
	.st40{fill:#B0B0B3;}
	.st41{opacity:0.4;fill:#8893B0;}
	.st42{opacity:0.7;fill:#666A7F;}
	.st43{fill:#363638;}
	.st44{fill:#4D4D4F;}
	.st45{fill:#36333B;}
	.st46{fill:#646C82;}
	.st47{fill:#5C5F63;}
	.st48{fill:#5B6068;}
	.st49{opacity:0.5;fill:#966556;}
	.st50{fill:#403E38;}
	.st51{fill:#56595E;}
	.st52{fill:#FC5938;}
	.st53{opacity:0.2;fill:#403E38;}
	.st54{fill:#D3AB90;}
	.st55{opacity:0.4;fill:#666A7F;}
	.st56{fill:#D8E1EF;}
	.st57{opacity:0.4;fill:#403E38;}
	.st58{fill:#433F4C;}
	.st59{opacity:0.2;fill:#3E3B44;}
	.st60{fill:#C29F7F;}
	.st61{fill:#E5CDB5;}
	.st62{fill:#4A4C4F;}
	.st63{opacity:0.1;fill:#3E3B44;}
	.st64{fill:#B3B3B6;}
	.st65{fill:#FFFFFF;stroke:#D3AB90;stroke-width:2.4868;stroke-miterlimit:10;}
	.st66{opacity:0.1;fill:#403E38;}
	.st67{opacity:0.5;fill:#959FBA;}
	.st68{opacity:0.2;fill:#666A7F;}
	.st69{fill:#828AA2;}
	.st70{opacity:0.3;fill:#666A7F;}
	.st71{fill:#6C7787;}
	.st72{opacity:0.3;fill:#4A4751;}
	.st73{fill:#C6CCD6;}
	.st74{fill:#F2A24C;}
	.st75{fill:#89685B;}
	.st76{fill:#B5977D;}
	.st77{opacity:0.7;}
	.st78{opacity:0.4;fill:#6D5E5C;}
	.st79{opacity:0.4;fill:#756863;}
	.st80{opacity:0.2;fill:#FFFFFF;}
	.st81{fill:#9CA4B5;}
	.st82{fill:#5B504D;}
	.st83{fill:#ADB6C9;}
	.st84{opacity:0.6;}
	.st85{opacity:0.3;}
	.st86{fill:#C6CDE0;}
	.st87{fill:#B74937;}
	.st88{opacity:0.6;fill:#B74937;}
	.st89{fill:#FFCF22;}
	.st90{fill:#FF7D50;}
	.st91{fill:#424242;}
	.st92{fill:#C7D0DD;}
	.st93{fill:#BCBCBC;}
	.st94{fill:#D85E3D;}
	.st95{fill:#499AF2;}
	.st96{opacity:0.3;fill:#424242;}
	.st97{fill:#995323;}
	.st98{fill:#FFB7A9;}
	.st99{opacity:0.5;fill:#E67F92;}
	.st100{fill:#FFB81A;}
	.st101{fill:#BF7E37;}
	.st102{fill:#5047B2;}
	.st103{fill:#AD6331;}
	.st104{opacity:0.3;fill:#E67F92;}
	.st105{fill:#E67F92;}
	.st106{fill:#DE7F97;}
	.st107{fill:#A45666;}
	.st108{fill:#FFBB33;}
	.st109{fill:#FFCD50;}
</style>
<path class="st0" d="M486.2,208.6c-5-1.4-9.3-4.7-11.6-9.4c-7.4-14.3-20-25.4-35.4-30.7c-4.6-1.6-8.6-4.6-11.1-8.7
	c-9.1-14.6-30.1-24.8-54.6-24.8c-5,0-9.8,0.4-14.4,1.2c-9.4,1.6-19-1.1-26-7.5c-11-10.1-25.5-16.5-41.5-16.9
	c-36.3-1.1-66.5,28.6-66.1,64.9c0,0.3,0,0.6,0,0.8c0.2,6.8-4.1,12.9-10.5,15c-16,5.4-29.2,16.9-36.7,31.7
	c-3.5,6.9-11,10.9-18.8,10.1c-2.2-0.2-4.5-0.3-6.7-0.3c-35.4,0-64.2,28.7-64.2,64.2c0,0,0,0.1,0,0.2c0,8.2-4.9,15.5-12.5,18.5
	c-25.3,10-42.8,32.5-42.8,58.6c0,35.4,32.5,64.2,72.5,64.2c7.3,0,14.4-1,21.1-2.8c2.9-0.8,5.8,1.4,5.8,4.4v0.1c0,0.1,0,0.3,0,0.4
	c0.1,18.8,15.5,34,34.4,34h301.2c11.3,0,21.9-5.5,28.3-14.8c5.3-7.7,9.5-16.1,12.5-25.2c3.6-10.7,9.6-20.5,17.9-28.3
	c22.4-21,36.6-52.5,36.6-87.7C563.6,266.1,530.7,221.1,486.2,208.6z"/>
<g>
	<path class="st1" d="M402.6,320.5v-3.2c2.6,0,4.8-2.1,4.8-4.8c0-2.6-2.1-4.8-4.8-4.8v-3.2c4.4,0,8,3.6,8,8
		C410.6,316.9,407,320.5,402.6,320.5z"/>
</g>
<g>
	<path class="st1" d="M376.6,320.5v-3.2c2.6,0,4.8-2.1,4.8-4.8c0-2.6-2.1-4.8-4.8-4.8v-3.2c4.4,0,8,3.6,8,8
		C384.6,316.9,381,320.5,376.6,320.5z"/>
</g>
<path class="st2" d="M371.7,276.4c0,1.4,1.1,2.5,2.5,2.5h25.7c1.4,0,2.5-1.1,2.5-2.5v-4.5c0-1.4-1.1-2.5-2.5-2.5h-25.7
	c-1.4,0-2.5,1.1-2.5,2.5V276.4z"/>
<g>
	<path class="st3" d="M399.8,285.3c0,0.8,0.7,1.5,1.5,1.5h1.8c0.8,0,1.5-0.7,1.5-1.5v-5c0-0.8-0.7-1.5-1.5-1.5h-1.8
		c-0.8,0-1.5,0.7-1.5,1.5V285.3z"/>
	<path class="st3" d="M399.8,300c0,0.8,0.7,1.5,1.5,1.5h1.8c0.8,0,1.5-0.7,1.5-1.5v-5c0-0.8-0.7-1.5-1.5-1.5h-1.8
		c-0.8,0-1.5,0.7-1.5,1.5V300z"/>
	<path class="st3" d="M400.8,292.6c0,0.8,0.6,1.5,1.4,1.5c0.8,0,1.4-0.7,1.4-1.5v-5c0-0.8-0.6-1.5-1.4-1.5c-0.8,0-1.4,0.7-1.4,1.5
		V292.6z"/>
	<path class="st3" d="M400.8,307.3c0,0.8,0.6,1.5,1.4,1.5c0.8,0,1.4-0.7,1.4-1.5v-5c0-0.8-0.6-1.5-1.4-1.5c-0.8,0-1.4,0.7-1.4,1.5
		V307.3z"/>
</g>
<g>
	<path class="st3" d="M387.9,234.6c0,0.8,0.7,1.5,1.5,1.5h1.8c0.8,0,1.5-0.7,1.5-1.5v-5c0-0.8-0.7-1.5-1.5-1.5h-1.8
		c-0.8,0-1.5,0.7-1.5,1.5V234.6z"/>
	<path class="st3" d="M387.9,249.3c0,0.8,0.7,1.5,1.5,1.5h1.8c0.8,0,1.5-0.7,1.5-1.5v-5c0-0.8-0.7-1.5-1.5-1.5h-1.8
		c-0.8,0-1.5,0.7-1.5,1.5V249.3z"/>
	<path class="st3" d="M388.9,241.9c0,0.8,0.6,1.5,1.4,1.5s1.4-0.7,1.4-1.5v-5c0-0.8-0.6-1.5-1.4-1.5s-1.4,0.7-1.4,1.5V241.9z"/>
	<path class="st3" d="M388.9,256.6c0,0.8,0.6,1.5,1.4,1.5s1.4-0.7,1.4-1.5v-5c0-0.8-0.6-1.5-1.4-1.5s-1.4,0.7-1.4,1.5V256.6z"/>
</g>
<g>
	<path class="st3" d="M374.2,285.3c0,0.8,0.7,1.5,1.5,1.5h1.8c0.8,0,1.5-0.7,1.5-1.5v-5c0-0.8-0.7-1.5-1.5-1.5h-1.8
		c-0.8,0-1.5,0.7-1.5,1.5V285.3z"/>
	<path class="st3" d="M374.2,300c0,0.8,0.7,1.5,1.5,1.5h1.8c0.8,0,1.5-0.7,1.5-1.5v-5c0-0.8-0.7-1.5-1.5-1.5h-1.8
		c-0.8,0-1.5,0.7-1.5,1.5V300z"/>
	<path class="st3" d="M375.2,292.6c0,0.8,0.6,1.5,1.4,1.5c0.8,0,1.4-0.7,1.4-1.5v-5c0-0.8-0.6-1.5-1.4-1.5c-0.8,0-1.4,0.7-1.4,1.5
		V292.6z"/>
	<path class="st3" d="M375.2,307.3c0,0.8,0.6,1.5,1.4,1.5c0.8,0,1.4-0.7,1.4-1.5v-5c0-0.8-0.6-1.5-1.4-1.5c-0.8,0-1.4,0.7-1.4,1.5
		V307.3z"/>
</g>
<g>
	<path class="st1" d="M376.6,320.5c-4.4,0-8-3.6-8-8c0-4.4,3.6-8,8-8v3.2c-2.6,0-4.8,2.1-4.8,4.8c0,2.6,2.1,4.8,4.8,4.8V320.5z"/>
</g>
<g>
	<path class="st1" d="M402.6,320.5c-4.4,0-8-3.6-8-8c0-4.4,3.6-8,8-8v3.2c-2.6,0-4.8,2.1-4.8,4.8c0,2.6,2.1,4.8,4.8,4.8V320.5z"/>
</g>
<path class="st4" d="M381,278.9c0,1.4,1.1,2.5,2.5,2.5h8.6c1.4,0,2.5-1.1,2.5-2.5v-19.7c0-1.4-1.1-2.5-2.5-2.5h-8.6
	c-1.4,0-2.5,1.1-2.5,2.5V278.9z"/>
<path class="st5" d="M376.2,276.4c0,1.4,1.1,2.5,2.5,2.5h25.7c1.4,0,2.5-1.1,2.5-2.5v-4.5c0-1.4-1.1-2.5-2.5-2.5h-25.7
	c-1.4,0-2.5,1.1-2.5,2.5V276.4z"/>
<g>
	<g>
		<rect x="293.4" y="374.6" class="st5" width="10.1" height="64.5"/>
		<rect x="458.6" y="402.3" class="st5" width="10.1" height="36.9"/>
		<rect x="458.6" y="406.4" class="st6" width="10.1" height="3.9"/>
		<polygon class="st2" points="458.6,415.7 468.7,412.6 468.7,410.4 458.6,410.4 		"/>
		<rect x="458.1" y="402.1" class="st7" width="13.1" height="4.3"/>
		<rect x="440.7" y="374.6" class="st5" width="10.1" height="64.5"/>
		<polygon class="st2" points="440.7,393.2 450.8,390.9 450.8,385.5 440.7,385.5 		"/>
		<rect x="440.7" y="386.3" class="st8" width="10.1" height="3.9"/>
		<g>
			<g>
				<path class="st9" d="M466.1,392.2l4.6,0h4.3c0,3.4,0,6.7,0,10.6c-4.2,0.1-6.1,0-14.9,0v15h-16v-25.4l3.9-0.1L466.1,392.2z"/>
				<path class="st10" d="M403.4,362.2l62.3,6.7l5.4,24.6l-10.3,0.8l-2.5,13.8c-2.4-15.2-8-25.6-19.1-25.6
					c-11.3,0-17.8,11.7-19.7,29.7h-98.8H157.1v-47.5L403.4,362.2z"/>
				<path class="st11" d="M330.6,372.1h75.9l6-8.9l53.1,5.7l5.4,24.6l-10.3,0.8l-2.5,13.8c-2.4-15.2-8-25.6-19.1-25.6
					c-11.3,0-17.8,11.7-19.7,29.7h-13.5l0.2-32.5h-75.6V372.1z"/>
				<g>
					<g class="st12">
						<path class="st13" d="M435.6,385.6c0,0.8,0.7,1.5,1.5,1.5h7.1c0.8,0,1.5-0.7,1.5-1.5v-6.2c0-0.8-0.7-1.5-1.5-1.5h-7.1
							c-0.8,0-1.5,0.7-1.5,1.5V385.6z"/>
					</g>
					<path class="st14" d="M433.1,385.7c0,0.8,0.7,1.5,1.5,1.5h7.1c0.8,0,1.5-0.7,1.5-1.5V379c0-0.8-0.7-1.5-1.5-1.5h-7.1
						c-0.8,0-1.5,0.7-1.5,1.5V385.7z"/>
					<rect x="437.7" y="383.3" class="st7" width="14.2" height="3.9"/>
					<path class="st10" d="M456.7,402.5c-1.6-9.1-6.2-16.1-11-19.2l6.4-2.6l6.3,20L456.7,402.5z"/>
				</g>
				<path class="st15" d="M355.5,365.7h-4.5V364h-1.6v-1.7l54.2-0.5l62.3,6.7l4.7,25.9l-17.7-2.7c-3.2-5.7-7.2-9.6-13.6-9.6
					c-9.5,0-15.6,8.2-18.4,21.5c-1.3,0.4-1.1,4.8-0.6,6c1.3,2.9-4.8,3.8-6.1,0.3c-0.1,0-9.1,3.4-3.9-2.2c0.9-0.9-3-0.4-4.2-0.7
					c-3.6-0.4-16.6,4.6-18.8,2l-6.8-10.1c-2.8,0-5.3-1.5-6.7-3.8h-20.6v-2.5h3.3v-0.1h-0.5c0.3-0.1,0.5-0.4,0.5-0.7v-0.1
					c0-0.4-0.3-0.9-0.8-1l-3.2-0.8c0,0,0,0,0,0l-0.8-0.2v-9.2h0v-2.4h-2.6l-0.2-3.1l0,0l2.4-5.6h3.2l0.2-0.5l1.2-2.6
					c-0.2-0.1-0.3-0.2-0.5-0.3C355.7,365.8,355.6,365.7,355.5,365.7z"/>
				<path class="st16" d="M289.4,360l38.8,7c0,0,4,0.5,6.3,6.3l16.5,0c1.3,0,1.5,1.2,1.7,2.7l3.3,16.2h-5.2l-1.4-12.5
					c-0.2-1.5-1.4-2.7-2.7-2.7l-16.5,0v-1.2c-2.3-5.7-6.3-6.3-6.3-6.3l-46.7-8L289.4,360z"/>
				<path class="st9" d="M456.6,392.2l1.4-12.7c0.2-1.5,1.4-2.7,2.8-2.7l10.5-1.9c1.4,0,2.3-1.4,2.6,0.5c0,0.3,0.5-0.3,1.4-0.3
					c0,0-1.4-4.5-2.8-4.5l0.5,2.6c-1.4,0-2.8,0-3.1,0c-0.4,0,0.4,0-0.9,0l-12.1,0c-1.4,0-2.6,1.2-2.8,2.7l-2.3,16.4H456.6z"/>
				<polygon class="st9" points="414.5,362.8 406.6,371.9 339.7,371.9 337.6,363.7 409,363.7 410.6,359.8 				"/>
				<path class="st9" d="M463.5,373c2.5,0,9,0,9,0s0.6-2.8-3-3.7l-58.9-9.5l-2.7,3.9L463.5,373z"/>
				<rect x="369" y="401.1" class="st9" width="11.1" height="16.4"/>
				<g>
					<path class="st16" d="M235,361.2l9.9-1.1l6-35.6c0,0,18-10.1-0.4-10.1c20.9,0,107.4,0,113.5,0c12.9,0,20.2,11,20.2,11l30.4,32
						l56.8,9.7c0,0,4.3,0.5,6.6,7v2.9l-11.2-1.8V372l-57-8.3h-79.3l10.1,29.5l29-1.1h20.4v25.6h-16.8v-15c-8.2,0-15.4-0.9-19.5-0.9
						c-4.1,0-50.9,0.9-53.3,0.9c-2.4,0-3.2,19.2-3.2,19.2l0.8,1.9H222c0,0,0-32.3,0-45.9C222,364.3,235,361.2,235,361.2z"/>
				</g>
				<path class="st9" d="M381.9,392.2l-1.4-12.5c-0.2-1.5-1.4-2.7-2.7-2.7l-26,0c-1.3,0-2.7,0-3.1,0c-0.2,0-0.9,0-1.7,0l-0.2-1
					c-0.3-1.5,0.5-2.6,1.9-2.6h0.8c1.3,0,2.7,0,3.1,0c0.4,0,1.8,0,3.1,0l26.5,0c1.3,0,2.6,1.2,2.7,2.7l2.2,16.2H381.9z"/>
				<rect x="298.1" y="382.6" class="st17" width="46" height="27.6"/>
				<rect x="163.3" y="382.6" class="st17" width="46" height="27.6"/>
				<path class="st9" d="M164.6,357.6l19.5-4.2l21-28.9c0,0,5.7-10.1,14.1-10.1c20.9,0,32.4,0,38.5,0c10.2,0,16.9,11,16.9,11
					l23.2,32l58.9,9.7c0,0,4.2,0.5,6.5,6.7H356h-1.2h-5.1l3.9,18.4l3.9,0h7.1c0,3.2,0,6.8,0,10.5H340c-3-12.4-9-20.1-18.1-20.1
					c-13.6,0-20.3,19.1-20.3,43.5h-100c0-23.3-6.7-43.5-20.3-43.5c-13.6,0-20.3,16.9-20.3,41.3h-6c0,0,0-38.3,0-51.8
					C154.9,358.4,164.6,357.6,164.6,357.6z"/>
				<g>
					<g>
						<g>
							<g>
								<path class="st10" d="M308.6,357.6c-2.2,0-5-1.4-6.3-3.2L280,323.7c-0.2-0.2-0.3-0.4-0.4-0.7c-0.3-0.5-0.2-1.2,0-1.7
									c0.3-0.5,0.8-0.9,1.4-1c0.2,0,0.5-0.1,0.8-0.1H368c2.2,0,5.2,1.3,6.6,2.9l29.7,31.3c0.5,0.6,0.7,1.4,0.4,2.1
									c-0.3,0.7-1,1.2-1.8,1.2H308.6z"/>
								<path class="st10" d="M368,322.1c1.7,0,4.1,1.1,5.3,2.3l29.7,31.3h-94.3c-1.6,0-3.8-1.1-4.7-2.4l-22.3-30.7
									c-0.1-0.1-0.2-0.3-0.2-0.3c0.1,0,0.2,0,0.4,0H368L368,322.1z M368,318.3h-86.2c-0.4,0-0.8,0-1.1,0.1c-1.2,0.2-2.2,1-2.7,2
									c-0.5,1.1-0.6,2.3-0.1,3.4c0.2,0.3,0.3,0.6,0.6,1l22.3,30.7c1.6,2.2,5.1,4,7.8,4H403c1.5,0,2.9-0.9,3.5-2.3
									c0.6-1.4,0.3-3.1-0.7-4.2l-29.7-31.3C374.2,319.8,370.8,318.3,368,318.3L368,318.3z"/>
							</g>
							<path class="st10" d="M283.7,417.6v-66.1L269,329.3c-4.9-7.6-7.3-8.1-12.8-8.1h-38.6c-4.2,0-6.5,5.8-6.5,5.9l-0.1,0.4
								l-11.6,23.2v25.4l20.6,41.6H283.7z"/>
							<path class="st18" d="M217.3,327.3c-1.2,0-3.1,0.9-4,1.8l-12,25.4h84.2v-3.8L270,327.3H217.3z"/>
							<polygon class="st10" points="239.4,359.9 243.2,359.9 246.2,319.5 240.4,319.5 							"/>
							<polygon class="st10" points="238.2,361 251.2,361 254.4,320 241.2,320 							"/>
							<polygon class="st16" points="238.3,361 247.2,361 250.2,319.2 241.4,319.2 							"/>
							<rect x="238.3" y="360.5" class="st16" width="8.9" height="59.3"/>
							<polygon class="st19" points="234.8,361 243.7,361 248.3,318.4 239.4,318.4 							"/>
							<rect x="234.8" y="360.5" class="st19" width="8.9" height="59.9"/>
							<path class="st18" d="M370.1,327.8c1.2,0,3.1,0.9,4,1.8l24.1,25.4v5h-89.8c-2.6,0-5.9-1.8-7.5-4l-3.8-5.3l7.1-22.9H370.1z"/>
							<polygon class="st10" points="340,360 347.9,360 344.8,321.4 336.9,321.4 							"/>
							<polygon class="st18" points="290,340.7 280.3,327.3 294.7,327.3 							"/>
						</g>
						<polygon class="st16" points="234.7,419.7 234.8,415.5 221.9,415.5 201.6,376.7 197.5,352.4 197.5,352.5 197.5,376.7 
							218.8,419.7 						"/>
					</g>
					<path class="st20" d="M297.1,372.3h6c0.6,0,1.1,0.5,1.1,1.2v4.7c0,0.7-0.5,1.2-1.1,1.2h-6c-0.6,0-1.1-0.5-1.1-1.2v-4.7
						C296,372.8,296.5,372.3,297.1,372.3z"/>
				</g>
				<path class="st16" d="M469.9,392.2l4.6,0h4.3c0,3.4,0,6.7,0,10.6c-4.2,0.1-6.1,0-14.9,0v15h-16v-25.6h3.9L469.9,392.2z"/>
				<g>
					<g>
						<polygon class="st21" points="434.1,335 441,335 441,319.9 429,320.2 						"/>
						<polygon class="st22" points="440.9,335 447.8,335 447.8,319.9 435.7,319.9 						"/>
						<path class="st22" d="M429,317.2c0-0.4,0.4-0.8,0.8-0.8H447c0.4,0,0.8,0.4,0.8,0.8v2.2c0,0.4-0.4,0.8-0.8,0.8l-17.2-0.1
							c-0.4,0-0.8-0.4-0.8-0.8V317.2z"/>
						<path class="st21" d="M429,320.2v-2.1c0-0.4,0.4-0.8,0.8-0.8h5.3c0.4,0,0.8,0.4,0.8,0.8v3.7L429,320.2z"/>
						<polygon class="st23" points="447.8,323.1 447.8,335 440.9,335 436.8,323.1 						"/>
						<path class="st18" d="M442.8,323.5c0,0.4,0.4,0.8,0.8,0.8h2.3c0.4,0,0.8-0.4,0.8-0.8v-4.7c0-0.4-0.4-0.8-0.8-0.8h-2.3
							c-0.4,0-0.8,0.4-0.8,0.8V323.5z"/>
						<rect x="435.5" y="313.3" class="st24" width="8.2" height="3.1"/>
						<rect x="440.1" y="313.3" class="st25" width="3.7" height="3.1"/>
						<rect x="435.5" y="315.8" class="st26" width="8.2" height="0.6"/>
					</g>
					<g>
						<path class="st27" d="M352.1,341.4h-2.8v-4.3c0-0.8,0.6-1.4,1.4-1.4h2.4v2.8h-0.9V341.4z"/>
					</g>
					<g>
						<path class="st28" d="M350.5,339.6h-2.7V336c0-1.2,0.9-2.1,2.1-2.1h7v2.7h-6.4V339.6z"/>
					</g>
					<rect x="362" y="316.1" class="st29" width="38.9" height="17.9"/>
					<path class="st30" d="M390.7,330.1c0,2.2,1.8,3.9,3.9,3.9h36c2.2,0,3.9-1.8,3.9-3.9v-10c0-2.2-1.8-3.9-3.9-3.9h-36
						c-2.2,0-3.9,1.8-3.9,3.9V330.1z"/>
					<path class="st29" d="M402.9,326.9c0,0.8,0.7,1.5,1.5,1.5h20.3c0.8,0,1.5-0.7,1.5-1.5v-9.2c0-0.8-0.7-1.5-1.5-1.5h-20.3
						c-0.8,0-1.5,0.7-1.5,1.5V326.9z"/>
					<g class="st31">
						<path class="st28" d="M363.1,319.6c-0.6,0-1.1-0.5-1.1-1.1v-2.3c0-0.6,0.5-1.1,1.1-1.1l25.1-1.2c0.6,0,1.6-0.1,2.2-0.1h20.4
							c0.6,0,1.6,0,2.2,0h20.9c0.6,0,1.1,0.5,1.1,1.1v6.8c0,0.6-0.5,1.1-1.1,1.1h-42.1c-0.6,0-1.1-0.5-1.1-1.1v-1
							c0-0.6-0.5-1.1-1.1-1.1H363.1z"/>
					</g>
					<path class="st28" d="M361.8,316.9c-0.6,0-0.9-0.4-0.6-1l1.3-2.3c0.3-0.5,1-1,1.6-1h25.1c0.6,0,1.6,0,2.2,0h20.4
						c0.6,0,1.6,0,2.2,0h21.3c0.6,0,1.3,0.5,1.5,1l2.2,5.9c0.2,0.6-0.1,1-0.7,1h-43.9c-0.6,0-1.3-0.5-1.5-1l-0.6-1.7
						c-0.2-0.6-0.9-1-1.5-1H361.8z"/>
					<g class="st32">
						<path class="st33" d="M361.8,316.9c-0.6,0-0.9-0.4-0.6-1l1.3-2.3c0.3-0.5,1-1,1.6-1h25.1c0.6,0,1.5,0,2,0s1.4,0,2,0h1.5
							c0.6,0,1.3,0.5,1.5,1l2.2,5.9c0.2,0.6-0.1,1-0.7,1h-3.4c-0.6,0-1.3-0.5-1.5-1l-0.6-1.7c-0.2-0.6-0.9-1-1.5-1H361.8z"/>
					</g>
					<g>
						<path class="st4" d="M379.9,325.1c-0.3,0-0.6-0.2-0.7-0.5c-0.4-1.9-2.2-5.6-3.5-6.1c-0.2-0.1-0.4,0-0.6,0.1
							c-0.6,0.5-0.9,1-1.2,1.5c-0.6,1.1-1.2,1.8-3.3,1.4c-0.4-0.1-0.6-0.4-0.5-0.8c0.1-0.4,0.4-0.6,0.8-0.5c1.3,0.3,1.5,0.1,1.9-0.7
							c0.3-0.5,0.7-1.2,1.5-1.8c0.6-0.4,1.2-0.6,1.8-0.3c2.3,0.8,4.1,5.8,4.4,7.1c0.1,0.4-0.1,0.7-0.5,0.8
							C380,325.1,380,325.1,379.9,325.1z"/>
					</g>
					<g>
						<path class="st4" d="M374.6,325.1c-0.3,0-0.6-0.2-0.7-0.5c-0.4-1.9-2.2-5.6-3.5-6.1c-0.2-0.1-0.4,0-0.6,0.1
							c-0.6,0.5-0.9,1-1.2,1.5c-0.6,1.1-1.2,1.8-3.3,1.4c-0.4-0.1-0.6-0.4-0.5-0.8c0.1-0.4,0.4-0.6,0.8-0.5c1.3,0.3,1.5,0.1,1.9-0.7
							c0.3-0.5,0.7-1.2,1.5-1.8c0.6-0.4,1.2-0.6,1.8-0.3c2.3,0.8,4.1,5.8,4.4,7.1c0.1,0.4-0.1,0.7-0.5,0.8
							C374.7,325.1,374.6,325.1,374.6,325.1z"/>
					</g>
					<polygon class="st28" points="387.2,320.7 388.2,325.4 378.1,326.4 377.3,322.1 					"/>
					<path class="st8" d="M387.3,321.3c-0.6,0.9-2.5,2.5-5,2.8l-0.4,1.4l-3.9,0.3l-0.7-3.7l3.5-0.5l6.5-0.4L387.3,321.3z"/>
					<rect x="411.8" y="326.1" class="st28" width="15.1" height="6.5"/>
					<path class="st30" d="M438.4,358c0,4,0,9.6,0,9.6c0,2.2-1.8,3.9-3.9,3.9h-7.2c-2.2,0-5.3-1.1-7-2.4l-6.1-4.7
						c-1.7-1.3-2-3.7-0.6-5.4l2.6-3c1.4-1.6,4.3-2.9,6.4-2.7l10.6,0.7c2.2,0.1,4.5,1.9,5.2,3.9L438.4,358z"/>
					<path class="st34" d="M370.8,366.2c-4.3,0-7.8,3.5-7.8,7.8c0,4.3,3.5,7.8,7.8,7.8h39.9v-14.6L370.8,366.2z"/>
					<rect x="384.1" y="335" class="st1" width="10.2" height="11.9"/>
					<g>
						
							<ellipse transform="matrix(0.9732 -0.2298 0.2298 0.9732 -71.1663 101.87)" class="st4" cx="401.9" cy="356.5" rx="16.2" ry="16.2"/>
						<path class="st34" d="M406.9,358.9c0-0.4-0.4-0.8-0.8-0.8h-36.7c-0.4,0-1-0.3-1.2-0.7l-1.8-2.9c-0.2-0.4-0.4-1-0.4-1.5v-0.6
							c0-0.4,0.3-0.9,0.7-1.1l3.6-1.9c0.4-0.2,0.7,0,0.7,0.4v2c0,0.4-0.4,0.8-0.8,0.8h-17.9c-0.4,0-0.8,0.4-0.8,0.8v15.9
							c0,0.4,0.3,0.9,0.8,1l3.2,0.8c0.4,0.1,0.8,0.5,0.8,1v0.1c0,0.4-0.1,0.8-0.3,0.8c-0.1,0-0.2,0.4-0.2,0.8l0.1,0.9
							c0,0.4,0.4,0.8,0.8,0.8h49.3c0.4,0,0.8-0.4,0.8-0.8V358.9z"/>
						<g>
							<g class="st32">
								<path class="st35" d="M380.4,368.3c0.4,0,0.7-0.4,0.7-0.8v-4.3c0-0.4-0.3-0.8-0.7-0.8c-0.4,0-0.7,0.4-0.7,0.8v4.3
									C379.7,367.9,380.1,368.3,380.4,368.3z"/>
							</g>
							<g class="st32">
								<path class="st35" d="M375.3,368.3c0.4,0,0.7-0.4,0.7-0.8v-4.3c0-0.4-0.3-0.8-0.7-0.8c-0.4,0-0.7,0.4-0.7,0.8v4.3
									C374.6,367.9,374.9,368.3,375.3,368.3z"/>
							</g>
							<g class="st32">
								<path class="st35" d="M370.2,368.3c0.4,0,0.7-0.4,0.7-0.8v-4.3c0-0.4-0.3-0.8-0.7-0.8c-0.4,0-0.7,0.4-0.7,0.8v4.3
									C369.5,367.9,369.8,368.3,370.2,368.3z"/>
							</g>
							<g class="st32">
								<path class="st35" d="M365.1,368.3c0.4,0,0.7-0.4,0.7-0.8v-4.3c0-0.4-0.3-0.8-0.7-0.8c-0.4,0-0.7,0.4-0.7,0.8v4.3
									C364.4,367.9,364.7,368.3,365.1,368.3z"/>
							</g>
							<g class="st32">
								<path class="st35" d="M360,368.3c0.4,0,0.7-0.4,0.7-0.8v-4.3c0-0.4-0.3-0.8-0.7-0.8c-0.4,0-0.7,0.4-0.7,0.8v4.3
									C359.3,367.9,359.6,368.3,360,368.3z"/>
							</g>
							<g class="st32">
								<path class="st35" d="M354.8,368.3c0.4,0,0.7-0.4,0.7-0.8v-4.3c0-0.4-0.3-0.8-0.7-0.8c-0.4,0-0.7,0.4-0.7,0.8v4.3
									C354.1,367.9,354.5,368.3,354.8,368.3z"/>
							</g>
						</g>
						<rect x="351.7" y="356" class="st36" width="34.7" height="4.9"/>
						<path class="st29" d="M399.2,369.7v3.1h-43.3c0.3-0.1,0.5-0.4,0.5-0.7v-0.1c0-0.4-0.3-0.9-0.8-1l-3.2-0.8
							c-0.3-0.1-0.5-0.3-0.7-0.6H399.2z"/>
						<path class="st35" d="M349,357.7c0,0.4,0.4,0.8,0.8,0.8h40.1c0.4,0,0.8-0.4,0.8-0.8v-10.7c0-0.4-0.4-0.8-0.8-0.8h-33.1
							c-0.4,0-0.9,0.3-1.1,0.7l-0.9,2c-0.2,0.4-0.7,0.7-1.1,0.7h-1.6c-0.4,0-0.9,0.3-1.1,0.7l-1.8,4.2c-0.2,0.4-0.3,1.1-0.3,1.5
							L349,357.7z"/>
						<path class="st1" d="M389.9,346.3c0.4,0,0.8,0.4,0.8,0.8v7.5c0,0.4-0.4,0.8-0.8,0.8h-40.3c-0.4,0-0.6-0.3-0.5-0.7l1.8-4.2
							c0.2-0.4,0.7-0.7,1.1-0.7h1.6c0.4,0,0.9-0.3,1.1-0.7l0.9-2c0.2-0.4,0.7-0.7,1.1-0.7H389.9z"/>
						<polygon class="st37" points="380.7,346.3 380.7,349.2 354.7,349.2 356.1,346.3 						"/>
						<path class="st38" d="M377.4,334.8c-0.2,0.8,0.4,1.5,1.3,1.5h27.9c0.9,0,1.6-0.7,1.6-1.6v-8.9c0-0.9-0.7-1.6-1.6-1.6h-25.8
							c-0.9,0-1.7,0.7-1.8,1.5L377.4,334.8z"/>
						<path class="st35" d="M360.2,336.2c0,4,0.8,6.8,3.9,9.6l0.1,0.1c-1.3,1.6-5.8,2.8-8.8,0.3c-2.6-2.1-3.9-6.7-3.9-10H360.2z"/>
						<path class="st35" d="M366.6,336.2c0,4,0.8,6.8,3.9,9.6l0.1,0.1c-1.3,1.6-5.8,2.8-8.8,0.3c-2.6-2.1-3.9-6.7-3.9-10H366.6z"/>
						<path class="st35" d="M372.9,336.2c0,4,0.8,6.8,3.9,9.6l0.1,0.1c-1.3,1.6-5.8,2.8-8.8,0.3c-2.6-2.1-3.9-6.7-3.9-10H372.9z"/>
						<path class="st35" d="M379.3,336.2c0,4,0.8,6.8,3.9,9.6l0.1,0.1c-1.3,1.6-5.8,2.8-8.8,0.3c-2.6-2.1-3.9-6.7-3.9-10H379.3z"/>
						<path class="st39" d="M380.8,346.2c-2.6-2.1-3.9-6.7-3.9-10h-1.4c0,3.3,1.3,7.9,3.9,10c1.4,1.2,3.2,1.5,4.9,1.4
							C383.1,347.5,381.9,347.1,380.8,346.2z"/>
						<path class="st39" d="M374,346.2c-2.6-2.1-3.9-6.7-3.9-10h-1.4c0,3.3,1.3,7.9,3.9,10c1.4,1.2,3.2,1.5,4.9,1.4
							C376.3,347.5,375,347.1,374,346.2z"/>
						<path class="st39" d="M367.2,346.2c-2.6-2.1-3.9-6.7-3.9-10h-1.4c0,3.3,1.3,7.9,3.9,10c1.4,1.2,3.2,1.5,4.9,1.4
							C369.5,347.5,368.2,347.1,367.2,346.2z"/>
						<path class="st39" d="M361.1,346.2c-2.6-2.1-3.9-6.7-3.9-10h-1.4c0,3.3,1.3,7.9,3.9,10c1.4,1.2,3.2,1.5,4.9,1.4
							C363.3,347.5,362.1,347.1,361.1,346.2z"/>
						<path class="st35" d="M385.6,336.2c0,4,0.8,6.8,3.9,9.6l0.1,0.1c-1.3,1.6-5.8,2.8-8.8,0.3c-2.6-2.1-3.9-6.7-3.9-10H385.6z"/>
						<path class="st39" d="M387,346.2c-2.6-2.1-3.9-6.7-3.9-10h-1.4c0,3.3,1.3,7.9,3.9,10c1.4,1.2,3.2,1.5,4.9,1.4
							C389.3,347.5,388.1,347.1,387,346.2z"/>
						<path class="st40" d="M400.9,336.2c0,3.3,1.9,6.4,3.9,9.6l0.1,0.1c-1.3,1.6-6.7,3.6-8.8,0.3c-2-3.3-3.9-6.7-3.9-10H400.9z"/>
						<polygon class="st29" points="409.5,368.9 427.9,368.9 430.7,361.1 438.3,361.1 438.3,352.2 407.3,352.2 						"/>
						<path class="st30" d="M410,358.3c-0.1-0.4-0.5-0.8-0.9-0.8h-8.8c-0.4,0-1.1-0.2-1.4-0.5l-1.4-1.1c-0.3-0.3-0.6-0.9-0.6-1.3
							l0.1-2.2c0-0.4,0.4-0.9,0.7-1.1l3.6-1.9c0.4-0.2,0.9-0.6,1.2-0.9l2.4-2.4c0.3-0.3,0.2-0.6-0.2-0.6h-17.9
							c-0.4,0-0.8,0.4-0.8,0.8v23c0,0.4,0.3,0.9,0.8,1l3.2,0.8c0.4,0.1,0.8,0.5,0.8,1v0.1c0,0.4-0.4,0.8-0.8,0.8h-1.7
							c-0.4,0-0.8,0.4-0.8,0.8v0.9c0,0.4,0.4,0.8,0.8,0.8h22.9c0.4,0,0.7-0.4,0.7-0.8L410,358.3z"/>
						<polygon class="st38" points="408.8,359.5 440.1,359.6 440.1,342 408.8,342 						"/>
						<rect x="419.9" y="342" class="st41" width="9.7" height="17.6"/>
						<path class="st42" d="M399.2,331.5h5.7l0,0.1c5.1,0.6,9.1,4.9,9.1,10.2c0,5.6-1.5,10.2-7.1,10.3l0.6,0h-8.3
							c-5.7,0-6-4.6-6-10.3C393.2,336.1,393.5,331.5,399.2,331.5z"/>
						<rect x="407.6" y="334.9" class="st43" width="32.5" height="17.6"/>
						<g>
							<path class="st44" d="M440.7,356.7h-15.9v-6.3h15.9c1.7,0,3.1-1.4,3.1-3.1v-17.6h6.3v17.6
								C450.1,352.5,445.9,356.7,440.7,356.7z"/>
						</g>
						
							<ellipse transform="matrix(0.8051 -0.5932 0.5932 0.8051 -127.4262 315.8169)" class="st45" cx="416.8" cy="351.8" rx="10.4" ry="10.4"/>
						<path class="st35" d="M436.5,350.9c2.1,0,3.9-1.7,3.9-3.9c0-2.1-1.7-3.9-3.9-3.9h-15v7.6L436.5,350.9z"/>
						<g>
							<path class="st38" d="M436.2,357.5h-1.1v-2.3c0-0.1-0.1-0.2-0.2-0.2h-5.6c-0.1,0-0.2,0.1-0.2,0.2v1.5h-1.1v-1.5
								c0-0.7,0.6-1.3,1.3-1.3h5.6c0.7,0,1.3,0.6,1.3,1.3V357.5z"/>
						</g>
						<path class="st46" d="M404.6,366.4c0,0.4-0.4,0.8-0.8,0.8h-5.6c-0.4,0-0.6-0.3-0.4-0.7l2.1-4.2c0.2-0.4,0.7-0.7,1.1-0.7h2.7
							c0.4,0,0.8,0.4,0.8,0.8V366.4z"/>
						<path class="st42" d="M424.8,329.1h5.7l0,0.1c5.1,0.6,9.1,4.9,9.1,10.2c0,5.6-4.5,10.2-10.1,10.3l0,0h-4.7
							c-5.7,0-6-4.6-6-10.3C418.8,333.7,419.1,329.1,424.8,329.1z"/>
						<g>
							
								<ellipse transform="matrix(0.8507 -0.5257 0.5257 0.8507 -122.4379 272.5724)" class="st4" cx="418.5" cy="351.8" rx="10.4" ry="10.4"/>
							<polygon class="st29" points="417.8,361.5 413.1,361.5 410,351.3 415.6,351.3 419.3,342.6 421.7,343.9 418.2,352.7 							
								"/>
							<polygon class="st35" points="420.1,361.5 412.4,361.5 408.8,352.4 417.4,352.3 421.5,342.6 424,343.9 420.4,352.7 							
								"/>
							<path class="st47" d="M418.4,344c4.3,0,7.8,3.5,7.8,7.8c0,4.3-3.5,7.8-7.8,7.8c-4.3,0-7.8-3.5-7.8-7.8
								C410.7,347.5,414.2,344,418.4,344L418.4,344z M418.4,341.3c-5.8,0-10.4,4.7-10.4,10.4s4.7,10.4,10.4,10.4
								c5.8,0,10.4-4.7,10.4-10.4C428.9,346,424.2,341.3,418.4,341.3L418.4,341.3z"/>
						</g>
						<g class="st32">
							<g>
								<path class="st48" d="M448,347.3c-0.6,0-1-0.5-1-1v-1.4c0-0.6,0.5-1,1-1c0.6,0,1,0.5,1,1v1.4
									C449.1,346.8,448.6,347.3,448,347.3z"/>
							</g>
						</g>
						<g class="st32">
							<g>
								<path class="st48" d="M448,342.9c-0.6,0-1-0.5-1-1v-12.1c0-0.6,0.5-1,1-1c0.6,0,1,0.5,1,1v12.1
									C449.1,342.4,448.6,342.9,448,342.9z"/>
							</g>
						</g>
						<path class="st49" d="M429.9,349.8c-6.4-0.5-12.7-3.2-13.4-9.3c0.1,0,0.2,0,0.2,0C423.3,340.5,428.7,344.5,429.9,349.8z"/>
						<g class="st32">
							<path class="st50" d="M414.2,375.4h-14.6c-0.6-1.5-0.9-3.2-0.9-5c0-7.6,6-13.8,13.6-14L414.2,375.4z"/>
						</g>
						
							<ellipse transform="matrix(0.9868 -0.162 0.162 0.9868 -48.6427 73.8494)" class="st35" cx="428.5" cy="335.2" rx="10.7" ry="10.7"/>
						<path class="st51" d="M441.8,329.9c0,0.4,0.4,0.8,0.8,0.8h8.5c0.4,0,0.8-0.4,0.8-0.8v-4.1c0-0.4-0.4-0.8-0.8-0.8h-8.5
							c-0.4,0-0.8,0.4-0.8,0.8V329.9z"/>
						<path class="st38" d="M409.6,325.3h-4.1c-6.6,0-11.5,4.4-11.5,11h-12.1l6.6-12c0,0,18.1,0,20,0
							C409.9,324.3,409.6,325.3,409.6,325.3z"/>
						<path class="st52" d="M441.8,328.1v-2.3c0-0.4,0.4-0.8,0.8-0.8h8.5c0.4,0,0.8,0.4,0.8,0.8v2.3H441.8z"/>
						<rect x="441.8" y="328" class="st43" width="10.2" height="0.9"/>
						<polygon class="st29" points="398.7,329.5 396.1,328.4 382.3,339.4 393.2,342.4 						"/>
						<rect x="443.8" y="330.7" class="st43" width="6.2" height="2.3"/>
						<g>
							<path class="st1" d="M431.2,345.2c-2.7,0-5.2-1-7.1-2.9c-1.9-1.9-2.9-4.4-2.9-7.1c0-2.7,1-5.2,2.9-7.1
								c1.9-1.9,4.4-2.9,7.1-2.9c2.7,0,5.2,1,7.1,2.9c1.9,1.9,2.9,4.4,2.9,7.1C441.2,340.7,436.7,345.2,431.2,345.2L431.2,345.2z"/>
							<g>
								<path class="st38" d="M431.2,325.9c5.1,0,9.2,4.1,9.2,9.2c0,2.5-1,4.8-2.7,6.5s-4.1,2.7-6.5,2.7c-5.1,0-9.2-4.1-9.2-9.2
									c0-2.5,1-4.8,2.7-6.5C426.4,326.9,428.7,325.9,431.2,325.9L431.2,325.9z M431.2,324.4C431.2,324.4,431.2,324.4,431.2,324.4
									c-5.9,0-10.7,4.8-10.7,10.7c0,5.9,4.8,10.7,10.7,10.7c0,0,0,0,0,0c5.9,0,10.7-4.8,10.7-10.7
									C442,329.2,437.1,324.4,431.2,324.4L431.2,324.4z"/>
							</g>
						</g>
						<circle class="st53" cx="430.9" cy="336" r="7.1"/>
						<circle class="st27" cx="432.3" cy="335.2" r="6.1"/>
						<path class="st4" d="M438.3,335.2c0-3.6-2.9-6.5-6.5-6.5c-3.6,0-6.5,2.9-6.5,6.5c0,3.6,2.9,6.5,6.5,6.5
							C435.3,341.7,438.3,338.8,438.3,335.2z"/>
						<circle class="st54" cx="432.3" cy="335.2" r="4.2"/>
						<path class="st35" d="M404.1,349.3c-6.6,0-12-5.4-12-12c0-6.6,5.4-12,12-12h5.4l0.1,24H404.1z"/>
						<path class="st55" d="M403.3,349.3c-8.8-0.8-10.7-7.5-11.2-11.4l5.7-0.8l0,0.7h12.8l-0.5,11.6H403.3z"/>
						<circle class="st38" cx="409.5" cy="337.3" r="12"/>
						<g>
							<polygon class="st27" points="409.5,337.3 416.8,328.6 413.3,326.6 409.5,337.3 							"/>
							<polygon class="st27" points="409.5,337.3 420.6,339.3 420.6,335.3 409.5,337.3 							"/>
							<polygon class="st27" points="409.4,337.3 413.3,348 416.8,346 409.4,337.3 							"/>
							<polygon class="st27" points="409.4,337.3 402.1,346 405.6,348 409.4,337.3 							"/>
							<polygon class="st27" points="409.5,337.3 398.3,335.3 398.3,339.3 409.5,337.3 							"/>
							<polygon class="st27" points="409.5,337.3 405.6,326.6 402.1,328.6 409.5,337.3 							"/>
							<g>
								<path class="st56" d="M409.5,327.3c5.5,0,10,4.5,10,10s-4.5,10-10,10s-10-4.5-10-10S404,327.3,409.5,327.3L409.5,327.3z
									 M409.5,325.3c-6.6,0-12,5.4-12,12c0,6.6,5.4,12,12,12c6.6,0,12-5.4,12-12C421.4,330.7,416.1,325.3,409.5,325.3L409.5,325.3
									z"/>
							</g>
						</g>
						
							<ellipse transform="matrix(0.7071 -0.7071 0.7071 0.7071 -140.1231 401.6532)" class="st4" cx="414.8" cy="370" rx="14" ry="14"/>
						<path class="st46" d="M390.2,366.4c0,0.4,0.4,0.8,0.8,0.8h2.2c0.4,0,0.9-0.3,1.1-0.7l2.9-5.6c0.2-0.4,0.1-0.9-0.2-1.2
							l-1.5-1.4c-0.3-0.3-0.8-0.3-1.2,0l-3.5,3.3c-0.3,0.3-0.6,0.9-0.6,1.3V366.4z"/>
						<circle class="st35" cx="409.5" cy="337.3" r="7.2"/>
						<path class="st55" d="M373,336.2c0,3.3,1.3,7.9,3.9,10c0.8,0.6,1.7,1,2.6,1.2c-1.8,0.4-3,0.2-4.8-1.2c-2.6-2.1-3.9-6.7-3.9-10
							H373z"/>
						<path class="st55" d="M380.6,336.2c0,3.3,1.3,7.9,3.9,10c0.8,0.6,1.7,1,2.6,1.2c-1.8,0.4-4.1,0.2-5.8-1.2
							c-2.6-2.1-3.9-6.7-3.9-10H380.6z"/>
						
							<ellipse transform="matrix(0.2298 -0.9732 0.9732 0.2298 -13.8277 658.6284)" class="st57" cx="409.2" cy="338.1" rx="3.7" ry="3.7"/>
						<g class="st32">
							<path class="st50" d="M397.2,352.2c0,6.1-4.9,11-10.9,11.1v-19h7.7C395.9,346.4,397.2,349.1,397.2,352.2z"/>
						</g>
						<path class="st4" d="M438.4,350.1c-1.7,0-3-1.3-3-3c0-1.7,1.3-3,3-3h2.8L438.4,350.1L438.4,350.1z"/>
						<path class="st4" d="M409.8,340.8c-1.8,0-3.2-1.5-3.2-3.2c0-1.8,1.5-3.2,3.2-3.2h1.8v6.5H409.8z"/>
						<g>
							<g>
								
									<rect x="420.5" y="361.1" transform="matrix(0.3374 -0.9414 0.9414 0.3374 -53.0819 648.8866)" class="st58" width="27.8" height="2"/>
							</g>
							<g>
								
									<rect x="384.9" y="335.9" transform="matrix(0.9815 -0.1915 0.1915 0.9815 -57.1589 82.4112)" class="st58" width="25.6" height="2"/>
							</g>
							<g>
								<path class="st58" d="M412.9,337.1c-0.1-1-0.9-1.7-1.9-1.7c-0.2,0-0.4,0-0.5,0.1l-0.6-1.9c0.4-0.1,0.7-0.2,1.1-0.2
									c2,0,3.7,1.5,3.9,3.5L412.9,337.1z"/>
							</g>
							<g>
								<path class="st58" d="M406.6,381.2l-25.3-21.1c-3.4-2.8-5.1-6.1-5.1-10.1c0-5.6,3.8-10.5,9.3-11.8l0.5,2
									c-4.6,1.1-7.8,5.2-7.8,9.9c0,3.5,1.4,6.2,4.4,8.6l25.3,21.1L406.6,381.2z"/>
							</g>
							<g>
								
									<rect x="414.1" y="336.7" transform="matrix(0.9879 -0.1549 0.1549 0.9879 -48.3847 68.4739)" class="st58" width="2" height="16.1"/>
							</g>
							<g>
								
									<rect x="432.8" y="337.4" transform="matrix(0.6974 -0.7167 0.7167 0.6974 -115.8486 414.7327)" class="st45" width="0.8" height="14.2"/>
							</g>
							<g>
								
									<rect x="440.5" y="332.1" transform="matrix(0.9136 -0.4065 0.4065 0.9136 -99.8355 208.5127)" class="st45" width="0.8" height="14.3"/>
							</g>
							<g>
								
									<rect x="418.9" y="348.4" transform="matrix(0.899 -0.438 0.438 0.899 -109.5734 223.7327)" class="st58" width="22.8" height="2"/>
							</g>
							<g>
								<path class="st45" d="M427.9,340c-1.3-1.2-2.1-3-2.1-4.8c0-3.6,2.9-6.5,6.5-6.5c2.8,0,5.3,1.8,6.2,4.5l-0.7,0.2
									c-0.8-2.4-3-3.9-5.5-3.9c-3.2,0-5.7,2.6-5.7,5.7c0,1.6,0.7,3.1,1.9,4.2L427.9,340z"/>
							</g>
							<g>
								<path class="st58" d="M416.7,385c-3.7,0-7.3-1.4-10.1-3.9l1.4-1.5c2.4,2.2,5.5,3.4,8.7,3.4c5.4,0,10.1-3.2,12.1-8.2l1.9,0.7
									C428.4,381.3,422.9,385,416.7,385z"/>
							</g>
						</g>
						<path class="st59" d="M421.3,352.7c0-1.9-1.6-3.5-3.5-3.5c-1.9,0-3.5,1.6-3.5,3.5c0,1.9,1.6,3.5,3.5,3.5
							C419.7,356.2,421.3,354.7,421.3,352.7z"/>
						
							<ellipse transform="matrix(0.7071 -0.7071 0.7071 0.7071 -116.2828 413.433)" class="st60" cx="440.9" cy="347.1" rx="3.9" ry="3.9"/>
						
							<ellipse transform="matrix(0.9871 -0.1602 0.1602 0.9871 -49.8935 75.2256)" class="st61" cx="441.6" cy="347.1" rx="3.9" ry="3.9"/>
						
							<ellipse transform="matrix(0.9732 -0.2298 0.2298 0.9732 -73.8555 105.6281)" class="st38" cx="416.7" cy="370" rx="14" ry="14"/>
						<g class="st12">
							<path class="st62" d="M430.7,370c0,0.2,0,0.5,0,0.7l-16.1,0.4l2.4-15.1C424.6,356.1,430.7,362.3,430.7,370z"/>
							<polygon class="st62" points="414.6,371.1 414.5,371.8 408.2,373.4 410.6,371.2 							"/>
						</g>
						
							<ellipse transform="matrix(0.7071 -0.7071 0.7071 0.7071 -139.5691 402.9908)" class="st28" cx="416.7" cy="370" rx="11.1" ry="11.1"/>
						<path class="st63" d="M415.6,371.3v0.8l-1.4,8.7c-4.9-1.1-8.6-5.5-8.6-10.7c0-0.2,0-0.5,0-0.7l8.9-0.2L415.6,371.3z"/>
						<path class="st36" d="M418.7,370.6c0-1.4-1.2-2.6-2.6-2.6c-1.4,0-2.6,1.2-2.6,2.6c0,1.4,1.2,2.6,2.6,2.6
							C417.6,373.2,418.7,372,418.7,370.6z"/>
						<path class="st4" d="M419.2,370c0-1.4-1.2-2.6-2.6-2.6c-1.4,0-2.6,1.2-2.6,2.6c0,1.4,1.2,2.6,2.6,2.6
							C418,372.5,419.2,371.4,419.2,370z"/>
						<path class="st64" d="M419.9,370c0-1.4-1.2-2.6-2.6-2.6c-1.4,0-2.6,1.2-2.6,2.6c0,1.4,1.2,2.6,2.6,2.6
							C418.7,372.5,419.9,371.4,419.9,370z"/>
						<path class="st65" d="M413.7,337.5c0,1.5-1.2,2.7-2.7,2.7c-1.5,0-2.7-1.2-2.7-2.7c0-1.5,1.2-2.7,2.7-2.7
							C412.4,334.7,413.7,336,413.7,337.5z"/>
						<path class="st4" d="M418.8,355.3c-1.9,0-3.5-1.6-3.5-3.5c0-1.9,1.6-3.5,3.5-3.5h0.9v7.1L418.8,355.3z"/>
						<circle class="st38" cx="420" cy="351.8" r="3.5"/>
						<path class="st35" d="M422.5,351.8c0-1.4-1.2-2.6-2.6-2.6c-1.4,0-2.6,1.2-2.6,2.6s1.2,2.6,2.6,2.6
							C421.4,354.4,422.5,353.2,422.5,351.8z"/>
						<path class="st18" d="M418.3,370c0-0.6-0.5-1-1-1c-0.6,0-1,0.5-1,1c0,0.6,0.5,1,1,1C417.9,371,418.3,370.5,418.3,370z"/>
						<path class="st66" d="M427.2,370.8c0-6.1-5-11.1-11.1-11.1c-3.3,0-6.3,1.5-8.4,3.8c2-2.8,5.3-4.6,9-4.6
							c6.1,0,11.1,5,11.1,11.1c0,2.8-1,5.4-2.8,7.3C426.4,375.5,427.2,373.2,427.2,370.8z"/>
						<path class="st67" d="M353.6,352.3c-0.4,1.1,0.2,2,1.3,2c1.1,0,2.3-0.9,2.7-2c0.4-1.1-0.2-2-1.3-2S354,351.2,353.6,352.3z"/>
						<path class="st67" d="M359.3,352.3c-0.4,1.1,0.2,2,1.3,2c1.1,0,2.3-0.9,2.7-2c0.4-1.1-0.2-2-1.3-2
							C360.9,350.4,359.7,351.2,359.3,352.3z"/>
						<path class="st67" d="M365.1,352.3c-0.4,1.1,0.2,2,1.3,2c1.1,0,2.3-0.9,2.7-2c0.4-1.1-0.2-2-1.3-2
							C366.6,350.4,365.4,351.2,365.1,352.3z"/>
						<path class="st67" d="M370.8,352.3c-0.4,1.1,0.2,2,1.3,2c1.1,0,2.3-0.9,2.7-2c0.4-1.1-0.2-2-1.3-2
							C372.3,350.4,371.1,351.2,370.8,352.3z"/>
					</g>
					<path class="st35" d="M349.1,334.8c-0.2,0.8,0.4,1.5,1.3,1.5h31c0.9,0,1.6-0.7,1.6-1.6v-8.9c0-0.9-0.7-1.6-1.6-1.6h-28.9
						c-0.9,0-1.7,0.7-1.8,1.5L349.1,334.8z"/>
					<path class="st55" d="M354.8,336.4c0,3.3,1.3,7.8,3.9,9.9c0.8,0.6,1.7,1,2.6,1.2c-1.8,0.4-3,0.2-4.8-1.2
						c-2.6-2.1-3.9-6.6-3.9-9.9H354.8z"/>
					<path class="st55" d="M360.9,336.4c0,3.3,1.3,7.8,3.9,9.9c0.8,0.6,1.7,1,2.6,1.2c-1.8,0.4-3,0.2-4.8-1.2
						c-2.6-2.1-3.9-6.6-3.9-9.9H360.9z"/>
					<path class="st55" d="M367.2,336.4c0,3.3,1.3,7.8,3.9,9.9c0.8,0.6,1.7,1,2.6,1.2c-1.8,0.4-3,0.2-4.8-1.2
						c-2.6-2.1-3.9-6.6-3.9-9.9H367.2z"/>
					<path class="st68" d="M377.9,339.9c0,0,0.5-1.7,2.7-2.5c1.8-0.6,4.2-1,4.2-1h-7.4c0,0,0.1,1.1,0.1,1.7
						C377.6,338.7,377.9,339.9,377.9,339.9z"/>
					<path class="st68" d="M371.3,339.9c0,0,0.5-1.7,2.7-2.5c1.8-0.6,4.2-1,4.2-1h-7.4c0,0,0.1,1.1,0.1,1.7
						C371.1,338.7,371.3,339.9,371.3,339.9z"/>
					<path class="st68" d="M364.4,339.9c0,0,0.5-1.7,2.7-2.5c1.8-0.6,4.2-1,4.2-1H364c0,0,0.1,1.1,0.1,1.7
						C364.2,338.7,364.4,339.9,364.4,339.9z"/>
					<path class="st68" d="M358.1,339.9c0,0,0.5-1.7,2.7-2.5c1.8-0.6,4.2-1,4.2-1h-7.4c0,0,0.1,1.1,0.1,1.7
						C357.9,338.7,358.1,339.9,358.1,339.9z"/>
					<path class="st68" d="M352,339.9c0,0,0.5-1.7,2.7-2.5c1.8-0.6,4.2-1,4.2-1h-7.4c0,0,0.1,1.1,0.1,1.7
						C351.8,338.7,352,339.9,352,339.9z"/>
					<path class="st69" d="M366.6,344.8c0.2,0.6-1.9,1.5-2.8,0.4c-0.6-0.8-1.5,1.1-0.8,1.4c0.7,0.3,2.4,1.4,5.8,0.2L366.6,344.8z"/>
					<path class="st69" d="M360.3,344.8c0.2,0.6-1.9,1.5-2.8,0.4c-0.6-0.8-1.5,1.1-0.8,1.4c0.7,0.3,2.5,1.5,5.8,0.2L360.3,344.8z"/>
					<path class="st69" d="M373.2,344.5c0.3,0.7-2.3,1.7-3.3,0.4c-0.7-0.8-1.4,1.1-0.6,1.5c0.7,0.4,2.6,1.5,6.4,0.3L373.2,344.5z"/>
					<circle class="st70" cx="383.7" cy="353.1" r="10.5"/>
					<g>
						<path class="st71" d="M372.3,348.1c-1,0-2.1-0.2-3.1-0.7c-1.6,0.7-4.1,1.1-6.3,0c-2.1,0.9-5.4,1.1-7.7-0.8
							c-0.2-0.2-0.2-0.5-0.1-0.7c0.2-0.2,0.5-0.2,0.7-0.1c2.1,1.7,5,1.5,6.9,0.6c0.1-0.1,0.3-0.1,0.4,0c2,1,4.4,0.7,5.9,0
							c0.1-0.1,0.3-0.1,0.4,0c2,1,4.4,0.7,5.9,0c0.1-0.1,0.3-0.1,0.4,0c2.7,1.4,5.8,0.4,7-0.7c0-0.1,0.1-0.2,0.1-0.3
							c0.2-0.2,0.5-0.2,0.7,0l0.1,0.1c0.2,0.2,0.2,0.4,0,0.6c-1.2,1.5-5,2.7-8.1,1.2C374.7,347.8,373.5,348.1,372.3,348.1z"/>
					</g>
					<path class="st4" d="M385.6,361.1c-6.2,0-11.2-5-11.2-11.2c0-6.2,5-11.2,11.2-11.2h3.5v22.3H385.6z"/>
					<circle class="st38" cx="388.4" cy="350" r="11.2"/>
					<circle class="st28" cx="388.4" cy="350" r="8.8"/>
					<path class="st59" d="M389.8,350.3c0-1.3-1.1-2.3-2.4-2.3c-1.3,0-2.4,1-2.4,2.3c0,1.3,1.1,2.3,2.4,2.3
						C388.7,352.6,389.8,351.6,389.8,350.3z"/>
					<path class="st72" d="M388.1,352.2c-1.2,0-2.2-1-2.2-2.2c0-1.2,1-2.2,2.2-2.2l1.6,0v4.4l-1.4,0L388.1,352.2z"/>
					<path class="st73" d="M391.4,350c0-1.2-1-2.2-2.2-2.2s-2.2,1-2.2,2.2c0,1.2,1,2.2,2.2,2.2C390.5,352.2,391.4,351.2,391.4,350z"
						/>
					<path class="st63" d="M396.7,350.3c0-4.9-4-8.8-8.8-8.8c-1.7,0-3.3,0.5-4.6,1.3c1.4-1,3.2-1.6,5.1-1.6c4.9,0,8.8,4,8.8,8.8
						c0,3.2-1.7,6-4.2,7.5C395.3,355.9,396.7,353.3,396.7,350.3z"/>
					<path class="st18" d="M390.2,350c0-0.5-0.4-1-1-1c-0.5,0-1,0.4-1,1c0,0.5,0.4,1,1,1C389.8,350.9,390.2,350.5,390.2,350z"/>
					<path class="st35" d="M411.8,337.5c0,0.5-0.4,0.9-0.9,0.9s-0.9-0.4-0.9-0.9c0-0.5,0.4-0.9,0.9-0.9S411.8,337,411.8,337.5z"/>
					<path class="st18" d="M433.3,335.2c0-0.5-0.4-1-1-1c-0.5,0-1,0.4-1,1s0.4,1,1,1C432.9,336.2,433.3,335.7,433.3,335.2z"/>
					<polygon class="st29" points="350.7,336.7 392.1,336.7 392.1,336 349.4,336 					"/>
					<path class="st74" d="M376.5,322.7c0.3,0.6,1.6,1,3.6,0.9c2.9-0.1,6.2-1.2,7.3-2.4c0.4-0.4,0.5-0.8,0.3-1.1l-0.3-1.5l-11.2,2.4
						L376.5,322.7z"/>
					<path class="st24" d="M376.5,319.9c-1.1,1.2,0.4,2.1,3.3,1.9c2.9-0.1,6.2-1.2,7.3-2.4c1.1-1.2-0.4-2.1-3.3-1.9
						C380.8,317.6,377.6,318.7,376.5,319.9z"/>
					<g>
						<path class="st4" d="M369.2,325.1c-0.3,0-0.6-0.2-0.7-0.5c-0.4-1.9-2.2-5.6-3.5-6.1c-0.2-0.1-0.4,0-0.6,0.1
							c-0.6,0.5-0.9,1-1.2,1.5c-0.6,1.1-1.2,1.8-3.3,1.4c-0.4-0.1-0.6-0.4-0.5-0.8c0.1-0.4,0.4-0.6,0.8-0.5c1.3,0.3,1.5,0.1,1.9-0.7
							c0.3-0.5,0.7-1.2,1.5-1.8c0.6-0.4,1.2-0.6,1.8-0.3c2.3,0.8,4.1,5.8,4.4,7.1c0.1,0.4-0.1,0.7-0.5,0.8
							C369.3,325.1,369.2,325.1,369.2,325.1z"/>
					</g>
					<g>
						<path class="st75" d="M360,322c0.1,0,1.2,0,1.2,0l0.6,2.4h-4.4l-0.3-1.4L360,322z"/>
						<g>
							<path class="st75" d="M357.2,322.5c-0.4,0.4,0.1,0.8,1.2,0.7s2.3-0.5,2.7-0.9s-0.1-0.8-1.2-0.7
								C358.9,321.6,357.6,322,357.2,322.5z"/>
							<path class="st35" d="M357.2,321.2c-0.3,0.4,0.1,0.6,1,0.6c0.9,0,1.9-0.4,2.3-0.8c0.3-0.4-0.1-0.6-1-0.6
								C358.6,320.5,357.6,320.8,357.2,321.2z"/>
						</g>
					</g>
					<path class="st74" d="M377.4,320c0.2,0.5,1.2,0.7,2.7,0.7c2.2-0.1,4.6-0.9,5.4-1.8c0.3-0.3,0.3-0.6,0.2-0.9l-0.2-1.1l-8.4,1.8
						L377.4,320z"/>
					<path class="st24" d="M377.3,318c-0.8,0.9,0.3,1.6,2.4,1.4c2.2-0.1,4.6-0.9,5.4-1.8c0.8-0.9-0.3-1.6-2.4-1.4
						C380.6,316.2,378.1,317.1,377.3,318z"/>
					<g>
						<path class="st75" d="M371.3,322c0.1,0,1.2,0,1.2,0l0.6,2.4h-4.4l-0.3-1.4L371.3,322z"/>
						<g>
							<path class="st75" d="M368.5,322.5c-0.4,0.4,0.1,0.8,1.2,0.7c1.1-0.1,2.3-0.5,2.7-0.9s-0.1-0.8-1.2-0.7
								C370.1,321.6,368.9,322,368.5,322.5z"/>
							<path class="st35" d="M368.5,321.2c-0.3,0.4,0.1,0.6,1,0.6c0.9,0,1.9-0.4,2.3-0.8c0.3-0.4-0.1-0.6-1-0.6
								C369.9,320.5,368.9,320.8,368.5,321.2z"/>
						</g>
					</g>
					<g>
						<path class="st75" d="M365.5,322c0.1,0,1.2,0,1.2,0l0.6,2.4h-4.4l-0.3-1.4L365.5,322z"/>
						<g>
							<path class="st75" d="M362.7,322.5c-0.4,0.4,0.1,0.8,1.2,0.7c1.1-0.1,2.3-0.5,2.7-0.9s-0.1-0.8-1.2-0.7
								C364.3,321.6,363.1,322,362.7,322.5z"/>
							<path class="st35" d="M362.7,321.2c-0.3,0.4,0.1,0.6,1,0.6c0.9,0,1.9-0.4,2.3-0.8c0.3-0.4-0.1-0.6-1-0.6
								C364,320.5,363,320.8,362.7,321.2z"/>
							<path class="st35" d="M357.1,321.5l-0.2-1l3.5-0.8l0.2,0.9c0,0,0,0.1,0,0.1l0,0l0.2,0.9c0.1,0.1,0,0.2-0.1,0.4
								c-0.3,0.4-1.4,0.7-2.3,0.8c-0.6,0-1-0.1-1.1-0.3L357.1,321.5L357.1,321.5C357.1,321.5,357.1,321.5,357.1,321.5z"/>
							<path class="st35" d="M368.4,321.5l-0.2-1l3.5-0.8l0.2,0.9c0,0,0,0.1,0,0.1l0,0l0.2,0.9c0.1,0.1,0,0.2-0.1,0.4
								c-0.3,0.4-1.4,0.7-2.3,0.8c-0.6,0-1-0.1-1.1-0.3L368.4,321.5L368.4,321.5C368.4,321.5,368.4,321.5,368.4,321.5z"/>
							<path class="st35" d="M362.6,321.5l-0.2-1l3.5-0.8l0.2,0.9c0,0,0,0.1,0,0.1l0,0l0.2,0.9c0.1,0.1,0,0.2-0.1,0.4
								c-0.3,0.4-1.4,0.7-2.3,0.8c-0.6,0-1-0.1-1.1-0.3L362.6,321.5L362.6,321.5C362.6,321.5,362.6,321.5,362.6,321.5z"/>
						</g>
					</g>
					<g>
						<path class="st76" d="M368.2,346.8h-16.7c-0.9,0-1.6-0.7-1.6-1.6v-3.8h1.7v3.7h16.6V346.8z"/>
					</g>
					<g>
						<path class="st38" d="M363.1,345.2h-13.1c-0.9,0-1.6-0.7-1.6-1.6v-3.8h1.7v3.7h13V345.2z"/>
					</g>
					<g>
						<path class="st33" d="M372.5,349.2v-3c0-0.4-0.2-1.5-2.1-1.5h-2.4c-0.7,0-1.3,0.6-1.3,1.3c0,0.7,0.6,1.3,1.3,1.3h1.9v1.8
							H372.5z"/>
					</g>
					<g>
						<path class="st28" d="M367.4,349.2v-4c0-1.2-0.9-2.1-2.1-2.1h-2.4c-0.7,0-1.3,0.6-1.3,1.3s0.6,1.3,1.3,1.3h1.9v3.4H367.4z"/>
					</g>
					<path class="st28" d="M347.5,339.5c0,0.3,0.4,0.6,0.8,0.6h1.7c0.4,0,0.8-0.3,0.8-0.6c0-0.3-0.4-0.6-0.8-0.6h-1.7
						C347.9,338.9,347.5,339.2,347.5,339.5z"/>
					<path class="st38" d="M356.2,333.1c0,0.4,0.4,0.7,0.8,0.7h26.2c0.4,0,0.8-0.3,0.8-0.7c0-0.4-0.4-0.7-0.8-0.7H357
						C356.6,332.4,356.2,332.7,356.2,333.1z"/>
					<path class="st1" d="M363,325.1c0,0.4,0.4,0.7,0.8,0.7h23.6c0.4,0,0.8-0.3,0.8-0.7c0-0.4-0.4-0.7-0.8-0.7h-23.6
						C363.3,324.3,363,324.7,363,325.1z"/>
					<path class="st1" d="M358.9,325.1c0,0.4,0.4,0.7,0.8,0.7h1.2c0.4,0,0.8-0.3,0.8-0.7c0-0.4-0.4-0.7-0.8-0.7h-1.2
						C359.2,324.3,358.9,324.7,358.9,325.1z"/>
					<path class="st18" d="M420.8,351.8c0-0.5-0.4-0.8-0.8-0.8c-0.5,0-0.8,0.4-0.8,0.8c0,0.5,0.4,0.8,0.8,0.8
						C420.4,352.6,420.8,352.2,420.8,351.8z"/>
				</g>
				<polygon class="st16" points="388.8,417.7 459.2,417.7 455.9,404.6 388.8,404.6 				"/>
				<path class="st9" d="M314.6,360l38.8,7c0,0,4,0.5,6.3,6.3l19.8,0c1.3,0,2.6,1.2,2.7,2.7l2.2,16.2h-5.2l-1.4-12.5
					c-0.2-1.5-1.4-2.7-2.7-2.7l-19.8,0v-1.2c-2.3-5.7-6.3-6.3-6.3-6.3l-46.7-8L314.6,360z"/>
				<path class="st16" d="M460.3,392.2l1.4-12.5c0.2-1.5,1.4-2.7,2.7-2.7l11.9,0c1.3,0,0.6,0,0.9,0c0.2,0,0.8,0,1.7,0
					c0,0-1.6-6.2-2.9-6.2l0.5,2.5c-1.3,0-2.7,0-3.1,0c-0.4,0,0.4-0.3-0.9-0.3l-11.9,0c-1.3,0-2.6,1.5-2.7,3l-2.2,16.2H460.3z"/>
				<path class="st16" d="M317.3,360l38.8,7c0,0,4,0.5,6.3,6.3l19.8,0c1.3,0,2.6,1.2,2.7,2.7l2.2,16.2l-4.6,2.5l-2-15
					c-0.2-1.5-1.4-2.7-2.7-2.7l-19.8,0v-1.2c-2.3-5.7-6.3-6.3-6.3-6.3l-46.7-8L317.3,360z"/>
				<path class="st16" d="M319.4,361.9c-3.5,0.9-5,1.4-12.1,0.1c-7.3-1.4-7.7-1.3-10.4-4.9c-2.7-3.7,2.6-2.4,3.3-1.7
					c1.4,1.2,1.4,2.7,7.6,4.2c3.1,0.7,12.1,0.4,12.1,0.4L319.4,361.9z"/>
				<g>
					<path class="st9" d="M369.5,392.1c0,3.2,0,6.9,0,10.6h-8.4c0-3.7,2.9-7.4,2.9-10.6H369.5z"/>
					<path class="st16" d="M321.3,382.5c0.9,0,1.8,0.1,2.7,0.2c-11.8,2.1-17.6,20.5-17.6,43.2h-5.4
						C301.1,401.7,307.7,382.5,321.3,382.5z"/>
					<path class="st16" d="M180.8,382.5c0.9,0,1.8,0.1,2.7,0.3c-11.8,2.2-17.5,18.4-17.5,41h-5.4
						C160.5,399.5,167.1,382.5,180.8,382.5z"/>
				</g>
			</g>
			<polygon class="st16" points="258.2,419.9 246.3,411 246.3,419.9 			"/>
			<polygon class="st16" points="257.4,319.1 248.2,326 248.2,319.1 			"/>
			<rect x="369" y="402.7" class="st9" width="7.3" height="14.9"/>
			<rect x="444" y="409.8" class="st9" width="4" height="8"/>
			<g class="st77">
				<path class="st18" d="M448.9,326.6c-0.3,0-0.5-0.2-0.5-0.5v0c0-0.3,0.2-0.5,0.5-0.5h1.5c0.3,0,0.5,0.2,0.5,0.5v0
					c0,0.3-0.2,0.5-0.5,0.5H448.9z"/>
			</g>
		</g>
		<g class="st31">
			<path class="st13" d="M319.3,387.5c0,0.8,0.7,1.5,1.5,1.5h7.1c0.8,0,1.5-0.7,1.5-1.5v-6.7c0-0.8-0.7-1.5-1.5-1.5h-7.1
				c-0.8,0-1.5,0.7-1.5,1.5V387.5z"/>
		</g>
		<rect x="320.6" y="385.5" class="st5" width="10.1" height="53.7"/>
		<rect x="179.6" y="385.5" class="st5" width="10.1" height="53.7"/>
		<rect x="179.6" y="385.5" class="st2" width="10.1" height="53.6"/>
		<polygon class="st2" points="320.6,434.9 330.8,431.9 330.8,386 320.6,386 		"/>
		<polygon class="st2" points="293.4,432.1 303.5,429.1 303.5,426 293.4,426 		"/>
		<rect x="363.6" y="402.3" class="st5" width="10.1" height="36.9"/>
		<polygon class="st2" points="363.6,419.1 373.7,416.7 373.7,406.4 363.6,406.4 		"/>
		<rect x="160.6" y="437" class="st2" width="208.8" height="14.1"/>
		<path class="st14" d="M315.9,387.5c0,0.8,0.7,1.5,1.5,1.5h7.1c0.8,0,1.5-0.7,1.5-1.5v-6.7c0-0.8-0.7-1.5-1.5-1.5h-7.1
			c-0.8,0-1.5,0.7-1.5,1.5V387.5z"/>
		<path class="st7" d="M315.4,387.5c0,0.8,0.7,1.5,1.5,1.5h6c0.8,0,1.5-0.7,1.5-1.5v-6.7c0-0.8-0.7-1.5-1.5-1.5h-6
			c-0.8,0-1.5,0.7-1.5,1.5V387.5z"/>
		<rect x="320.3" y="385.1" class="st7" width="14.2" height="3.9"/>
		<path class="st2" d="M333.3,385.1l1.2,3.8v0.1H329c0-1.7-0.4-2.9-1.7-3.9H333.3z"/>
		<rect x="320.6" y="389" class="st8" width="10.1" height="3.9"/>
		<rect x="363.6" y="406.4" class="st8" width="10.1" height="3.9"/>
		<path class="st9" d="M339.3,402.2c-2-8.4-5.4-14.7-10.3-17.9l5.6-4l6.3,20L339.3,402.2z"/>
		<g class="st31">
			<path class="st13" d="M177.3,387.5c0,0.8,0.7,1.5,1.5,1.5h7.1c0.8,0,1.5-0.7,1.5-1.5v-6.7c0-0.8-0.7-1.5-1.5-1.5h-7.1
				c-0.8,0-1.5,0.7-1.5,1.5V387.5z"/>
		</g>
		<path class="st14" d="M174.6,387.5c0,0.8,0.7,1.5,1.5,1.5h7.1c0.8,0,1.5-0.7,1.5-1.5v-6.7c0-0.8-0.7-1.5-1.5-1.5h-7.1
			c-0.8,0-1.5,0.7-1.5,1.5V387.5z"/>
		<path class="st7" d="M174.4,387.5c0,0.8,0.7,1.5,1.5,1.5h6c0.8,0,1.5-0.7,1.5-1.5v-6.7c0-0.8-0.7-1.5-1.5-1.5h-6
			c-0.8,0-1.5,0.7-1.5,1.5V387.5z"/>
		<rect x="179.3" y="385.1" class="st7" width="14.2" height="3.9"/>
		<path class="st78" d="M192.3,385.1l1.2,3.8v0.1H188c0-1.7-0.4-2.9-1.7-3.9H192.3z"/>
		<rect x="179.6" y="389" class="st8" width="10.1" height="3.9"/>
		<path class="st9" d="M198.8,402.2c-2.1-8.4-6.2-14.9-10.5-17.7l-5.9-8.3l15.2,0.6l16.2,32.8L198.8,402.2z"/>
		<rect x="362.2" y="402.2" class="st7" width="13.1" height="4.3"/>
		<rect x="361.7" y="402.2" class="st14" width="6.6" height="4.3"/>
		<rect x="355.8" y="437" class="st5" width="123.9" height="14.1"/>
		<rect x="390.4" y="409.3" class="st9" width="57.9" height="3.3"/>
		<path class="st7" d="M432.9,385.7c0,0.8,0.7,1.5,1.5,1.5h6c0.8,0,1.5-0.7,1.5-1.5V379c0-0.8-0.7-1.5-1.5-1.5h-6
			c-0.8,0-1.5,0.7-1.5,1.5V385.7z"/>
	</g>
</g>
<circle class="st7" cx="391.1" cy="216.4" r="2.4"/>
<rect x="231.9" y="264.8" class="st79" width="5.9" height="11.2"/>
<rect x="255.6" y="264.8" class="st80" width="5.9" height="11.2"/>
<g>
	<g>
		<g>
			<path class="st81" d="M277.7,242.6c-0.4,0-0.8-0.1-1.2-0.4c-0.9-0.7-1.2-2-0.5-2.9l4.9-6.9c0.7-0.9,2-1.2,2.9-0.5
				c0.9,0.7,1.2,2,0.5,2.9l-4.9,6.9C279,242.3,278.4,242.6,277.7,242.6z"/>
		</g>
		<path class="st2" d="M284,237.8c0.8,0,1.4-0.6,1.4-1.4V228c0-0.8-0.6-1.4-1.4-1.4h-9.1c-0.8,0-1.4,0.6-1.4,1.4v8.4
			c0,0.8,0.6,1.4,1.4,1.4H284z"/>
		<path class="st2" d="M390.3,222c0.8,0,1.4-0.6,1.4-1.4v-8.4c0-0.8-0.6-1.4-1.4-1.4h-9.1c-0.8,0-1.4,0.6-1.4,1.4v8.4
			c0,0.8,0.6,1.4,1.4,1.4H390.3z"/>
		<path class="st81" d="M242,222c0.8,0,1.4-0.6,1.3-1.4l-0.8-14.5c0-0.8-0.7-1.4-1.5-1.4l-7.3,0c-0.8,0-1.4,0.6-1.5,1.4l-0.8,14.5
			c0,0.8,0.6,1.4,1.3,1.4H242z"/>
		
			<ellipse transform="matrix(0.9732 -0.2298 0.2298 0.9732 -41.2728 60.5455)" class="st82" cx="239.4" cy="207.5" rx="9.1" ry="9.1"/>
		<g>
			<path class="st83" d="M271,252c-0.4,0-0.8-0.1-1.2-0.4c-0.9-0.7-1.2-2-0.5-2.9l6.7-9.4c0.7-0.9,2-1.2,2.9-0.5
				c0.9,0.7,1.2,2,0.5,2.9l-6.7,9.4C272.3,251.7,271.7,252,271,252z"/>
		</g>
		<rect x="233.3" y="267.2" class="st83" width="14" height="45.2"/>
		<rect x="235.1" y="225.2" class="st83" width="10.3" height="70.4"/>
		<g class="st84">
			<path class="st18" d="M240.9,297c0,0.8,0.7,1.5,1.5,1.5h1.4c0.8,0,1.5-0.7,1.5-1.5v-13.2c0-0.8-0.7-1.5-1.5-1.5h-1.4
				c-0.8,0-1.5,0.7-1.5,1.5V297z"/>
		</g>
		<g class="st84">
			<path class="st18" d="M240.9,260.7c0,0.8,0.7,1.5,1.5,1.5c0.8,0,1.5-0.7,1.5-1.5v-8.8c0-0.8-0.7-1.5-1.5-1.5
				c-0.8,0-1.5,0.7-1.5,1.5V260.7z"/>
		</g>
		<g class="st85">
			<path class="st7" d="M245.4,248.5v-23.4c0-0.8-0.7-1.5-1.5-1.5h-7.2c-0.8,0-1.5,0.7-1.5,1.5v25.8L245.4,248.5z"/>
		</g>
		<ellipse transform="matrix(0.9732 -0.2298 0.2298 0.9732 -41.148 61.6172)" class="st7" cx="244" cy="207.5" rx="9.1" ry="9.1"/>
		<g class="st85">
			<path class="st7" d="M247.2,280.1v-8.6c0-0.8-0.7-1.5-1.5-1.5h-11c-0.8,0-1.5,0.7-1.5,1.5v11.7L247.2,280.1z"/>
		</g>
		<path class="st5" d="M230.5,242.8c0,0.8,0.7,1.5,1.5,1.5h16.6c0.8,0,1.5-0.7,1.5-1.5v-13.1c0-0.8-0.7-1.5-1.5-1.5H232
			c-0.8,0-1.5,0.7-1.5,1.5V242.8z"/>
		<rect x="228.6" y="308.7" class="st5" width="23.3" height="145.1"/>
		<path class="st5" d="M395.8,222c0.8,0,1.4-0.6,1.4-1.4v-8.4c0-0.8-0.6-1.4-1.4-1.4h-9.1c-0.8,0-1.4,0.6-1.4,1.4v8.4
			c0,0.8,0.6,1.4,1.4,1.4H395.8z"/>
		<path class="st86" d="M249.5,222c0.8,0,1.4-0.6,1.3-1.4l-0.8-14.5c0-0.8-0.7-1.4-1.5-1.4l-7.3,0c-0.8,0-1.4,0.6-1.5,1.4l-0.8,14.5
			c0,0.8,0.6,1.4,1.3,1.4H249.5z"/>
		<path class="st5" d="M286.8,237.8c0.8,0,1.4-0.6,1.4-1.4V228c0-0.8-0.6-1.4-1.4-1.4h-9.1c-0.8,0-1.4,0.6-1.4,1.4v8.4
			c0,0.8,0.6,1.4,1.4,1.4H286.8z"/>
		<circle class="st7" cx="282.5" cy="234.1" r="2.1"/>
		<g class="st85">
			<rect x="276.3" y="222.5" class="st87" width="11.9" height="11.2"/>
		</g>
		<g class="st32">
			<polygon class="st87" points="230.6,228.2 230.6,222.5 249.9,222.5 249.9,233.7 244.7,233.7 238.9,244.3 230.5,244.3 
				230.5,228.2 			"/>
		</g>
		
			<rect x="252.3" y="252.3" transform="matrix(0.6021 -0.7984 0.7984 0.6021 -99.3176 314.5249)" class="st5" width="27.3" height="9.1"/>
		<polygon class="st88" points="261.4,270.7 272.1,256.1 265.2,261.8 256.5,261.8 253.8,265.4 		"/>
		<path class="st28" d="M405.1,229c0.8,0,1.5-0.7,1.5-1.5v-4.9c0-0.8-0.7-1.5-1.5-1.5H228.8c-0.8,0-1.5,0.7-1.5,1.5v4.9
			c0,0.8,0.7,1.5,1.5,1.5H405.1z"/>
		<path class="st5" d="M344,230.4c0.8,0,1.5-0.7,1.5-1.5v-7.7c0-0.8-0.7-1.5-1.5-1.5l-115.7,0c-0.8,0-1.5,0.7-1.5,1.5v7.7
			c0,0.8,0.7,1.5,1.5,1.5L344,230.4z"/>
		<path class="st2" d="M233.5,230.4c0.8,0,1.5-0.7,1.5-1.5v-7.7c0-0.8-0.7-1.5-1.5-1.5l-5.2,0c-0.8,0-1.5,0.7-1.5,1.5v7.7
			c0,0.8,0.7,1.5,1.5,1.5L233.5,230.4z"/>
		<rect x="228.2" y="264.8" class="st5" width="36.8" height="11.2"/>
		<rect x="228.6" y="308.7" class="st79" width="7.5" height="145.1"/>
	</g>
	<path class="st89" d="M240,433.6c0,0.8,0.7,1.5,1.5,1.5h4.9c0.8,0,1.5-0.7,1.5-1.5V345c0-0.8-0.7-1.5-1.5-1.5h-4.9
		c-0.8,0-1.5,0.7-1.5,1.5V433.6z"/>
	<g>
		<polygon class="st18" points="240,427.2 248,433.3 248,425.3 240,419.2 		"/>
		<polygon class="st18" points="240,409 248,415.1 248,407.1 240,401 		"/>
		<polygon class="st18" points="240,390.8 248,396.9 248,388.9 240,382.9 		"/>
		<polygon class="st18" points="240,372.6 248,378.7 248,370.7 240,364.7 		"/>
		<polygon class="st18" points="240,354.5 248,360.5 248,352.5 240,346.5 		"/>
	</g>
	<path class="st7" d="M227.1,309.9c0,0.8,0.7,1.5,1.5,1.5h24.6c0.8,0,1.5-0.7,1.5-1.5V305c0-0.8-0.7-1.5-1.5-1.5h-24.6
		c-0.8,0-1.5,0.7-1.5,1.5V309.9z"/>
	<g class="st32">
		<path class="st18" d="M245.1,308.4c0,0.8,0.7,1.5,1.5,1.5h4.6c0.8,0,1.5-0.7,1.5-1.5v-1.9c0-0.8-0.7-1.5-1.5-1.5h-4.6
			c-0.8,0-1.5,0.7-1.5,1.5V308.4z"/>
	</g>
	<g class="st32">
		<path class="st33" d="M227.1,309.9c0,0.8,0.7,1.5,1.5,1.5h5.4c0.8,0,1.5-0.7,1.5-1.5V305c0-0.8-0.7-1.5-1.5-1.5h-5.4
			c-0.8,0-1.5,0.7-1.5,1.5V309.9z"/>
	</g>
</g>
<circle class="st18" cx="441.6" cy="347.1" r="2.1"/>
<path class="st28" d="M384.8,278.9c0,1.4,1.1,2.5,2.5,2.5h8.6c1.4,0,2.5-1.1,2.5-2.5v-19.7c0-1.4-1.1-2.5-2.5-2.5h-8.6
	c-1.4,0-2.5,1.1-2.5,2.5V278.9z"/>
<circle class="st38" cx="391.6" cy="273.7" r="2.4"/>
<path class="st38" d="M393.6,225.1c0-1.1-0.9-2-2-2c-1.1,0-2,0.9-2,2c0,1.1,0.9,2,2,2C392.7,227.1,393.6,226.2,393.6,225.1z"/>
<circle class="st7" cx="245.3" cy="208.5" r="2"/>
<path class="st1" d="M357,320.2c-0.3,0.4,0.1,0.6,1,0.6c0.9,0,1.9-0.4,2.3-0.8c0.3-0.4-0.1-0.6-1-0.6
	C358.4,319.5,357.3,319.8,357,320.2z"/>
<path class="st1" d="M368.3,320.2c-0.3,0.4,0.1,0.6,1,0.6c0.9,0,1.9-0.4,2.3-0.8c0.3-0.4-0.1-0.6-1-0.6
	C369.6,319.5,368.6,319.8,368.3,320.2z"/>
<path class="st1" d="M362.4,320.2c-0.3,0.4,0.1,0.6,1,0.6c0.9,0,1.9-0.4,2.3-0.8c0.3-0.4-0.1-0.6-1-0.6
	C363.8,319.5,362.8,319.8,362.4,320.2z"/>
<g>
	<g>
		<path class="st91" d="M228.6,443.5c-2.1,0-3.7-0.6-4.7-1.9c-2.4-3-1.1-8.7,0.6-16.8c0.9-4.1,1.9-8.8,2.5-13.7
			c2.3-17.6,3.3-31.2,3.3-44h2c0,12.9-1,26.6-3.4,44.3c-0.7,5-1.7,9.7-2.6,13.9c-1.6,7.2-2.8,12.9-1,15.1c0.6,0.8,1.6,1.1,3.1,1.1
			V443.5z"/>
	</g>
	<g>
		<path class="st91" d="M229.7,350.5l-1.5-1.4c3-3.2,2.5-10,2.2-16c-0.1-1.9-0.2-3.8-0.2-5.5h2c0,1.6,0.1,3.4,0.2,5.3
			C232.8,339.4,233.2,346.7,229.7,350.5z"/>
	</g>
	<path class="st91" d="M234.3,340.2c0,0.8-0.7,1.5-1.5,1.5h-3.2c-0.8,0-1.5-0.7-1.5-1.5v-25.1c0-0.8,0.7-1.5,1.5-1.5h3.2
		c0.8,0,1.5,0.7,1.5,1.5V340.2z"/>
	<path class="st7" d="M232.1,330.6c0,0.8-0.7,1.5-1.5,1.5h-3.2c-0.8,0-1.5-0.7-1.5-1.5v-13.5c0-0.8,0.7-1.5,1.5-1.5h3.2
		c0.8,0,1.5,0.7,1.5,1.5V330.6z"/>
	<rect x="226.2" y="346.9" class="st83" width="9.6" height="43.3"/>
	<rect x="233.3" y="346.9" class="st92" width="2.5" height="43.3"/>
</g>
<rect x="223.9" y="447.7" class="st93" width="32.7" height="7.9"/>
<rect x="223.9" y="447.7" class="st7" width="13.1" height="7.9"/>
<polygon class="st91" points="230.3,321.2 229.8,322.5 226.1,328.8 223.2,325.6 224.2,322.5 229.8,320.7 "/>
<path class="st94" d="M228.6,352.7c0-0.6,0.5-1.1,1.1-1.1c0.6,0,1.1,0.5,1.1,1.1c0,0.6-0.5,1.1-1.1,1.1
	C229.1,353.8,228.6,353.3,228.6,352.7z"/>
<path class="st95" d="M228.6,357.4c0-0.6,0.5-1.1,1.1-1.1c0.6,0,1.1,0.5,1.1,1.1c0,0.6-0.5,1.1-1.1,1.1
	C229.1,358.5,228.6,358,228.6,357.4z"/>
<g>
	<rect x="227.5" y="361.5" class="st96" width="4.6" height="1.3"/>
	<rect x="227.5" y="364.1" class="st96" width="4.6" height="1.3"/>
	<rect x="227.5" y="366.6" class="st96" width="4.6" height="1.3"/>
	<rect x="227.5" y="369.1" class="st96" width="4.6" height="1.3"/>
	<rect x="227.5" y="371.6" class="st96" width="4.6" height="1.3"/>
</g>
<g>
	<rect x="157.9" y="444.1" class="st97" width="10.3" height="7.1"/>
	<rect x="181.7" y="444.1" class="st97" width="10.3" height="7.1"/>
	<g>
		<path class="st98" d="M148.2,357.4c-2.3,0.2-4.2-1.5-4.4-3.8l-1.6-22.9c-0.2-3.6,0.7-8.8,2.2-12.1l8.5-18.9c0.9-2.1,3.4-3,5.4-2
			c2.1,0.9,3,3.4,2,5.4l-8.5,18.9c-0.9,2-1.6,5.9-1.5,8.1l1.6,22.9C152.1,355.3,150.4,357.3,148.2,357.4z"/>
		<path class="st99" d="M152,353.1l-1.6-22.9c-0.2-2.2,0.5-6.1,1.5-8.1l8.5-18.9c0.9-2,0-4.4-2-5.4c-0.8,0.4-1.5,1.1-2,2l-9,12.1
			l5.1,5.3l-1.5,3.4c-1.5,3.3-2.4,8.5-2.2,12.1l1.6,22.9c0.1,1.5-2,0.8-0.7,1.4C151.1,356.3,152.1,354.8,152,353.1z"/>
		<path class="st100" d="M156.4,316.3l-10.1-5l5.8-14.9c1.1-2.8,4.8-3.5,7.7-2.4l4.4,2.9L156.4,316.3z"/>
		<g>
			
				<ellipse transform="matrix(0.8981 -0.4397 0.4397 0.8981 -142.9068 101.7732)" class="st98" cx="148.2" cy="359.3" rx="6.6" ry="6.6"/>
			<path class="st101" d="M203,457.7v-5.3c0-2.3-1.9-4.2-4.2-4.2h-16.3c-2.3,0-4.2,1.9-4.2,4.2l0,5.3H203z"/>
			<g>
				<path class="st102" d="M194.3,446.7l-16.1-0.1c0.2-35.3-4.3-55.7-7.3-69.2c-1.6-7.3-2.9-13.1-2.9-18.6h16.1
					c0,3.7,1.1,8.5,2.5,15.1C189.8,388.1,194.6,409.6,194.3,446.7z"/>
			</g>
			<g>
				<path class="st98" d="M168.2,296c-3.3,0-6-2.7-6-6v-14.4c0-3.3,2.7-6,6-6c3.3,0,6,2.7,6,6V290C174.2,293.3,171.5,296,168.2,296z
					"/>
			</g>
			<path class="st103" d="M172.9,457.7v-5.3c0-2.3-1.9-4.2-4.2-4.2h-11.3c-2.3,0-4.2,1.9-4.2,4.2v5.3H172.9z"/>
			<g>
				<path class="st10" d="M154.7,446.7v-81.3c0-4.4,3.6-8.1,8.1-8.1c4.4,0,8.1,3.6,8.1,8.1v81.3H154.7z"/>
			</g>
			<path class="st98" d="M158.4,274c0,5.3,4.3,9.6,9.6,9.6h5.7c5.3,0,9.6-4.3,9.6-9.6v-15.2c0-5.3-4.3-4-9.6-4h-5.7
				c-5.3,0-9.6,1.3-9.6,6.6V274z"/>
			<path class="st104" d="M177.9,252.7c0,0,0,7.6,0,14.3c0,18.3-8.7,16.8-8.7,16.8c11.5,0.7,14.2-5.1,14.2-10.1v-15
				C183.4,253.8,182.7,253.2,177.9,252.7z"/>
			<g class="st31">
				<path class="st105" d="M174.9,270.6c-0.2,0-0.5,0-0.8,0C173.8,270.6,174.2,270.6,174.9,270.6z"/>
			</g>
			<polygon class="st106" points="158.4,265.6 166.8,262.1 166.8,254.8 158.4,254.8 			"/>
			<path class="st107" d="M168.1,247.1h5.7c5.3,0,9.6,1.9,9.6,7.2v5.4h-2.8c-4.8,0-4.3,9.1-8.8,14.5c-2.6,3-10.7,4.7-13.3-0.7v-19.2
				C158.4,249,162.8,247.1,168.1,247.1z"/>
			<path class="st108" d="M151.2,349.4c0,5.5,4.5,10.1,10.1,10.1H174c5.5,0,10.1-4.5,10.1-10.1v-48.9c0-5.5-2-10.1-7.5-10.1l-15.3,0
				c-5.5,0-10.1,4.5-10.1,10.1V349.4z"/>
			<g>
				<path class="st98" d="M201.5,330c-4.5,0-9.1-3-10.8-7.1l-10-23.5c-0.9-2.1,0.1-4.5,2.2-5.4c2.1-0.9,4.5,0.1,5.4,2.2l10,23.5
					c0.5,1.1,2.2,2.2,3.4,2.1l14.4-0.7c2.3-0.1,4.2,1.6,4.3,3.9c0.1,2.3-1.6,4.2-3.9,4.3L202,330C201.8,330,201.7,330,201.5,330z"/>
				<path class="st99" d="M188.2,296.1c-0.9-2.1-3.3-3.1-5.4-2.2c-2.1,0.9-3.1,3.3-2.2,5.4l8.3,19.2l4.5-10.3l-1-2.3L188.2,296.1z"
					/>
			</g>
		</g>
		<path class="st102" d="M184.2,330.1v29c0,6.6-5.4,12-12,12l-8.9,0c-6.6,0-12-5.4-12-12v-29L184.2,330.1z"/>
		<path class="st102" d="M152.7,354.5c0,2.8,2.3,5,5,5h7.7c2.8,0,5-2.3,5-5v-34.2c0-2.8-2.3-5-5-5l-7.7,0c-2.8,0-5,2.3-5,5V354.5z"
			/>
		<rect x="170.1" y="290.5" class="st108" width="13.3" height="5.9"/>
		<g>
			<path class="st102" d="M167.6,327c-1,0-1.8-0.8-1.8-1.8v-17.2c0-7,1.4-19,6.6-19h4.9c1,0,1.8,0.8,1.8,1.8s-0.8,1.8-1.8,1.8h-4.8
				c-1.1,0.6-3.2,6.4-3.2,15.4v17.2C169.3,326.2,168.5,327,167.6,327z"/>
		</g>
		<g>
			<path class="st102" d="M155.8,322c-1,0-1.8-0.8-1.8-1.8v-14.7c0-4,0.3-7.8,0.8-10.7c0.5-2.9,1.3-5.8,3.6-5.8h2.6
				c1,0,1.8,0.8,1.8,1.8s-0.8,1.8-1.8,1.8h-2c-0.6,1.3-1.5,5.8-1.5,12.9v14.7C157.6,321.2,156.8,322,155.8,322z"/>
		</g>
		<polygon class="st104" points="179,301.8 184.1,330.1 184.1,312.9 		"/>
	</g>
	<rect x="178.3" y="455.1" class="st8" width="24.8" height="2.6"/>
	<rect x="153.2" y="455.1" class="st8" width="19.8" height="2.6"/>
	
		<ellipse transform="matrix(0.8981 -0.4397 0.4397 0.8981 -120.4169 130.1478)" class="st98" cx="220.7" cy="325" rx="6.6" ry="6.6"/>
	<g>
		<path class="st98" d="M223.2,323.3c-0.9,0-1.7-0.7-1.8-1.7c-0.1-1,0.7-1.8,1.7-1.9l5.7-0.3c1-0.1,1.8,0.7,1.9,1.7
			c0.1,1-0.7,1.8-1.7,1.9L223.2,323.3C223.2,323.3,223.2,323.3,223.2,323.3z"/>
	</g>
	<path class="st109" d="M184,313.2l10-5.3l-6.3-14.7c-1.2-2.8-4.9-3.3-7.7-2.1l-4.3,3.1L184,313.2z"/>
	<path class="st109" d="M171.2,294.7c0.6-1.6,1.8-3.1,2.5-3.5c0.7-0.4,2.6-0.8,5.2-0.8c2.6,0,4.1,0,4.1,0l-2.6,4.2H171.2z"/>
</g>
<path class="st109" d="M169.6,290.5c-1.6,0-6.4,0-6.8,0c-0.4,0-3.3,0.2-4.1,3.2h9.1c0,0,0.3-1,0.9-2
	C169.3,290.7,169.6,290.5,169.6,290.5z"/>
<path class="st108" d="M170.5,329.6c0,2.7,0.1,9.1,7.4,9.1s6.2-9.1,6.2-9.1H170.5z"/>
<path class="st108" d="M151.2,336.6c1.6-2.1,1.6-5.3,1.5-6.5l-1.5-1.8V336.6z"/>
<circle class="st0" cx="90.5" cy="174.2" r="16.3"/>
<circle class="st0" cx="181.7" cy="165.9" r="9"/>
<circle class="st0" cx="380.1" cy="89.5" r="10.3"/>
<circle class="st0" cx="543.6" cy="432.1" r="11.5"/>
<circle class="st0" cx="21.9" cy="298.5" r="11.4"/>
<circle class="st0" cx="64.7" cy="270" r="19.3"/>
</svg>
