<?xml version="1.0" encoding="utf-8"?>
<!-- Generator: Adobe Illustrator 22.0.0, SVG Export Plug-In . SVG Version: 6.00 Build 0)  -->
<svg version="1.1" id="Layer_1" xmlns="http://www.w3.org/2000/svg" xmlns:xlink="http://www.w3.org/1999/xlink" x="0px" y="0px"
	 viewBox="0 0 1182.1 799.6" style="enable-background:new 0 0 1182.1 799.6;" xml:space="preserve">
<style type="text/css">
	.st0{fill:#F5F6FF;}
	.st1{fill:#BCC6D9;}
	.st2{fill:#D38E89;}
	.st3{fill:none;stroke:#AF9F9A;stroke-width:4;stroke-linejoin:round;stroke-miterlimit:10;}
	.st4{fill:#3E3B44;}
	.st5{fill:#FFB4AC;}
	.st6{fill:#6D5E5C;}
	.st7{fill:#756863;}
	.st8{opacity:0.5;fill:#4A4751;}
	.st9{fill:#7E79DE;}
	.st10{fill:#423883;}
	.st11{opacity:0.3;fill:#423883;}
	.st12{opacity:0.2;}
	.st13{fill:#546070;}
	.st14{fill:#635654;}
	.st15{opacity:0.7;fill:#3E3B44;}
	.st16{fill:#C3C5FF;}
	.st17{fill:#423883;stroke:#423883;stroke-miterlimit:10;}
	.st18{fill:#FFFFFF;}
	.st19{fill:#7880E7;}
	.st20{fill:#DEE0FC;}
	.st21{fill:#90ADAC;}
	.st22{fill:#B8E0E0;}
	.st23{fill:#A3C9C8;}
	.st24{fill:#FFCD5C;}
	.st25{opacity:0.3;fill:#FFBC64;}
	.st26{fill:#488593;}
	.st27{fill:#444444;}
	.st28{fill:#545659;}
	.st29{fill:#666A7F;}
	.st30{fill:#ABB3C9;}
	.st31{opacity:0.4;}
	.st32{opacity:0.5;}
	.st33{fill:#4A4751;}
	.st34{fill:#8893B0;}
	.st35{fill:#959FBA;}
	.st36{opacity:0.3;fill:#403E38;}
	.st37{fill:#8088A1;}
	.st38{fill:#CFD9E8;}
	.st39{opacity:0.5;fill:#CFD9E8;}
	.st40{fill:#B0B0B3;}
	.st41{opacity:0.4;fill:#8893B0;}
	.st42{opacity:0.7;fill:#666A7F;}
	.st43{fill:#363638;}
	.st44{fill:#4D4D4F;}
	.st45{fill:#36333B;}
	.st46{fill:#646C82;}
	.st47{fill:#5C5F63;}
	.st48{fill:#5B6068;}
	.st49{opacity:0.5;fill:#966556;}
	.st50{fill:#403E38;}
	.st51{fill:#56595E;}
	.st52{fill:#FC5938;}
	.st53{opacity:0.2;fill:#403E38;}
	.st54{fill:#D3AB90;}
	.st55{opacity:0.4;fill:#666A7F;}
	.st56{fill:#D8E1EF;}
	.st57{opacity:0.4;fill:#403E38;}
	.st58{fill:#433F4C;}
	.st59{opacity:0.2;fill:#3E3B44;}
	.st60{fill:#C29F7F;}
	.st61{fill:#E5CDB5;}
	.st62{fill:#4A4C4F;}
	.st63{opacity:0.1;fill:#3E3B44;}
	.st64{fill:#B3B3B6;}
	.st65{fill:#FFFFFF;stroke:#D3AB90;stroke-width:2.4868;stroke-miterlimit:10;}
	.st66{opacity:0.1;fill:#403E38;}
	.st67{opacity:0.5;fill:#959FBA;}
	.st68{opacity:0.2;fill:#666A7F;}
	.st69{fill:#828AA2;}
	.st70{opacity:0.3;fill:#666A7F;}
	.st71{fill:#6C7787;}
	.st72{opacity:0.3;fill:#4A4751;}
	.st73{fill:#C6CCD6;}
	.st74{fill:#F2A24C;}
	.st75{fill:#89685B;}
	.st76{fill:#B5977D;}
	.st77{opacity:0.7;}
	.st78{opacity:0.4;fill:#6D5E5C;}
	.st79{opacity:0.4;fill:#756863;}
	.st80{opacity:0.2;fill:#FFFFFF;}
	.st81{fill:#9CA4B5;}
	.st82{fill:#5B504D;}
	.st83{fill:#ADB6C9;}
	.st84{opacity:0.6;}
	.st85{opacity:0.3;}
	.st86{fill:#C6CDE0;}
	.st87{fill:#B74937;}
	.st88{opacity:0.6;fill:#B74937;}
	.st89{fill:#FFCF22;}
	.st90{fill:#FF7D50;}
	.st91{fill:#424242;}
	.st92{fill:#C7D0DD;}
	.st93{fill:#BCBCBC;}
	.st94{fill:#D85E3D;}
	.st95{fill:#499AF2;}
	.st96{opacity:0.3;fill:#424242;}
	.st97{fill:#995323;}
	.st98{fill:#FFB7A9;}
	.st99{opacity:0.5;fill:#E67F92;}
	.st100{fill:#FFB81A;}
	.st101{fill:#BF7E37;}
	.st102{fill:#5047B2;}
	.st103{fill:#AD6331;}
	.st104{opacity:0.3;fill:#E67F92;}
	.st105{fill:#E67F92;}
	.st106{fill:#DE7F97;}
	.st107{fill:#A45666;}
	.st108{fill:#FFBB33;}
	.st109{fill:#FFCD50;}
</style>
<g>
	<path class="st0" d="M963.3,264.8c-9.9-2.8-18.4-9.4-23.1-18.6c-14.6-28.3-39.7-50.4-70.2-60.9c-9.1-3.1-17-9.1-22-17.2
		c-18-28.9-59.7-49.1-108.2-49.1c-9.8,0-19.4,0.8-28.5,2.4c-18.6,3.2-37.6-2.1-51.5-14.9C638,86.5,609.2,73.9,577.5,73
		c-72-2.1-131.9,56.6-131.1,128.6c0,0.6,0,1.1,0,1.7c0.3,13.4-8.1,25.5-20.8,29.8c-31.7,10.6-57.8,33.4-72.9,62.8
		c-7,13.7-21.8,21.6-37.2,20c-4.4-0.5-8.8-0.7-13.3-0.7c-70.3,0-127.2,57-127.2,127.2c0,0.1,0,0.2,0,0.3c0,16.2-9.7,30.8-24.7,36.7
		c-50.1,19.9-84.9,64.4-84.9,116.1c0,70.3,64.4,127.2,143.8,127.2c14.6,0,28.6-1.9,41.9-5.5c5.8-1.6,11.5,2.8,11.5,8.8v0.1
		c0,0.3,0,0.5,0,0.8c0.2,37.3,30.8,67.3,68.1,67.3h597.2c22.4,0,43.4-10.9,56-29.4c10.4-15.3,18.9-32,24.9-49.9
		c7.2-21.3,19.1-40.7,35.5-56.1c44.3-41.7,72.5-104.1,72.5-173.9C1116.8,378.8,1051.5,289.6,963.3,264.8z"/>
	<g>
		<path class="st1" d="M797.6,486.6v-6.4c5.2,0,9.4-4.2,9.4-9.4c0-5.2-4.2-9.4-9.4-9.4V455c8.7,0,15.8,7.1,15.8,15.8
			C813.4,479.5,806.3,486.6,797.6,486.6z"/>
	</g>
	<g>
		<path class="st1" d="M746.1,486.6v-6.4c5.2,0,9.4-4.2,9.4-9.4c0-5.2-4.2-9.4-9.4-9.4V455c8.7,0,15.8,7.1,15.8,15.8
			C761.9,479.5,754.8,486.6,746.1,486.6z"/>
	</g>
	<path class="st2" d="M736.2,399.1c0,2.8,2.3,5,5,5h51c2.8,0,5-2.3,5-5v-9c0-2.8-2.3-5-5-5h-51c-2.8,0-5,2.3-5,5V399.1z"/>
	<g>
		<path class="st3" d="M791.9,416.8c0,1.6,1.4,3,3,3h3.7c1.7,0,3-1.4,3-3v-10c0-1.6-1.3-3-3-3h-3.7c-1.6,0-3,1.4-3,3V416.8z"/>
		<path class="st3" d="M791.9,445.9c0,1.7,1.4,3,3,3h3.7c1.7,0,3-1.3,3-3v-10c0-1.6-1.3-3-3-3h-3.7c-1.6,0-3,1.4-3,3V445.9z"/>
		<path class="st3" d="M793.9,431.4c0,1.7,1.3,3,2.8,3s2.8-1.3,2.8-3v-10c0-1.6-1.3-3-2.8-3s-2.8,1.4-2.8,3V431.4z"/>
		<path class="st3" d="M793.9,460.5c0,1.6,1.3,3,2.8,3s2.8-1.4,2.8-3v-10c0-1.6-1.3-3-2.8-3s-2.8,1.4-2.8,3V460.5z"/>
	</g>
	<g>
		<path class="st3" d="M768.4,316.3c0,1.6,1.4,3,3,3h3.7c1.7,0,3-1.4,3-3v-10c0-1.6-1.3-3-3-3h-3.7c-1.6,0-3,1.4-3,3V316.3z"/>
		<path class="st3" d="M768.4,345.4c0,1.7,1.4,3,3,3h3.7c1.7,0,3-1.3,3-3v-10c0-1.6-1.3-3-3-3h-3.7c-1.6,0-3,1.4-3,3V345.4z"/>
		<path class="st3" d="M770.4,330.9c0,1.7,1.3,3,2.8,3s2.8-1.3,2.8-3v-10c0-1.6-1.3-3-2.8-3s-2.8,1.4-2.8,3V330.9z"/>
		<path class="st3" d="M770.4,360c0,1.6,1.3,3,2.8,3s2.8-1.4,2.8-3v-10c0-1.6-1.3-3-2.8-3s-2.8,1.4-2.8,3V360z"/>
	</g>
	<g>
		<path class="st3" d="M741.2,416.8c0,1.6,1.4,3,3,3h3.7c1.7,0,3-1.4,3-3v-10c0-1.6-1.3-3-3-3h-3.7c-1.6,0-3,1.4-3,3V416.8z"/>
		<path class="st3" d="M741.2,445.9c0,1.7,1.4,3,3,3h3.7c1.7,0,3-1.3,3-3v-10c0-1.6-1.3-3-3-3h-3.7c-1.6,0-3,1.4-3,3V445.9z"/>
		<path class="st3" d="M743.2,431.4c0,1.7,1.3,3,2.8,3c1.6,0,2.8-1.3,2.8-3v-10c0-1.6-1.3-3-2.8-3c-1.6,0-2.8,1.4-2.8,3V431.4z"/>
		<path class="st3" d="M743.2,460.5c0,1.6,1.3,3,2.8,3c1.6,0,2.8-1.4,2.8-3v-10c0-1.6-1.3-3-2.8-3c-1.6,0-2.8,1.4-2.8,3V460.5z"/>
	</g>
	<g>
		<path class="st1" d="M746.1,486.6c-8.7,0-15.8-7.1-15.8-15.8c0-8.7,7.1-15.8,15.8-15.8v6.4c-5.2,0-9.4,4.2-9.4,9.4
			c0,5.2,4.2,9.4,9.4,9.4V486.6z"/>
	</g>
	<g>
		<path class="st1" d="M797.6,486.6c-8.7,0-15.8-7.1-15.8-15.8c0-8.7,7.1-15.8,15.8-15.8v6.4c-5.2,0-9.4,4.2-9.4,9.4
			c0,5.2,4.2,9.4,9.4,9.4V486.6z"/>
	</g>
	<path class="st4" d="M754.7,404.1c0,2.8,2.3,5,5,5h17c2.8,0,5-2.3,5-5v-39c0-2.8-2.3-5-5-5h-17c-2.8,0-5,2.3-5,5V404.1z"/>
	<path class="st5" d="M745.2,399.1c0,2.8,2.3,5,5,5h51c2.8,0,5-2.3,5-5v-9c0-2.8-2.3-5-5-5h-51c-2.8,0-5,2.3-5,5V399.1z"/>
	<g>
		<g>
			<rect x="581" y="593.9" class="st5" width="20.1" height="128"/>
			<rect x="908.4" y="648.8" class="st5" width="20.1" height="73.1"/>
			<rect x="908.5" y="656.9" class="st6" width="20.1" height="7.8"/>
			<polygon class="st2" points="908.4,675.3 928.5,669.2 928.5,664.8 908.4,664.8 			"/>
			<rect x="907.6" y="648.5" class="st7" width="26" height="8.5"/>
			<rect x="873.1" y="593.9" class="st5" width="20.1" height="128"/>
			<polygon class="st2" points="873.1,630.8 893.2,626.2 893.2,615.4 873.1,615.4 			"/>
			<rect x="873.1" y="617.1" class="st8" width="20.1" height="7.8"/>
			<g>
				<g>
					<path class="st9" d="M923.4,628.7l9.1,0h8.6c0,6.7,0,13.3,0,20.9c-8.4,0.3-12.1,0-29.6,0v29.8h-31.7V629l7.7-0.3L923.4,628.7z"
						/>
					<path class="st10" d="M799.1,569.4l123.5,13.3l10.7,48.7l-20.4,1.6l-5,27.4c-4.8-30.2-15.9-50.8-37.9-50.8
						c-22.5,0-35.4,23.2-39.1,58.8H635H310.9v-94.2L799.1,569.4z"/>
					<path class="st11" d="M654.8,589h150.5l11.9-17.6l105.4,11.3l10.7,48.7l-20.4,1.6l-5,27.4c-4.8-30.2-15.9-50.8-37.9-50.8
						c-22.5,0-35.4,23.2-39.1,58.8h-26.8l0.5-64.5H654.8V589z"/>
					<g>
						<g class="st12">
							<path class="st13" d="M863,615.6c0,1.7,1.4,3,3,3h14c1.7,0,3-1.4,3-3v-12.3c0-1.7-1.4-3-3-3h-14c-1.7,0-3,1.4-3,3V615.6z"/>
						</g>
						<path class="st14" d="M858,615.9c0,1.7,1.4,3,3,3h14c1.7,0,3-1.4,3-3v-13.3c0-1.7-1.4-3-3-3h-14c-1.7,0-3,1.4-3,3V615.9z"/>
						<rect x="867.2" y="611.1" class="st7" width="28.2" height="7.8"/>
						<path class="st10" d="M904.8,649.3c-3.2-18-12.2-31.9-21.9-38.2l12.6-5.2l12.4,39.7L904.8,649.3z"/>
					</g>
					<path class="st15" d="M704.2,576.2h-8.8v-3.3h-3.1v-3.4l107.5-1.1l123.5,13.3l9.3,51.4l-35.1-5.4
						c-6.3-11.4-14.3-19.1-26.9-19.1c-18.8,0-30.9,16.3-36.5,42.5c-2.6,0.8-2.3,9.4-1.2,12c2.5,5.8-9.5,7.5-12,0.7
						c-0.3,0-18,6.8-7.7-4.3c1.7-1.8-6-0.7-8.3-1.3c-7.1-0.8-32.9,9.1-37.3,4L754.1,642c-5.6,0-10.6-3-13.3-7.6h-40.8v-5h6.5v-0.1
						h-1c0.6-0.2,1-0.8,1-1.5v-0.1c0-0.9-0.7-1.7-1.5-1.9l-6.3-1.6c0,0,0,0,0,0l-1.5-0.4v-18.2h0V601h-5.2l-0.4-6.2l0,0l4.8-11.2
						h6.4l0.5-1.1l2.4-5.2c-0.3-0.2-0.6-0.4-0.9-0.7C704.5,576.5,704.4,576.3,704.2,576.2z"/>
					<path class="st16" d="M573,565l77,14c0,0,7.9,1,12.5,12.4l32.7,0c2.6,0,2.9,2.4,3.3,5.4l6.6,32.1h-10.3l-2.7-24.8
						c-0.3-2.9-2.8-5.4-5.4-5.4l-32.7,0v-2.4c-4.6-11.4-12.5-12.4-12.5-12.4L548.9,568L573,565z"/>
					<path class="st9" d="M904.6,628.8l2.8-25.2c0.3-3,2.8-5.4,5.5-5.4l20.9-3.8c2.7,0,4.6-2.8,5.2,0.9c0.1,0.5,1.1-0.6,2.7-0.6
						c0,0-2.8-9-5.5-9l1,5.1c-2.7,0-5.5,0-6.2,0c-0.7,0,0.8,0-1.8,0l-23.9,0c-2.7,0-5.2,2.4-5.5,5.4l-4.5,32.6H904.6z"/>
					<polygon class="st9" points="821.1,570.4 805.5,588.5 672.9,588.5 668.6,572.2 810.2,572.2 813.4,564.6 					"/>
					<path class="st9" d="M918.2,590.7c5,0,17.8,0,17.8,0s1.2-5.6-6-7.2l-116.7-18.9l-5.4,7.6L918.2,590.7z"/>
					<rect x="730.9" y="646.5" class="st9" width="22" height="32.6"/>
					<g>
						<path class="st16" d="M465.2,567.4l19.7-2.2l12-70.6c0,0,35.6-20-0.9-20c41.4,0,212.9,0,225.1,0c25.6,0,40,21.8,40,21.8
							l60.3,63.4l112.5,19.2c0,0,8.5,1.1,13,13.8v5.7l-22.3-3.5v-6.3l-113-16.5H654.5l20.1,58.5l57.5-2.2h40.4v50.8h-33.3v-29.8
							c-16.3,0-30.6-1.8-38.7-1.8s-100.9,1.8-105.8,1.8c-4.8,0-6.4,38-6.4,38l1.6,3.8H439.5c0,0,0-64.1,0-91
							C439.5,573.6,465.2,567.4,465.2,567.4z"/>
					</g>
					<path class="st9" d="M756.5,628.8l-2.7-24.8c-0.3-2.9-2.8-5.4-5.4-5.4l-51.5,0c-2.6,0-5.4,0-6.1,0c-0.5,0-1.8,0-3.5,0l-0.4-2
						c-0.6-2.9,1-5.2,3.7-5.2h1.6c2.6,0,5.4,0,6.1,0c0.7,0,3.5,0,6.1,0l52.6,0c2.6,0,5.1,2.4,5.4,5.4l4.5,32.1H756.5z"/>
					<rect x="590.4" y="609.7" class="st17" width="91.3" height="54.7"/>
					<rect x="323" y="609.7" class="st17" width="91.3" height="54.7"/>
					<path class="st9" d="M325.6,560.1l38.7-8.2l41.6-57.3c0,0,11.3-20,27.9-20c41.4,0,64.2,0,76.3,0c20.2,0,33.4,21.8,33.4,21.8
						l45.9,63.4l116.8,19.2c0,0,8.3,1,12.9,13.3h-14.1h-2.4h-10.2l7.8,36.5l7.7,0h14c0,6.4,0,13.5,0,20.9h-48.7
						c-5.9-24.6-17.8-39.9-35.9-39.9c-27,0-40.2,37.9-40.2,86.1H398.9c0-46.2-13.2-86.1-40.2-86.1c-27,0-40.2,33.6-40.2,81.8h-12
						c0,0,0-75.8,0-102.8C306.5,561.8,325.6,560.1,325.6,560.1z"/>
					<g>
						<g>
							<g>
								<g>
									<path class="st10" d="M611.2,560.2c-4.3,0-9.9-2.8-12.4-6.3l-44.2-60.9c-0.3-0.4-0.6-0.9-0.8-1.3c-0.5-1.1-0.5-2.3,0.1-3.4
										c0.5-1.1,1.5-1.8,2.7-2c0.5-0.1,1-0.1,1.5-0.1h171c4.3,0,10.2,2.5,13.2,5.7l58.8,62c1.1,1.1,1.3,2.7,0.7,4.1
										c-0.6,1.4-2,2.3-3.5,2.3H611.2z"/>
									<path class="st10" d="M729,489.9c3.3,0,8.1,2.1,10.4,4.5l58.8,62h-187c-3.1,0-7.5-2.3-9.4-4.8l-44.2-60.9
										c-0.2-0.3-0.3-0.5-0.4-0.7c0.2,0,0.5-0.1,0.8-0.1H729L729,489.9z M729,482.3H558c-0.8,0-1.5,0.1-2.2,0.2
										c-2.3,0.4-4.3,1.9-5.4,4c-1.1,2.1-1.1,4.6-0.1,6.7c0.3,0.6,0.7,1.3,1.1,1.9l44.2,61c3.2,4.4,10,7.9,15.5,7.9h187
										c3.1,0,5.8-1.8,7-4.6c1.2-2.8,0.6-6.1-1.5-8.3l-58.8-62C741.2,485.2,734.4,482.3,729,482.3L729,482.3z"/>
								</g>
								<path class="st10" d="M561.9,679.2v-131L532.6,504c-9.7-15.1-14.5-16-25.3-16h-76.5c-8.2,0-12.8,11.5-12.8,11.6l-0.3,0.8
									l-23,46v50.4l40.9,82.4H561.9z"/>
								<path class="st18" d="M430.2,500.2c-2.3,0-6.2,1.7-7.9,3.5L398.4,554h167v-7.4l-30.9-46.4H430.2z"/>
								<polygon class="st10" points="473.9,564.7 481.5,564.7 487.5,484.7 476,484.7 								"/>
								<polygon class="st10" points="471.6,567 497.4,567 503.7,485.6 477.5,485.6 								"/>
								<polygon class="st16" points="471.8,567 489.4,567 495.4,484.1 477.8,484.1 								"/>
								<rect x="471.8" y="566" class="st16" width="17.6" height="117.5"/>
								<polygon class="st19" points="464.8,567 482.4,567 491.6,482.4 474,482.4 								"/>
								<rect x="464.8" y="566" class="st19" width="17.6" height="118.7"/>
								<path class="st18" d="M733.1,501.2c2.3,0,6.2,1.7,7.9,3.5l47.8,50.4v9.9h-178c-5.1,0-11.6-3.5-14.8-7.9l-7.6-10.4l14-45.4
									H733.1z"/>
								<polygon class="st10" points="673.4,564.9 689,564.9 682.9,488.4 667.3,488.4 								"/>
								<polygon class="st18" points="574.3,526.6 555,500.2 583.6,500.2 								"/>
							</g>
							<polygon class="st16" points="464.6,683.3 464.9,675 439.3,675 398.9,598 391,549.9 391,550 391,598 433.1,683.3 							"/>
						</g>
						<path class="st20" d="M588.3,589.3h11.9c1.2,0,2.1,1.1,2.1,2.4v9.4c0,1.3-1,2.4-2.1,2.4h-11.9c-1.2,0-2.1-1.1-2.1-2.4v-9.4
							C586.2,590.4,587.1,589.3,588.3,589.3z"/>
					</g>
					<path class="st16" d="M930.9,628.7l9.1,0h8.6c0,6.7,0,13.3,0,20.9c-8.4,0.3-12.1,0-29.6,0v29.8h-31.7v-50.7h7.7L930.9,628.7z"
						/>
					<g>
						<g>
							<polygon class="st21" points="859.9,515.3 873.6,515.3 873.6,485.5 849.8,486.1 							"/>
							<polygon class="st22" points="873.4,515.3 887.1,515.3 887.1,485.5 863,485.5 							"/>
							<path class="st22" d="M849.8,480.1c0-0.9,0.7-1.6,1.6-1.6h34.2c0.9,0,1.6,0.7,1.6,1.6v4.5c0,0.9-0.7,1.5-1.6,1.5l-34.2-0.3
								c-0.9,0-1.6-0.7-1.6-1.6V480.1z"/>
							<path class="st21" d="M849.8,486.1V482c0-0.9,0.7-1.6,1.6-1.6h10.4c0.9,0,1.6,0.7,1.6,1.6v7.3L849.8,486.1z"/>
							<polygon class="st23" points="887.1,491.9 887.1,515.3 873.4,515.3 865.3,491.9 							"/>
							<path class="st18" d="M877.2,492.6c0,0.9,0.7,1.6,1.6,1.6h4.6c0.9,0,1.6-0.7,1.6-1.6v-9.2c0-0.9-0.7-1.6-1.6-1.6h-4.6
								c-0.9,0-1.6,0.7-1.6,1.6V492.6z"/>
							<rect x="862.8" y="472.3" class="st24" width="16.3" height="6.2"/>
							<rect x="871.8" y="472.3" class="st25" width="7.3" height="6.2"/>
							<rect x="862.8" y="477.3" class="st26" width="16.3" height="1.2"/>
						</g>
						<g>
							<path class="st27" d="M697.5,528h-5.6v-8.5c0-1.5,1.3-2.8,2.8-2.8h4.7v5.6h-1.9V528z"/>
						</g>
						<g>
							<path class="st28" d="M694.2,524.6h-5.3v-7.1c0-2.3,1.9-4.2,4.2-4.2h13.8v5.3h-12.7V524.6z"/>
						</g>
						<rect x="717" y="478" class="st29" width="77.1" height="35.4"/>
						<path class="st30" d="M773.8,505.6c0,4.3,3.5,7.8,7.8,7.8h71.5c4.3,0,7.8-3.5,7.8-7.8v-19.9c0-4.3-3.5-7.8-7.8-7.8h-71.5
							c-4.3,0-7.8,3.5-7.8,7.8V505.6z"/>
						<path class="st29" d="M798.1,499.3c0,1.6,1.3,3,3,3h40.3c1.6,0,3-1.4,3-3v-18.2c0-1.6-1.4-3-3-3h-40.3c-1.7,0-3,1.4-3,3V499.3
							z"/>
						<g class="st31">
							<path class="st28" d="M719.1,484.8c-1.2,0-2.2-1-2.2-2.2V478c0-1.2,1-2.2,2.2-2.3l49.7-2.3c1.2-0.1,3.2-0.1,4.3-0.1h40.4
								c1.2,0,3.2,0,4.4,0h41.4c1.2,0,2.2,1,2.2,2.2V489c0,1.2-1,2.2-2.2,2.2H776c-1.2,0-2.2-1-2.2-2.2v-2c0-1.2-1-2.2-2.2-2.2
								H719.1z"/>
						</g>
						<path class="st28" d="M716.6,479.5c-1.2,0-1.7-0.9-1.1-1.9l2.5-4.6c0.6-1,2-1.9,3.2-1.9H771c1.2,0,3.2,0,4.4,0h40.4
							c1.2,0,3.2,0,4.4,0h42.3c1.2,0,2.5,0.9,2.9,2l4.4,11.8c0.4,1.1-0.2,2-1.4,2h-87c-1.2,0-2.5-0.9-2.9-2l-1.3-3.4
							c-0.4-1.1-1.7-2-2.9-2H716.6z"/>
						<g class="st32">
							<path class="st33" d="M716.6,479.5c-1.2,0-1.7-0.9-1.1-1.9l2.5-4.6c0.6-1,2-1.9,3.2-1.9H771c1.2,0,3,0,4,0s2.8,0,4,0h3.1
								c1.2,0,2.5,0.9,2.9,2l4.4,11.8c0.4,1.1-0.2,2-1.4,2h-6.8c-1.2,0-2.5-0.9-2.9-2l-1.3-3.4c-0.4-1.1-1.7-2-2.9-2H716.6z"/>
						</g>
						<g>
							<path class="st4" d="M752.6,495.8c-0.6,0-1.2-0.4-1.3-1c-0.8-3.7-4.3-11.2-7-12.1c-0.4-0.1-0.7-0.1-1.1,0.2
								c-1.2,1-1.8,2-2.3,2.9c-1.2,2.1-2.4,3.6-6.6,2.7c-0.7-0.1-1.2-0.9-1-1.6c0.1-0.7,0.9-1.2,1.6-1c2.6,0.5,2.9,0.1,3.7-1.4
								c0.6-1,1.3-2.4,3-3.7c1.1-0.9,2.4-1.1,3.7-0.7c4.5,1.6,8.1,11.4,8.7,14c0.2,0.7-0.3,1.4-1,1.6
								C752.8,495.8,752.7,495.8,752.6,495.8z"/>
						</g>
						<g>
							<path class="st4" d="M742,495.8c-0.6,0-1.2-0.4-1.3-1c-0.8-3.7-4.3-11.2-7-12.1c-0.4-0.1-0.7-0.1-1.1,0.2
								c-1.2,1-1.8,2-2.3,2.9c-1.2,2.1-2.4,3.6-6.6,2.7c-0.7-0.1-1.2-0.9-1-1.6c0.1-0.7,0.9-1.2,1.6-1c2.6,0.5,2.9,0.1,3.7-1.4
								c0.6-1,1.3-2.4,3-3.7c1.1-0.9,2.4-1.1,3.7-0.7c4.5,1.6,8.1,11.4,8.7,14c0.2,0.7-0.3,1.4-1,1.6
								C742.2,495.8,742.1,495.8,742,495.8z"/>
						</g>
						<polygon class="st28" points="767,487.1 768.9,496.4 749,498.3 747.3,489.8 						"/>
						<path class="st8" d="M767.2,488.2c-1.2,1.9-5,4.9-10,5.6l-0.7,2.7l-7.8,0.7l-1.4-7.4l6.9-0.9l13-0.9L767.2,488.2z"/>
						<rect x="815.7" y="497.8" class="st28" width="30" height="12.8"/>
						<path class="st30" d="M868.6,561c0,7.9,0,19,0,19c0,4.3-3.5,7.8-7.8,7.8h-14.3c-4.3,0-10.5-2.1-13.9-4.7l-12.1-9.4
							c-3.4-2.6-3.9-7.4-1.1-10.7l5.1-6c2.8-3.3,8.5-5.7,12.8-5.4l21,1.3c4.3,0.3,8.9,3.8,10.3,7.8L868.6,561z"/>
						<path class="st34" d="M734.4,577.2c-8.5,0-15.4,6.9-15.4,15.4s6.9,15.4,15.4,15.4h79.2v-29L734.4,577.2z"/>
						<rect x="760.8" y="515.4" class="st1" width="20.2" height="23.6"/>
						<g>
							
								<ellipse transform="matrix(0.9732 -0.2298 0.2298 0.9732 -106.9282 197.8318)" class="st4" cx="796.1" cy="558.1" rx="32.1" ry="32.1"/>
							<path class="st34" d="M806.1,562.7c0-0.9-0.7-1.6-1.6-1.6h-72.7c-0.9,0-1.9-0.6-2.4-1.3L726,554c-0.4-0.7-0.8-2-0.8-2.9v-1.2
								c0-0.9,0.6-1.9,1.4-2.3l7.2-3.7c0.8-0.4,1.4,0,1.4,0.8v4c0,0.9-0.7,1.6-1.6,1.6h-35.4c-0.9,0-1.6,0.7-1.6,1.6v31.6
								c0,0.9,0.7,1.7,1.5,1.9l6.3,1.6c0.8,0.2,1.5,1.1,1.5,1.9v0.1c0,0.9-0.2,1.6-0.5,1.6c-0.3,0-0.5,0.7-0.4,1.6l0.1,1.9
								c0.1,0.9,0.8,1.6,1.7,1.6h97.8c0.9,0,1.6-0.7,1.6-1.6V562.7z"/>
							<g>
								<g class="st32">
									<path class="st35" d="M753.6,581.3c0.8,0,1.4-0.7,1.4-1.6v-8.6c0-0.9-0.6-1.6-1.4-1.6s-1.4,0.7-1.4,1.6v8.6
										C752.2,580.6,752.8,581.3,753.6,581.3z"/>
								</g>
								<g class="st32">
									<path class="st35" d="M743.4,581.3c0.8,0,1.4-0.7,1.4-1.6v-8.6c0-0.9-0.6-1.6-1.4-1.6s-1.4,0.7-1.4,1.6v8.6
										C742,580.6,742.7,581.3,743.4,581.3z"/>
								</g>
								<g class="st32">
									<path class="st35" d="M733.3,581.3c0.8,0,1.4-0.7,1.4-1.6v-8.6c0-0.9-0.6-1.6-1.4-1.6s-1.4,0.7-1.4,1.6v8.6
										C731.9,580.6,732.5,581.3,733.3,581.3z"/>
								</g>
								<g class="st32">
									<path class="st35" d="M723.1,581.3c0.8,0,1.4-0.7,1.4-1.6v-8.6c0-0.9-0.6-1.6-1.4-1.6c-0.8,0-1.4,0.7-1.4,1.6v8.6
										C721.7,580.6,722.4,581.3,723.1,581.3z"/>
								</g>
								<g class="st32">
									<path class="st35" d="M713,581.3c0.8,0,1.4-0.7,1.4-1.6v-8.6c0-0.9-0.6-1.6-1.4-1.6s-1.4,0.7-1.4,1.6v8.6
										C711.6,580.6,712.2,581.3,713,581.3z"/>
								</g>
								<g class="st32">
									<path class="st35" d="M702.8,581.3c0.8,0,1.4-0.7,1.4-1.6v-8.6c0-0.9-0.6-1.6-1.4-1.6s-1.4,0.7-1.4,1.6v8.6
										C701.4,580.6,702.1,581.3,702.8,581.3z"/>
								</g>
							</g>
							<rect x="696.6" y="556.9" class="st36" width="68.9" height="9.8"/>
							<path class="st29" d="M790.8,584.2v6.2h-85.9c0.6-0.2,1-0.8,1-1.5v-0.1c0-0.9-0.7-1.7-1.5-1.9l-6.3-1.6
								c-0.6-0.1-1-0.6-1.3-1.1H790.8z"/>
							<path class="st35" d="M691.3,560.5c0.1,0.9,0.8,1.6,1.7,1.6h79.4c0.9,0,1.6-0.7,1.6-1.6v-21.1c0-0.9-0.7-1.6-1.6-1.6h-65.6
								c-0.9,0-1.8,0.6-2.2,1.4l-1.8,4c-0.4,0.8-1.3,1.4-2.2,1.4h-3.3c-0.9,0-1.8,0.6-2.2,1.4l-3.6,8.3c-0.3,0.8-0.6,2.1-0.5,3
								L691.3,560.5z"/>
							<path class="st1" d="M772.4,537.8c0.9,0,1.6,0.7,1.6,1.6v14.9c0,0.9-0.7,1.6-1.6,1.6h-79.9c-0.9,0-1.3-0.6-0.9-1.4l3.6-8.3
								c0.3-0.8,1.3-1.4,2.2-1.4h3.3c0.9,0,1.8-0.6,2.2-1.4l1.8-4c0.4-0.8,1.3-1.4,2.2-1.4H772.4z"/>
							<polygon class="st37" points="754.2,537.8 754.2,543.6 702.6,543.6 705.3,537.8 							"/>
							<path class="st38" d="M747.5,515c-0.3,1.7,0.9,3.1,2.6,3.1h55.3c1.7,0,3.1-1.4,3.1-3.1v-17.6c0-1.7-1.4-3.1-3.1-3.1h-51.1
								c-1.7,0-3.4,1.4-3.7,3.1L747.5,515z"/>
							<path class="st35" d="M713.5,517.8c0,7.9,1.6,13.5,7.8,19.1l0.2,0.2c-2.5,3.1-11.5,5.5-17.4,0.6c-5.1-4.2-7.8-13.4-7.8-19.9
								H713.5z"/>
							<path class="st35" d="M726.1,517.8c0,7.9,1.6,13.5,7.8,19.1l0.2,0.2c-2.5,3.1-11.5,5.5-17.4,0.6c-5.1-4.2-7.8-13.4-7.8-19.9
								H726.1z"/>
							<path class="st35" d="M738.7,517.8c0,7.9,1.6,13.5,7.8,19.1l0.2,0.2c-2.5,3.1-11.5,5.5-17.4,0.6c-5.1-4.2-7.8-13.4-7.8-19.9
								H738.7z"/>
							<path class="st35" d="M751.3,517.8c0,7.9,1.6,13.5,7.8,19.1l0.2,0.2c-2.5,3.1-11.5,5.5-17.4,0.6c-5.1-4.2-7.8-13.4-7.8-19.9
								H751.3z"/>
							<path class="st39" d="M754.3,537.7c-5.1-4.2-7.8-13.4-7.8-19.9h-2.8c0,6.5,2.6,15.7,7.8,19.9c2.9,2.3,6.4,3,9.6,2.7
								C758.8,540.1,756.4,539.3,754.3,537.7z"/>
							<path class="st39" d="M740.8,537.7c-5.1-4.2-7.8-13.4-7.8-19.9h-2.8c0,6.5,2.6,15.7,7.8,19.9c2.9,2.3,6.4,3,9.6,2.7
								C745.3,540.1,742.9,539.3,740.8,537.7z"/>
							<path class="st39" d="M727.3,537.7c-5.1-4.2-7.8-13.4-7.8-19.9h-2.8c0,6.5,2.6,15.7,7.8,19.9c2.9,2.3,6.4,3,9.6,2.7
								C731.8,540.1,729.4,539.3,727.3,537.7z"/>
							<path class="st39" d="M715.2,537.7c-5.1-4.2-7.8-13.4-7.8-19.9h-2.8c0,6.5,2.6,15.7,7.8,19.9c2.9,2.3,6.4,3,9.6,2.7
								C719.7,540.1,717.2,539.3,715.2,537.7z"/>
							<path class="st35" d="M763.9,517.8c0,7.9,1.6,13.5,7.8,19.1l0.2,0.2c-2.5,3.1-11.5,5.5-17.4,0.6c-5.1-4.2-7.8-13.4-7.8-19.9
								H763.9z"/>
							<path class="st39" d="M766.7,537.7c-5.1-4.2-7.8-13.4-7.8-19.9h-2.8c0,6.5,2.6,15.7,7.8,19.9c2.9,2.3,6.4,3,9.6,2.7
								C771.2,540.1,768.7,539.3,766.7,537.7z"/>
							<path class="st40" d="M794.2,517.8c0,6.5,3.7,12.6,7.8,19.1l0.2,0.2c-2.5,3.1-13.4,7.1-17.4,0.6c-4-6.5-7.8-13.4-7.8-19.9
								H794.2z"/>
							<polygon class="st29" points="811.1,582.6 847.6,582.6 853.2,567.1 868.3,567.1 868.3,549.5 806.9,549.5 							"/>
							<path class="st30" d="M812.2,561.6c-0.1-0.8-0.9-1.5-1.7-1.5H793c-0.9,0-2.1-0.4-2.7-1l-2.7-2.3c-0.7-0.5-1.2-1.7-1.1-2.5
								l0.2-4.4c0-0.9,0.7-1.9,1.5-2.3l7.2-3.7c0.8-0.4,1.9-1.2,2.5-1.8l4.8-4.8c0.6-0.6,0.4-1.1-0.5-1.1h-35.4
								c-0.9,0-1.6,0.7-1.6,1.6v45.7c0,0.9,0.7,1.7,1.5,1.9l6.3,1.6c0.8,0.2,1.5,1.1,1.5,1.9v0.1c0,0.9-0.7,1.6-1.6,1.6h-3.4
								c-0.9,0-1.6,0.7-1.6,1.6v1.9c0,0.9,0.7,1.6,1.6,1.6h45.4c0.9,0,1.5-0.7,1.4-1.5L812.2,561.6z"/>
							<polygon class="st38" points="809.8,563.9 871.8,564.2 871.8,529.2 809.7,529.2 							"/>
							<rect x="831.8" y="529.2" class="st41" width="19.3" height="35"/>
							<path class="st42" d="M790.8,508.4h11.4l0,0.1c10.1,1.2,18,9.8,18,20.2c0,11.1-3,20.2-14.1,20.4l1.1,0h-16.4
								c-11.2,0-11.9-9.1-11.9-20.4C778.9,517.5,779.5,508.4,790.8,508.4z"/>
							<rect x="807.4" y="515.1" class="st43" width="64.3" height="35"/>
							<g>
								<path class="st44" d="M873,558.5h-31.6v-12.4H873c3.4,0,6.2-2.8,6.2-6.2V505h12.4v34.8C891.7,550.1,883.3,558.5,873,558.5z"
									/>
							</g>
							
								<ellipse transform="matrix(0.8051 -0.5932 0.5932 0.8051 -164.5078 596.7326)" class="st45" cx="825.7" cy="548.7" rx="20.7" ry="20.7"/>
							<path class="st35" d="M864.8,547c4.2,0,7.6-3.4,7.6-7.6c0-4.2-3.4-7.6-7.6-7.6H835v15.1L864.8,547z"/>
							<g>
								<path class="st38" d="M864.1,560H862v-4.5c0-0.3-0.2-0.5-0.5-0.5h-11.2c-0.3,0-0.5,0.2-0.5,0.5v3h-2.2v-3
									c0-1.5,1.2-2.6,2.6-2.6h11.2c1.5,0,2.6,1.2,2.6,2.6V560z"/>
							</g>
							<path class="st46" d="M801.5,577.6c0,0.9-0.7,1.6-1.6,1.6h-11c-0.9,0-1.2-0.6-0.9-1.4l4.2-8.4c0.4-0.8,1.4-1.4,2.2-1.4h5.4
								c0.9,0,1.6,0.7,1.6,1.6V577.6z"/>
							<path class="st42" d="M841.5,503.6h11.4l0,0.1c10.1,1.2,18,9.8,18,20.2c0,11.1-9,20.2-20.1,20.4l0,0h-9.4
								c-11.2,0-11.9-9.1-11.9-20.4C829.6,512.8,830.3,503.6,841.5,503.6z"/>
							<g>
								
									<ellipse transform="matrix(0.8507 -0.5257 0.5257 0.8507 -164.6248 517.8251)" class="st4" cx="829.1" cy="548.7" rx="20.7" ry="20.7"/>
								<polygon class="st29" points="827.7,567.9 818.4,567.9 812.2,547.8 823.3,547.8 830.6,530.5 835.4,533 828.4,550.5 								
									"/>
								<polygon class="st35" points="832.2,567.9 816.9,567.9 809.7,549.8 826.8,549.7 835.1,530.5 839.9,533 832.9,550.5 								
									"/>
								<path class="st47" d="M828.9,533.3c8.5,0,15.4,6.9,15.4,15.4c0,8.5-6.9,15.4-15.4,15.4c-8.5,0-15.4-6.9-15.4-15.4
									C813.5,540.2,820.4,533.3,828.9,533.3L828.9,533.3z M828.9,528c-11.4,0-20.7,9.3-20.7,20.7s9.3,20.7,20.7,20.7
									c11.4,0,20.7-9.3,20.7-20.7C849.6,537.2,840.4,528,828.9,528L828.9,528z"/>
							</g>
							<g class="st32">
								<g>
									<path class="st48" d="M887.6,539.8c-1.1,0-2-0.9-2-2V535c0-1.1,0.9-2,2-2c1.1,0,2,0.9,2,2v2.7
										C889.6,538.9,888.7,539.8,887.6,539.8z"/>
								</g>
							</g>
							<g class="st32">
								<g>
									<path class="st48" d="M887.6,531.1c-1.1,0-2-0.9-2-2v-24c0-1.1,0.9-2,2-2c1.1,0,2,0.9,2,2v24
										C889.6,530.1,888.7,531.1,887.6,531.1z"/>
								</g>
							</g>
							<path class="st49" d="M851.6,544.7c-12.6-0.9-25.1-6.4-26.5-18.5c0.2,0,0.3,0,0.5,0C838.5,526.3,849.3,534.2,851.6,544.7z"/>
							<g class="st32">
								<path class="st50" d="M820.4,595.5h-29c-1.2-3.1-1.8-6.4-1.8-9.8c0-15.1,11.9-27.3,26.9-27.8L820.4,595.5z"/>
							</g>
							
								<ellipse transform="matrix(0.9868 -0.162 0.162 0.9868 -72.3415 144.3383)" class="st35" cx="848.8" cy="515.7" rx="21.3" ry="21.3"/>
							<path class="st51" d="M875.3,505.3c0,0.9,0.7,1.6,1.6,1.6h16.9c0.9,0,1.6-0.7,1.6-1.6v-8.1c0-0.9-0.7-1.6-1.6-1.6h-16.9
								c-0.9,0-1.6,0.7-1.6,1.6V505.3z"/>
							<path class="st38" d="M811.4,496.1h-8.1c-13.1,0-22.8,8.8-22.8,21.9h-24.1l13.1-23.8c0,0,35.9,0,39.6,0
								C812.1,494.2,811.4,496.1,811.4,496.1z"/>
							<path class="st52" d="M875.3,501.7v-4.5c0-0.9,0.7-1.6,1.6-1.6h16.9c0.9,0,1.6,0.7,1.6,1.6v4.5H875.3z"/>
							<rect x="875.2" y="501.6" class="st43" width="20.2" height="1.8"/>
							<polygon class="st29" points="789.7,504.6 784.6,502.2 757.3,524 778.8,530 							"/>
							<rect x="879.3" y="506.9" class="st43" width="12.4" height="4.6"/>
							<g>
								<path class="st1" d="M854.2,535.5c-5.3,0-10.3-2.1-14-5.8c-3.7-3.7-5.8-8.7-5.8-14c0-5.3,2.1-10.3,5.8-14
									c3.7-3.7,8.7-5.8,14-5.8c5.3,0,10.3,2.1,14,5.8c3.7,3.7,5.8,8.7,5.8,14C874.1,526.6,865.2,535.5,854.2,535.5L854.2,535.5z"
									/>
								<g>
									<path class="st38" d="M854.2,497.4c10.1,0,18.3,8.2,18.3,18.3c0,4.9-1.9,9.5-5.4,12.9c-3.5,3.5-8.1,5.4-12.9,5.4
										c-10.1,0-18.3-8.2-18.3-18.3c0-4.9,1.9-9.5,5.4-12.9C844.8,499.3,849.4,497.4,854.2,497.4L854.2,497.4z M854.2,494.4
										C854.2,494.4,854.2,494.4,854.2,494.4c-11.8,0-21.3,9.5-21.3,21.3c0,11.8,9.5,21.3,21.3,21.3c0,0,0,0,0,0
										c11.8,0,21.3-9.5,21.3-21.3C875.6,503.9,866,494.4,854.2,494.4L854.2,494.4z"/>
								</g>
							</g>
							<circle class="st53" cx="853.7" cy="517.3" r="14"/>
							<circle class="st27" cx="856.5" cy="515.7" r="12.2"/>
							<path class="st4" d="M868.2,515.7c0-7.1-5.8-12.9-12.9-12.9c-7.1,0-12.9,5.8-12.9,12.9s5.8,12.9,12.9,12.9
								C862.4,528.6,868.2,522.8,868.2,515.7z"/>
							<circle class="st54" cx="856.5" cy="515.7" r="8.3"/>
							<path class="st35" d="M800.5,543.7c-13.1,0-23.8-10.6-23.8-23.8c0-13.1,10.6-23.8,23.8-23.8h10.8l0.2,47.6H800.5z"/>
							<path class="st55" d="M798.9,543.7c-17.4-1.7-21.3-14.9-22.2-22.7l11.3-1.6l0.1,1.3h25.3l-0.9,23H798.9z"/>
							<circle class="st38" cx="811.1" cy="519.9" r="23.8"/>
							<g>
								<polygon class="st27" points="811.1,519.9 825.6,502.7 818.8,498.7 811.1,519.9 								"/>
								<polygon class="st27" points="811.1,519.9 833.3,523.8 833.3,516 811.1,519.9 								"/>
								<polygon class="st27" points="811.1,519.9 818.8,541.1 825.6,537.2 811.1,519.9 								"/>
								<polygon class="st27" points="811.1,519.9 796.6,537.2 803.4,541.1 811.1,519.9 								"/>
								<polygon class="st27" points="811.1,519.9 788.9,516 788.9,523.8 811.1,519.9 								"/>
								<polygon class="st27" points="811.1,519.9 803.4,498.7 796.6,502.6 811.1,519.9 								"/>
								<g>
									<path class="st56" d="M811.1,500.2c10.9,0,19.8,8.9,19.8,19.8c0,10.9-8.9,19.8-19.8,19.8c-10.9,0-19.8-8.9-19.8-19.8
										C791.3,509,800.2,500.2,811.1,500.2L811.1,500.2z M811.1,496.2c-13.1,0-23.8,10.6-23.8,23.8c0,13.1,10.6,23.8,23.8,23.8
										c13.1,0,23.8-10.6,23.8-23.8C834.9,506.8,824.2,496.2,811.1,496.2L811.1,496.2z"/>
								</g>
							</g>
							
								<ellipse transform="matrix(0.7071 -0.7071 0.7071 0.7071 -172.7984 752.2607)" class="st4" cx="821.7" cy="584.7" rx="27.8" ry="27.8"/>
							<path class="st46" d="M773,577.6c0,0.9,0.7,1.6,1.6,1.6h4.3c0.9,0,1.9-0.6,2.3-1.4l5.7-11.1c0.4-0.8,0.2-1.9-0.4-2.4l-3-2.7
								c-0.6-0.6-1.7-0.6-2.3,0l-7,6.5c-0.6,0.6-1.1,1.8-1.1,2.6V577.6z"/>
							<circle class="st35" cx="811.1" cy="519.9" r="14.3"/>
							<path class="st55" d="M738.9,517.8c0,6.5,2.6,15.7,7.8,19.9c1.5,1.3,3.3,2,5.1,2.4c-3.6,0.8-6,0.4-9.5-2.4
								c-5.1-4.2-7.8-13.4-7.8-19.9H738.9z"/>
							<path class="st55" d="M754,517.8c0,6.5,2.6,15.7,7.8,19.9c1.5,1.3,3.3,2,5.1,2.4c-3.6,0.8-8,0.4-11.5-2.4
								c-5.1-4.2-7.8-13.4-7.8-19.9H754z"/>
							
								<ellipse transform="matrix(0.2298 -0.9732 0.9732 0.2298 116.8702 1190.5358)" class="st57" cx="810.6" cy="521.4" rx="7.3" ry="7.3"/>
							<g class="st32">
								<path class="st50" d="M786.7,549.4c0,12-9.6,21.8-21.6,22.1v-37.6h15.2C784.3,537.9,786.7,543.4,786.7,549.4z"/>
							</g>
							<path class="st4" d="M868.4,545.3c-3.3,0-5.9-2.7-5.9-5.9c0-3.3,2.7-5.9,5.9-5.9h5.5L868.4,545.3L868.4,545.3z"/>
							<path class="st4" d="M811.8,527c-3.6,0-6.4-2.9-6.4-6.4c0-3.6,2.9-6.4,6.4-6.4h3.6V527H811.8z"/>
							<g>
								<g>
									
										<rect x="833" y="567.2" transform="matrix(0.3374 -0.9414 0.9414 0.3374 34.3737 1187.2579)" class="st58" width="55.1" height="4"/>
								</g>
								<g>
									
										<rect x="762.5" y="517.1" transform="matrix(0.9815 -0.1915 0.1915 0.9815 -84.8399 160.5046)" class="st58" width="50.8" height="4"/>
								</g>
								<g>
									<path class="st58" d="M818,519.5c-0.2-2-1.8-3.4-3.8-3.4c-0.4,0-0.7,0.1-1.1,0.2l-1.1-3.8c0.7-0.2,1.5-0.3,2.2-0.3
										c4,0,7.4,3,7.8,7L818,519.5z"/>
								</g>
								<g>
									<path class="st58" d="M805.5,607l-50.2-41.8c-6.8-5.5-10.2-12.1-10.2-20.1c0-11.2,7.6-20.8,18.4-23.4l0.9,3.9
										c-9,2.2-15.4,10.2-15.4,19.5c0,6.9,2.8,12.3,8.7,17l50.2,41.8L805.5,607z"/>
								</g>
								<g>
									
										<rect x="820.4" y="518.7" transform="matrix(0.9879 -0.1549 0.1549 0.9879 -72.8863 133.8553)" class="st58" width="4" height="31.8"/>
								</g>
								<g>
									
										<rect x="857.4" y="520.2" transform="matrix(0.6974 -0.7167 0.7167 0.6974 -123.2559 776.7435)" class="st45" width="1.6" height="28.2"/>
								</g>
								<g>
									
										<rect x="872.6" y="509.6" transform="matrix(0.9136 -0.4065 0.4065 0.9136 -137.5077 400.2733)" class="st45" width="1.6" height="28.3"/>
								</g>
								<g>
									
										<rect x="829.8" y="542" transform="matrix(0.899 -0.438 0.438 0.899 -152.1432 428.2465)" class="st58" width="45.1" height="4"/>
								</g>
								<g>
									<path class="st45" d="M847.7,525.2c-2.7-2.4-4.2-5.9-4.2-9.5c0-7.1,5.8-12.9,12.9-12.9c5.6,0,10.5,3.6,12.3,8.9l-1.5,0.5
										c-1.5-4.7-5.9-7.8-10.8-7.8c-6.3,0-11.4,5.1-11.4,11.4c0,3.2,1.3,6.2,3.7,8.4L847.7,525.2z"/>
								</g>
								<g>
									<path class="st58" d="M825.4,614.5c-7.4,0-14.5-2.7-20-7.7l2.7-3c4.8,4.3,10.9,6.7,17.3,6.7c10.7,0,20.1-6.4,24-16.3
										l3.7,1.5C848.6,607.1,837.7,614.5,825.4,614.5z"/>
								</g>
							</g>
							<path class="st59" d="M834.6,550.5c0-3.9-3.1-7-7-7c-3.9,0-7,3.1-7,7c0,3.9,3.1,7,7,7C831.5,557.5,834.6,554.4,834.6,550.5z"
								/>
							
								<ellipse transform="matrix(0.7071 -0.7071 0.7071 0.7071 -125.5327 775.6152)" class="st60" cx="873.5" cy="539.3" rx="7.6" ry="7.6"/>
							
								<ellipse transform="matrix(0.9871 -0.1602 0.1602 0.9871 -75.0947 147.1128)" class="st61" cx="874.9" cy="539.3" rx="7.6" ry="7.6"/>
							
								<ellipse transform="matrix(0.9732 -0.2298 0.2298 0.9732 -112.2599 205.2825)" class="st38" cx="825.4" cy="584.7" rx="27.8" ry="27.8"/>
							<g class="st12">
								<path class="st62" d="M853.2,584.7c0,0.4,0,0.9,0,1.3l-31.9,0.8l4.7-30C841.1,557.2,853.2,569.5,853.2,584.7z"/>
								<polygon class="st62" points="821.3,586.9 821.1,588.3 808.6,591.6 813.3,587.1 								"/>
							</g>
							
								<ellipse transform="matrix(0.7071 -0.7071 0.7071 0.7071 -171.6999 754.9127)" class="st28" cx="825.4" cy="584.7" rx="22" ry="22"/>
							<path class="st63" d="M823.3,587.3v1.5l-2.7,17.3c-9.7-2.2-17-10.9-17-21.2c0-0.5,0-0.9,0.1-1.4l17.6-0.5L823.3,587.3z"/>
							<path class="st36" d="M829.5,586c0-2.8-2.3-5.1-5.1-5.1c-2.8,0-5.1,2.3-5.1,5.1c0,2.8,2.3,5.1,5.1,5.1
								C827.2,591.1,829.5,588.8,829.5,586z"/>
							<path class="st4" d="M830.4,584.7c0-2.8-2.3-5.1-5.1-5.1c-2.8,0-5.1,2.3-5.1,5.1c0,2.8,2.3,5.1,5.1,5.1
								C828.1,589.8,830.4,587.5,830.4,584.7z"/>
							<path class="st64" d="M831.8,584.7c0-2.8-2.3-5.1-5.1-5.1c-2.8,0-5.1,2.3-5.1,5.1c0,2.8,2.3,5.1,5.1,5.1
								C829.5,589.8,831.8,587.5,831.8,584.7z"/>
							<path class="st65" d="M819.4,520.3c0,3-2.4,5.4-5.4,5.4c-3,0-5.4-2.4-5.4-5.4c0-3,2.4-5.4,5.4-5.4
								C817,514.9,819.4,517.3,819.4,520.3z"/>
							<path class="st4" d="M829.7,555.6c-3.9,0-7-3.1-7-7c0-3.9,3.1-7,7-7h1.9v14L829.7,555.6z"/>
							<circle class="st38" cx="831.9" cy="548.7" r="7"/>
							<path class="st35" d="M837,548.7c0-2.8-2.3-5.1-5.1-5.1c-2.8,0-5.1,2.3-5.1,5.1c0,2.8,2.3,5.1,5.1,5.1
								C834.7,553.8,837,551.5,837,548.7z"/>
							<path class="st18" d="M828.7,584.7c0-1.1-0.9-2.1-2.1-2.1c-1.1,0-2.1,0.9-2.1,2.1c0,1.1,0.9,2.1,2.1,2.1
								C827.8,586.8,828.7,585.9,828.7,584.7z"/>
							<path class="st66" d="M846.2,586.3c0-12.2-9.9-22-22-22c-6.6,0-12.5,2.9-16.6,7.5c4-5.5,10.5-9.1,17.8-9.1
								c12.2,0,22,9.9,22,22c0,5.6-2.1,10.6-5.5,14.5C844.6,595.6,846.2,591.1,846.2,586.3z"/>
							<path class="st67" d="M700.4,549.8c-0.7,2.2,0.4,3.9,2.6,3.9c2.2,0,4.5-1.8,5.3-3.9c0.7-2.2-0.4-3.9-2.6-3.9
								S701.2,547.6,700.4,549.8z"/>
							<path class="st67" d="M711.8,549.8c-0.7,2.2,0.4,3.9,2.6,3.9s4.5-1.8,5.3-3.9c0.7-2.2-0.4-3.9-2.6-3.9
								S712.5,547.6,711.8,549.8z"/>
							<path class="st67" d="M723.1,549.8c-0.7,2.2,0.4,3.9,2.6,3.9s4.5-1.8,5.3-3.9c0.7-2.2-0.4-3.9-2.6-3.9
								S723.8,547.6,723.1,549.8z"/>
							<path class="st67" d="M734.4,549.8c-0.7,2.2,0.4,3.9,2.6,3.9s4.5-1.8,5.3-3.9c0.7-2.2-0.4-3.9-2.6-3.9
								S735.2,547.6,734.4,549.8z"/>
						</g>
						<path class="st35" d="M691.5,515c-0.3,1.7,0.9,3.1,2.6,3.1h61.5c1.7,0,3.1-1.4,3.1-3.1v-17.6c0-1.7-1.4-3.1-3.1-3.1h-57.3
							c-1.7,0-3.4,1.4-3.7,3.1L691.5,515z"/>
						<path class="st55" d="M702.7,518.1c0,6.5,2.6,15.4,7.8,19.6c1.5,1.3,3.3,2,5.1,2.4c-3.6,0.8-6,0.4-9.5-2.4
							c-5.1-4.2-7.8-13.1-7.8-19.6H702.7z"/>
						<path class="st55" d="M714.9,518.1c0,6.5,2.6,15.4,7.8,19.6c1.5,1.3,3.3,2,5.1,2.4c-3.6,0.8-6,0.4-9.5-2.4
							c-5.1-4.2-7.8-13.1-7.8-19.6H714.9z"/>
						<path class="st55" d="M727.3,518.1c0,6.5,2.6,15.4,7.8,19.6c1.5,1.3,3.3,2,5.1,2.4c-3.6,0.8-6,0.4-9.5-2.4
							c-5.1-4.2-7.8-13.1-7.8-19.6H727.3z"/>
						<path class="st68" d="M748.5,525.1c0,0,0.9-3.3,5.4-4.9c3.5-1.2,8.3-2.1,8.3-2.1h-14.7c0,0,0.1,2.1,0.3,3.4
							C748,522.7,748.5,525.1,748.5,525.1z"/>
						<path class="st68" d="M735.5,525.1c0,0,0.9-3.3,5.4-4.9c3.5-1.2,8.3-2.1,8.3-2.1h-14.7c0,0,0.1,2.1,0.3,3.4
							C735,522.7,735.5,525.1,735.5,525.1z"/>
						<path class="st68" d="M721.9,525.1c0,0,0.9-3.3,5.4-4.9c3.5-1.2,8.3-2.1,8.3-2.1h-14.7c0,0,0.1,2.1,0.3,3.4
							C721.4,522.7,721.9,525.1,721.9,525.1z"/>
						<path class="st68" d="M709.3,525.1c0,0,0.9-3.3,5.4-4.9c3.5-1.2,8.3-2.1,8.3-2.1h-14.7c0,0,0.1,2.1,0.3,3.4
							C708.9,522.7,709.3,525.1,709.3,525.1z"/>
						<path class="st68" d="M697.3,525.1c0,0,0.9-3.3,5.4-4.9c3.5-1.2,8.3-2.1,8.3-2.1h-14.7c0,0,0.1,2.1,0.3,3.4
							S697.3,525.1,697.3,525.1z"/>
						<path class="st69" d="M726.1,534.8c0.5,1.2-3.7,3-5.5,0.8c-1.3-1.5-3,2.1-1.6,2.8c1.3,0.7,4.7,2.7,11.5,0.5L726.1,534.8z"/>
						<path class="st69" d="M713.6,534.7c0.5,1.2-3.7,3-5.5,0.8c-1.3-1.5-3,2.1-1.6,2.8c1.3,0.7,4.9,3,11.5,0.4L713.6,534.7z"/>
						<path class="st69" d="M739.2,534.3c0.5,1.4-4.6,3.4-6.6,0.9c-1.4-1.7-2.7,2.3-1.2,3c1.5,0.7,5.1,3,12.7,0.5L739.2,534.3z"/>
						<circle class="st70" cx="760" cy="551.3" r="20.8"/>
						<g>
							<path class="st71" d="M737.5,541.4c-2,0-4.1-0.4-6.1-1.3c-3.1,1.4-8.1,2.1-12.6,0c-4.2,1.8-10.7,2.1-15.3-1.7
								c-0.4-0.3-0.5-0.9-0.1-1.3c0.3-0.4,0.9-0.5,1.3-0.1c4.1,3.4,10,3,13.7,1.2c0.3-0.1,0.6-0.1,0.8,0c3.9,2,8.7,1.4,11.8,0
								c0.3-0.1,0.6-0.1,0.8,0c3.9,2,8.7,1.4,11.8,0c0.3-0.1,0.6-0.1,0.8,0c5.3,2.7,11.6,0.8,13.8-1.4c0-0.2,0.1-0.4,0.3-0.6
								c0.4-0.4,1-0.4,1.3,0l0.2,0.2c0.3,0.3,0.4,0.9,0.1,1.2c-2.4,2.9-9.9,5.3-16,2.4C742.2,540.8,739.9,541.4,737.5,541.4z"/>
						</g>
						<path class="st4" d="M763.9,567.2c-12.2,0-22.1-9.9-22.1-22.1c0-12.2,9.9-22.1,22.1-22.1h7v44.2H763.9z"/>
						<circle class="st38" cx="769.3" cy="545.1" r="22.1"/>
						<circle class="st28" cx="769.3" cy="545.1" r="17.5"/>
						<path class="st59" d="M772.2,545.8c0-2.5-2.1-4.5-4.7-4.5c-2.6,0-4.7,2-4.7,4.5c0,2.5,2.1,4.5,4.7,4.5
							C770.1,550.3,772.2,548.3,772.2,545.8z"/>
						<path class="st72" d="M768.8,549.4c-2.4,0-4.3-1.9-4.3-4.3c0-2.4,1.9-4.3,4.3-4.3l3.2,0v8.7l-2.7,0L768.8,549.4z"/>
						<path class="st73" d="M775.4,545.1c0-2.4-1.9-4.3-4.3-4.3s-4.3,1.9-4.3,4.3c0,2.4,1.9,4.3,4.3,4.3
							C773.4,549.4,775.4,547.5,775.4,545.1z"/>
						<path class="st63" d="M785.9,545.7c0-9.7-7.8-17.5-17.5-17.5c-3.4,0-6.5,1-9.2,2.6c2.9-2,6.4-3.2,10.1-3.2
							c9.7,0,17.5,7.8,17.5,17.5c0,6.3-3.3,11.8-8.3,14.9C783,556.8,785.9,551.6,785.9,545.7z"/>
						<path class="st18" d="M773,545.1c0-1.1-0.9-1.9-1.9-1.9c-1.1,0-1.9,0.9-1.9,1.9c0,1.1,0.9,1.9,1.9,1.9
							C772.1,547,773,546.1,773,545.1z"/>
						<path class="st35" d="M815.8,520.3c0,1-0.8,1.7-1.7,1.7c-1,0-1.7-0.8-1.7-1.7c0-1,0.8-1.7,1.7-1.7
							C815,518.5,815.8,519.3,815.8,520.3z"/>
						<path class="st18" d="M858.5,515.7c0-1.1-0.9-2-2-2c-1.1,0-2,0.9-2,2c0,1.1,0.9,2,2,2C857.6,517.7,858.5,516.8,858.5,515.7z"
							/>
						<polygon class="st29" points="694.6,518.9 776.6,518.9 776.6,517.3 692,517.3 						"/>
						<path class="st74" d="M745.9,491c0.6,1.2,3.2,2,7.1,1.8c5.8-0.3,12.2-2.5,14.4-4.8c0.8-0.9,0.9-1.6,0.5-2.3l-0.6-3l-22.3,4.8
							L745.9,491z"/>
						<path class="st24" d="M745.7,485.5c-2.2,2.4,0.7,4.1,6.5,3.8c5.8-0.3,12.2-2.5,14.4-4.8c2.2-2.4-0.7-4.1-6.5-3.8
							C754.3,480.9,747.9,483.1,745.7,485.5z"/>
						<g>
							<path class="st4" d="M731.2,495.8c-0.6,0-1.2-0.4-1.3-1c-0.8-3.7-4.3-11.2-7-12.1c-0.4-0.1-0.7-0.1-1.1,0.2
								c-1.2,1-1.8,2-2.3,2.9c-1.2,2.1-2.4,3.6-6.6,2.7c-0.7-0.1-1.2-0.9-1-1.6c0.1-0.7,0.9-1.2,1.6-1c2.6,0.5,2.9,0.1,3.7-1.4
								c0.6-1,1.3-2.4,3-3.7c1.1-0.9,2.4-1.1,3.7-0.7c4.5,1.6,8.1,11.4,8.7,14c0.2,0.7-0.3,1.4-1,1.6
								C731.4,495.8,731.3,495.8,731.2,495.8z"/>
						</g>
						<g>
							<path class="st75" d="M713.1,489.6c0.3,0,2.4-0.1,2.4-0.1l1.2,4.7H708l-0.7-2.9L713.1,489.6z"/>
							<g>
								<path class="st75" d="M707.6,490.6c-0.8,0.9,0.3,1.5,2.4,1.4c2.1-0.1,4.5-0.9,5.3-1.8s-0.3-1.5-2.4-1.4
									C710.8,488.9,708.4,489.7,707.6,490.6z"/>
								<path class="st35" d="M707.6,488c-0.7,0.8,0.2,1.3,2,1.2c1.8-0.1,3.8-0.8,4.5-1.5c0.7-0.8-0.2-1.3-2-1.2
									C710.3,486.6,708.3,487.3,707.6,488z"/>
							</g>
						</g>
						<path class="st74" d="M747.5,485.7c0.4,0.9,2.4,1.5,5.3,1.3c4.3-0.2,9.1-1.8,10.8-3.6c0.6-0.6,0.7-1.2,0.4-1.7l-0.4-2.3
							l-16.6,3.6L747.5,485.7z"/>
						<path class="st24" d="M747.4,481.6c-1.6,1.8,0.5,3.1,4.8,2.9c4.3-0.2,9.1-1.8,10.8-3.6c1.6-1.8-0.5-3.1-4.8-2.9
							C753.9,478.2,749,479.8,747.4,481.6z"/>
						<g>
							<path class="st75" d="M735.5,489.6c0.3,0,2.4-0.1,2.4-0.1l1.2,4.7h-8.7l-0.7-2.9L735.5,489.6z"/>
							<g>
								<path class="st75" d="M729.9,490.6c-0.8,0.9,0.3,1.5,2.4,1.4c2.1-0.1,4.5-0.9,5.3-1.8c0.8-0.9-0.3-1.5-2.4-1.4
									C733.2,488.9,730.8,489.7,729.9,490.6z"/>
								<path class="st35" d="M729.9,488c-0.7,0.8,0.2,1.3,2,1.2c1.8-0.1,3.8-0.8,4.5-1.5c0.7-0.8-0.2-1.3-2-1.2
									C732.6,486.6,730.6,487.3,729.9,488z"/>
							</g>
						</g>
						<g>
							<path class="st75" d="M723.9,489.6c0.3,0,2.4-0.1,2.4-0.1l1.2,4.7h-8.7l-0.7-2.9L723.9,489.6z"/>
							<g>
								<path class="st75" d="M718.4,490.6c-0.8,0.9,0.3,1.5,2.4,1.4c2.1-0.1,4.5-0.9,5.3-1.8c0.8-0.9-0.3-1.5-2.4-1.4
									C721.6,488.9,719.2,489.7,718.4,490.6z"/>
								<path class="st35" d="M718.3,488c-0.7,0.8,0.2,1.3,2,1.2c1.8-0.1,3.8-0.8,4.5-1.5c0.7-0.8-0.2-1.3-2-1.2
									C721.1,486.6,719,487.3,718.3,488z"/>
								<path class="st35" d="M707.4,488.6l-0.5-2l7-1.5l0.4,1.8c0.1,0.1,0.1,0.2,0.1,0.2l0,0l0.4,1.8c0.1,0.2,0.1,0.4-0.2,0.7
									c-0.7,0.8-2.7,1.4-4.5,1.5c-1.2,0.1-2-0.2-2.2-0.6L707.4,488.6L707.4,488.6C707.4,488.6,707.4,488.6,707.4,488.6z"/>
								<path class="st35" d="M729.7,488.6l-0.5-2l7-1.5l0.4,1.8c0.1,0.1,0.1,0.2,0.1,0.2l0,0l0.4,1.8c0.1,0.2,0.1,0.4-0.2,0.7
									c-0.7,0.8-2.7,1.4-4.5,1.5c-1.2,0.1-2-0.2-2.2-0.6L729.7,488.6L729.7,488.6C729.8,488.6,729.7,488.6,729.7,488.6z"/>
								<path class="st35" d="M718.1,488.6l-0.5-2l7-1.5l0.4,1.8c0.1,0.1,0.1,0.2,0.1,0.2l0,0l0.4,1.8c0.1,0.2,0.1,0.4-0.2,0.7
									c-0.7,0.8-2.7,1.4-4.5,1.5c-1.2,0.1-2-0.2-2.2-0.6L718.1,488.6L718.1,488.6C718.2,488.6,718.2,488.6,718.1,488.6z"/>
							</g>
						</g>
						<g>
							<path class="st76" d="M729.4,538.9h-33.2c-1.8,0-3.3-1.5-3.3-3.3V528h3.4v7.4h33V538.9z"/>
						</g>
						<g>
							<path class="st38" d="M719.1,535.6h-26c-1.8,0-3.3-1.5-3.3-3.3v-7.6h3.4v7.4h25.9V535.6z"/>
						</g>
						<g>
							<path class="st33" d="M737.8,543.5v-6c0-0.9-0.4-3-4.2-3h-4.8c-1.5,0-2.6,1.2-2.6,2.6c0,1.5,1.2,2.6,2.6,2.6h3.7v3.7H737.8z"
								/>
						</g>
						<g>
							<path class="st28" d="M727.7,543.5v-7.9c0-2.3-1.9-4.2-4.2-4.2h-4.8c-1.5,0-2.6,1.2-2.6,2.6c0,1.5,1.2,2.6,2.6,2.6h3.7v6.8
								H727.7z"/>
						</g>
						<path class="st28" d="M688.4,524.3c0,0.6,0.7,1.1,1.6,1.1h3.3c0.9,0,1.6-0.5,1.6-1.1c0-0.6-0.7-1.1-1.6-1.1h-3.3
							C689.1,523.2,688.4,523.7,688.4,524.3z"/>
						<path class="st38" d="M705.6,511.5c0,0.8,0.7,1.4,1.6,1.4h51.9c0.9,0,1.6-0.6,1.6-1.4c0-0.8-0.7-1.4-1.6-1.4h-51.9
							C706.3,510.1,705.6,510.8,705.6,511.5z"/>
						<path class="st1" d="M718.9,495.7c0,0.8,0.7,1.4,1.6,1.4h46.7c0.9,0,1.6-0.6,1.6-1.4c0-0.8-0.7-1.4-1.6-1.4h-46.7
							C719.6,494.3,718.9,494.9,718.9,495.7z"/>
						<path class="st1" d="M710.8,495.7c0,0.8,0.7,1.4,1.6,1.4h2.3c0.9,0,1.6-0.6,1.6-1.4c0-0.8-0.7-1.4-1.6-1.4h-2.3
							C711.5,494.3,710.8,494.9,710.8,495.7z"/>
						<path class="st18" d="M833.6,548.7c0-0.9-0.7-1.6-1.6-1.6c-0.9,0-1.6,0.7-1.6,1.6c0,0.9,0.7,1.6,1.6,1.6
							C832.8,550.3,833.6,549.6,833.6,548.7z"/>
					</g>
					<polygon class="st16" points="770.1,679.4 909.7,679.4 903.2,653.4 770.1,653.4 					"/>
					<path class="st9" d="M623,565l77,14c0,0,7.9,1,12.5,12.4l39.2,0c2.6,0,5.1,2.4,5.4,5.4l4.5,32.1h-10.3l-2.7-24.8
						c-0.3-2.9-2.8-5.4-5.4-5.4l-39.2,0v-2.4c-4.6-11.4-12.5-12.4-12.5-12.4L598.8,568L623,565z"/>
					<path class="st16" d="M911.9,628.8l2.7-24.8c0.3-2.9,2.8-5.4,5.4-5.4l23.6,0c2.6,0,1.1,0,1.8,0c0.5,0,1.7,0,3.3,0
						c0,0-3.1-12.3-5.7-12.3l1,5c-2.6,0-5.4,0-6.1,0c-0.7,0,0.8-0.6-1.8-0.6l-23.6,0c-2.6,0-5.1,3-5.4,5.9l-4.5,32.1H911.9z"/>
					<path class="st16" d="M628.3,565l77,14c0,0,7.9,1,12.5,12.4l39.2,0c2.6,0,5.1,2.4,5.4,5.4l4.5,32.1l-9.2,4.9l-3.9-29.7
						c-0.3-2.9-2.8-5.4-5.4-5.4l-39.2,0v-2.4c-4.6-11.4-12.5-12.4-12.5-12.4L604.2,568L628.3,565z"/>
					<path class="st16" d="M632.5,568.7c-7,1.8-9.9,2.7-24,0.1c-14.5-2.7-15.3-2.5-20.7-9.8c-5.4-7.2,5.1-4.7,6.6-3.3
						c2.7,2.4,2.8,5.4,15,8.3c6.2,1.5,23.9,0.8,23.9,0.8L632.5,568.7z"/>
					<g>
						<path class="st9" d="M731.9,628.6c0,6.4,0,13.7,0,21h-16.6c0-7.3,5.8-14.6,5.8-21H731.9z"/>
						<path class="st16" d="M636.4,609.6c1.9,0,3.6,0.2,5.4,0.5c-23.4,4.2-34.8,40.7-34.8,85.7h-10.7
							C596.2,647.5,609.4,609.6,636.4,609.6z"/>
						<path class="st16" d="M357.7,609.6c1.8,0,3.6,0.2,5.3,0.5c-23.3,4.3-34.8,36.5-34.8,81.3h-10.7
							C317.5,643.2,330.7,609.6,357.7,609.6z"/>
					</g>
				</g>
				<polygon class="st16" points="511.3,683.6 487.7,666 487.7,683.6 				"/>
				<polygon class="st16" points="509.7,483.9 491.4,497.5 491.4,483.9 				"/>
				<rect x="730.9" y="649.6" class="st9" width="14.5" height="29.5"/>
				<rect x="879.7" y="663.7" class="st9" width="7.9" height="15.8"/>
				<g class="st77">
					<path class="st18" d="M889.4,498.7c-0.5,0-1-0.5-1-1v0c0-0.6,0.5-1,1-1h3c0.5,0,1,0.4,1,1v0c0,0.5-0.5,1-1,1H889.4z"/>
				</g>
			</g>
			<g class="st31">
				<path class="st13" d="M632.4,619.4c0,1.7,1.4,3,3,3h14c1.7,0,3-1.4,3-3v-13.3c0-1.7-1.4-3-3-3h-14c-1.7,0-3,1.4-3,3V619.4z"/>
			</g>
			<rect x="635" y="615.4" class="st5" width="20.1" height="106.5"/>
			<rect x="355.4" y="615.4" class="st5" width="20.1" height="106.5"/>
			<rect x="355.4" y="615.4" class="st2" width="20.1" height="106.2"/>
			<polygon class="st2" points="635,713.5 655.1,707.6 655.1,616.5 635,616.5 			"/>
			<polygon class="st2" points="581,707.8 601.1,701.9 601.1,695.8 581,695.8 			"/>
			<rect x="720.1" y="648.8" class="st5" width="20.1" height="73.1"/>
			<polygon class="st2" points="720.1,682.1 740.2,677.4 740.2,657 720.1,657 			"/>
			<rect x="317.7" y="717.6" class="st2" width="413.9" height="28"/>
			<path class="st14" d="M625.6,619.4c0,1.7,1.4,3,3,3h14c1.7,0,3-1.4,3-3v-13.3c0-1.7-1.4-3-3-3h-14c-1.7,0-3,1.4-3,3V619.4z"/>
			<path class="st7" d="M624.7,619.4c0,1.7,1.4,3,3,3h11.8c1.7,0,3-1.4,3-3v-13.3c0-1.7-1.4-3-3-3h-11.8c-1.7,0-3,1.4-3,3V619.4z"/>
			<rect x="634.3" y="614.7" class="st7" width="28.2" height="7.8"/>
			<path class="st2" d="M660.2,614.7l2.4,7.6v0.2h-10.9c0-3.3-0.7-5.7-3.4-7.8H660.2z"/>
			<rect x="635" y="622.5" class="st8" width="20.1" height="7.8"/>
			<rect x="720.1" y="656.9" class="st8" width="20.1" height="7.8"/>
			<path class="st9" d="M672,648.6c-4-16.7-10.8-29.2-20.4-35.4l11.2-7.9l12.4,39.7L672,648.6z"/>
			<g class="st31">
				<path class="st13" d="M350.8,619.4c0,1.7,1.4,3,3,3h14c1.7,0,3-1.4,3-3v-13.3c0-1.7-1.4-3-3-3h-14c-1.7,0-3,1.4-3,3V619.4z"/>
			</g>
			<path class="st14" d="M345.6,619.4c0,1.7,1.4,3,3,3h14c1.7,0,3-1.4,3-3v-13.3c0-1.7-1.4-3-3-3h-14c-1.7,0-3,1.4-3,3V619.4z"/>
			<path class="st7" d="M345.1,619.4c0,1.7,1.4,3,3,3h11.8c1.7,0,3-1.4,3-3v-13.3c0-1.7-1.4-3-3-3h-11.8c-1.7,0-3,1.4-3,3V619.4z"/>
			<rect x="354.7" y="614.7" class="st7" width="28.2" height="7.8"/>
			<path class="st78" d="M380.5,614.7l2.4,7.6v0.2H372c0-3.3-0.7-5.7-3.4-7.8H380.5z"/>
			<rect x="355.4" y="622.5" class="st8" width="20.1" height="7.8"/>
			<path class="st9" d="M393.5,648.6c-4.2-16.7-12.2-29.5-20.9-35.2l-11.7-16.5L391,598l32.1,65L393.5,648.6z"/>
			<rect x="717.3" y="648.6" class="st7" width="26" height="8.5"/>
			<rect x="716.4" y="648.6" class="st14" width="13.1" height="8.5"/>
			<rect x="704.8" y="717.6" class="st5" width="245.7" height="28"/>
			<rect x="773.3" y="662.7" class="st9" width="114.9" height="6.5"/>
			<path class="st7" d="M857.5,615.9c0,1.7,1.4,3,3,3h11.8c1.7,0,3-1.4,3-3v-13.3c0-1.7-1.4-3-3-3h-11.8c-1.7,0-3,1.4-3,3V615.9z"/>
		</g>
	</g>
	<circle class="st7" cx="774.7" cy="280.3" r="4.8"/>
	<rect x="459.1" y="376.3" class="st79" width="11.7" height="22.2"/>
	<rect x="506.1" y="376.3" class="st80" width="11.7" height="22.2"/>
	<g>
		<g>
			<g>
				<path class="st81" d="M549.9,332.2c-0.8,0-1.7-0.3-2.4-0.8c-1.9-1.3-2.3-3.9-1-5.8l9.7-13.6c1.3-1.9,3.9-2.3,5.8-1
					c1.9,1.3,2.3,3.9,1,5.8l-9.7,13.6C552.5,331.6,551.2,332.2,549.9,332.2z"/>
			</g>
			<path class="st2" d="M562.4,322.6c1.5,0,2.8-1.2,2.8-2.8v-16.6c0-1.5-1.2-2.8-2.8-2.8h-18.1c-1.5,0-2.8,1.2-2.8,2.8v16.6
				c0,1.5,1.2,2.8,2.8,2.8H562.4z"/>
			<path class="st2" d="M773,291.4c1.5,0,2.8-1.2,2.8-2.8V272c0-1.5-1.2-2.8-2.8-2.8h-18.1c-1.5,0-2.8,1.2-2.8,2.8v16.6
				c0,1.5,1.2,2.8,2.8,2.8H773z"/>
			<path class="st81" d="M479.1,291.4c1.5,0,2.7-1.2,2.6-2.8l-1.5-28.7c-0.1-1.5-1.4-2.8-2.9-2.8l-14.4,0c-1.5,0-2.8,1.2-2.9,2.8
				l-1.6,28.7c-0.1,1.5,1.1,2.8,2.6,2.8H479.1z"/>
			
				<ellipse transform="matrix(0.9732 -0.2298 0.2298 0.9732 -47.6615 115.9022)" class="st82" cx="473.9" cy="262.6" rx="17.9" ry="17.9"/>
			<g>
				<path class="st83" d="M536.7,350.9c-0.8,0-1.7-0.3-2.4-0.8c-1.9-1.3-2.3-3.9-1-5.8l13.3-18.7c1.3-1.9,3.9-2.3,5.8-1
					c1.9,1.3,2.3,3.9,1,5.8l-13.3,18.7C539.3,350.2,538,350.9,536.7,350.9z"/>
			</g>
			<rect x="461.8" y="380.9" class="st83" width="27.7" height="89.6"/>
			<rect x="465.5" y="297.7" class="st83" width="20.3" height="139.6"/>
			<g class="st84">
				<path class="st18" d="M476.9,440c0,1.7,1.4,3,3,3h2.8c1.7,0,3-1.3,3-3v-26.2c0-1.6-1.3-3-3-3h-2.8c-1.6,0-3,1.4-3,3V440z"/>
			</g>
			<g class="st84">
				<path class="st18" d="M476.9,368.1c0,1.7,1.3,3,2.9,3s2.9-1.3,2.9-3v-17.5c0-1.6-1.3-3-2.9-3s-2.9,1.4-2.9,3V368.1z"/>
			</g>
			<g class="st85">
				<path class="st7" d="M485.8,343.8v-46.4c0-1.7-1.4-3-3-3h-14.3c-1.6,0-3,1.3-3,3v51.2L485.8,343.8z"/>
			</g>
			
				<ellipse transform="matrix(0.9732 -0.2298 0.2298 0.9732 -47.4141 118.0269)" class="st7" cx="483.1" cy="262.6" rx="17.9" ry="17.9"/>
			<g class="st85">
				<path class="st7" d="M489.5,406.5v-17c0-1.7-1.4-3-3-3h-21.7c-1.6,0-3,1.3-3,3v23.2L489.5,406.5z"/>
			</g>
			<path class="st5" d="M456.2,332.6c0,1.6,1.4,3,3,3h32.8c1.7,0,3-1.4,3-3v-25.9c0-1.6-1.3-3-3-3h-32.8c-1.6,0-3,1.4-3,3V332.6z"/>
			<rect x="452.5" y="463.2" class="st5" width="46.2" height="287.7"/>
			<path class="st5" d="M784.1,291.4c1.5,0,2.8-1.2,2.8-2.8V272c0-1.5-1.2-2.8-2.8-2.8H766c-1.5,0-2.8,1.2-2.8,2.8v16.6
				c0,1.5,1.2,2.8,2.8,2.8H784.1z"/>
			<path class="st86" d="M493.9,291.4c1.5,0,2.7-1.2,2.6-2.8L495,260c-0.1-1.5-1.4-2.8-2.9-2.8l-14.4,0c-1.5,0-2.8,1.2-2.9,2.8
				l-1.6,28.7c-0.1,1.5,1.1,2.8,2.6,2.8H493.9z"/>
			<path class="st5" d="M567.9,322.6c1.5,0,2.8-1.2,2.8-2.8v-16.6c0-1.5-1.2-2.8-2.8-2.8h-18.1c-1.5,0-2.8,1.2-2.8,2.8v16.6
				c0,1.5,1.2,2.8,2.8,2.8H567.9z"/>
			<circle class="st7" cx="559.3" cy="315.2" r="4.1"/>
			<g class="st85">
				<rect x="547" y="292.4" class="st87" width="23.7" height="22.2"/>
			</g>
			<g class="st32">
				<polygon class="st87" points="456.5,303.7 456.5,292.4 494.9,292.4 494.9,314.6 484.4,314.6 472.9,335.6 456.2,335.6 
					456.2,303.7 				"/>
			</g>
			
				<rect x="499.5" y="351.5" transform="matrix(0.6021 -0.7984 0.7984 0.6021 -78.3831 563.8366)" class="st5" width="54.1" height="18.1"/>
			<polygon class="st88" points="517.6,387.9 538.8,359 525.1,370.3 507.8,370.3 502.4,377.4 			"/>
			<path class="st28" d="M802.4,305.3c1.7,0,3-1.4,3-3v-9.7c0-1.7-1.3-3-3-3H453c-1.6,0-3,1.3-3,3v9.7c0,1.6,1.4,3,3,3H802.4z"/>
			<path class="st5" d="M681.4,308.1c1.7,0,3-1.4,3-3v-15.3c0-1.6-1.3-3-3-3l-229.4,0c-1.7,0-3,1.4-3,3v15.3c0,1.6,1.3,3,3,3
				L681.4,308.1z"/>
			<path class="st2" d="M462.4,308.1c1.6,0,3-1.4,3-3v-15.3c0-1.6-1.4-3-3-3l-10.3,0c-1.7,0-3,1.4-3,3v15.3c0,1.6,1.3,3,3,3
				L462.4,308.1z"/>
			<rect x="451.8" y="376.3" class="st5" width="72.9" height="22.2"/>
			<rect x="452.5" y="463.2" class="st79" width="14.8" height="287.7"/>
		</g>
		<path class="st89" d="M475.2,710.9c0,1.7,1.4,3,3,3h9.8c1.6,0,3-1.3,3-3V535.3c0-1.7-1.4-3-3-3h-9.8c-1.6,0-3,1.3-3,3V710.9z"/>
		<g>
			<polygon class="st18" points="475.2,698.2 490.9,710.2 490.9,694.4 475.2,682.4 			"/>
			<polygon class="st18" points="475.2,662.2 490.9,674.2 490.9,658.3 475.2,646.3 			"/>
			<polygon class="st18" points="475.2,626.1 490.9,638.1 490.9,622.3 475.2,610.3 			"/>
			<polygon class="st18" points="475.2,590 490.9,602 490.9,586.2 475.2,574.2 			"/>
			<polygon class="st18" points="475.2,554 490.9,566 490.9,550.1 475.2,538.1 			"/>
		</g>
		<path class="st7" d="M449.6,465.7c0,1.6,1.4,3,3,3h48.8c1.6,0,3-1.4,3-3V456c0-1.6-1.4-3-3-3h-48.8c-1.6,0-3,1.4-3,3V465.7z"/>
		<g class="st32">
			<path class="st18" d="M485.2,462.7c0,1.6,1.4,3,3,3h9.1c1.6,0,3-1.4,3-3V459c0-1.6-1.4-3-3-3h-9.1c-1.6,0-3,1.4-3,3V462.7z"/>
		</g>
		<g class="st32">
			<path class="st33" d="M449.6,465.7c0,1.6,1.4,3,3,3h10.8c1.6,0,3-1.4,3-3V456c0-1.6-1.4-3-3-3h-10.8c-1.6,0-3,1.4-3,3V465.7z"/>
		</g>
	</g>
	<circle class="st18" cx="874.9" cy="539.3" r="4.2"/>
	<path class="st28" d="M762.2,404.1c0,2.8,2.3,5,5,5h17c2.8,0,5-2.3,5-5v-39c0-2.8-2.3-5-5-5h-17c-2.8,0-5,2.3-5,5V404.1z"/>
	<circle class="st38" cx="775.7" cy="393.9" r="4.8"/>
	<path class="st38" d="M779.7,297.5c0-2.2-1.8-3.9-3.9-3.9c-2.2,0-3.9,1.8-3.9,3.9c0,2.2,1.8,3.9,3.9,3.9
		C777.9,301.5,779.7,299.7,779.7,297.5z"/>
	<circle class="st7" cx="485.7" cy="264.6" r="3.9"/>
	<path class="st1" d="M707.1,486c-0.7,0.8,0.2,1.3,2,1.2c1.8-0.1,3.8-0.8,4.5-1.5c0.7-0.8-0.2-1.3-2-1.2
		C709.8,484.6,707.8,485.2,707.1,486z"/>
	<path class="st1" d="M729.5,486c-0.7,0.8,0.2,1.3,2,1.2c1.8-0.1,3.8-0.8,4.5-1.5s-0.2-1.3-2-1.2C732.2,484.6,730.2,485.2,729.5,486
		z"/>
	<path class="st1" d="M717.9,486c-0.7,0.8,0.2,1.3,2,1.2c1.8-0.1,3.8-0.8,4.5-1.5c0.7-0.8-0.2-1.3-2-1.2
		C720.6,484.6,718.6,485.2,717.9,486z"/>
	<g>
		<g>
			<path class="st91" d="M452.5,730.6c-4.2,0-7.4-1.2-9.3-3.7c-4.7-5.9-2.2-17.3,1.2-33.2c1.8-8.1,3.8-17.4,5.1-27.2
				c4.6-34.9,6.6-61.8,6.6-87.2h4c0,25.6-2.1,52.7-6.6,87.8c-1.3,10-3.3,19.3-5.1,27.5c-3.1,14.2-5.5,25.5-2,29.9
				c1.2,1.5,3.2,2.2,6.2,2.2V730.6z"/>
		</g>
		<g>
			<path class="st91" d="M454.7,546.1l-2.9-2.7c5.9-6.3,5-19.8,4.3-31.7c-0.2-3.9-0.5-7.5-0.5-10.8h4c0,3.2,0.2,6.8,0.4,10.6
				C460.8,524.1,461.7,538.6,454.7,546.1z"/>
		</g>
		<path class="st91" d="M463.8,525.6c0,1.7-1.3,3-3,3h-6.4c-1.7,0-3-1.3-3-3v-49.8c0-1.7,1.3-3,3-3h6.4c1.7,0,3,1.3,3,3V525.6z"/>
		<path class="st7" d="M459.4,506.6c0,1.6-1.4,3-3,3H450c-1.6,0-3-1.4-3-3v-26.8c0-1.7,1.4-3,3-3h6.4c1.6,0,3,1.3,3,3V506.6z"/>
		<rect x="447.8" y="539" class="st83" width="19" height="85.8"/>
		<rect x="461.9" y="539" class="st92" width="4.9" height="85.8"/>
	</g>
	<rect x="443.3" y="738.8" class="st93" width="64.7" height="15.7"/>
	<rect x="443.3" y="738.8" class="st7" width="25.9" height="15.7"/>
	<polygon class="st91" points="455.9,488 454.9,490.7 447.5,503.1 441.8,496.8 443.8,490.7 454.9,487 	"/>
	<path class="st94" d="M452.5,550.6c0-1.2,1-2.2,2.2-2.2c1.2,0,2.2,1,2.2,2.2c0,1.2-1,2.2-2.2,2.2
		C453.5,552.7,452.5,551.7,452.5,550.6z"/>
	<path class="st95" d="M452.5,559.9c0-1.2,1-2.2,2.2-2.2c1.2,0,2.2,1,2.2,2.2c0,1.2-1,2.2-2.2,2.2
		C453.5,562,452.5,561.1,452.5,559.9z"/>
	<g>
		<rect x="450.3" y="568" class="st96" width="9.1" height="2.5"/>
		<rect x="450.3" y="573" class="st96" width="9.1" height="2.5"/>
		<rect x="450.3" y="578" class="st96" width="9.1" height="2.5"/>
		<rect x="450.3" y="583" class="st96" width="9.1" height="2.5"/>
		<rect x="450.3" y="588" class="st96" width="9.1" height="2.5"/>
	</g>
	<g>
		<rect x="312.4" y="731.6" class="st97" width="20.4" height="14"/>
		<rect x="359.5" y="731.6" class="st97" width="20.4" height="14"/>
		<g>
			<path class="st98" d="M293.1,559.8c-4.5,0.3-8.3-3.1-8.6-7.5l-3.1-45.5c-0.5-7.1,1.4-17.4,4.3-23.9l16.9-37.4
				c1.8-4.1,6.6-5.9,10.7-4c4.1,1.8,5.9,6.6,4,10.7l-16.9,37.4c-1.8,4-3.2,11.7-2.9,16.1l3.1,45.5
				C301,555.7,297.6,559.5,293.1,559.8z"/>
			<path class="st99" d="M300.7,551.2l-3.1-45.5c-0.3-4.4,1.1-12.1,2.9-16.1l16.9-37.4c1.8-4,0.1-8.8-3.9-10.7
				c-1.7,0.8-3.1,2.2-3.9,4l-17.9,24.1l10.1,10.5l-3.1,6.8c-2.9,6.5-4.8,16.8-4.3,23.9l3.1,45.5c0.2,3-4,1.5-1.4,2.8
				C299,557.7,300.9,554.6,300.7,551.2z"/>
			<path class="st100" d="M309.4,478.3l-20.1-9.8l11.5-29.6c2.2-5.6,9.5-6.9,15.2-4.7l8.7,5.8L309.4,478.3z"/>
			<g>
				
					<ellipse transform="matrix(0.8981 -0.4397 0.4397 0.8981 -217.975 186.3243)" class="st98" cx="293.2" cy="563.7" rx="13" ry="13"/>
				<path class="st101" d="M401.8,758.7v-10.4c0-4.6-3.8-8.4-8.4-8.4h-32.4c-4.6,0-8.4,3.8-8.4,8.4l0,10.4H401.8z"/>
				<g>
					<path class="st102" d="M384.6,736.9l-31.9-0.2c0.4-70.1-8.5-110.5-14.4-137.2c-3.2-14.5-5.7-25.9-5.7-36.8h31.9
						c0,7.4,2.1,16.9,5,29.9C375.6,620.7,385,663.2,384.6,736.9z"/>
				</g>
				<g>
					<path class="st98" d="M332.9,438.1c-6.6,0-11.9-5.3-11.9-11.9v-28.6c0-6.6,5.3-11.9,11.9-11.9c6.6,0,11.9,5.3,11.9,11.9v28.6
						C344.8,432.8,339.4,438.1,332.9,438.1z"/>
				</g>
				<path class="st103" d="M342.2,758.7v-10.4c0-4.6-3.8-8.4-8.4-8.4h-22.4c-4.6,0-8.4,3.8-8.4,8.4v10.4H342.2z"/>
				<g>
					<path class="st10" d="M306,736.8V575.5c0-8.8,7.2-16,16-16c8.8,0,16,7.2,16,16v161.2H306z"/>
				</g>
				<path class="st98" d="M313.4,394.4c0,10.5,8.6,19.1,19.1,19.1h11.4c10.5,0,19.1-8.6,19.1-19.1v-30.2c0-10.5-8.6-7.8-19.1-7.8
					h-11.4c-10.5,0-19.1,2.6-19.1,13.1V394.4z"/>
				<path class="st104" d="M352.1,352.1c0,0,0,15,0,28.4c0,36.3-17.3,33.3-17.3,33.3c22.8,1.4,28.2-10.2,28.2-19.9v-29.7
					C362.9,354.5,361.5,353.2,352.1,352.1z"/>
				<g class="st31">
					<path class="st105" d="M346,387.6c-0.5,0-1,0-1.5,0C344,387.6,344.7,387.6,346,387.6z"/>
				</g>
				<polygon class="st106" points="313.4,377.9 330.1,370.9 330.1,356.4 313.4,356.4 				"/>
				<path class="st107" d="M332.5,341.1h11.4c10.5,0,19.1,3.8,19.1,14.3v10.6h-5.6c-9.6,0-8.5,18-17.5,28.7
					c-5.1,6-21.2,9.4-26.4-1.4v-38C313.4,344.9,322,341.1,332.5,341.1z"/>
				<path class="st108" d="M299,544c0,11,9,20,20,20h25.2c11,0,20-9,20-20v-96.9c0-11-3.9-20-14.9-20l-30.3,0c-11,0-20,9-20,20V544z
					"/>
				<g>
					<path class="st98" d="M398.8,505.5c-8.9,0-18-5.9-21.5-14.1l-19.8-46.6c-1.7-4.1,0.2-8.9,4.3-10.6c4.1-1.7,8.9,0.2,10.6,4.3
						l19.8,46.6c0.9,2.2,4.4,4.3,6.7,4.2l28.6-1.4c4.5-0.2,8.3,3.2,8.5,7.7c0.2,4.5-3.2,8.3-7.7,8.5l-28.6,1.4
						C399.5,505.5,399.1,505.5,398.8,505.5z"/>
					<path class="st99" d="M372.4,438.3c-1.7-4.1-6.5-6-10.6-4.3c-4.1,1.7-6,6.5-4.3,10.6l16.4,38.1l8.8-20.4l-1.9-4.5L372.4,438.3z
						"/>
				</g>
			</g>
			<path class="st102" d="M364.5,505.6v57.6c0,13.1-10.7,23.8-23.8,23.8l-17.7,0c-13.1,0-23.8-10.7-23.8-23.8v-57.6L364.5,505.6z"/>
			<path class="st102" d="M302.1,554c0,5.5,4.5,10,10,10h15.2c5.5,0,10-4.5,10-10v-67.9c0-5.5-4.5-10-10-10l-15.2,0
				c-5.5,0-10,4.5-10,10V554z"/>
			<rect x="336.6" y="427.1" class="st108" width="26.4" height="11.8"/>
			<g>
				<path class="st102" d="M331.5,499.6c-1.9,0-3.5-1.6-3.5-3.5V462c0-14,2.8-37.6,13.1-37.6h9.6c1.9,0,3.5,1.6,3.5,3.5
					c0,1.9-1.6,3.5-3.5,3.5h-9.5c-2.2,1.2-6.3,12.6-6.3,30.6v34.1C335,498,333.4,499.6,331.5,499.6z"/>
			</g>
			<g>
				<path class="st102" d="M308.3,489.6c-1.9,0-3.5-1.6-3.5-3.5V457c0-7.9,0.6-15.5,1.6-21.2c1-5.7,2.6-11.4,7.1-11.4h5.2
					c1.9,0,3.5,1.6,3.5,3.5c0,1.9-1.6,3.5-3.5,3.5h-3.9c-1.2,2.6-3,11.5-3,25.6v29.1C311.8,488,310.2,489.6,308.3,489.6z"/>
			</g>
			<polygon class="st104" points="354.2,449.6 364.3,505.6 364.3,471.5 			"/>
		</g>
		<rect x="352.8" y="753.5" class="st8" width="49.2" height="5.2"/>
		<rect x="303" y="753.5" class="st8" width="39.3" height="5.2"/>
		
			<ellipse transform="matrix(0.8981 -0.4397 0.4397 0.8981 -173.3866 242.5796)" class="st98" cx="436.9" cy="495.5" rx="13" ry="13"/>
		<g>
			<path class="st98" d="M441.8,492.1c-1.8,0-3.4-1.4-3.5-3.3c-0.1-1.9,1.4-3.6,3.3-3.7l11.4-0.6c1.9-0.1,3.6,1.4,3.7,3.3
				c0.1,1.9-1.4,3.6-3.3,3.7l-11.4,0.6C441.9,492.1,441.9,492.1,441.8,492.1z"/>
		</g>
		<path class="st109" d="M364.1,472.1l19.7-10.5l-12.5-29.1c-2.4-5.6-9.8-6.6-15.3-4.2l-8.5,6.1L364.1,472.1z"/>
		<path class="st109" d="M338.8,435.5c1.1-3.1,3.6-6.1,5-6.9c1.4-0.7,5.1-1.5,10.3-1.5c5.1,0,8.1,0,8.1,0l-5.2,8.4H338.8z"/>
	</g>
	<path class="st109" d="M335.6,427.1c-3.3,0-12.7,0-13.5,0c-0.8,0-6.5,0.4-8.1,6.4h18.1c0,0,0.6-2,1.7-3.9
		C335.1,427.5,335.6,427.1,335.6,427.1z"/>
	<path class="st108" d="M337.4,504.6c0,5.3,0.1,18.1,14.7,18.1c14.5,0,12.3-18.1,12.3-18.1H337.4z"/>
	<path class="st108" d="M299,518.5c3.2-4.3,3.2-10.5,3-12.9l-3-3.6V518.5z"/>
</g>
<circle class="st0" cx="178.7" cy="196.7" r="32.2"/>
<circle class="st0" cx="359.5" cy="180.2" r="17.9"/>
<circle class="st0" cx="752.9" cy="28.7" r="20.3"/>
<circle class="st0" cx="1077.1" cy="707.8" r="22.8"/>
<circle class="st0" cx="42.8" cy="443" r="22.5"/>
<circle class="st0" cx="127.7" cy="386.5" r="38.3"/>
</svg>
