<?xml version="1.0" encoding="utf-8"?>
<!-- Generator: Adobe Illustrator 22.0.0, SVG Export Plug-In . SVG Version: 6.00 Build 0)  -->
<svg version="1.1" id="Layer_1" xmlns="http://www.w3.org/2000/svg" xmlns:xlink="http://www.w3.org/1999/xlink" x="0px" y="0px"
	 viewBox="0 0 24 9.1" style="enable-background:new 0 0 24 9.1;" xml:space="preserve">
<style type="text/css">
	.st0{fill:#3F51B5;}
	.st1{fill:#FFFFFF;}
	.st2{fill:#FFAE0D;}
</style>
<g>
	<path class="st0" d="M5.7,6.1H2.9C1.5,6.1,0.4,5,0.4,3.6V3c0-1.4,1.1-2.5,2.5-2.5h3.8c0.6,0,1.2,0.2,1.6,0.6L7.6,2
		C7.3,1.8,7,1.7,6.7,1.7H2.9C2.2,1.7,1.6,2.2,1.6,3v0.6c0,0.7,0.6,1.3,1.3,1.3h2.8V6.1z"/>
</g>
<g>
	<g>
		<path class="st1" d="M8,1.5C7.8,1.4,7.6,1.3,7.3,1.2l0-0.1C7.6,1.2,7.8,1.4,8,1.5z"/>
	</g>
	<g>
		<rect x="4.4" y="1" class="st1" width="1.5" height="0.2"/>
	</g>
	<g>
		<path class="st1" d="M3,1.2c-0.1,0-0.2,0-0.3,0c-0.1,0-0.2,0-0.3,0.1C2.1,1.4,1.9,1.5,1.7,1.7L1.5,1.5C1.7,1.3,2,1.2,2.2,1.1
			C2.3,1,2.5,1,2.6,1C2.7,1,2.8,1,3,1V1.2z"/>
	</g>
	<g>
		<path class="st1" d="M1.1,2.9c0,0.1,0,0.2,0,0.4v0.4c0,0.2,0,0.5,0.1,0.7L1,4.4C0.9,4.1,0.9,3.8,0.9,3.6V3.2c0-0.1,0-0.2,0-0.4
			L1.1,2.9z"/>
	</g>
	<g>
		<path class="st1" d="M2.2,5.2c0.2,0.1,0.4,0.1,0.7,0.2l0.7,0v0.2l-0.7,0c-0.3,0-0.5-0.1-0.8-0.2L2.2,5.2z"/>
	</g>
	<g>
		<path class="st1" d="M5,5.5c0.2,0,0.5,0,0.7,0C5.5,5.5,5.3,5.5,5,5.5L5,5.5z"/>
	</g>
</g>
<g>
	<g>
		<path class="st2" d="M6.1,8.3H2.3c-0.6,0-1.2-0.2-1.6-0.6l0.8-0.9C1.6,7,1.9,7.2,2.3,7.2h3.8c0.7,0,1.3-0.6,1.3-1.3V5.2
			c0-0.7-0.6-1.3-1.3-1.3H3.2V2.7h2.8c1.4,0,2.5,1.1,2.5,2.5v0.6C8.5,7.2,7.4,8.3,6.1,8.3z"/>
	</g>
</g>
<g>
	<g>
		<path class="st1" d="M1,7.3c0.2,0.1,0.4,0.2,0.6,0.3c0.1,0,0.2,0.1,0.3,0.1c0.1,0,0.2,0,0.3,0v0.2c-0.1,0-0.2,0-0.4,0
			c-0.1,0-0.2-0.1-0.3-0.1C1.4,7.6,1.2,7.4,1,7.3z"/>
	</g>
	<g>
		<rect x="3.7" y="7.6" class="st1" width="1.4" height="0.2"/>
	</g>
	<g>
		<path class="st1" d="M6.5,7.6c0.4-0.1,0.8-0.4,1.1-0.7L7.7,7C7.4,7.4,7,7.7,6.5,7.8L6.5,7.6z"/>
	</g>
	<g>
		<path class="st1" d="M7.8,5.6V5.2c0-0.1,0-0.2,0-0.3c0-0.2-0.1-0.4-0.2-0.6l0.2-0.1C7.9,4.4,8,4.6,8,4.9c0,0.1,0,0.2,0,0.4v0.4
			H7.8z"/>
	</g>
	<g>
		<path class="st1" d="M6.6,3.5c-0.1,0-0.2-0.1-0.3-0.1c-0.1,0-0.2,0-0.3,0c-0.2,0-0.5,0-0.7,0V3.2c0.2,0,0.5,0,0.7,0
			c0.1,0,0.2,0,0.4,0c0.1,0,0.2,0,0.4,0.1L6.6,3.5z"/>
	</g>
	<g>
		<polygon class="st1" points="3.8,3.4 3.2,3.3 3.8,3.3 		"/>
	</g>
</g>
<g>
	<path class="st1" d="M10.8,5.6l0.2,0l-0.2,0.8c-0.1,0.3-0.2,0.7-0.3,1c0,0.2-0.1,0.4-0.1,0.4c0,0.1,0,0.1,0.1,0.1
		c0,0,0.1,0,0.2-0.1c0.1-0.1,0.2-0.2,0.4-0.3l0.1,0.1C10.9,7.8,10.7,8,10.7,8c-0.1,0.1-0.3,0.2-0.4,0.2c-0.1,0-0.2,0-0.2,0
		c-0.1,0-0.1,0-0.1,0c0,0,0-0.1,0-0.1c0,0,0-0.1,0-0.1l0.1-0.4C9.9,7.8,9.7,7.9,9.4,8.1C9.3,8.2,9.2,8.2,9,8.2c-0.1,0-0.2,0-0.3-0.1
		C8.7,8,8.6,7.9,8.6,7.7c0-0.2,0.1-0.4,0.2-0.7c0.1-0.3,0.3-0.5,0.5-0.7C9.5,6,9.7,5.9,9.9,5.8c0.2-0.1,0.4-0.1,0.6-0.1
		c0.1,0,0.1,0,0.2,0L10.8,5.6z M10.4,6c-0.1,0-0.2,0-0.3,0C9.9,6,9.8,6,9.6,6.1C9.5,6.2,9.4,6.4,9.3,6.7C9.2,6.9,9.1,7.2,9.1,7.5
		c0,0.1,0,0.2,0.1,0.3c0,0.1,0.1,0.1,0.2,0.1c0.1,0,0.3-0.1,0.4-0.2c0.2-0.1,0.3-0.4,0.3-0.6L10.4,6z"/>
	<path class="st1" d="M11.4,6.3l-0.1-0.1c0.2-0.2,0.4-0.3,0.6-0.4c0.2-0.1,0.3-0.1,0.4-0.1c0,0,0.1,0,0.1,0c0,0,0,0,0,0.1
		c0,0,0,0.1,0,0.2c0,0.2-0.1,0.3-0.1,0.4c0.5-0.5,0.8-0.7,1.1-0.7c0.1,0,0.1,0,0.2,0.1c0,0,0.1,0.1,0.1,0.2c0,0.1,0,0.2-0.1,0.4
		c0.2-0.2,0.4-0.4,0.6-0.5s0.3-0.1,0.4-0.1c0.1,0,0.1,0,0.2,0.1s0.1,0.1,0.1,0.2c0,0.1,0,0.1,0,0.2c0,0.1-0.1,0.3-0.2,0.8
		c-0.2,0.5-0.2,0.8-0.2,0.9c0,0.1,0,0.1,0.1,0.1c0,0,0.1,0,0.1,0c0.1-0.1,0.2-0.2,0.4-0.3l0.1,0.1c0,0-0.1,0.1-0.2,0.2
		c-0.2,0.1-0.3,0.2-0.3,0.3c-0.1,0.1-0.2,0.1-0.3,0.1c-0.1,0-0.1,0-0.2-0.1c0-0.1-0.1-0.1-0.1-0.2c0-0.1,0-0.2,0-0.3
		c0-0.1,0.1-0.4,0.2-0.9c0.1-0.3,0.2-0.5,0.2-0.6c0-0.1,0-0.1-0.1-0.1C14.1,6,14,6,14,6.1c-0.2,0.1-0.3,0.2-0.4,0.4
		c-0.1,0.1-0.2,0.3-0.2,0.5c-0.1,0.5-0.2,0.9-0.3,1.2h-0.4L13,6.3c0-0.1,0-0.2,0-0.2c0,0,0-0.1,0-0.1c0,0,0,0-0.1,0
		c-0.1,0-0.1,0-0.3,0.1c-0.2,0.1-0.3,0.3-0.4,0.4c-0.1,0.1-0.2,0.3-0.2,0.6l-0.2,1h-0.4l0.3-1.4c0.1-0.4,0.2-0.6,0.2-0.7
		c0,0,0-0.1-0.1-0.1C11.8,6,11.6,6.1,11.4,6.3z"/>
	<path class="st1" d="M17.2,5.6l0.2,0l-0.2,0.8c-0.1,0.3-0.2,0.7-0.3,1c0,0.2-0.1,0.4-0.1,0.4c0,0.1,0,0.1,0.1,0.1
		c0,0,0.1,0,0.2-0.1c0.1-0.1,0.2-0.2,0.4-0.3l0.1,0.1C17.3,7.8,17.1,8,17.1,8c-0.1,0.1-0.3,0.2-0.4,0.2c-0.1,0-0.2,0-0.2,0
		c-0.1,0-0.1,0-0.1,0c0,0,0-0.1,0-0.1c0,0,0-0.1,0-0.1l0.1-0.4c-0.2,0.2-0.4,0.4-0.6,0.5c-0.1,0.1-0.3,0.1-0.4,0.1
		c-0.1,0-0.2,0-0.3-0.1c-0.1-0.1-0.1-0.3-0.1-0.4c0-0.2,0.1-0.4,0.2-0.7c0.1-0.3,0.3-0.5,0.5-0.7c0.2-0.2,0.4-0.4,0.6-0.5
		c0.2-0.1,0.4-0.1,0.6-0.1c0.1,0,0.1,0,0.2,0L17.2,5.6z M16.8,6c-0.1,0-0.2,0-0.3,0c-0.2,0-0.3,0-0.5,0.1c-0.1,0.1-0.3,0.3-0.4,0.5
		c-0.1,0.3-0.2,0.5-0.2,0.8c0,0.1,0,0.2,0.1,0.3c0,0.1,0.1,0.1,0.2,0.1c0.1,0,0.3-0.1,0.4-0.2c0.2-0.1,0.3-0.4,0.3-0.6L16.8,6z"/>
	<path class="st1" d="M19.4,6.4L19,8c0.1,0,0.2,0,0.2,0c0.1,0,0.2,0,0.3,0l0,0.1c-0.1,0-0.2,0-0.3,0c-0.1,0-0.2,0-0.3,0
		c-0.1,0-0.2,0-0.3,0c-0.2,0-0.3,0-0.6,0.1l0-0.2c0.2-0.1,0.4-0.1,0.4-0.2c0.1-0.1,0.2-0.2,0.2-0.5l0.4-1.7c0.1-0.2,0.1-0.3,0.1-0.4
		c0,0,0-0.1,0-0.1c0,0-0.1,0-0.1,0l0-0.1c0.2,0,0.4,0,0.7-0.1c0,0.1-0.1,0.2-0.1,0.3l-0.2,0.9c0.1,0,0.2,0,0.2,0
		c0.3,0,0.5-0.1,0.6-0.3c0.2-0.2,0.3-0.4,0.3-0.6c0-0.2-0.1-0.3-0.2-0.5c-0.1-0.1-0.3-0.2-0.6-0.2c-0.3,0-0.6,0.1-0.9,0.2
		c-0.3,0.2-0.5,0.3-0.7,0.6C18.1,5.8,18,6,18,6.2c0,0.2,0.1,0.3,0.2,0.5c0.1,0.1,0.1,0.1,0.1,0.1c0,0,0,0.1,0,0.1c0,0,0,0.1,0,0.1
		c0,0-0.1,0-0.1,0c-0.1,0-0.2-0.1-0.3-0.2c-0.1-0.2-0.2-0.4-0.2-0.6c0-0.3,0.1-0.6,0.3-0.9c0.2-0.3,0.4-0.5,0.8-0.7
		c0.3-0.2,0.7-0.3,1.1-0.3c0.4,0,0.7,0.1,0.9,0.2c0.2,0.1,0.3,0.3,0.3,0.6c0,0.2-0.1,0.5-0.3,0.7c-0.2,0.2-0.5,0.3-0.9,0.4
		c0.1,0.2,0.2,0.3,0.2,0.4c0,0.1,0.1,0.3,0.2,0.5c0.2,0.6,0.4,1,0.6,1.3c0.2,0.2,0.3,0.3,0.5,0.3c0.2,0,0.3-0.1,0.4-0.3
		c0-0.1,0.1-0.2,0.1-0.2c0,0,0.1-0.1,0.1-0.1c0,0,0.1,0,0.1,0.1c0,0,0,0.1,0,0.1c0,0.1-0.1,0.2-0.2,0.4c-0.1,0.1-0.3,0.2-0.5,0.2
		c-0.2,0-0.4,0-0.6-0.1c-0.2-0.1-0.3-0.2-0.5-0.5C20.2,8.3,20.1,8,20,7.7c-0.1-0.2-0.2-0.4-0.3-0.8c-0.1-0.2-0.1-0.4-0.1-0.4H19.4
		C19.5,6.4,19.4,6.4,19.4,6.4z"/>
	<path class="st1" d="M22.9,5.6c0.2,0,0.4,0.1,0.5,0.2c0.1,0.2,0.2,0.4,0.2,0.7c0,0.4-0.2,0.8-0.5,1.2c-0.3,0.4-0.6,0.5-1,0.5
		c-0.2,0-0.4-0.1-0.5-0.2c-0.1-0.1-0.2-0.3-0.2-0.6c0-0.4,0.1-0.8,0.4-1.2C22.1,5.8,22.4,5.6,22.9,5.6z M22.6,5.8
		c-0.2,0-0.3,0.1-0.5,0.4c-0.2,0.2-0.2,0.6-0.2,1c0,0.3,0,0.5,0.1,0.6C22.1,7.9,22.2,8,22.3,8c0.2,0,0.3-0.1,0.5-0.3
		c0.2-0.3,0.3-0.6,0.3-1c0-0.3,0-0.5-0.1-0.6C22.9,5.9,22.8,5.8,22.6,5.8z"/>
</g>
</svg>
